<svg width="28" height="28" viewBox="0 0 28 28" fill="currentColor" xmlns="http://www.w3.org/2000/svg">
<path d="M15.2927 7.56042C15.2927 8.30763 15.1717 9.00729 14.9297 9.65941C14.7011 10.3251 14.3717 10.9025 13.9414 11.3916C13.5111 11.8807 12.9867 12.2611 12.3682 12.5328C11.7496 12.8181 11.0572 12.9607 10.2907 12.9607H9.06039C7.55441 12.9607 6.38458 12.492 5.55092 11.5546C4.71725 10.6172 4.30041 9.33335 4.30041 7.70307V4.09608H5.93414V7.64193C5.93414 8.70162 6.19634 9.55751 6.72074 10.2096C7.24514 10.8617 8.10571 11.1878 9.30242 11.1878H10.1899C10.795 11.1878 11.3126 11.0927 11.7429 10.9025C12.1866 10.7123 12.5497 10.4542 12.8321 10.1281C13.1144 9.80206 13.3229 9.42166 13.4573 8.98692C13.5918 8.55217 13.659 8.09705 13.659 7.62156V2.13974H15.2927V7.56042ZM10.4924 1.75255H8.51582V0H10.4924V1.75255Z" fill="#36C7FC"/>
<path d="M2.74304 23.0684C2.37999 23.0684 2.03039 23.0209 1.69423 22.9258C1.35807 22.8171 1.06226 22.6405 0.806776 22.3959C0.564743 22.1514 0.369773 21.8321 0.221864 21.4381C0.0739548 21.0306 0 20.5279 0 19.9301V10.4337H1.65389V19.5633C1.65389 20.0796 1.76146 20.4939 1.9766 20.8064C2.20519 21.1189 2.56151 21.2751 3.04558 21.2751H3.44897C3.74478 21.2751 3.89269 21.5672 3.89269 22.1514C3.89269 22.7627 3.74478 23.0684 3.44897 23.0684H2.74304Z" fill="#36C7FC"/>
<path d="M3.71684 21.2751C4.73876 21.2751 5.24971 20.8404 5.24971 19.9709V19.3391C5.24971 18.1844 5.54553 17.2741 6.13717 16.6084C6.74225 15.9291 7.57592 15.5895 8.63817 15.5895C9.18947 15.5895 9.67353 15.6846 10.0904 15.8748C10.5072 16.0514 10.8568 16.3027 11.1392 16.6288C11.4215 16.9549 11.63 17.3488 11.7644 17.8108C11.9123 18.2591 11.9863 18.755 11.9863 19.2984C11.9863 20.4939 11.6837 21.4245 11.0787 22.0902C10.4736 22.7423 9.63992 23.0684 8.57766 23.0684C8.03981 23.0684 7.52213 22.9665 7.02462 22.7627C6.54055 22.5454 6.16406 22.1853 5.89514 21.6827C5.77412 21.968 5.62621 22.2057 5.45141 22.3959C5.27661 22.5725 5.09508 22.7152 4.90684 22.8239C4.71859 22.919 4.51689 22.9869 4.30175 23.0276C4.10006 23.0548 3.90509 23.0684 3.71684 23.0684H3.45464C3.27984 23.0684 3.16554 23.0005 3.11176 22.8646C3.04453 22.7152 3.01091 22.4978 3.01091 22.2125C3.01091 21.8865 3.04453 21.6487 3.11176 21.4993C3.16554 21.3498 3.27984 21.2751 3.45464 21.2751H3.71684ZM10.3727 19.4207C10.3727 18.8229 10.2383 18.3338 9.96935 17.9534C9.71387 17.573 9.2567 17.3828 8.59783 17.3828C7.99275 17.3828 7.5423 17.5662 7.24648 17.933C6.96411 18.2998 6.82293 18.8161 6.82293 19.4818C6.82293 20.0796 6.98428 20.5279 7.30699 20.8268C7.64315 21.1257 8.06671 21.2751 8.57766 21.2751C9.18275 21.2751 9.63319 21.1189 9.92901 20.8064C10.2248 20.4803 10.3727 20.0184 10.3727 19.4207Z" fill="#36C7FC"/>
<path d="M15.9912 26.2271C16.5425 26.2271 17.0265 26.1388 17.4434 25.9622C17.8602 25.7991 18.2031 25.575 18.472 25.2897C18.7544 25.0044 18.9695 24.6715 19.1174 24.2911C19.2653 23.9107 19.3527 23.5031 19.3796 23.0684H17.6652C16.9795 23.0684 16.4147 22.9937 15.971 22.8442C15.5273 22.6948 15.1777 22.4774 14.9222 22.1921C14.6667 21.9068 14.4852 21.5604 14.3776 21.1528C14.2835 20.7317 14.2364 20.263 14.2364 19.7467C14.2364 19.2305 14.3104 18.7414 14.4583 18.2795C14.6062 17.804 14.8213 17.3896 15.1037 17.0364C15.3861 16.6831 15.7357 16.4046 16.1525 16.2009C16.5828 15.9835 17.0803 15.8748 17.6451 15.8748C18.0888 15.8748 18.5123 15.9495 18.9157 16.099C19.3326 16.2484 19.6956 16.4862 20.0049 16.8122C20.3141 17.1247 20.5562 17.539 20.731 18.0553C20.9192 18.5716 21.0134 19.1965 21.0134 19.9301V21.2751H22.8084C22.9698 21.2751 23.0774 21.3498 23.1311 21.4993C23.1984 21.6351 23.232 21.8525 23.232 22.1514C23.232 22.4638 23.1984 22.6948 23.1311 22.8442C23.0774 22.9937 22.9698 23.0684 22.8084 23.0684H20.973C20.9461 23.7341 20.8117 24.3658 20.5696 24.9636C20.341 25.5614 20.0183 26.0844 19.6015 26.5327C19.1847 26.9811 18.6804 27.3343 18.0888 27.5924C17.4972 27.8641 16.8383 28 16.1122 28H14.0146L13.8936 26.2271H15.9912ZM15.8096 19.6448C15.8096 20.229 15.9441 20.6502 16.213 20.9083C16.4954 21.1528 17.0333 21.2751 17.8266 21.2751H19.42V20.0116C19.42 19.1557 19.2519 18.5444 18.9157 18.1776C18.593 17.7972 18.1359 17.607 17.5442 17.607C16.9929 17.607 16.5626 17.7904 16.2534 18.1572C15.9576 18.5104 15.8096 19.0063 15.8096 19.6448Z" fill="#36C7FC"/>
<path d="M24.6519 21.2751C25.1359 21.2751 25.5124 21.146 25.7814 20.8879C26.0637 20.6298 26.2049 20.263 26.2049 19.7875V17.179H27.8588V19.869C27.8588 20.9015 27.5832 21.6963 27.0319 22.2533C26.494 22.7967 25.741 23.0684 24.7729 23.0684H22.8165C22.6417 23.0684 22.5274 23.0005 22.4736 22.8646C22.4064 22.7152 22.3727 22.4978 22.3727 22.2125C22.3727 21.8865 22.4064 21.6487 22.4736 21.4993C22.5274 21.3498 22.6417 21.2751 22.8165 21.2751H24.6519ZM28 14.6725H26.1646V12.9607H28V14.6725ZM25.2973 14.6725H23.4619V12.9607H25.2973V14.6725Z" fill="#36C7FC"/>
</svg>
