<svg width="307" height="96" viewBox="0 0 307 96" fill="none" xmlns="http://www.w3.org/2000/svg">
<mask id="path-1-outside-1_534_117" maskUnits="userSpaceOnUse" x="26" y="14" width="254" height="72" fill="black">
<rect fill="white" x="26" y="14" width="254" height="72"/>
<path d="M43.7935 64C39.1002 64 35.7082 62.656 33.6175 59.968C31.5695 57.28 30.5455 53.184 30.5455 47.68C30.5028 42.432 30.3322 37.12 30.0335 31.744C29.7775 26.3253 29.3935 21.8667 28.8815 18.368L36.8175 16.64C37.2442 19.7547 37.5855 23.9787 37.8415 29.312C38.0975 34.6027 38.2255 39.5093 38.2255 44.032V46.464C38.1828 48.64 38.2895 50.2827 38.5455 51.392C38.8015 52.5013 39.3135 53.2907 40.0815 53.76C40.8922 54.2293 42.1295 54.464 43.7935 54.464H44.1135L44.6255 59.264L44.1135 64H43.7935ZM43.6845 54.464H44.8365C48.1645 54.464 50.8952 52.4587 53.0285 48.448C55.1618 44.48 57.2098 41.5147 59.1725 39.552C61.1352 37.5467 63.3325 36.544 65.7645 36.544C68.0685 36.544 70.0952 37.2907 71.8445 38.784C73.5938 40.2347 74.9165 42.1333 75.8125 44.48C76.7512 46.784 77.2205 49.216 77.2205 51.776C77.2205 54.2507 76.7512 56.5547 75.8125 58.688C74.8738 60.7787 73.5085 62.3573 71.7165 63.424C70.7778 64.0213 69.6258 64.32 68.2605 64.32C64.9752 64.32 60.6232 62.6133 55.2045 59.2C52.5592 62.4 49.0605 64 44.7085 64H43.4925L43.6845 54.464ZM59.3005 51.648C61.3058 52.8853 63.1192 53.8667 64.7405 54.592C66.3618 55.2747 67.5992 55.616 68.4525 55.616C68.8792 55.616 69.1778 55.552 69.3485 55.424C69.7752 55.1253 70.0952 54.6987 70.3085 54.144C70.5645 53.5467 70.6925 52.864 70.6925 52.096C70.6925 50.3893 70.2232 48.8107 69.2845 47.36C68.3458 45.8667 67.1085 45.12 65.5725 45.12C63.6525 45.12 61.5618 47.296 59.3005 51.648ZM97.606 64C92.9127 64 89.5207 62.656 87.43 59.968C85.382 57.28 84.358 53.184 84.358 47.68C84.3153 42.432 84.1447 37.12 83.846 31.744C83.59 26.3253 83.206 21.8667 82.694 18.368L90.63 16.64C91.0567 19.7547 91.398 23.9787 91.654 29.312C91.91 34.6027 92.038 39.5093 92.038 44.032V46.464C91.9953 48.64 92.102 50.2827 92.358 51.392C92.614 52.5013 93.126 53.2907 93.894 53.76C94.7047 54.2293 95.942 54.464 97.606 54.464H97.926L98.438 59.264L97.926 64H97.606ZM97.305 54.464H100.697C103.726 54.464 105.924 54.1227 107.289 53.44C108.654 52.7573 109.337 51.7333 109.337 50.368C109.337 49.472 108.889 47.7227 107.993 45.12C107.097 42.4747 106.393 40.5333 105.881 39.296L112.601 35.584C113.412 37.376 114.244 39.7867 115.097 42.816C115.993 45.8027 116.441 48.4267 116.441 50.688C116.441 55.04 115.076 58.3467 112.345 60.608C109.657 62.8693 105.774 64 100.697 64H97.305V54.464ZM102.297 69.056C103.62 70.336 104.921 71.6373 106.201 72.96L108.185 74.944L102.297 80.832L96.345 74.944L102.297 69.056ZM136.988 52.16C139.206 53.184 141.638 53.9733 144.284 54.528C145.137 52.9067 146.097 51.2853 147.164 49.664C147.249 48.128 147.292 46.8267 147.292 45.76C147.292 41.5787 147.057 36.6293 146.588 30.912C146.118 25.1947 145.67 21.0347 145.244 18.432L153.244 16.64C153.585 19.2427 153.905 22.784 154.204 27.264C154.545 31.744 154.694 36.224 154.652 40.704C159.089 36.7787 163.462 34.816 167.772 34.816C170.246 34.816 172.444 35.3493 174.364 36.416C176.326 37.44 177.862 38.8907 178.972 40.768C180.081 42.6453 180.636 44.7573 180.636 47.104C180.636 50.7307 179.526 53.9093 177.308 56.64C175.132 59.328 172.081 61.3973 168.156 62.848C164.273 64.2987 159.878 65.024 154.972 65.024C151.217 65.024 147.569 64.6613 144.028 63.936C140.486 63.168 137.244 62.1227 134.299 60.8L136.988 52.16ZM151.388 55.552C152.326 55.6373 153.009 55.68 153.436 55.68C157.361 55.808 160.881 55.4667 163.996 54.656C167.153 53.8027 169.585 52.7147 171.292 51.392C173.041 50.0267 173.916 48.6827 173.916 47.36C173.916 46.3787 173.446 45.5467 172.508 44.864C171.569 44.1387 170.289 43.776 168.668 43.776C165.809 43.776 162.865 44.8 159.836 46.848C156.849 48.8533 154.033 51.7547 151.388 55.552ZM200.669 64C195.975 64 192.583 62.656 190.493 59.968C188.445 57.28 187.421 53.184 187.421 47.68C187.378 42.432 187.207 37.12 186.909 31.744C186.653 26.3253 186.269 21.8667 185.757 18.368L193.693 16.64C194.119 19.7547 194.461 23.9787 194.717 29.312C194.973 34.6027 195.101 39.5093 195.101 44.032V46.464C195.058 48.64 195.165 50.2827 195.421 51.392C195.677 52.5013 196.189 53.2907 196.957 53.76C197.767 54.2293 199.005 54.464 200.669 54.464H200.989L201.501 59.264L200.989 64H200.669ZM200.367 54.464H200.752C203.994 54.464 206.341 54.1227 207.792 53.44C209.285 52.7573 210.138 51.648 210.352 50.112C210.437 49.4293 210.48 48.896 210.48 48.512C210.48 47.488 210.373 46.3147 210.16 44.992C209.946 43.6267 209.818 42.7733 209.776 42.432L216.432 41.152C216.986 44.3093 217.264 47.8293 217.264 51.712C217.434 52.4373 217.904 53.0773 218.672 53.632C219.482 54.1867 220.613 54.464 222.064 54.464H222.448L222.96 59.264L222.448 64H222.064C220.357 64 218.757 63.5947 217.264 62.784C215.813 61.9733 214.576 60.9067 213.552 59.584C212.314 61.12 210.629 62.2507 208.496 62.976C206.405 63.6587 203.824 64 200.752 64H200.367V54.464ZM204.336 69.12C205.658 70.4 206.96 71.7013 208.24 73.024L210.224 75.008L204.336 80.896L198.383 75.008L204.336 69.12ZM221.741 54.464H224.877C229.101 54.464 232.088 54.1013 233.837 53.376C235.586 52.6507 236.461 51.5413 236.461 50.048C236.418 49.1093 235.928 47.3173 234.989 44.672C234.05 41.984 233.368 40.192 232.941 39.296L239.725 35.584C240.578 37.376 241.432 39.7653 242.285 42.752C243.138 45.696 243.565 48.2773 243.565 50.496C243.522 54.848 242.05 58.1973 239.149 60.544C236.248 62.848 231.96 64 226.285 64H221.805L221.741 54.464ZM227.757 22.4L233.133 27.776L227.757 33.216L225.965 31.424L222.317 27.776L227.757 22.4ZM239.021 22.4L244.397 27.776L239.021 33.216L237.229 31.424L233.581 27.776L239.021 22.4ZM240.562 74.624C243.378 73.472 245.96 72.128 248.307 70.592C250.653 69.0987 252.488 67.6053 253.811 66.112C255.176 64.6187 255.859 63.3387 255.859 62.272C255.859 60.5227 254.728 55.7653 252.467 48L252.147 46.72L259.315 43.904C260.339 46.848 261.149 50.0053 261.747 53.376C262.344 56.704 262.643 59.6693 262.643 62.272C262.643 66.4533 261 70.3147 257.715 73.856C254.429 77.44 250.013 80.384 244.467 82.688L240.562 74.624ZM269.346 63.616C269.773 60.8 269.986 56.448 269.986 50.56C269.986 44.672 269.794 38.5067 269.41 32.064C269.069 25.5787 268.663 21.0347 268.194 18.432L276.194 16.576C276.578 19.0507 276.919 23.3813 277.218 29.568C277.517 35.7547 277.666 41.8347 277.666 47.808C277.666 55.1893 277.41 60.736 276.898 64.448L269.346 63.616Z"/>
</mask>
<path d="M33.6175 59.968L32.0266 61.1801L32.0327 61.188L32.0388 61.1959L33.6175 59.968ZM30.5455 47.68H32.5455V47.6719L32.5454 47.6637L30.5455 47.68ZM30.0335 31.744L28.0357 31.8384L28.0361 31.8467L28.0366 31.8549L30.0335 31.744ZM28.8815 18.368L28.456 16.4138L26.6323 16.8109L26.9026 18.6576L28.8815 18.368ZM36.8175 16.64L38.799 16.3686L38.5054 14.2256L36.392 14.6858L36.8175 16.64ZM37.8415 29.312L35.8438 29.4079L35.8438 29.4087L37.8415 29.312ZM38.2255 46.464L40.2251 46.5032L40.2255 46.4836V46.464H38.2255ZM38.5455 51.392L40.4943 50.9423L38.5455 51.392ZM40.0815 53.76L39.0386 55.4666L39.0589 55.479L39.0794 55.4909L40.0815 53.76ZM44.1135 54.464L46.1022 54.2519L45.9115 52.464H44.1135V54.464ZM44.6255 59.264L46.6139 59.479L46.637 59.2654L46.6142 59.0519L44.6255 59.264ZM44.1135 64V66H45.9089L46.1019 64.215L44.1135 64ZM43.7935 62C39.4689 62 36.7778 60.7737 35.1962 58.7401L32.0388 61.1959C34.6385 64.5383 38.7315 66 43.7935 66V62ZM35.2084 58.7559C33.5466 56.5749 32.5455 52.9996 32.5455 47.68H28.5455C28.5455 53.3684 29.5924 57.9851 32.0266 61.1801L35.2084 58.7559ZM32.5454 47.6637C32.5025 42.3834 32.3308 37.0398 32.0304 31.6331L28.0366 31.8549C28.3335 37.2002 28.5032 42.4806 28.5456 47.6963L32.5454 47.6637ZM32.0313 31.6496C31.7736 26.1961 31.3855 21.6662 30.8604 18.0784L26.9026 18.6576C27.4015 22.0671 27.7814 26.4546 28.0357 31.8384L32.0313 31.6496ZM29.307 20.3222L37.243 18.5942L36.392 14.6858L28.456 16.4138L29.307 20.3222ZM34.836 16.9114C35.2511 19.9416 35.589 24.0989 35.8438 29.4079L39.8392 29.2161C39.582 23.8584 39.2372 19.5678 38.799 16.3686L34.836 16.9114ZM35.8438 29.4087C36.0985 34.6724 36.2255 39.5465 36.2255 44.032H40.2255C40.2255 39.4722 40.0965 34.5329 39.8392 29.2153L35.8438 29.4087ZM36.2255 44.032V46.464H40.2255V44.032H36.2255ZM36.2259 46.4248C36.1824 48.6449 36.284 50.4866 36.5967 51.8417L40.4943 50.9423C40.295 50.0788 40.1833 48.6351 40.2251 46.5032L36.2259 46.4248ZM36.5967 51.8417C36.9398 53.3283 37.698 54.6473 39.0386 55.4666L41.1244 52.0534C40.929 51.934 40.6632 51.6744 40.4943 50.9423L36.5967 51.8417ZM39.0794 55.4909C40.3486 56.2256 42.0133 56.464 43.7935 56.464V52.464C42.2457 52.464 41.4357 52.233 41.0836 52.0291L39.0794 55.4909ZM43.7935 56.464H44.1135V52.464H43.7935V56.464ZM42.1248 54.6761L42.6368 59.4761L46.6142 59.0519L46.1022 54.2519L42.1248 54.6761ZM42.6371 59.049L42.1251 63.785L46.1019 64.215L46.6139 59.479L42.6371 59.049ZM44.1135 62H43.7935V66H44.1135V62ZM43.6845 54.464V52.464H41.7244L41.6849 54.4237L43.6845 54.464ZM53.0285 48.448L51.2669 47.5009L51.2628 47.5088L53.0285 48.448ZM59.1725 39.552L60.5867 40.9662L60.5943 40.9586L60.6018 40.9509L59.1725 39.552ZM71.8445 38.784L70.546 40.3051L70.5568 40.3144L70.5678 40.3235L71.8445 38.784ZM75.8125 44.48L73.9441 45.1934L73.952 45.2141L73.9603 45.2346L75.8125 44.48ZM75.8125 58.688L77.637 59.5072L77.6401 59.5003L77.6431 59.4935L75.8125 58.688ZM71.7165 63.424L70.6935 61.7054L70.6679 61.7207L70.6427 61.7367L71.7165 63.424ZM55.2045 59.2L56.2705 57.5078L54.7831 56.5708L53.663 57.9257L55.2045 59.2ZM43.4925 64L41.4929 63.9597L41.4518 66H43.4925V64ZM59.3005 51.648L57.5258 50.7258L56.6691 52.3745L58.2503 53.3501L59.3005 51.648ZM64.7405 54.592L63.9238 56.4176L63.944 56.4267L63.9644 56.4353L64.7405 54.592ZM69.3485 55.424L68.2016 53.7855L68.1747 53.8043L68.1485 53.824L69.3485 55.424ZM70.3085 54.144L68.4702 53.3562L68.4554 53.3908L68.4418 53.426L70.3085 54.144ZM69.2845 47.36L67.5912 48.4243L67.5982 48.4355L67.6054 48.4465L69.2845 47.36ZM43.6845 56.464H44.8365V52.464H43.6845V56.464ZM44.8365 56.464C49.169 56.464 52.4589 53.7776 54.7942 49.3872L51.2628 47.5088C49.3314 51.1397 47.16 52.464 44.8365 52.464V56.464ZM54.7901 49.3951C56.8809 45.5061 58.8206 42.7323 60.5867 40.9662L57.7583 38.1378C55.599 40.297 53.4428 43.4539 51.2669 47.5009L54.7901 49.3951ZM60.6018 40.9509C62.2512 39.2657 63.9541 38.544 65.7645 38.544V34.544C62.7109 34.544 60.0192 35.8276 57.7432 38.1531L60.6018 40.9509ZM65.7645 38.544C67.5934 38.544 69.1594 39.1215 70.546 40.3051L73.143 37.2629C71.031 35.4599 68.5436 34.544 65.7645 34.544V38.544ZM70.5678 40.3235C72.0249 41.5318 73.1577 43.1338 73.9441 45.1934L77.6809 43.7666C76.6753 41.1329 75.1628 38.9375 73.1212 37.2445L70.5678 40.3235ZM73.9603 45.2346C74.7985 47.292 75.2205 49.4671 75.2205 51.776H79.2205C79.2205 48.9649 78.7038 46.276 77.6647 43.7254L73.9603 45.2346ZM75.2205 51.776C75.2205 53.9908 74.802 56.0185 73.9819 57.8825L77.6431 59.4935C78.7003 57.0908 79.2205 54.5106 79.2205 51.776H75.2205ZM73.988 57.8688C73.2002 59.6233 72.0973 60.8698 70.6935 61.7054L72.7395 65.1426C74.9197 63.8448 76.5474 61.934 77.637 59.5072L73.988 57.8688ZM70.6427 61.7367C70.091 62.0878 69.3321 62.32 68.2605 62.32V66.32C69.9195 66.32 71.4647 65.9549 72.7903 65.1113L70.6427 61.7367ZM68.2605 62.32C65.568 62.32 61.6222 60.8789 56.2705 57.5078L54.1385 60.8922C59.6242 64.3478 64.3823 66.32 68.2605 66.32V62.32ZM53.663 57.9257C51.4182 60.6412 48.4972 62 44.7085 62V66C49.6238 66 53.7001 64.1588 56.746 60.4743L53.663 57.9257ZM44.7085 62H43.4925V66H44.7085V62ZM45.4921 64.0403L45.6841 54.5043L41.6849 54.4237L41.4929 63.9597L45.4921 64.0403ZM58.2503 53.3501C60.308 54.6197 62.2009 55.6469 63.9238 56.4176L65.5572 52.7664C64.0374 52.0865 62.3036 51.1509 60.3507 49.9459L58.2503 53.3501ZM63.9644 56.4353C65.6259 57.1349 67.1755 57.616 68.4525 57.616V53.616C68.0229 53.616 67.0977 53.4145 65.5166 52.7487L63.9644 56.4353ZM68.4525 57.616C68.9499 57.616 69.8246 57.5669 70.5485 57.024L68.1485 53.824C68.2649 53.7367 68.3689 53.6857 68.4392 53.6569C68.5095 53.6282 68.5591 53.6163 68.5774 53.6124C68.608 53.6058 68.5759 53.616 68.4525 53.616V57.616ZM70.4954 57.0625C71.2927 56.5043 71.8397 55.7342 72.1752 54.862L68.4418 53.426C68.3506 53.6631 68.2576 53.7463 68.2016 53.7855L70.4954 57.0625ZM72.1468 54.9318C72.5271 54.0446 72.6925 53.0864 72.6925 52.096H68.6925C68.6925 52.6416 68.6019 53.0488 68.4702 53.3562L72.1468 54.9318ZM72.6925 52.096C72.6925 49.9988 72.109 48.0436 70.9636 46.2735L67.6054 48.4465C68.3374 49.5778 68.6925 50.7799 68.6925 52.096H72.6925ZM70.9778 46.2957C69.7371 44.3218 67.9084 43.12 65.5725 43.12V47.12C66.3086 47.12 66.9546 47.4116 67.5912 48.4243L70.9778 46.2957ZM65.5725 43.12C63.8253 43.12 62.3344 44.1047 61.1223 45.3663C59.8881 46.6509 58.6969 48.472 57.5258 50.7258L61.0752 52.5702C62.1654 50.472 63.1502 49.0291 64.0067 48.1376C64.8852 47.2233 65.3997 47.12 65.5725 47.12V43.12ZM87.43 59.968L85.8391 61.1801L85.8452 61.188L85.8513 61.1959L87.43 59.968ZM84.358 47.68H86.358V47.6719L86.3579 47.6637L84.358 47.68ZM83.846 31.744L81.8482 31.8384L81.8486 31.8467L81.8491 31.8549L83.846 31.744ZM82.694 18.368L82.2685 16.4138L80.4448 16.8109L80.7151 18.6576L82.694 18.368ZM90.63 16.64L92.6115 16.3686L92.3179 14.2256L90.2045 14.6858L90.63 16.64ZM91.654 29.312L89.6563 29.4079L89.6563 29.4087L91.654 29.312ZM92.038 46.464L94.0376 46.5032L94.038 46.4836V46.464H92.038ZM92.358 51.392L94.3068 50.9423L92.358 51.392ZM93.894 53.76L92.8511 55.4666L92.8714 55.479L92.8919 55.4909L93.894 53.76ZM97.926 54.464L99.9147 54.2519L99.724 52.464H97.926V54.464ZM98.438 59.264L100.426 59.479L100.45 59.2654L100.427 59.0519L98.438 59.264ZM97.926 64V66H99.7214L99.9144 64.215L97.926 64ZM97.606 62C93.2814 62 90.5903 60.7737 89.0087 58.7401L85.8513 61.1959C88.451 64.5383 92.544 66 97.606 66V62ZM89.0209 58.7559C87.3591 56.5749 86.358 52.9996 86.358 47.68H82.358C82.358 53.3684 83.4049 57.9851 85.8391 61.1801L89.0209 58.7559ZM86.3579 47.6637C86.315 42.3834 86.1433 37.0398 85.8429 31.6331L81.8491 31.8549C82.146 37.2002 82.3157 42.4806 82.3581 47.6963L86.3579 47.6637ZM85.8438 31.6496C85.5861 26.1961 85.198 21.6662 84.6729 18.0784L80.7151 18.6576C81.214 22.0671 81.5939 26.4546 81.8482 31.8384L85.8438 31.6496ZM83.1195 20.3222L91.0555 18.5942L90.2045 14.6858L82.2685 16.4138L83.1195 20.3222ZM88.6485 16.9114C89.0636 19.9416 89.4015 24.0989 89.6563 29.4079L93.6517 29.2161C93.3945 23.8584 93.0497 19.5678 92.6115 16.3686L88.6485 16.9114ZM89.6563 29.4087C89.911 34.6724 90.038 39.5465 90.038 44.032H94.038C94.038 39.4722 93.909 34.5329 93.6517 29.2153L89.6563 29.4087ZM90.038 44.032V46.464H94.038V44.032H90.038ZM90.0384 46.4248C89.9949 48.6449 90.0965 50.4866 90.4092 51.8417L94.3068 50.9423C94.1075 50.0788 93.9958 48.6351 94.0376 46.5032L90.0384 46.4248ZM90.4092 51.8417C90.7523 53.3283 91.5105 54.6473 92.8511 55.4666L94.9369 52.0534C94.7415 51.934 94.4757 51.6744 94.3068 50.9423L90.4092 51.8417ZM92.8919 55.4909C94.1611 56.2256 95.8258 56.464 97.606 56.464V52.464C96.0582 52.464 95.2482 52.233 94.8961 52.0291L92.8919 55.4909ZM97.606 56.464H97.926V52.464H97.606V56.464ZM95.9373 54.6761L96.4493 59.4761L100.427 59.0519L99.9147 54.2519L95.9373 54.6761ZM96.4496 59.049L95.9376 63.785L99.9144 64.215L100.426 59.479L96.4496 59.049ZM97.926 62H97.606V66H97.926V62ZM97.305 54.464V52.464H95.305V54.464H97.305ZM107.993 45.12L106.099 45.7616L106.102 45.771L107.993 45.12ZM105.881 39.296L104.914 37.5453L103.35 38.4094L104.033 40.0607L105.881 39.296ZM112.601 35.584L114.423 34.7597L113.53 32.7858L111.634 33.8333L112.601 35.584ZM115.097 42.816L113.172 43.3583L113.176 43.3745L113.181 43.3907L115.097 42.816ZM112.345 60.608L111.069 59.0676L111.063 59.0726L111.057 59.0775L112.345 60.608ZM97.305 64H95.305V66H97.305V64ZM102.297 69.056L103.688 67.6188L102.282 66.2579L100.89 67.6342L102.297 69.056ZM106.201 72.96L104.764 74.3508L104.775 74.3626L104.787 74.3742L106.201 72.96ZM108.185 74.944L109.599 76.3582L111.013 74.944L109.599 73.5298L108.185 74.944ZM102.297 80.832L100.89 82.2538L102.305 83.6528L103.711 82.2462L102.297 80.832ZM96.345 74.944L94.9385 73.5222L93.5012 74.944L94.9385 76.3658L96.345 74.944ZM97.305 56.464H100.697V52.464H97.305V56.464ZM100.697 56.464C103.789 56.464 106.381 56.1298 108.183 55.2289L106.395 51.6511C105.466 52.1155 103.664 52.464 100.697 52.464V56.464ZM108.183 55.2289C109.103 54.7689 109.913 54.1329 110.489 53.2694C111.073 52.3934 111.337 51.4006 111.337 50.368H107.337C107.337 50.7007 107.26 50.9026 107.161 51.0506C107.054 51.2111 106.84 51.4284 106.395 51.6511L108.183 55.2289ZM111.337 50.368C111.337 49.6579 111.171 48.7956 110.938 47.8878C110.696 46.9415 110.342 45.7979 109.884 44.469L106.102 45.771C106.54 47.0448 106.858 48.0772 107.064 48.8802C107.279 49.7217 107.337 50.1821 107.337 50.368H111.337ZM109.887 44.4784C108.989 41.8259 108.268 39.8326 107.729 38.5313L104.033 40.0607C104.518 41.234 105.205 43.1234 106.099 45.7616L109.887 44.4784ZM106.848 41.0467L113.568 37.3347L111.634 33.8333L104.914 37.5453L106.848 41.0467ZM110.779 36.4083C111.531 38.0716 112.332 40.3755 113.172 43.3583L117.022 42.2737C116.156 39.1978 115.292 36.6804 114.423 34.7597L110.779 36.4083ZM113.181 43.3907C114.041 46.2561 114.441 48.6793 114.441 50.688H118.441C118.441 48.174 117.945 45.3493 117.013 42.2413L113.181 43.3907ZM114.441 50.688C114.441 54.5929 113.238 57.2718 111.069 59.0676L113.621 62.1484C116.913 59.4215 118.441 55.4871 118.441 50.688H114.441ZM111.057 59.0775C108.861 60.9255 105.509 62 100.697 62V66C106.04 66 110.453 64.8131 113.633 62.1385L111.057 59.0775ZM100.697 62H97.305V66H100.697V62ZM99.305 64V54.464H95.305V64H99.305ZM100.906 70.4932C102.213 71.758 103.499 73.0439 104.764 74.3508L107.638 71.5692C106.343 70.2308 105.026 68.914 103.688 67.6188L100.906 70.4932ZM104.787 74.3742L106.771 76.3582L109.599 73.5298L107.615 71.5458L104.787 74.3742ZM106.771 73.5298L100.883 79.4178L103.711 82.2462L109.599 76.3582L106.771 73.5298ZM103.704 79.4102L97.7515 73.5222L94.9385 76.3658L100.89 82.2538L103.704 79.4102ZM97.7515 76.3658L103.704 70.4778L100.89 67.6342L94.9385 73.5222L97.7515 76.3658ZM136.988 52.16L137.826 50.3441L135.755 49.3885L135.078 51.5659L136.988 52.16ZM144.284 54.528L143.873 56.4854L145.35 56.7952L146.053 55.4595L144.284 54.528ZM147.163 49.664L148.834 50.7632L149.131 50.313L149.16 49.7749L147.163 49.664ZM146.587 30.912L144.594 31.0756L146.587 30.912ZM145.243 18.432L144.806 16.4804L142.964 16.8929L143.27 18.7556L145.243 18.432ZM153.243 16.64L155.227 16.3799L154.942 14.21L152.806 14.6884L153.243 16.64ZM154.204 27.264L152.208 27.397L152.209 27.4065L152.209 27.4159L154.204 27.264ZM154.652 40.704L152.652 40.685L152.609 45.1813L155.977 42.202L154.652 40.704ZM174.363 36.416L173.392 38.1643L173.415 38.177L173.438 38.1892L174.363 36.416ZM178.971 40.768L177.25 41.7855L178.971 40.768ZM177.307 56.64L175.755 55.3788L175.753 55.3816L177.307 56.64ZM168.156 62.848L167.462 60.972L167.456 60.9745L168.156 62.848ZM144.027 63.936L143.604 65.8906L143.615 65.893L143.626 65.8953L144.027 63.936ZM134.299 60.8L132.39 60.2059L131.863 61.8981L133.48 62.6243L134.299 60.8ZM151.387 55.552L149.746 54.4088L147.78 57.2323L151.206 57.5438L151.387 55.552ZM153.436 55.68L153.501 53.6811L153.468 53.68H153.436V55.68ZM163.995 54.656L164.499 56.5915L164.508 56.5892L164.517 56.5867L163.995 54.656ZM171.292 51.392L172.517 52.9728L172.522 52.9686L171.292 51.392ZM172.508 44.864L171.285 46.4466L171.308 46.4644L171.331 46.4815L172.508 44.864ZM159.835 46.848L160.95 48.5084L160.956 48.5049L159.835 46.848ZM136.149 53.9759C138.518 55.0693 141.096 55.9031 143.873 56.4854L144.694 52.5706C142.181 52.0436 139.894 51.2987 137.826 50.3441L136.149 53.9759ZM146.053 55.4595C146.875 53.8989 147.801 52.3335 148.834 50.7632L145.493 48.5648C144.392 50.2372 143.399 51.9144 142.514 53.5965L146.053 55.4595ZM149.16 49.7749C149.247 48.2166 149.292 46.8759 149.292 45.76H145.292C145.292 46.7775 145.251 48.0394 145.167 49.5531L149.16 49.7749ZM149.292 45.76C149.292 41.5083 149.053 36.5017 148.581 30.7484L144.594 31.0756C145.061 36.757 145.292 41.6491 145.292 45.76H149.292ZM148.581 30.7484C148.111 25.0245 147.658 20.7962 147.217 18.1084L143.27 18.7556C143.683 21.2732 144.125 25.3648 144.594 31.0756L148.581 30.7484ZM145.681 20.3836L153.681 18.5916L152.806 14.6884L144.806 16.4804L145.681 20.3836ZM151.26 16.9001C151.594 19.4413 151.91 22.9343 152.208 27.397L156.199 27.131C155.899 22.6337 155.576 19.044 155.227 16.3799L151.26 16.9001ZM152.209 27.4159C152.546 31.8392 152.694 36.2622 152.652 40.685L156.651 40.723C156.695 36.1858 156.543 31.6488 156.198 27.1121L152.209 27.4159ZM155.977 42.202C160.186 38.4785 164.107 36.816 167.771 36.816V32.816C162.817 32.816 157.992 35.0789 153.326 39.206L155.977 42.202ZM167.771 36.816C169.95 36.816 171.805 37.2827 173.392 38.1643L175.335 34.6677C173.082 33.4159 170.542 32.816 167.771 32.816V36.816ZM173.438 38.1892C175.075 39.0433 176.333 40.2346 177.25 41.7855L180.693 39.7505C179.391 37.5468 177.577 35.8367 175.289 34.6428L173.438 38.1892ZM177.25 41.7855C178.163 43.3312 178.635 45.087 178.635 47.104H182.635C182.635 44.4276 181.999 41.9595 180.693 39.7505L177.25 41.7855ZM178.635 47.104C178.635 50.2867 177.675 53.0164 175.755 55.3788L178.86 57.9012C181.378 54.8023 182.635 51.1747 182.635 47.104H178.635ZM175.753 55.3816C173.847 57.7366 171.121 59.6198 167.462 60.972L168.849 64.724C173.041 63.1749 176.416 60.9194 178.862 57.8984L175.753 55.3816ZM167.456 60.9745C163.834 62.3277 159.682 63.024 154.971 63.024V67.024C160.074 67.024 164.712 66.2696 168.855 64.7215L167.456 60.9745ZM154.971 63.024C151.346 63.024 147.833 62.6739 144.429 61.9767L143.626 65.8953C147.305 66.6487 151.087 67.024 154.971 67.024V63.024ZM144.451 61.9814C141.03 61.2394 137.922 60.2348 135.119 58.9757L133.48 62.6243C136.565 64.0105 139.943 65.0966 143.604 65.8906L144.451 61.9814ZM136.209 61.3941L138.897 52.7541L135.078 51.5659L132.39 60.2059L136.209 61.3941ZM151.206 57.5438C152.151 57.6297 152.911 57.68 153.436 57.68V53.68C153.106 53.68 152.501 53.645 151.569 53.5602L151.206 57.5438ZM153.37 57.6789C157.447 57.8119 161.163 57.4597 164.499 56.5915L163.492 52.7205C160.598 53.4736 157.275 53.8041 153.501 53.6811L153.37 57.6789ZM164.517 56.5867C167.811 55.6964 170.522 54.5187 172.517 52.9728L170.066 49.8112C168.648 50.9106 166.494 51.9089 163.474 52.7253L164.517 56.5867ZM172.522 52.9686C174.434 51.4763 175.915 49.6166 175.915 47.36H171.915C171.915 47.7488 171.648 48.577 170.061 49.8154L172.522 52.9686ZM175.915 47.36C175.915 45.6167 175.033 44.2274 173.684 43.2465L171.331 46.4815C171.86 46.8659 171.915 47.1407 171.915 47.36H175.915ZM173.73 43.2814C172.333 42.2015 170.571 41.776 168.668 41.776V45.776C170.007 45.776 170.805 46.0758 171.285 46.4466L173.73 43.2814ZM168.668 41.776C165.311 41.776 161.984 42.9816 158.715 45.1911L160.956 48.5049C163.746 46.6184 166.306 45.776 168.668 45.776V41.776ZM158.721 45.1876C155.478 47.3645 152.495 50.4635 149.746 54.4088L153.029 56.6952C155.571 53.0458 158.219 50.3422 160.95 48.5084L158.721 45.1876ZM190.492 59.968L188.902 61.1801L188.908 61.188L188.914 61.1959L190.492 59.968ZM187.421 47.68H189.421V47.6719L189.42 47.6637L187.421 47.68ZM186.908 31.744L184.911 31.8384L184.911 31.8467L184.912 31.8549L186.908 31.744ZM185.757 18.368L185.331 16.4138L183.507 16.8109L183.778 18.6576L185.757 18.368ZM193.693 16.64L195.674 16.3686L195.38 14.2256L193.267 14.6858L193.693 16.64ZM194.717 29.312L192.719 29.4079L192.719 29.4087L194.717 29.312ZM195.1 46.464L197.1 46.5032L197.1 46.4836V46.464H195.1ZM195.421 51.392L197.369 50.9423L195.421 51.392ZM196.956 53.76L195.914 55.4666L195.934 55.479L195.954 55.4909L196.956 53.76ZM200.988 54.464L202.977 54.2519L202.787 52.464H200.988V54.464ZM201.501 59.264L203.489 59.479L203.512 59.2654L203.489 59.0519L201.501 59.264ZM200.988 64V66H202.784L202.977 64.215L200.988 64ZM200.669 62C196.344 62 193.653 60.7737 192.071 58.7401L188.914 61.1959C191.513 64.5383 195.606 66 200.669 66V62ZM192.083 58.7559C190.422 56.5749 189.421 52.9996 189.421 47.68H185.421C185.421 53.3684 186.467 57.9851 188.902 61.1801L192.083 58.7559ZM189.42 47.6637C189.378 42.3834 189.206 37.0398 188.905 31.6331L184.912 31.8549C185.209 37.2002 185.378 42.4806 185.421 47.6963L189.42 47.6637ZM188.906 31.6496C188.649 26.1961 188.26 21.6662 187.735 18.0784L183.778 18.6576C184.277 22.0671 184.656 26.4546 184.911 31.8384L188.906 31.6496ZM186.182 20.3222L194.118 18.5942L193.267 14.6858L185.331 16.4138L186.182 20.3222ZM191.711 16.9114C192.126 19.9416 192.464 24.0989 192.719 29.4079L196.714 29.2161C196.457 23.8584 196.112 19.5678 195.674 16.3686L191.711 16.9114ZM192.719 29.4087C192.974 34.6724 193.1 39.5465 193.1 44.032H197.1C197.1 39.4722 196.971 34.5329 196.714 29.2153L192.719 29.4087ZM193.1 44.032V46.464H197.1V44.032H193.1ZM193.101 46.4248C193.057 48.6449 193.159 50.4866 193.472 51.8417L197.369 50.9423C197.17 50.0788 197.058 48.6351 197.1 46.5032L193.101 46.4248ZM193.472 51.8417C193.815 53.3283 194.573 54.6473 195.914 55.4666L197.999 52.0534C197.804 51.934 197.538 51.6744 197.369 50.9423L193.472 51.8417ZM195.954 55.4909C197.224 56.2256 198.888 56.464 200.669 56.464V52.464C199.121 52.464 198.311 52.233 197.959 52.0291L195.954 55.4909ZM200.669 56.464H200.988V52.464H200.669V56.464ZM199 54.6761L199.512 59.4761L203.489 59.0519L202.977 54.2519L199 54.6761ZM199.512 59.049L199 63.785L202.977 64.215L203.489 59.479L199.512 59.049ZM200.988 62H200.669V66H200.988V62ZM200.367 54.464V52.464H198.367V54.464H200.367ZM207.792 53.44L206.96 51.6211L206.95 51.6257L206.94 51.6304L207.792 53.44ZM210.352 50.112L212.332 50.3871L212.334 50.3736L212.336 50.3601L210.352 50.112ZM210.16 44.992L208.183 45.3008L208.185 45.3105L210.16 44.992ZM209.775 42.432L209.398 40.468L207.559 40.8217L207.791 42.6801L209.775 42.432ZM216.432 41.152L218.401 40.8059L218.05 38.8042L216.054 39.188L216.432 41.152ZM217.264 51.712H215.264V51.9441L215.317 52.1701L217.264 51.712ZM218.672 53.632L217.501 55.2534L217.521 55.2682L217.542 55.2826L218.672 53.632ZM222.447 54.464L224.436 54.2519L224.246 52.464H222.447V54.464ZM222.96 59.264L224.948 59.479L224.971 59.2654L224.948 59.0519L222.96 59.264ZM222.447 64V66H224.243L224.436 64.215L222.447 64ZM217.264 62.784L216.288 64.5299L216.299 64.5359L216.309 64.5417L217.264 62.784ZM213.551 59.584L215.133 58.3597L213.583 56.3572L211.994 58.3293L213.551 59.584ZM208.495 62.976L209.116 64.8772L209.128 64.8735L209.139 64.8695L208.495 62.976ZM200.367 64H198.367V66H200.367V64ZM204.335 69.12L205.726 67.6828L204.32 66.3219L202.929 67.6982L204.335 69.12ZM208.24 73.024L206.802 74.4148L206.814 74.4266L206.825 74.4382L208.24 73.024ZM210.223 75.008L211.638 76.4222L213.052 75.008L211.638 73.5938L210.223 75.008ZM204.335 80.896L202.929 82.3178L204.343 83.7168L205.75 82.3102L204.335 80.896ZM198.383 75.008L196.977 73.5862L195.54 75.008L196.977 76.4298L198.383 75.008ZM200.367 56.464H200.751V52.464H200.367V56.464ZM200.751 56.464C204.048 56.464 206.771 56.1306 208.643 55.2496L206.94 51.6304C205.911 52.1147 203.941 52.464 200.751 52.464V56.464ZM208.623 55.2589C210.694 54.3121 212.019 52.647 212.332 50.3871L208.371 49.8369C208.258 50.649 207.875 51.2025 206.96 51.6211L208.623 55.2589ZM212.336 50.3601C212.425 49.6485 212.48 49.0194 212.48 48.512H208.48C208.48 48.7726 208.449 49.2101 208.367 49.8639L212.336 50.3601ZM212.48 48.512C212.48 47.3546 212.359 46.0714 212.134 44.6735L208.185 45.3105C208.386 46.558 208.48 47.6214 208.48 48.512H212.48ZM212.136 44.6832C211.92 43.3065 211.798 42.4879 211.76 42.1839L207.791 42.6801C207.838 43.0587 207.972 43.9468 208.183 45.3008L212.136 44.6832ZM210.153 44.396L216.809 43.116L216.054 39.188L209.398 40.468L210.153 44.396ZM214.462 41.4981C214.993 44.5202 215.264 47.922 215.264 51.712H219.264C219.264 47.7367 218.98 44.0984 218.401 40.8059L214.462 41.4981ZM215.317 52.1701C215.625 53.4799 216.451 54.4956 217.501 55.2534L219.842 52.0106C219.356 51.6591 219.243 51.3948 219.21 51.2539L215.317 52.1701ZM217.542 55.2826C218.809 56.1496 220.392 56.464 222.064 56.464V52.464C220.834 52.464 220.155 52.2237 219.801 51.9814L217.542 55.2826ZM222.064 56.464H222.447V52.464H222.064V56.464ZM220.459 54.6761L220.971 59.4761L224.948 59.0519L224.436 54.2519L220.459 54.6761ZM220.971 59.049L220.459 63.785L224.436 64.215L224.948 59.479L220.971 59.049ZM222.447 62H222.064V66H222.447V62ZM222.064 62C220.689 62 219.417 61.6772 218.218 61.0263L216.309 64.5417C218.097 65.5121 220.025 66 222.064 66V62ZM218.239 61.0381C217.025 60.3596 215.993 59.4709 215.133 58.3597L211.97 60.8083C213.158 62.3424 214.601 63.587 216.288 64.5299L218.239 61.0381ZM211.994 58.3293C211.027 59.5298 209.678 60.4614 207.852 61.0825L209.139 64.8695C211.579 64.04 213.601 62.7102 215.109 60.8387L211.994 58.3293ZM207.875 61.0748C206.046 61.6718 203.69 62 200.751 62V66C203.957 66 206.763 65.6456 209.116 64.8772L207.875 61.0748ZM200.751 62H200.367V66H200.751V62ZM202.367 64V54.464H198.367V64H202.367ZM202.945 70.5572C204.252 71.822 205.537 73.1079 206.802 74.4148L209.677 71.6332C208.382 70.2948 207.065 68.978 205.726 67.6828L202.945 70.5572ZM206.825 74.4382L208.809 76.4222L211.638 73.5938L209.654 71.6098L206.825 74.4382ZM208.809 73.5938L202.921 79.4818L205.75 82.3102L211.638 76.4222L208.809 73.5938ZM205.742 79.4742L199.79 73.5862L196.977 76.4298L202.929 82.3178L205.742 79.4742ZM199.79 76.4298L205.742 70.5418L202.929 67.6982L196.977 73.5862L199.79 76.4298ZM221.741 54.464V52.464H219.728L219.741 54.4774L221.741 54.464ZM233.837 53.376L234.603 55.2235L233.837 53.376ZM236.461 50.048H238.461V50.0026L238.459 49.9572L236.461 50.048ZM234.989 44.672L233.101 45.3314L233.104 45.3408L234.989 44.672ZM232.941 39.296L231.981 37.5415L230.322 38.449L231.135 40.1559L232.941 39.296ZM239.725 35.584L241.531 34.7241L240.621 32.8139L238.765 33.8295L239.725 35.584ZM242.285 42.752L240.362 43.3014L240.364 43.3088L242.285 42.752ZM243.565 50.496L245.565 50.5156L245.565 50.5058V50.496H243.565ZM239.149 60.544L240.393 62.1102L240.4 62.1047L240.407 62.099L239.149 60.544ZM221.805 64L219.805 64.0134L219.818 66H221.805V64ZM227.757 22.4L229.171 20.9858L227.765 19.5799L226.351 20.9774L227.757 22.4ZM233.133 27.776L234.556 29.1818L235.953 27.7677L234.547 26.3618L233.133 27.776ZM227.757 33.216L226.343 34.6302L227.765 36.0528L229.18 34.6218L227.757 33.216ZM225.965 31.424L224.551 32.8382V32.8382L225.965 31.424ZM222.317 27.776L220.911 26.3534L219.48 27.7676L220.903 29.1902L222.317 27.776ZM239.021 22.4L240.435 20.9858L239.029 19.5799L237.615 20.9774L239.021 22.4ZM244.397 27.776L245.82 29.1818L247.217 27.7677L245.811 26.3618L244.397 27.776ZM239.021 33.216L237.607 34.6302L239.029 36.0528L240.444 34.6218L239.021 33.216ZM237.229 31.424L235.815 32.8382L237.229 31.424ZM233.581 27.776L232.175 26.3534L230.744 27.7676L232.167 29.1902L233.581 27.776ZM221.741 56.464H224.877V52.464H221.741V56.464ZM224.877 56.464C229.119 56.464 232.457 56.1133 234.603 55.2235L233.071 51.5285C231.718 52.0894 229.083 52.464 224.877 52.464V56.464ZM234.603 55.2235C235.69 54.7728 236.667 54.1375 237.376 53.2383C238.108 52.3098 238.461 51.2164 238.461 50.048H234.461C234.461 50.3729 234.377 50.5809 234.234 50.7617C234.069 50.9718 233.733 51.2539 233.071 51.5285L234.603 55.2235ZM238.459 49.9572C238.4 48.6716 237.795 46.5998 236.874 44.0032L233.104 45.3408C234.06 48.0349 234.436 49.547 234.463 50.1388L238.459 49.9572ZM236.877 44.0126C235.943 41.3384 235.227 39.4454 234.747 38.4361L231.135 40.1559C231.508 40.9386 232.157 42.6296 233.101 45.3314L236.877 44.0126ZM233.901 41.0505L240.685 37.3385L238.765 33.8295L231.981 37.5415L233.901 41.0505ZM237.919 36.4439C238.706 38.0964 239.524 40.369 240.362 43.3014L244.208 42.2026C243.339 39.1617 242.45 36.6556 241.531 34.7241L237.919 36.4439ZM240.364 43.3088C241.183 46.1354 241.565 48.5221 241.565 50.496H245.565C245.565 48.0326 245.093 45.2566 244.206 42.1952L240.364 43.3088ZM241.565 50.4764C241.527 54.3422 240.249 57.0822 237.891 58.989L240.407 62.099C243.852 59.3125 245.517 55.3538 245.565 50.5156L241.565 50.4764ZM237.905 58.9778C235.502 60.886 231.736 62 226.285 62V66C232.183 66 236.993 64.81 240.393 62.1102L237.905 58.9778ZM226.285 62H221.805V66H226.285V62ZM223.805 63.9866L223.741 54.4506L219.741 54.4774L219.805 64.0134L223.805 63.9866ZM226.343 23.8142L231.719 29.1902L234.547 26.3618L229.171 20.9858L226.343 23.8142ZM231.71 26.3702L226.334 31.8102L229.18 34.6218L234.556 29.1818L231.71 26.3702ZM229.171 31.8018L227.379 30.0098L224.551 32.8382L226.343 34.6302L229.171 31.8018ZM227.379 30.0098L223.731 26.3618L220.903 29.1902L224.551 32.8382L227.379 30.0098ZM223.723 29.1986L229.163 23.8226L226.351 20.9774L220.911 26.3534L223.723 29.1986ZM237.607 23.8142L242.983 29.1902L245.811 26.3618L240.435 20.9858L237.607 23.8142ZM242.974 26.3702L237.598 31.8102L240.444 34.6218L245.82 29.1818L242.974 26.3702ZM240.435 31.8018L238.643 30.0098L235.815 32.8382L237.607 34.6302L240.435 31.8018ZM238.643 30.0098L234.995 26.3618L232.167 29.1902L235.815 32.8382L238.643 30.0098ZM234.987 29.1986L240.427 23.8226L237.615 20.9774L232.175 26.3534L234.987 29.1986ZM240.562 74.624L239.805 72.7729L237.835 73.5791L238.762 75.4955L240.562 74.624ZM248.307 70.592L247.233 68.9047L247.222 68.9116L247.211 68.9186L248.307 70.592ZM253.811 66.112L252.334 64.7625L252.324 64.7741L252.313 64.7859L253.811 66.112ZM252.467 48L250.526 48.4851L250.536 48.5223L250.546 48.5592L252.467 48ZM252.146 46.72L251.415 44.8585L249.78 45.5008L250.206 47.2051L252.146 46.72ZM259.315 43.904L261.203 43.247L260.52 41.2816L258.583 42.0425L259.315 43.904ZM261.746 53.376L259.777 53.725L259.778 53.7293L261.746 53.376ZM257.715 73.856L256.248 72.4958L256.24 72.5046L257.715 73.856ZM244.467 82.688L242.666 83.5595L243.489 85.2596L245.234 84.535L244.467 82.688ZM241.32 76.4751C244.244 75.2788 246.94 73.8769 249.402 72.2654L247.211 68.9186C244.98 70.3791 242.513 71.6652 239.805 72.7729L241.32 76.4751ZM249.38 72.2793C251.827 70.7221 253.823 69.1138 255.308 67.4381L252.313 64.7859C251.152 66.0969 249.479 67.4752 247.233 68.9047L249.38 72.2793ZM255.287 67.4615C256.723 65.8904 257.858 64.1269 257.858 62.272H253.859C253.859 62.5504 253.629 63.3469 252.334 64.7625L255.287 67.4615ZM257.858 62.272C257.858 61.1281 257.515 59.281 256.956 56.9295C256.38 54.5044 255.522 51.3378 254.387 47.4408L250.546 48.5592C251.673 52.4276 252.51 55.5223 253.065 57.8545C253.637 60.2604 253.859 61.6666 253.859 62.272H257.858ZM254.407 47.5149L254.087 46.2349L250.206 47.2051L250.526 48.4851L254.407 47.5149ZM252.878 48.5815L260.046 45.7655L258.583 42.0425L251.415 44.8585L252.878 48.5815ZM257.426 44.561C258.411 47.3954 259.197 50.4489 259.777 53.725L263.716 53.027C263.102 49.5618 262.266 46.3006 261.203 43.247L257.426 44.561ZM259.778 53.7293C260.36 56.9732 260.643 59.8168 260.643 62.272H264.643C264.643 59.5219 264.327 56.4348 263.715 53.0227L259.778 53.7293ZM260.643 62.272C260.643 65.8708 259.248 69.2628 256.248 72.4958L259.181 75.2162C262.752 71.3665 264.643 67.0359 264.643 62.272H260.643ZM256.24 72.5046C253.192 75.8295 249.039 78.6231 243.699 80.841L245.234 84.535C250.988 82.1449 255.666 79.0505 259.189 75.2075L256.24 72.5046ZM246.267 81.8165L242.363 73.7525L238.762 75.4955L242.666 83.5595L246.267 81.8165ZM269.346 63.616L267.369 63.3164L267.057 65.3759L269.127 65.604L269.346 63.616ZM269.41 32.064L267.413 32.1691L267.414 32.183L269.41 32.064ZM268.194 18.432L267.742 16.4837L265.888 16.9139L266.226 18.7869L268.194 18.432ZM276.194 16.576L278.17 16.2693L277.84 14.141L275.742 14.6277L276.194 16.576ZM277.218 29.568L279.216 29.4716L277.218 29.568ZM276.898 64.448L276.679 66.436L278.613 66.6491L278.879 64.7213L276.898 64.448ZM271.323 63.9156C271.774 60.9432 271.986 56.466 271.986 50.56H267.986C267.986 56.43 267.772 60.6568 267.369 63.3164L271.323 63.9156ZM271.986 50.56C271.986 44.6287 271.793 38.4236 271.406 31.945L267.414 32.183C267.795 38.5898 267.986 44.7152 267.986 50.56H271.986ZM271.407 31.9589C271.066 25.4754 270.656 20.8174 270.162 18.0771L266.226 18.7869C266.67 21.252 267.071 25.6819 267.413 32.1691L271.407 31.9589ZM268.646 20.3803L276.646 18.5243L275.742 14.6277L267.742 16.4837L268.646 20.3803ZM274.218 16.8827C274.584 19.241 274.922 23.4756 275.22 29.6644L279.216 29.4716C278.917 23.287 278.572 18.8603 278.17 16.2693L274.218 16.8827ZM275.22 29.6644C275.517 35.8202 275.666 41.868 275.666 47.808H279.666C279.666 41.8013 279.516 35.6892 279.216 29.4716L275.22 29.6644ZM275.666 47.808C275.666 55.1676 275.409 60.6029 274.917 64.1747L278.879 64.7213C279.411 60.8691 279.666 55.2111 279.666 47.808H275.666ZM277.117 62.46L269.565 61.628L269.127 65.604L276.679 66.436L277.117 62.46Z" fill="#321848" mask="url(#path-1-outside-1_534_117)"/>
</svg>
