<svg xmlns="http://www.w3.org/2000/svg" width="330" height="144" fill="currentColor" viewBox="0 0 330 144"><g clip-path="url(#a)"><g filter="url(#b)"><mask id="c" width="254" height="72" x="38" y="38" fill="#000" maskUnits="userSpaceOnUse"><path fill="#fff" d="M38 38h254v72H38z"/><path d="M55.3 88q-7 0-10.2-4-3-4-3-12.3a337 337 0 0 0-1.7-29.3l8-1.8q.5 4.8 1 12.7l.3 14.7v2.5q0 3.2.3 4.9.4 1.7 1.6 2.4t3.7.7h.3l.5 4.8-.5 4.7zm-.1-9.5h1.1q5 0 8.2-6 3.3-6 6.2-9a9 9 0 0 1 12.6-.7q2.7 2.1 4 5.7a19 19 0 0 1 0 14.2q-1.5 3.1-4 4.7-1.5 1-3.5 1a27 27 0 0 1-13.1-5.2A13 13 0 0 1 56.2 88H55zm15.6-2.9q3 2 5.4 3t3.8 1q.6 0 .8-.2.7-.4 1-1.3t.4-2q0-2.6-1.4-4.7Q79.3 69 77 69q-3 0-6.3 6.5M109.1 88q-7 0-10.2-4-3-4-3-12.3a337 337 0 0 0-1.7-29.3l8-1.8q.6 4.8 1 12.7l.3 14.7v2.5q0 3.2.4 4.9.3 1.7 1.5 2.4t3.7.7h.3l.5 4.8-.5 4.7zm-.3-9.5h3.4q4.5 0 6.6-1 2-1.1 2-3.1 0-1.5-1.3-5.3l-2.1-5.8 6.7-3.7a53 53 0 0 1 3.8 15q0 6.6-4 10T112.1 88h-3.4zm5 14.6 3.9 3.9 2 2-5.9 5.8-6-5.9zm34.7-17a34 34 0 0 0 7.3 2.4q1.2-2.4 2.9-4.8v-4a185 185 0 0 0-2-27.3l8-1.8a177 177 0 0 1 1.5 24.1 20 20 0 0 1 13-5.9q3.7 0 6.7 1.6 3 1.5 4.6 4.4 1.6 2.8 1.6 6.3 0 5.4-3.3 9.5a21 21 0 0 1-9.1 6.2 38 38 0 0 1-13.2 2.2 54 54 0 0 1-20.7-4.2zm14.4 3.5h2q6 .3 10.6-1 4.8-1.2 7.3-3.2 2.6-2 2.6-4 0-1.6-1.4-2.5-1.4-1.2-3.8-1.1-4.3 0-8.9 3-4.5 3-8.4 8.8m49.3 8.4q-7 0-10.2-4-3-4-3-12.3a338 338 0 0 0-1.7-29.3l7.9-1.8q.7 4.8 1 12.7.4 8 .4 14.7v2.5q0 3.2.3 4.9.4 1.7 1.6 2.4t3.7.7h.3l.5 4.8-.5 4.7zm-.3-9.5h.4q4.8 0 7-1a4 4 0 0 0 2.6-3.4 14 14 0 0 0-.2-5.1l-.4-2.6 6.6-1.2q.9 4.6.9 10.5.2 1 1.4 2 1.3.8 3.4.8h.3l.6 4.8-.6 4.7h-.3a10 10 0 0 1-4.8-1.2q-2.2-1.2-3.7-3.2-2 2.3-5.1 3.4-3.1 1-7.7 1h-.4zm4 14.6 3.8 4 2 2-5.9 5.8-6-5.9zm17.3-14.6h3.2q6.3 0 9-1.1 2.6-1.1 2.6-3.4 0-1.4-1.5-5.3l-2-5.4 6.7-3.7a48 48 0 0 1 3.9 14.9q0 6.5-4.5 10-4.3 3.5-12.8 3.5h-4.5zm6-32.1 5.4 5.4-5.3 5.4-1.8-1.8-3.7-3.6zm11.3 0 5.4 5.4-5.4 5.4-1.8-1.8-3.6-3.6zm1.6 52.2a46 46 0 0 0 13.2-8.5q2-2.3 2-3.8 0-2.6-3.3-14.3l-.4-1.3 7.2-2.8a62 62 0 0 1 3.3 18.4q0 6.3-4.9 11.6a37 37 0 0 1-13.2 8.8zm28.7-11q.7-4.2.7-13a311 311 0 0 0-1.8-32.2l8-1.8q.6 3.7 1 13t.5 18.2q0 11.2-.8 16.6z"/></mask><path fill="#3e15b7" d="m45.1 84-1.6 1.2zm-3-12.3h2zm-.6-16-2 .1zm-1.1-13.3-.4-2-1.9.4.3 1.9zm8-1.8 1.9-.2-.3-2.2-2.1.5zm1 12.7-2 .1zm.3 17.2h2zm.3 4.9 2-.5zm1.6 2.4-1 1.7zm4 .7 2-.2-.2-1.8h-1.8zm.5 4.8 2 .2V83zm-.5 4.7v2h1.8l.2-1.8zm-.3-2q-6.3 0-8.6-3.3l-3.2 2.5q4 4.9 11.8 4.8zm-8.6-3.2q-2.6-3.2-2.7-11.1h-4q-.1 8.6 3.5 13.5zM44 71.7q0-8-.5-16l-4 .2q.5 8 .5 15.8zm-.5-16q-.3-8.2-1.1-13.6l-4 .6q.8 5.1 1.1 13.1zm-2.7-11.4 8-1.7-1-4-7.8 1.8zm5.5-3.4q.7 4.5 1 12.5l4-.2q-.4-8-1-12.8zm1 12.5q.4 7.9.4 14.6h4q0-6.8-.4-14.8zm.4 14.6v2.5h4V68zm0 2.4q-.1 3.3.4 5.4L52 75a20 20 0 0 1-.3-4.4zm.4 5.4a6 6 0 0 0 2.4 3.7l2.1-3.4q-.3-.1-.6-1.2zm2.5 3.7q2 1 4.7 1v-4q-2.3-.1-2.7-.5zm4.7 1h.3v-4h-.3zm-1.7-1.8.5 4.8 4-.4-.5-4.8zm.5 4.3-.5 4.8 4 .4.5-4.7zm1.5 3h-.3v4h.3zm-.4-7.5v-2h-2v2zm9.3-6-1.7-1zm6.2-9L72 65zm12.6-.7L82 64.3zm4 5.7-1.9.7zm0 14.2 1.8.8zm-4 4.7-1.1-1.7zm-16.6-4.2 1-1.7-1.4-1-1.1 1.4zM55 88h-2v2h2zm15.8-12.4-1.8-.9-.8 1.7 1.6 1zm5.4 3-.8 1.8zm4.6.8-1.1-1.6zm1-1.3-1.8-.7zm-1-6.7-1.7 1zm-25.6 9h1.1v-4h-1.1zm1.1 0q6.6-.2 10-7l-3.5-1.9c-2 3.6-4.1 5-6.5 5zm10-7q3-5.9 5.8-8.4L69.3 62a41 41 0 0 0-6.5 9.4zM72 65a7 7 0 0 1 5.2-2.5v-4a11 11 0 0 0-8 3.7zm5.2-2.5a7 7 0 0 1 4.7 1.8l2.6-3a11 11 0 0 0-7.3-2.8zm4.8 1.8q2.2 1.8 3.3 4.9l3.8-1.4q-1.5-4-4.6-6.6zm3.4 5q1.2 3 1.2 6.5h4q0-4.2-1.5-8zm1.2 6.5a15 15 0 0 1-1.2 6l3.6 1.7q1.6-3.6 1.6-7.7zm-1.2 6q-1.2 2.6-3.3 4l2 3.3q3.3-2 5-5.6zm-3.4 4q-.8.5-2.3.5v4q2.5 0 4.5-1.2zm-2.3.5q-4 .1-12-4.8L65.6 85a29 29 0 0 0 14.2 5.4zM65.2 82a11 11 0 0 1-9 4.1v4q7.5 0 12-5.5zm-9 4.1H55v4h1.2zm.8 2 .2-9.5h-4L53 88zm12.8-10.6q3 1.8 5.6 3l1.7-3.6q-2.4-1-5.2-2.9zm5.7 3q2.5 1.1 4.5 1.2v-4a9 9 0 0 1-3-.9zm4.5 1.2q.8.2 2-.6l-2.4-3.2.5-.2H80zm2-.5q1.1-1 1.7-2.2l-3.8-1.5q0 .3-.2.4zm1.6-2.2q.6-1.3.6-2.8h-4l-.2 1.3zm.6-2.8q0-3.1-1.7-5.8L79 72.4q1 1.8 1 3.7zm-1.7-5.8q-1.9-3.1-5.4-3.2v4q1-.1 2 1.3zM77 67.1q-2.7.2-4.5 2.3a23 23 0 0 0-3.6 5.3l3.6 1.9q1.5-3.1 3-4.5 1.2-1.2 1.5-1zM98.9 84l-1.6 1.2zm-3-12.3h2zm-.6-16-2 .1zm-1.1-13.3-.4-2-1.9.4.3 1.9zm8-1.8 2-.2-.4-2.2-2.1.5zm1 12.7-2 .1zm.3 17.2h2zm.4 4.9 2-.5zm1.5 2.4-1 1.7zm4 .7 2-.2-.2-1.8h-1.8zm.5 4.8 2 .2V83zm-.5 4.7v2h1.8l.2-1.8zm-.3-2q-6.3 0-8.6-3.3l-3.1 2.5q4 4.9 11.7 4.8zm-8.6-3.2Q98 79.6 98 71.7h-4q-.1 8.6 3.4 13.5zM98 71.7q0-8-.6-16l-4 .2.6 15.8zm-.6-16Q97 47.4 96.2 42l-4 .6q.8 5.1 1.1 13.1zm-2.7-11.4 8-1.7-.9-4-8 1.8zm5.5-3.4q.7 4.5 1 12.5l4-.2q-.3-8-1-12.8zm1 12.5q.4 7.9.4 14.6h4q0-6.8-.3-14.8zm.4 14.6v2.5h4V68zm0 2.4q0 3.3.4 5.4l4-.9a20 20 0 0 1-.4-4.4zm.4 5.4a6 6 0 0 0 2.5 3.7l2-3.4q-.3-.1-.6-1.2zm2.5 3.7q2 1 4.7 1v-4q-2.3-.1-2.7-.5zm4.7 1h.3v-4h-.3zm-1.7-1.8.5 4.8 4-.4-.5-4.8zm.5 4.3-.5 4.8 4 .4.5-4.7zm1.5 3h-.3v4h.3zm-.6-7.5v-2h-2v2zm10.7-9.4-1.9.7zm-2.1-5.8-1-1.8-1.6 1 .7 1.6zm6.7-3.7 1.8-.8-.9-2-1.9 1zm2.5 7.2-2 .6zm-2.8 17.8-1.2-1.5zm-15 3.4h-2v2h2zm5 5 1.4-1.4-1.4-1.3-1.4 1.3zm3.9 4-1.4 1.4zm2 2 1.4 1.4 1.4-1.5-1.4-1.4zm-5.9 5.8-1.4 1.5 1.4 1.4 1.4-1.5zm-6-5.9-1.4-1.4L105 99l1.4 1.5zm1-18.4h3.4v-4h-3.4zm3.4 0q4.7 0 7.5-1.3l-1.8-3.5q-1.3.7-5.7.8zm7.5-1.3q1.4-.6 2.3-2 .8-1.2.8-2.8h-4l-.1.7-.8.6zm3.1-4.8q0-1.1-.4-2.5l-1-3.4-3.8 1.3 1.2 4.6zm-1.4-6q-1.4-4-2.2-5.9l-3.7 1.6 2.1 5.7zm-3-3.4 6.7-3.7-2-3.5-6.7 3.7zm3.9-4.6q1 2.5 2.4 7l3.8-1.1q-1.2-4.6-2.6-7.5zm2.4 7a26 26 0 0 1 1.2 7.3h4q0-3.8-1.4-8.5zm1.2 7.3q0 5.8-3.3 8.4l2.5 3Q130 82 130 74.7zm-3.3 8.4q-3.2 2.8-10.4 2.9v4q8 0 13-3.9zM112.2 86h-3.4v4h3.4zm-1.4 2v-9.5h-4V88zm1.6 6.5 3.9 3.9 2.8-2.8-4-4zm3.9 3.9 2 2 2.8-2.9-2-2zm2-.9-6 6 3 2.7 5.8-5.8zm-3.1 6-6-6-2.8 2.9 6 5.9zm-6-3.1 6-6-2.8-2.8-6 6zm39.3-24.2.8-1.9-2-1-.7 2.3zm7.3 2.3-.4 2 1.4.3.8-1.3zm2.9-4.8 1.6 1 .3-.4v-.5zm-.6-18.8-2 .2zm-1.4-12.5-.4-2-1.8.5.3 1.9zm8-1.8 2-.2-.3-2.2-2 .5zm1 10.7-2 .1zm.5 13.4h-2v4.5l3.3-3zm19.7-4.3-1 1.8zm4.6 4.4-1.7 1zm-1.7 15.8-1.5-1.2zm-9.1 6.2L179 85zM155.5 88l-.4 2zm-9.7-3.1-2-.6-.4 1.7 1.6.7zm17-5.2-1.6-1.2-2 2.8 3.5.3zm2.1 0 .1-2zm10.6-1 .5 2zm7.3-3.2L184 77zm1.2-6.5-1.2 1.5zm-12.7 2 1.1 1.6zm-23.7 7q3.6 1.8 7.8 2.6l.8-4a32 32 0 0 1-6.9-2.2zm10 1.6q1.2-2.4 2.7-4.7l-3.3-2.2q-1.7 2.4-3 5zm3-5.7.2-4h-4l-.1 3.8zm.2-4q0-6.4-.7-15l-4 .3q.7 8.5.7 14.7zm-.7-15q-.8-8.7-1.4-12.7l-4 .7q.8 3.8 1.4 12.3zm-3-10.4 8-1.8-.8-4-8 1.9zm5.7-3.5 1 10.5 3.9-.3q-.4-6.7-1-10.7zm1 10.5q.3 6.6.4 13.3h4q0-6.7-.5-13.6zm3.7 14.8q6.3-5.5 11.8-5.4v-4a22 22 0 0 0-14.5 6.4zm11.8-5.4q3.2 0 5.6 1.4l2-3.5a15 15 0 0 0-7.6-1.9zm5.6 1.4q2.6 1.2 3.8 3.6l3.5-2q-2-3.4-5.4-5.2zm3.8 3.6q1.5 2.3 1.4 5.3h4q0-4-2-7.3zm1.4 5.3q0 4.8-2.8 8.3l3 2.5q3.8-4.6 3.8-10.8zm-2.8 8.3q-3 3.5-8.3 5.6l1.3 3.7q6.3-2.3 10-6.8zM179 85q-5.5 2-12.5 2v4q7.5 0 13.9-2.3zm-12.5 2q-5.5 0-10.6-1l-.8 3.9q5.5 1 11.4 1.1zM156 86a47 47 0 0 1-9.4-3l-1.6 3.6A51 51 0 0 0 155 90zm-8.3-.6 2.7-8.6-3.8-1.2-2.7 8.6zm15-3.9 2.2.2v-4l-1.8-.1zm2.2.2q6 .2 11.1-1.1l-1-3.9q-4.3 1.2-10 1zm11.1-1.1q5-1.3 8-3.6l-2.4-3.2a19 19 0 0 1-6.6 3zm8-3.6q3.2-2.3 3.4-5.6h-4c0 .3-.3 1.2-1.8 2.4zm3.4-5.6a5 5 0 0 0-2.2-4.2l-2.4 3.3q.7.5.6.9zm-2.2-4.1a8 8 0 0 0-5-1.5v4q1.9 0 2.6.6zm-5-1.5q-5 0-10 3.4l2.3 3.3q4-2.8 7.7-2.7zm-10 3.4a35 35 0 0 0-9 9.2l3.3 2.3a31 31 0 0 1 8-8.2zM202 84l-1.6 1.2zm-3-12.3h2zm-.6-16-2 .1zm-1.1-13.3-.5-2-1.8.4.3 1.9zm7.9-1.8 2-.2-.3-2.2-2.1.5zm1 12.7-2 .1zm.4 17.2h2zm.3 4.9 2-.5zm1.6 2.4-1 1.7zm4 .7 2-.2-.2-1.8h-1.8zm.5 4.8 2 .2V83zm-.5 4.7v2h1.8l.2-1.8zm-.3-2c-4.4 0-7-1.2-8.6-3.3l-3.2 2.5q4 4.9 11.8 4.8zm-8.6-3.2q-2.6-3.2-2.7-11.1h-4q-.1 8.6 3.5 13.5zm-2.7-11.1q0-8-.5-16l-4 .2q.5 8 .5 15.8zm-.5-16q-.4-8.2-1.2-13.6l-4 .6q.9 5.1 1.2 13.1zm-2.7-11.4 8-1.7-1-4-7.9 1.8zm5.5-3.4q.7 4.5 1 12.5l4-.2q-.3-8-1-12.8zm1 12.5q.4 7.9.4 14.6h4q0-6.8-.4-14.8zm.4 14.6v2.5h4V68zm0 2.4q-.1 3.3.4 5.4l3.9-.9a20 20 0 0 1-.3-4.4zm.4 5.4a6 6 0 0 0 2.4 3.7l2.1-3.4q-.4-.1-.6-1.2zm2.5 3.7q1.9 1 4.7 1v-4q-2.3-.1-2.7-.5zm4.7 1h.3v-4h-.3zm-1.7-1.8.5 4.8 4-.4-.5-4.8zm.5 4.3-.5 4.8 4 .4.5-4.7zm1.5 3h-.3v4h.3zm-.6-7.5v-2h-2v2zm7.4-1-.8-1.9zm2.6-3.4 2 .3zm-.2-5.1-2 .3zm-.4-2.6-.4-2-1.8.4.2 1.9zm6.6-1.2 2-.4-.3-2-2 .4zm.9 10.5h-2v.5zm1.4 2-1.2 1.6zm3.7.8 2-.2-.2-1.8H234zm.6 4.8 2 .2V83zm-.6 4.7v2h1.8l.2-1.8zm-5.1-1.2-1 1.7zm-3.7-3.2 1.5-1.2-1.5-2-1.6 2zM220 87l.6 1.9zm-8.1 1h-2v2h2zm4 5.1 1.3-1.4-1.4-1.4-1.4 1.4zm3.8 4-1.4 1.3zm2 2 1.4 1.3 1.5-1.4-1.5-1.4zm-5.9 5.8-1.4 1.4 1.4 1.4 1.4-1.4zm-6-5.9-1.3-1.4L207 99l1.5 1.4zm2-18.5h.5v-4h-.4zm.5 0q5 0 7.8-1.3l-1.7-3.6q-1.5.8-6.1.9zm7.8-1.2q3.1-1.5 3.7-5l-4-.5q0 1.2-1.3 1.8zm3.7-5 .2-1.8h-4l-.1 1.4zm.2-1.8q0-1.7-.4-3.8l-4 .6q.4 1.9.4 3.2zm-.4-3.8-.3-2.5-4 .5.4 2.6zm-2-.3 6.7-1.3-.7-4-6.7 1.4zm4.4-2.9q.8 4.5.8 10.2h4q0-6-.9-10.9zm.8 10.7a5 5 0 0 0 2.2 3l2.3-3.2q-.6-.5-.6-.7zm2.2 3a8 8 0 0 0 4.6 1.3v-4q-1.9-.1-2.3-.5zm4.6 1.3h.3v-4h-.3zm-1.6-1.8.5 4.8 4-.4-.6-4.8zm.5 4.3-.5 4.8 4 .4.4-4.7zm1.4 3h-.3v4h.3zm-.3 0a8 8 0 0 1-3.9-1l-1.9 3.5a12 12 0 0 0 5.8 1.5zm-3.9-1q-1.8-1-3-2.6l-3.2 2.4q1.8 2.3 4.3 3.7zm-6.2-2.7a9 9 0 0 1-4.1 2.8l1.2 3.8q3.8-1.3 6-4zm-4.1 2.8q-2.8.9-7.1.9v4q4.8 0 8.3-1.1zm-7.1.9h-.4v4h.4zm1.6 2v-9.5h-4V88zm.5 6.6q2 1.8 3.9 3.8l2.9-2.8-4-4zm4 3.8 2 2 2.7-2.8-2-2zm2-.8-6 5.9 2.8 2.8 6-5.9zm-3.2 5.9-6-6-2.7 3 6 5.8zm-6-3 6-6-2.8-2.8-6 5.9zm22-22v-2h-2v2zm12.1-1.1.8 1.8zM248 74h2zm-1.5-5.3-1.9.6zm-2-5.4-1-1.8-1.7 1 .8 1.7zm6.7-3.7 1.8-.9-.9-1.9-1.8 1zm2.6 7.2-2 .5zm1.3 7.7h2zm-4.5 10 1.3 1.6zM233.3 88h-2v2h2zm6-41.6 1.4-1.4-1.4-1.4-1.4 1.4zm5.3 5.4 1.5 1.4 1.4-1.4-1.5-1.4zm-5.3 5.4-1.5 1.4 1.5 1.5 1.4-1.5zm-1.8-1.8-1.4 1.4zm-3.7-3.6-1.4-1.4-1.4 1.4 1.4 1.4zm16.7-5.4L252 45l-1.4-1.4-1.4 1.4zm5.4 5.4 1.4 1.4 1.4-1.4-1.4-1.4zm-5.4 5.4-1.4 1.4 1.4 1.5 1.4-1.5zm-1.8-1.8-1.4 1.4zm-3.6-3.6-1.4-1.4-1.5 1.4 1.5 1.4zm-11.9 28.7h3.2v-4h-3.2zm3.2 0q6.4 0 9.7-1.3l-1.5-3.7q-2 1-8.2 1zm9.7-1.3q1.5-.6 2.8-2 1-1.4 1-3.2h-4q0 .6-.2.8t-1.1.7zM250 74q-.2-2-1.6-6l-3.8 1.3q1.4 4 1.4 4.8zm-1.6-6-2.2-5.6-3.6 1.8q.6 1 2 5.1zm-3-3 6.8-3.7-2-3.5-6.7 3.7zm4-4.6q1.2 2.6 2.5 6.9l3.8-1.1q-1.3-4.5-2.7-7.5zm2.5 7q1.2 4 1.2 7.1h4q0-3.7-1.4-8.3zm1.2 7q-.1 5.9-3.7 8.6l2.5 3.1q5.2-4.2 5.2-11.6zm-3.7 8.6q-3.5 3-11.6 3v4q9 0 14-3.9zm-11.6 3h-4.5v4h4.5zm-2.5 2v-9.5h-4V88zm2.5-40.2 5.4 5.4 2.8-2.8-5.3-5.4zm5.4 2.6-5.4 5.4 2.9 2.8 5.4-5.4zm-2.5 5.4-1.8-1.8-2.8 2.8 1.7 1.8zm-1.8-1.8-3.7-3.6-2.8 2.8 3.7 3.6zm-3.7-.8 5.5-5.4-2.8-2.8-5.5 5.4zm14-5.4 5.3 5.4 2.8-2.8L252 45zm5.3 2.6-5.4 5.4 2.8 2.8 5.4-5.4zm-2.6 5.4-1.8-1.8-2.8 2.8 1.8 1.8zm-1.8-1.8-3.6-3.6-2.8 2.8 3.6 3.6zm-3.6-.8 5.4-5.4-2.8-2.8-5.4 5.4zm5.6 45.4-.8-1.8-2 .8 1 1.9zm7.7-4-1-1.7zm5.5-4.5-1.5-1.3zM264 72l-2 .5zm-.4-1.3L263 69l-1.6.6.4 1.7zm7.2-2.8 1.9-.7-.7-2-2 .8zm2.4 9.5-2 .3zm-4 20.5-1.5-1.4zm-13.2 8.8-1.8.9.8 1.7 1.7-.8zm-3.2-6.2q4.4-1.8 8.1-4.2l-2.2-3.4a44 44 0 0 1-7.4 3.9zm8-4.2q3.8-2.4 6-4.9l-3-2.6a24 24 0 0 1-5 4.1zm6-4.8c1.4-1.6 2.6-3.4 2.6-5.2h-4q.2.4-1.6 2.5zm2.6-5.2q0-1.8-1-5.4l-2.5-9.5-3.9 1.2a202 202 0 0 1 3.4 13.7zm-3.5-14.8-.3-1.3-3.9 1 .3 1.3zm-1.5 1 7.1-2.7-1.4-3.8-7.2 2.9zm4.5-4q1.5 4.4 2.4 9.2l4-.7q-1-5.1-2.6-9.8zm2.4 9.2q.9 4.9.8 8.6h4a53 53 0 0 0-.9-9.3zm.8 8.6q0 5.4-4.4 10.2l3 2.7q5.4-5.8 5.4-13zm-4.4 10.2q-4.5 5-12.5 8.3l1.5 3.7a39 39 0 0 0 14-9.3zm-10 9.3-3.8-8-3.6 1.7 3.9 8zm23.1-18.2-2-.3-.2 2 2 .3zm.1-31.5h-2zm-1.2-13.7-.5-2-1.8.5.3 1.9zm8-1.8 2-.3-.4-2.2-2 .5zm1 13 2-.1zm-.3 34.8-.2 2 2 .2.2-1.9zm-5.6-.5q.7-4.5.7-13.3h-4q0 8.7-.6 12.7zm.7-13.3q0-9-.6-18.7l-4 .3q.6 9.6.6 18.4zm-.6-18.6q-.4-9.8-1.2-14l-4 .8q.8 3.7 1.2 13.4zm-2.8-11.6 8-1.9-.9-3.9-8 1.9zm5.6-3.5q.6 3.5 1 12.8l4-.2q-.4-9.3-1-13.2zm1 12.8q.5 9.2.5 18.1h4q0-9-.5-18.3zm.5 18.1q0 11-.8 16.4l4 .5q.8-5.7.8-16.9zm1.4 14.7-7.5-.9-.5 4 7.6.8z" mask="url(#c)"/></g><g filter="url(#d)"><mask id="e" width="254" height="72" x="38" y="38" fill="#000" maskUnits="userSpaceOnUse"><path fill="#fff" d="M38 38h254v72H38z"/><path d="M55.3 88q-7 0-10.2-4-3-4-3-12.3a337 337 0 0 0-1.7-29.3l8-1.8q.5 4.8 1 12.7l.3 14.7v2.5q0 3.2.3 4.9.4 1.7 1.6 2.4t3.7.7h.3l.5 4.8-.5 4.7zm-.1-9.5h1.1q5 0 8.2-6 3.3-6 6.2-9a9 9 0 0 1 12.6-.7q2.7 2.1 4 5.7a19 19 0 0 1 0 14.2q-1.5 3.1-4 4.7-1.5 1-3.5 1a27 27 0 0 1-13.1-5.2A13 13 0 0 1 56.2 88H55zm15.6-2.9q3 2 5.4 3t3.8 1q.6 0 .8-.2.7-.4 1-1.3t.4-2q0-2.6-1.4-4.7Q79.3 69 77 69q-3 0-6.3 6.5M109.1 88q-7 0-10.2-4-3-4-3-12.3a337 337 0 0 0-1.7-29.3l8-1.8q.6 4.8 1 12.7l.3 14.7v2.5q0 3.2.4 4.9.3 1.7 1.5 2.4t3.7.7h.3l.5 4.8-.5 4.7zm-.3-9.5h3.4q4.5 0 6.6-1 2-1.1 2-3.1 0-1.5-1.3-5.3l-2.1-5.8 6.7-3.7a53 53 0 0 1 3.8 15q0 6.6-4 10T112.1 88h-3.4zm5 14.6 3.9 3.9 2 2-5.9 5.8-6-5.9zm34.7-17a34 34 0 0 0 7.3 2.4q1.2-2.4 2.9-4.8v-4a185 185 0 0 0-2-27.3l8-1.8a177 177 0 0 1 1.5 24.1 20 20 0 0 1 13-5.9q3.7 0 6.7 1.6 3 1.5 4.6 4.4 1.6 2.8 1.6 6.3 0 5.4-3.3 9.5a21 21 0 0 1-9.1 6.2 38 38 0 0 1-13.2 2.2 54 54 0 0 1-20.7-4.2zm14.4 3.5h2q6 .3 10.6-1 4.8-1.2 7.3-3.2 2.6-2 2.6-4 0-1.6-1.4-2.5-1.4-1.2-3.8-1.1-4.3 0-8.9 3-4.5 3-8.4 8.8m49.3 8.4q-7 0-10.2-4-3-4-3-12.3a338 338 0 0 0-1.7-29.3l7.9-1.8q.7 4.8 1 12.7.4 8 .4 14.7v2.5q0 3.2.3 4.9.4 1.7 1.6 2.4t3.7.7h.3l.5 4.8-.5 4.7zm-.3-9.5h.4q4.8 0 7-1a4 4 0 0 0 2.6-3.4 14 14 0 0 0-.2-5.1l-.4-2.6 6.6-1.2q.9 4.6.9 10.5.2 1 1.4 2 1.3.8 3.4.8h.3l.6 4.8-.6 4.7h-.3a10 10 0 0 1-4.8-1.2q-2.2-1.2-3.7-3.2-2 2.3-5.1 3.4-3.1 1-7.7 1h-.4zm4 14.6 3.8 4 2 2-5.9 5.8-6-5.9zm17.3-14.6h3.2q6.3 0 9-1.1 2.6-1.1 2.6-3.4 0-1.4-1.5-5.3l-2-5.4 6.7-3.7a48 48 0 0 1 3.9 14.9q0 6.5-4.5 10-4.3 3.5-12.8 3.5h-4.5zm6-32.1 5.4 5.4-5.3 5.4-1.8-1.8-3.7-3.6zm11.3 0 5.4 5.4-5.4 5.4-1.8-1.8-3.6-3.6zm1.6 52.2a46 46 0 0 0 13.2-8.5q2-2.3 2-3.8 0-2.6-3.3-14.3l-.4-1.3 7.2-2.8a62 62 0 0 1 3.3 18.4q0 6.3-4.9 11.6a37 37 0 0 1-13.2 8.8zm28.7-11q.7-4.2.7-13a311 311 0 0 0-1.8-32.2l8-1.8q.6 3.7 1 13t.5 18.2q0 11.2-.8 16.6z"/></mask><path fill="#3e15b7" d="m45.1 84-1.6 1.2zm-3-12.3h2zm-.6-16-2 .1zm-1.1-13.3-.4-2-1.9.4.3 1.9zm8-1.8 1.9-.2-.3-2.2-2.1.5zm1 12.7-2 .1zm.3 17.2h2zm.3 4.9 2-.5zm1.6 2.4-1 1.7zm4 .7 2-.2-.2-1.8h-1.8zm.5 4.8 2 .2V83zm-.5 4.7v2h1.8l.2-1.8zm-.3-2q-6.3 0-8.6-3.3l-3.2 2.5q4 4.9 11.8 4.8zm-8.6-3.2q-2.6-3.2-2.7-11.1h-4q-.1 8.6 3.5 13.5zM44 71.7q0-8-.5-16l-4 .2q.5 8 .5 15.8zm-.5-16q-.3-8.2-1.1-13.6l-4 .6q.8 5.1 1.1 13.1zm-2.7-11.4 8-1.7-1-4-7.8 1.8zm5.5-3.4q.7 4.5 1 12.5l4-.2q-.4-8-1-12.8zm1 12.5q.4 7.9.4 14.6h4q0-6.8-.4-14.8zm.4 14.6v2.5h4V68zm0 2.4q-.1 3.3.4 5.4L52 75a20 20 0 0 1-.3-4.4zm.4 5.4a6 6 0 0 0 2.4 3.7l2.1-3.4q-.3-.1-.6-1.2zm2.5 3.7q2 1 4.7 1v-4q-2.3-.1-2.7-.5zm4.7 1h.3v-4h-.3zm-1.7-1.8.5 4.8 4-.4-.5-4.8zm.5 4.3-.5 4.8 4 .4.5-4.7zm1.5 3h-.3v4h.3zm-.4-7.5v-2h-2v2zm9.3-6-1.7-1zm6.2-9L72 65zm12.6-.7L82 64.3zm4 5.7-1.9.7zm0 14.2 1.8.8zm-4 4.7-1.1-1.7zm-16.6-4.2 1-1.7-1.4-1-1.1 1.4zM55 88h-2v2h2zm15.8-12.4-1.8-.9-.8 1.7 1.6 1zm5.4 3-.8 1.8zm4.6.8-1.1-1.6zm1-1.3-1.8-.7zm-1-6.7-1.7 1zm-25.6 9h1.1v-4h-1.1zm1.1 0q6.6-.2 10-7l-3.5-1.9c-2 3.6-4.1 5-6.5 5zm10-7q3-5.9 5.8-8.4L69.3 62a41 41 0 0 0-6.5 9.4zM72 65a7 7 0 0 1 5.2-2.5v-4a11 11 0 0 0-8 3.7zm5.2-2.5a7 7 0 0 1 4.7 1.8l2.6-3a11 11 0 0 0-7.3-2.8zm4.8 1.8q2.2 1.8 3.3 4.9l3.8-1.4q-1.5-4-4.6-6.6zm3.4 5q1.2 3 1.2 6.5h4q0-4.2-1.5-8zm1.2 6.5a15 15 0 0 1-1.2 6l3.6 1.7q1.6-3.6 1.6-7.7zm-1.2 6q-1.2 2.6-3.3 4l2 3.3q3.3-2 5-5.6zm-3.4 4q-.8.5-2.3.5v4q2.5 0 4.5-1.2zm-2.3.5q-4 .1-12-4.8L65.6 85a29 29 0 0 0 14.2 5.4zM65.2 82a11 11 0 0 1-9 4.1v4q7.5 0 12-5.5zm-9 4.1H55v4h1.2zm.8 2 .2-9.5h-4L53 88zm12.8-10.6q3 1.8 5.6 3l1.7-3.6q-2.4-1-5.2-2.9zm5.7 3q2.5 1.1 4.5 1.2v-4a9 9 0 0 1-3-.9zm4.5 1.2q.8.2 2-.6l-2.4-3.2.5-.2H80zm2-.5q1.1-1 1.7-2.2l-3.8-1.5q0 .3-.2.4zm1.6-2.2q.6-1.3.6-2.8h-4l-.2 1.3zm.6-2.8q0-3.1-1.7-5.8L79 72.4q1 1.8 1 3.7zm-1.7-5.8q-1.9-3.1-5.4-3.2v4q1-.1 2 1.3zM77 67.1q-2.7.2-4.5 2.3a23 23 0 0 0-3.6 5.3l3.6 1.9q1.5-3.1 3-4.5 1.2-1.2 1.5-1zM98.9 84l-1.6 1.2zm-3-12.3h2zm-.6-16-2 .1zm-1.1-13.3-.4-2-1.9.4.3 1.9zm8-1.8 2-.2-.4-2.2-2.1.5zm1 12.7-2 .1zm.3 17.2h2zm.4 4.9 2-.5zm1.5 2.4-1 1.7zm4 .7 2-.2-.2-1.8h-1.8zm.5 4.8 2 .2V83zm-.5 4.7v2h1.8l.2-1.8zm-.3-2q-6.3 0-8.6-3.3l-3.1 2.5q4 4.9 11.7 4.8zm-8.6-3.2Q98 79.6 98 71.7h-4q-.1 8.6 3.4 13.5zM98 71.7q0-8-.6-16l-4 .2.6 15.8zm-.6-16Q97 47.4 96.2 42l-4 .6q.8 5.1 1.1 13.1zm-2.7-11.4 8-1.7-.9-4-8 1.8zm5.5-3.4q.7 4.5 1 12.5l4-.2q-.3-8-1-12.8zm1 12.5q.4 7.9.4 14.6h4q0-6.8-.3-14.8zm.4 14.6v2.5h4V68zm0 2.4q0 3.3.4 5.4l4-.9a20 20 0 0 1-.4-4.4zm.4 5.4a6 6 0 0 0 2.5 3.7l2-3.4q-.3-.1-.6-1.2zm2.5 3.7q2 1 4.7 1v-4q-2.3-.1-2.7-.5zm4.7 1h.3v-4h-.3zm-1.7-1.8.5 4.8 4-.4-.5-4.8zm.5 4.3-.5 4.8 4 .4.5-4.7zm1.5 3h-.3v4h.3zm-.6-7.5v-2h-2v2zm10.7-9.4-1.9.7zm-2.1-5.8-1-1.8-1.6 1 .7 1.6zm6.7-3.7 1.8-.8-.9-2-1.9 1zm2.5 7.2-2 .6zm-2.8 17.8-1.2-1.5zm-15 3.4h-2v2h2zm5 5 1.4-1.4-1.4-1.3-1.4 1.3zm3.9 4-1.4 1.4zm2 2 1.4 1.4 1.4-1.5-1.4-1.4zm-5.9 5.8-1.4 1.5 1.4 1.4 1.4-1.5zm-6-5.9-1.4-1.4L105 99l1.4 1.5zm1-18.4h3.4v-4h-3.4zm3.4 0q4.7 0 7.5-1.3l-1.8-3.5q-1.3.7-5.7.8zm7.5-1.3q1.4-.6 2.3-2 .8-1.2.8-2.8h-4l-.1.7-.8.6zm3.1-4.8q0-1.1-.4-2.5l-1-3.4-3.8 1.3 1.2 4.6zm-1.4-6q-1.4-4-2.2-5.9l-3.7 1.6 2.1 5.7zm-3-3.4 6.7-3.7-2-3.5-6.7 3.7zm3.9-4.6q1 2.5 2.4 7l3.8-1.1q-1.2-4.6-2.6-7.5zm2.4 7a26 26 0 0 1 1.2 7.3h4q0-3.8-1.4-8.5zm1.2 7.3q0 5.8-3.3 8.4l2.5 3Q130 82 130 74.7zm-3.3 8.4q-3.2 2.8-10.4 2.9v4q8 0 13-3.9zM112.2 86h-3.4v4h3.4zm-1.4 2v-9.5h-4V88zm1.6 6.5 3.9 3.9 2.8-2.8-4-4zm3.9 3.9 2 2 2.8-2.9-2-2zm2-.9-6 6 3 2.7 5.8-5.8zm-3.1 6-6-6-2.8 2.9 6 5.9zm-6-3.1 6-6-2.8-2.8-6 6zm39.3-24.2.8-1.9-2-1-.7 2.3zm7.3 2.3-.4 2 1.4.3.8-1.3zm2.9-4.8 1.6 1 .3-.4v-.5zm-.6-18.8-2 .2zm-1.4-12.5-.4-2-1.8.5.3 1.9zm8-1.8 2-.2-.3-2.2-2 .5zm1 10.7-2 .1zm.5 13.4h-2v4.5l3.3-3zm19.7-4.3-1 1.8zm4.6 4.4-1.7 1zm-1.7 15.8-1.5-1.2zm-9.1 6.2L179 85zM155.5 88l-.4 2zm-9.7-3.1-2-.6-.4 1.7 1.6.7zm17-5.2-1.6-1.2-2 2.8 3.5.3zm2.1 0 .1-2zm10.6-1 .5 2zm7.3-3.2L184 77zm1.2-6.5-1.2 1.5zm-12.7 2 1.1 1.6zm-23.7 7q3.6 1.8 7.8 2.6l.8-4a32 32 0 0 1-6.9-2.2zm10 1.6q1.2-2.4 2.7-4.7l-3.3-2.2q-1.7 2.4-3 5zm3-5.7.2-4h-4l-.1 3.8zm.2-4q0-6.4-.7-15l-4 .3q.7 8.5.7 14.7zm-.7-15q-.8-8.7-1.4-12.7l-4 .7q.8 3.8 1.4 12.3zm-3-10.4 8-1.8-.8-4-8 1.9zm5.7-3.5 1 10.5 3.9-.3q-.4-6.7-1-10.7zm1 10.5q.3 6.6.4 13.3h4q0-6.7-.5-13.6zm3.7 14.8q6.3-5.5 11.8-5.4v-4a22 22 0 0 0-14.5 6.4zm11.8-5.4q3.2 0 5.6 1.4l2-3.5a15 15 0 0 0-7.6-1.9zm5.6 1.4q2.6 1.2 3.8 3.6l3.5-2q-2-3.4-5.4-5.2zm3.8 3.6q1.5 2.3 1.4 5.3h4q0-4-2-7.3zm1.4 5.3q0 4.8-2.8 8.3l3 2.5q3.8-4.6 3.8-10.8zm-2.8 8.3q-3 3.5-8.3 5.6l1.3 3.7q6.3-2.3 10-6.8zM179 85q-5.5 2-12.5 2v4q7.5 0 13.9-2.3zm-12.5 2q-5.5 0-10.6-1l-.8 3.9q5.5 1 11.4 1.1zM156 86a47 47 0 0 1-9.4-3l-1.6 3.6A51 51 0 0 0 155 90zm-8.3-.6 2.7-8.6-3.8-1.2-2.7 8.6zm15-3.9 2.2.2v-4l-1.8-.1zm2.2.2q6 .2 11.1-1.1l-1-3.9q-4.3 1.2-10 1zm11.1-1.1q5-1.3 8-3.6l-2.4-3.2a19 19 0 0 1-6.6 3zm8-3.6q3.2-2.3 3.4-5.6h-4c0 .3-.3 1.2-1.8 2.4zm3.4-5.6a5 5 0 0 0-2.2-4.2l-2.4 3.3q.7.5.6.9zm-2.2-4.1a8 8 0 0 0-5-1.5v4q1.9 0 2.6.6zm-5-1.5q-5 0-10 3.4l2.3 3.3q4-2.8 7.7-2.7zm-10 3.4a35 35 0 0 0-9 9.2l3.3 2.3a31 31 0 0 1 8-8.2zM202 84l-1.6 1.2zm-3-12.3h2zm-.6-16-2 .1zm-1.1-13.3-.5-2-1.8.4.3 1.9zm7.9-1.8 2-.2-.3-2.2-2.1.5zm1 12.7-2 .1zm.4 17.2h2zm.3 4.9 2-.5zm1.6 2.4-1 1.7zm4 .7 2-.2-.2-1.8h-1.8zm.5 4.8 2 .2V83zm-.5 4.7v2h1.8l.2-1.8zm-.3-2c-4.4 0-7-1.2-8.6-3.3l-3.2 2.5q4 4.9 11.8 4.8zm-8.6-3.2q-2.6-3.2-2.7-11.1h-4q-.1 8.6 3.5 13.5zm-2.7-11.1q0-8-.5-16l-4 .2q.5 8 .5 15.8zm-.5-16q-.4-8.2-1.2-13.6l-4 .6q.9 5.1 1.2 13.1zm-2.7-11.4 8-1.7-1-4-7.9 1.8zm5.5-3.4q.7 4.5 1 12.5l4-.2q-.3-8-1-12.8zm1 12.5q.4 7.9.4 14.6h4q0-6.8-.4-14.8zm.4 14.6v2.5h4V68zm0 2.4q-.1 3.3.4 5.4l3.9-.9a20 20 0 0 1-.3-4.4zm.4 5.4a6 6 0 0 0 2.4 3.7l2.1-3.4q-.4-.1-.6-1.2zm2.5 3.7q1.9 1 4.7 1v-4q-2.3-.1-2.7-.5zm4.7 1h.3v-4h-.3zm-1.7-1.8.5 4.8 4-.4-.5-4.8zm.5 4.3-.5 4.8 4 .4.5-4.7zm1.5 3h-.3v4h.3zm-.6-7.5v-2h-2v2zm7.4-1-.8-1.9zm2.6-3.4 2 .3zm-.2-5.1-2 .3zm-.4-2.6-.4-2-1.8.4.2 1.9zm6.6-1.2 2-.4-.3-2-2 .4zm.9 10.5h-2v.5zm1.4 2-1.2 1.6zm3.7.8 2-.2-.2-1.8H234zm.6 4.8 2 .2V83zm-.6 4.7v2h1.8l.2-1.8zm-5.1-1.2-1 1.7zm-3.7-3.2 1.5-1.2-1.5-2-1.6 2zM220 87l.6 1.9zm-8.1 1h-2v2h2zm4 5.1 1.3-1.4-1.4-1.4-1.4 1.4zm3.8 4-1.4 1.3zm2 2 1.4 1.3 1.5-1.4-1.5-1.4zm-5.9 5.8-1.4 1.4 1.4 1.4 1.4-1.4zm-6-5.9-1.3-1.4L207 99l1.5 1.4zm2-18.5h.5v-4h-.4zm.5 0q5 0 7.8-1.3l-1.7-3.6q-1.5.8-6.1.9zm7.8-1.2q3.1-1.5 3.7-5l-4-.5q0 1.2-1.3 1.8zm3.7-5 .2-1.8h-4l-.1 1.4zm.2-1.8q0-1.7-.4-3.8l-4 .6q.4 1.9.4 3.2zm-.4-3.8-.3-2.5-4 .5.4 2.6zm-2-.3 6.7-1.3-.7-4-6.7 1.4zm4.4-2.9q.8 4.5.8 10.2h4q0-6-.9-10.9zm.8 10.7a5 5 0 0 0 2.2 3l2.3-3.2q-.6-.5-.6-.7zm2.2 3a8 8 0 0 0 4.6 1.3v-4q-1.9-.1-2.3-.5zm4.6 1.3h.3v-4h-.3zm-1.6-1.8.5 4.8 4-.4-.6-4.8zm.5 4.3-.5 4.8 4 .4.4-4.7zm1.4 3h-.3v4h.3zm-.3 0a8 8 0 0 1-3.9-1l-1.9 3.5a12 12 0 0 0 5.8 1.5zm-3.9-1q-1.8-1-3-2.6l-3.2 2.4q1.8 2.3 4.3 3.7zm-6.2-2.7a9 9 0 0 1-4.1 2.8l1.2 3.8q3.8-1.3 6-4zm-4.1 2.8q-2.8.9-7.1.9v4q4.8 0 8.3-1.1zm-7.1.9h-.4v4h.4zm1.6 2v-9.5h-4V88zm.5 6.6q2 1.8 3.9 3.8l2.9-2.8-4-4zm4 3.8 2 2 2.7-2.8-2-2zm2-.8-6 5.9 2.8 2.8 6-5.9zm-3.2 5.9-6-6-2.7 3 6 5.8zm-6-3 6-6-2.8-2.8-6 5.9zm22-22v-2h-2v2zm12.1-1.1.8 1.8zM248 74h2zm-1.5-5.3-1.9.6zm-2-5.4-1-1.8-1.7 1 .8 1.7zm6.7-3.7 1.8-.9-.9-1.9-1.8 1zm2.6 7.2-2 .5zm1.3 7.7h2zm-4.5 10 1.3 1.6zM233.3 88h-2v2h2zm6-41.6 1.4-1.4-1.4-1.4-1.4 1.4zm5.3 5.4 1.5 1.4 1.4-1.4-1.5-1.4zm-5.3 5.4-1.5 1.4 1.5 1.5 1.4-1.5zm-1.8-1.8-1.4 1.4zm-3.7-3.6-1.4-1.4-1.4 1.4 1.4 1.4zm16.7-5.4L252 45l-1.4-1.4-1.4 1.4zm5.4 5.4 1.4 1.4 1.4-1.4-1.4-1.4zm-5.4 5.4-1.4 1.4 1.4 1.5 1.4-1.5zm-1.8-1.8-1.4 1.4zm-3.6-3.6-1.4-1.4-1.5 1.4 1.5 1.4zm-11.9 28.7h3.2v-4h-3.2zm3.2 0q6.4 0 9.7-1.3l-1.5-3.7q-2 1-8.2 1zm9.7-1.3q1.5-.6 2.8-2 1-1.4 1-3.2h-4q0 .6-.2.8t-1.1.7zM250 74q-.2-2-1.6-6l-3.8 1.3q1.4 4 1.4 4.8zm-1.6-6-2.2-5.6-3.6 1.8q.6 1 2 5.1zm-3-3 6.8-3.7-2-3.5-6.7 3.7zm4-4.6q1.2 2.6 2.5 6.9l3.8-1.1q-1.3-4.5-2.7-7.5zm2.5 7q1.2 4 1.2 7.1h4q0-3.7-1.4-8.3zm1.2 7q-.1 5.9-3.7 8.6l2.5 3.1q5.2-4.2 5.2-11.6zm-3.7 8.6q-3.5 3-11.6 3v4q9 0 14-3.9zm-11.6 3h-4.5v4h4.5zm-2.5 2v-9.5h-4V88zm2.5-40.2 5.4 5.4 2.8-2.8-5.3-5.4zm5.4 2.6-5.4 5.4 2.9 2.8 5.4-5.4zm-2.5 5.4-1.8-1.8-2.8 2.8 1.7 1.8zm-1.8-1.8-3.7-3.6-2.8 2.8 3.7 3.6zm-3.7-.8 5.5-5.4-2.8-2.8-5.5 5.4zm14-5.4 5.3 5.4 2.8-2.8L252 45zm5.3 2.6-5.4 5.4 2.8 2.8 5.4-5.4zm-2.6 5.4-1.8-1.8-2.8 2.8 1.8 1.8zm-1.8-1.8-3.6-3.6-2.8 2.8 3.6 3.6zm-3.6-.8 5.4-5.4-2.8-2.8-5.4 5.4zm5.6 45.4-.8-1.8-2 .8 1 1.9zm7.7-4-1-1.7zm5.5-4.5-1.5-1.3zM264 72l-2 .5zm-.4-1.3L263 69l-1.6.6.4 1.7zm7.2-2.8 1.9-.7-.7-2-2 .8zm2.4 9.5-2 .3zm-4 20.5-1.5-1.4zm-13.2 8.8-1.8.9.8 1.7 1.7-.8zm-3.2-6.2q4.4-1.8 8.1-4.2l-2.2-3.4a44 44 0 0 1-7.4 3.9zm8-4.2q3.8-2.4 6-4.9l-3-2.6a24 24 0 0 1-5 4.1zm6-4.8c1.4-1.6 2.6-3.4 2.6-5.2h-4q.2.4-1.6 2.5zm2.6-5.2q0-1.8-1-5.4l-2.5-9.5-3.9 1.2a202 202 0 0 1 3.4 13.7zm-3.5-14.8-.3-1.3-3.9 1 .3 1.3zm-1.5 1 7.1-2.7-1.4-3.8-7.2 2.9zm4.5-4q1.5 4.4 2.4 9.2l4-.7q-1-5.1-2.6-9.8zm2.4 9.2q.9 4.9.8 8.6h4a53 53 0 0 0-.9-9.3zm.8 8.6q0 5.4-4.4 10.2l3 2.7q5.4-5.8 5.4-13zm-4.4 10.2q-4.5 5-12.5 8.3l1.5 3.7a39 39 0 0 0 14-9.3zm-10 9.3-3.8-8-3.6 1.7 3.9 8zm23.1-18.2-2-.3-.2 2 2 .3zm.1-31.5h-2zm-1.2-13.7-.5-2-1.8.5.3 1.9zm8-1.8 2-.3-.4-2.2-2 .5zm1 13 2-.1zm-.3 34.8-.2 2 2 .2.2-1.9zm-5.6-.5q.7-4.5.7-13.3h-4q0 8.7-.6 12.7zm.7-13.3q0-9-.6-18.7l-4 .3q.6 9.6.6 18.4zm-.6-18.6q-.4-9.8-1.2-14l-4 .8q.8 3.7 1.2 13.4zm-2.8-11.6 8-1.9-.9-3.9-8 1.9zm5.6-3.5q.6 3.5 1 12.8l4-.2q-.4-9.3-1-13.2zm1 12.8q.5 9.2.5 18.1h4q0-9-.5-18.3zm.5 18.1q0 11-.8 16.4l4 .5q.8-5.7.8-16.9zm1.4 14.7-7.5-.9-.5 4 7.6.8z" mask="url(#e)"/></g><g filter="url(#f)"><mask id="g" width="254" height="72" x="38" y="38" fill="#000" maskUnits="userSpaceOnUse"><path fill="#fff" d="M38 38h254v72H38z"/><path d="M55.3 88q-7 0-10.2-4-3-4-3-12.3a337 337 0 0 0-1.7-29.3l8-1.8q.5 4.8 1 12.7l.3 14.7v2.5q0 3.2.3 4.9.4 1.7 1.6 2.4t3.7.7h.3l.5 4.8-.5 4.7zm-.1-9.5h1.1q5 0 8.2-6 3.3-6 6.2-9a9 9 0 0 1 12.6-.7q2.7 2.1 4 5.7a19 19 0 0 1 0 14.2q-1.5 3.1-4 4.7-1.5 1-3.5 1a27 27 0 0 1-13.1-5.2A13 13 0 0 1 56.2 88H55zm15.6-2.9q3 2 5.4 3t3.8 1q.6 0 .8-.2.7-.4 1-1.3t.4-2q0-2.6-1.4-4.7Q79.3 69 77 69q-3 0-6.3 6.5M109.1 88q-7 0-10.2-4-3-4-3-12.3a337 337 0 0 0-1.7-29.3l8-1.8q.6 4.8 1 12.7l.3 14.7v2.5q0 3.2.4 4.9.3 1.7 1.5 2.4t3.7.7h.3l.5 4.8-.5 4.7zm-.3-9.5h3.4q4.5 0 6.6-1 2-1.1 2-3.1 0-1.5-1.3-5.3l-2.1-5.8 6.7-3.7a53 53 0 0 1 3.8 15q0 6.6-4 10T112.1 88h-3.4zm5 14.6 3.9 3.9 2 2-5.9 5.8-6-5.9zm34.7-17a34 34 0 0 0 7.3 2.4q1.2-2.4 2.9-4.8v-4a185 185 0 0 0-2-27.3l8-1.8a177 177 0 0 1 1.5 24.1 20 20 0 0 1 13-5.9q3.7 0 6.7 1.6 3 1.5 4.6 4.4 1.6 2.8 1.6 6.3 0 5.4-3.3 9.5a21 21 0 0 1-9.1 6.2 38 38 0 0 1-13.2 2.2 54 54 0 0 1-20.7-4.2zm14.4 3.5h2q6 .3 10.6-1 4.8-1.2 7.3-3.2 2.6-2 2.6-4 0-1.6-1.4-2.5-1.4-1.2-3.8-1.1-4.3 0-8.9 3-4.5 3-8.4 8.8m49.3 8.4q-7 0-10.2-4-3-4-3-12.3a338 338 0 0 0-1.7-29.3l7.9-1.8q.7 4.8 1 12.7.4 8 .4 14.7v2.5q0 3.2.3 4.9.4 1.7 1.6 2.4t3.7.7h.3l.5 4.8-.5 4.7zm-.3-9.5h.4q4.8 0 7-1a4 4 0 0 0 2.6-3.4 14 14 0 0 0-.2-5.1l-.4-2.6 6.6-1.2q.9 4.6.9 10.5.2 1 1.4 2 1.3.8 3.4.8h.3l.6 4.8-.6 4.7h-.3a10 10 0 0 1-4.8-1.2q-2.2-1.2-3.7-3.2-2 2.3-5.1 3.4-3.1 1-7.7 1h-.4zm4 14.6 3.8 4 2 2-5.9 5.8-6-5.9zm17.3-14.6h3.2q6.3 0 9-1.1 2.6-1.1 2.6-3.4 0-1.4-1.5-5.3l-2-5.4 6.7-3.7a48 48 0 0 1 3.9 14.9q0 6.5-4.5 10-4.3 3.5-12.8 3.5h-4.5zm6-32.1 5.4 5.4-5.3 5.4-1.8-1.8-3.7-3.6zm11.3 0 5.4 5.4-5.4 5.4-1.8-1.8-3.6-3.6zm1.6 52.2a46 46 0 0 0 13.2-8.5q2-2.3 2-3.8 0-2.6-3.3-14.3l-.4-1.3 7.2-2.8a62 62 0 0 1 3.3 18.4q0 6.3-4.9 11.6a37 37 0 0 1-13.2 8.8zm28.7-11q.7-4.2.7-13a311 311 0 0 0-1.8-32.2l8-1.8q.6 3.7 1 13t.5 18.2q0 11.2-.8 16.6z"/></mask><path fill="#3e15b7" d="m45.1 84-1.6 1.2zm-3-12.3h2zm-.6-16-2 .1zm-1.1-13.3-.4-2-1.9.4.3 1.9zm8-1.8 1.9-.2-.3-2.2-2.1.5zm1 12.7-2 .1zm.3 17.2h2zm.3 4.9 2-.5zm1.6 2.4-1 1.7zm4 .7 2-.2-.2-1.8h-1.8zm.5 4.8 2 .2V83zm-.5 4.7v2h1.8l.2-1.8zm-.3-2q-6.3 0-8.6-3.3l-3.2 2.5q4 4.9 11.8 4.8zm-8.6-3.2q-2.6-3.2-2.7-11.1h-4q-.1 8.6 3.5 13.5zM44 71.7q0-8-.5-16l-4 .2q.5 8 .5 15.8zm-.5-16q-.3-8.2-1.1-13.6l-4 .6q.8 5.1 1.1 13.1zm-2.7-11.4 8-1.7-1-4-7.8 1.8zm5.5-3.4q.7 4.5 1 12.5l4-.2q-.4-8-1-12.8zm1 12.5q.4 7.9.4 14.6h4q0-6.8-.4-14.8zm.4 14.6v2.5h4V68zm0 2.4q-.1 3.3.4 5.4L52 75a20 20 0 0 1-.3-4.4zm.4 5.4a6 6 0 0 0 2.4 3.7l2.1-3.4q-.3-.1-.6-1.2zm2.5 3.7q2 1 4.7 1v-4q-2.3-.1-2.7-.5zm4.7 1h.3v-4h-.3zm-1.7-1.8.5 4.8 4-.4-.5-4.8zm.5 4.3-.5 4.8 4 .4.5-4.7zm1.5 3h-.3v4h.3zm-.4-7.5v-2h-2v2zm9.3-6-1.7-1zm6.2-9L72 65zm12.6-.7L82 64.3zm4 5.7-1.9.7zm0 14.2 1.8.8zm-4 4.7-1.1-1.7zm-16.6-4.2 1-1.7-1.4-1-1.1 1.4zM55 88h-2v2h2zm15.8-12.4-1.8-.9-.8 1.7 1.6 1zm5.4 3-.8 1.8zm4.6.8-1.1-1.6zm1-1.3-1.8-.7zm-1-6.7-1.7 1zm-25.6 9h1.1v-4h-1.1zm1.1 0q6.6-.2 10-7l-3.5-1.9c-2 3.6-4.1 5-6.5 5zm10-7q3-5.9 5.8-8.4L69.3 62a41 41 0 0 0-6.5 9.4zM72 65a7 7 0 0 1 5.2-2.5v-4a11 11 0 0 0-8 3.7zm5.2-2.5a7 7 0 0 1 4.7 1.8l2.6-3a11 11 0 0 0-7.3-2.8zm4.8 1.8q2.2 1.8 3.3 4.9l3.8-1.4q-1.5-4-4.6-6.6zm3.4 5q1.2 3 1.2 6.5h4q0-4.2-1.5-8zm1.2 6.5a15 15 0 0 1-1.2 6l3.6 1.7q1.6-3.6 1.6-7.7zm-1.2 6q-1.2 2.6-3.3 4l2 3.3q3.3-2 5-5.6zm-3.4 4q-.8.5-2.3.5v4q2.5 0 4.5-1.2zm-2.3.5q-4 .1-12-4.8L65.6 85a29 29 0 0 0 14.2 5.4zM65.2 82a11 11 0 0 1-9 4.1v4q7.5 0 12-5.5zm-9 4.1H55v4h1.2zm.8 2 .2-9.5h-4L53 88zm12.8-10.6q3 1.8 5.6 3l1.7-3.6q-2.4-1-5.2-2.9zm5.7 3q2.5 1.1 4.5 1.2v-4a9 9 0 0 1-3-.9zm4.5 1.2q.8.2 2-.6l-2.4-3.2.5-.2H80zm2-.5q1.1-1 1.7-2.2l-3.8-1.5q0 .3-.2.4zm1.6-2.2q.6-1.3.6-2.8h-4l-.2 1.3zm.6-2.8q0-3.1-1.7-5.8L79 72.4q1 1.8 1 3.7zm-1.7-5.8q-1.9-3.1-5.4-3.2v4q1-.1 2 1.3zM77 67.1q-2.7.2-4.5 2.3a23 23 0 0 0-3.6 5.3l3.6 1.9q1.5-3.1 3-4.5 1.2-1.2 1.5-1zM98.9 84l-1.6 1.2zm-3-12.3h2zm-.6-16-2 .1zm-1.1-13.3-.4-2-1.9.4.3 1.9zm8-1.8 2-.2-.4-2.2-2.1.5zm1 12.7-2 .1zm.3 17.2h2zm.4 4.9 2-.5zm1.5 2.4-1 1.7zm4 .7 2-.2-.2-1.8h-1.8zm.5 4.8 2 .2V83zm-.5 4.7v2h1.8l.2-1.8zm-.3-2q-6.3 0-8.6-3.3l-3.1 2.5q4 4.9 11.7 4.8zm-8.6-3.2Q98 79.6 98 71.7h-4q-.1 8.6 3.4 13.5zM98 71.7q0-8-.6-16l-4 .2.6 15.8zm-.6-16Q97 47.4 96.2 42l-4 .6q.8 5.1 1.1 13.1zm-2.7-11.4 8-1.7-.9-4-8 1.8zm5.5-3.4q.7 4.5 1 12.5l4-.2q-.3-8-1-12.8zm1 12.5q.4 7.9.4 14.6h4q0-6.8-.3-14.8zm.4 14.6v2.5h4V68zm0 2.4q0 3.3.4 5.4l4-.9a20 20 0 0 1-.4-4.4zm.4 5.4a6 6 0 0 0 2.5 3.7l2-3.4q-.3-.1-.6-1.2zm2.5 3.7q2 1 4.7 1v-4q-2.3-.1-2.7-.5zm4.7 1h.3v-4h-.3zm-1.7-1.8.5 4.8 4-.4-.5-4.8zm.5 4.3-.5 4.8 4 .4.5-4.7zm1.5 3h-.3v4h.3zm-.6-7.5v-2h-2v2zm10.7-9.4-1.9.7zm-2.1-5.8-1-1.8-1.6 1 .7 1.6zm6.7-3.7 1.8-.8-.9-2-1.9 1zm2.5 7.2-2 .6zm-2.8 17.8-1.2-1.5zm-15 3.4h-2v2h2zm5 5 1.4-1.4-1.4-1.3-1.4 1.3zm3.9 4-1.4 1.4zm2 2 1.4 1.4 1.4-1.5-1.4-1.4zm-5.9 5.8-1.4 1.5 1.4 1.4 1.4-1.5zm-6-5.9-1.4-1.4L105 99l1.4 1.5zm1-18.4h3.4v-4h-3.4zm3.4 0q4.7 0 7.5-1.3l-1.8-3.5q-1.3.7-5.7.8zm7.5-1.3q1.4-.6 2.3-2 .8-1.2.8-2.8h-4l-.1.7-.8.6zm3.1-4.8q0-1.1-.4-2.5l-1-3.4-3.8 1.3 1.2 4.6zm-1.4-6q-1.4-4-2.2-5.9l-3.7 1.6 2.1 5.7zm-3-3.4 6.7-3.7-2-3.5-6.7 3.7zm3.9-4.6q1 2.5 2.4 7l3.8-1.1q-1.2-4.6-2.6-7.5zm2.4 7a26 26 0 0 1 1.2 7.3h4q0-3.8-1.4-8.5zm1.2 7.3q0 5.8-3.3 8.4l2.5 3Q130 82 130 74.7zm-3.3 8.4q-3.2 2.8-10.4 2.9v4q8 0 13-3.9zM112.2 86h-3.4v4h3.4zm-1.4 2v-9.5h-4V88zm1.6 6.5 3.9 3.9 2.8-2.8-4-4zm3.9 3.9 2 2 2.8-2.9-2-2zm2-.9-6 6 3 2.7 5.8-5.8zm-3.1 6-6-6-2.8 2.9 6 5.9zm-6-3.1 6-6-2.8-2.8-6 6zm39.3-24.2.8-1.9-2-1-.7 2.3zm7.3 2.3-.4 2 1.4.3.8-1.3zm2.9-4.8 1.6 1 .3-.4v-.5zm-.6-18.8-2 .2zm-1.4-12.5-.4-2-1.8.5.3 1.9zm8-1.8 2-.2-.3-2.2-2 .5zm1 10.7-2 .1zm.5 13.4h-2v4.5l3.3-3zm19.7-4.3-1 1.8zm4.6 4.4-1.7 1zm-1.7 15.8-1.5-1.2zm-9.1 6.2L179 85zM155.5 88l-.4 2zm-9.7-3.1-2-.6-.4 1.7 1.6.7zm17-5.2-1.6-1.2-2 2.8 3.5.3zm2.1 0 .1-2zm10.6-1 .5 2zm7.3-3.2L184 77zm1.2-6.5-1.2 1.5zm-12.7 2 1.1 1.6zm-23.7 7q3.6 1.8 7.8 2.6l.8-4a32 32 0 0 1-6.9-2.2zm10 1.6q1.2-2.4 2.7-4.7l-3.3-2.2q-1.7 2.4-3 5zm3-5.7.2-4h-4l-.1 3.8zm.2-4q0-6.4-.7-15l-4 .3q.7 8.5.7 14.7zm-.7-15q-.8-8.7-1.4-12.7l-4 .7q.8 3.8 1.4 12.3zm-3-10.4 8-1.8-.8-4-8 1.9zm5.7-3.5 1 10.5 3.9-.3q-.4-6.7-1-10.7zm1 10.5q.3 6.6.4 13.3h4q0-6.7-.5-13.6zm3.7 14.8q6.3-5.5 11.8-5.4v-4a22 22 0 0 0-14.5 6.4zm11.8-5.4q3.2 0 5.6 1.4l2-3.5a15 15 0 0 0-7.6-1.9zm5.6 1.4q2.6 1.2 3.8 3.6l3.5-2q-2-3.4-5.4-5.2zm3.8 3.6q1.5 2.3 1.4 5.3h4q0-4-2-7.3zm1.4 5.3q0 4.8-2.8 8.3l3 2.5q3.8-4.6 3.8-10.8zm-2.8 8.3q-3 3.5-8.3 5.6l1.3 3.7q6.3-2.3 10-6.8zM179 85q-5.5 2-12.5 2v4q7.5 0 13.9-2.3zm-12.5 2q-5.5 0-10.6-1l-.8 3.9q5.5 1 11.4 1.1zM156 86a47 47 0 0 1-9.4-3l-1.6 3.6A51 51 0 0 0 155 90zm-8.3-.6 2.7-8.6-3.8-1.2-2.7 8.6zm15-3.9 2.2.2v-4l-1.8-.1zm2.2.2q6 .2 11.1-1.1l-1-3.9q-4.3 1.2-10 1zm11.1-1.1q5-1.3 8-3.6l-2.4-3.2a19 19 0 0 1-6.6 3zm8-3.6q3.2-2.3 3.4-5.6h-4c0 .3-.3 1.2-1.8 2.4zm3.4-5.6a5 5 0 0 0-2.2-4.2l-2.4 3.3q.7.5.6.9zm-2.2-4.1a8 8 0 0 0-5-1.5v4q1.9 0 2.6.6zm-5-1.5q-5 0-10 3.4l2.3 3.3q4-2.8 7.7-2.7zm-10 3.4a35 35 0 0 0-9 9.2l3.3 2.3a31 31 0 0 1 8-8.2zM202 84l-1.6 1.2zm-3-12.3h2zm-.6-16-2 .1zm-1.1-13.3-.5-2-1.8.4.3 1.9zm7.9-1.8 2-.2-.3-2.2-2.1.5zm1 12.7-2 .1zm.4 17.2h2zm.3 4.9 2-.5zm1.6 2.4-1 1.7zm4 .7 2-.2-.2-1.8h-1.8zm.5 4.8 2 .2V83zm-.5 4.7v2h1.8l.2-1.8zm-.3-2c-4.4 0-7-1.2-8.6-3.3l-3.2 2.5q4 4.9 11.8 4.8zm-8.6-3.2q-2.6-3.2-2.7-11.1h-4q-.1 8.6 3.5 13.5zm-2.7-11.1q0-8-.5-16l-4 .2q.5 8 .5 15.8zm-.5-16q-.4-8.2-1.2-13.6l-4 .6q.9 5.1 1.2 13.1zm-2.7-11.4 8-1.7-1-4-7.9 1.8zm5.5-3.4q.7 4.5 1 12.5l4-.2q-.3-8-1-12.8zm1 12.5q.4 7.9.4 14.6h4q0-6.8-.4-14.8zm.4 14.6v2.5h4V68zm0 2.4q-.1 3.3.4 5.4l3.9-.9a20 20 0 0 1-.3-4.4zm.4 5.4a6 6 0 0 0 2.4 3.7l2.1-3.4q-.4-.1-.6-1.2zm2.5 3.7q1.9 1 4.7 1v-4q-2.3-.1-2.7-.5zm4.7 1h.3v-4h-.3zm-1.7-1.8.5 4.8 4-.4-.5-4.8zm.5 4.3-.5 4.8 4 .4.5-4.7zm1.5 3h-.3v4h.3zm-.6-7.5v-2h-2v2zm7.4-1-.8-1.9zm2.6-3.4 2 .3zm-.2-5.1-2 .3zm-.4-2.6-.4-2-1.8.4.2 1.9zm6.6-1.2 2-.4-.3-2-2 .4zm.9 10.5h-2v.5zm1.4 2-1.2 1.6zm3.7.8 2-.2-.2-1.8H234zm.6 4.8 2 .2V83zm-.6 4.7v2h1.8l.2-1.8zm-5.1-1.2-1 1.7zm-3.7-3.2 1.5-1.2-1.5-2-1.6 2zM220 87l.6 1.9zm-8.1 1h-2v2h2zm4 5.1 1.3-1.4-1.4-1.4-1.4 1.4zm3.8 4-1.4 1.3zm2 2 1.4 1.3 1.5-1.4-1.5-1.4zm-5.9 5.8-1.4 1.4 1.4 1.4 1.4-1.4zm-6-5.9-1.3-1.4L207 99l1.5 1.4zm2-18.5h.5v-4h-.4zm.5 0q5 0 7.8-1.3l-1.7-3.6q-1.5.8-6.1.9zm7.8-1.2q3.1-1.5 3.7-5l-4-.5q0 1.2-1.3 1.8zm3.7-5 .2-1.8h-4l-.1 1.4zm.2-1.8q0-1.7-.4-3.8l-4 .6q.4 1.9.4 3.2zm-.4-3.8-.3-2.5-4 .5.4 2.6zm-2-.3 6.7-1.3-.7-4-6.7 1.4zm4.4-2.9q.8 4.5.8 10.2h4q0-6-.9-10.9zm.8 10.7a5 5 0 0 0 2.2 3l2.3-3.2q-.6-.5-.6-.7zm2.2 3a8 8 0 0 0 4.6 1.3v-4q-1.9-.1-2.3-.5zm4.6 1.3h.3v-4h-.3zm-1.6-1.8.5 4.8 4-.4-.6-4.8zm.5 4.3-.5 4.8 4 .4.4-4.7zm1.4 3h-.3v4h.3zm-.3 0a8 8 0 0 1-3.9-1l-1.9 3.5a12 12 0 0 0 5.8 1.5zm-3.9-1q-1.8-1-3-2.6l-3.2 2.4q1.8 2.3 4.3 3.7zm-6.2-2.7a9 9 0 0 1-4.1 2.8l1.2 3.8q3.8-1.3 6-4zm-4.1 2.8q-2.8.9-7.1.9v4q4.8 0 8.3-1.1zm-7.1.9h-.4v4h.4zm1.6 2v-9.5h-4V88zm.5 6.6q2 1.8 3.9 3.8l2.9-2.8-4-4zm4 3.8 2 2 2.7-2.8-2-2zm2-.8-6 5.9 2.8 2.8 6-5.9zm-3.2 5.9-6-6-2.7 3 6 5.8zm-6-3 6-6-2.8-2.8-6 5.9zm22-22v-2h-2v2zm12.1-1.1.8 1.8zM248 74h2zm-1.5-5.3-1.9.6zm-2-5.4-1-1.8-1.7 1 .8 1.7zm6.7-3.7 1.8-.9-.9-1.9-1.8 1zm2.6 7.2-2 .5zm1.3 7.7h2zm-4.5 10 1.3 1.6zM233.3 88h-2v2h2zm6-41.6 1.4-1.4-1.4-1.4-1.4 1.4zm5.3 5.4 1.5 1.4 1.4-1.4-1.5-1.4zm-5.3 5.4-1.5 1.4 1.5 1.5 1.4-1.5zm-1.8-1.8-1.4 1.4zm-3.7-3.6-1.4-1.4-1.4 1.4 1.4 1.4zm16.7-5.4L252 45l-1.4-1.4-1.4 1.4zm5.4 5.4 1.4 1.4 1.4-1.4-1.4-1.4zm-5.4 5.4-1.4 1.4 1.4 1.5 1.4-1.5zm-1.8-1.8-1.4 1.4zm-3.6-3.6-1.4-1.4-1.5 1.4 1.5 1.4zm-11.9 28.7h3.2v-4h-3.2zm3.2 0q6.4 0 9.7-1.3l-1.5-3.7q-2 1-8.2 1zm9.7-1.3q1.5-.6 2.8-2 1-1.4 1-3.2h-4q0 .6-.2.8t-1.1.7zM250 74q-.2-2-1.6-6l-3.8 1.3q1.4 4 1.4 4.8zm-1.6-6-2.2-5.6-3.6 1.8q.6 1 2 5.1zm-3-3 6.8-3.7-2-3.5-6.7 3.7zm4-4.6q1.2 2.6 2.5 6.9l3.8-1.1q-1.3-4.5-2.7-7.5zm2.5 7q1.2 4 1.2 7.1h4q0-3.7-1.4-8.3zm1.2 7q-.1 5.9-3.7 8.6l2.5 3.1q5.2-4.2 5.2-11.6zm-3.7 8.6q-3.5 3-11.6 3v4q9 0 14-3.9zm-11.6 3h-4.5v4h4.5zm-2.5 2v-9.5h-4V88zm2.5-40.2 5.4 5.4 2.8-2.8-5.3-5.4zm5.4 2.6-5.4 5.4 2.9 2.8 5.4-5.4zm-2.5 5.4-1.8-1.8-2.8 2.8 1.7 1.8zm-1.8-1.8-3.7-3.6-2.8 2.8 3.7 3.6zm-3.7-.8 5.5-5.4-2.8-2.8-5.5 5.4zm14-5.4 5.3 5.4 2.8-2.8L252 45zm5.3 2.6-5.4 5.4 2.8 2.8 5.4-5.4zm-2.6 5.4-1.8-1.8-2.8 2.8 1.8 1.8zm-1.8-1.8-3.6-3.6-2.8 2.8 3.6 3.6zm-3.6-.8 5.4-5.4-2.8-2.8-5.4 5.4zm5.6 45.4-.8-1.8-2 .8 1 1.9zm7.7-4-1-1.7zm5.5-4.5-1.5-1.3zM264 72l-2 .5zm-.4-1.3L263 69l-1.6.6.4 1.7zm7.2-2.8 1.9-.7-.7-2-2 .8zm2.4 9.5-2 .3zm-4 20.5-1.5-1.4zm-13.2 8.8-1.8.9.8 1.7 1.7-.8zm-3.2-6.2q4.4-1.8 8.1-4.2l-2.2-3.4a44 44 0 0 1-7.4 3.9zm8-4.2q3.8-2.4 6-4.9l-3-2.6a24 24 0 0 1-5 4.1zm6-4.8c1.4-1.6 2.6-3.4 2.6-5.2h-4q.2.4-1.6 2.5zm2.6-5.2q0-1.8-1-5.4l-2.5-9.5-3.9 1.2a202 202 0 0 1 3.4 13.7zm-3.5-14.8-.3-1.3-3.9 1 .3 1.3zm-1.5 1 7.1-2.7-1.4-3.8-7.2 2.9zm4.5-4q1.5 4.4 2.4 9.2l4-.7q-1-5.1-2.6-9.8zm2.4 9.2q.9 4.9.8 8.6h4a53 53 0 0 0-.9-9.3zm.8 8.6q0 5.4-4.4 10.2l3 2.7q5.4-5.8 5.4-13zm-4.4 10.2q-4.5 5-12.5 8.3l1.5 3.7a39 39 0 0 0 14-9.3zm-10 9.3-3.8-8-3.6 1.7 3.9 8zm23.1-18.2-2-.3-.2 2 2 .3zm.1-31.5h-2zm-1.2-13.7-.5-2-1.8.5.3 1.9zm8-1.8 2-.3-.4-2.2-2 .5zm1 13 2-.1zm-.3 34.8-.2 2 2 .2.2-1.9zm-5.6-.5q.7-4.5.7-13.3h-4q0 8.7-.6 12.7zm.7-13.3q0-9-.6-18.7l-4 .3q.6 9.6.6 18.4zm-.6-18.6q-.4-9.8-1.2-14l-4 .8q.8 3.7 1.2 13.4zm-2.8-11.6 8-1.9-.9-3.9-8 1.9zm5.6-3.5q.6 3.5 1 12.8l4-.2q-.4-9.3-1-13.2zm1 12.8q.5 9.2.5 18.1h4q0-9-.5-18.3zm.5 18.1q0 11-.8 16.4l4 .5q.8-5.7.8-16.9zm1.4 14.7-7.5-.9-.5 4 7.6.8z" mask="url(#g)"/></g><g filter="url(#h)"><mask id="i" width="254" height="72" x="38" y="38" fill="#000" maskUnits="userSpaceOnUse"><path fill="#fff" d="M38 38h254v72H38z"/><path d="M55.3 88q-7 0-10.2-4-3-4-3-12.3a337 337 0 0 0-1.7-29.3l8-1.8q.5 4.8 1 12.7l.3 14.7v2.5q0 3.2.3 4.9.4 1.7 1.6 2.4t3.7.7h.3l.5 4.8-.5 4.7zm-.1-9.5h1.1q5 0 8.2-6 3.3-6 6.2-9a9 9 0 0 1 12.6-.7q2.7 2.1 4 5.7a19 19 0 0 1 0 14.2q-1.5 3.1-4 4.7-1.5 1-3.5 1a27 27 0 0 1-13.1-5.2A13 13 0 0 1 56.2 88H55zm15.6-2.9q3 2 5.4 3t3.8 1q.6 0 .8-.2.7-.4 1-1.3t.4-2q0-2.6-1.4-4.7Q79.3 69 77 69q-3 0-6.3 6.5M109.1 88q-7 0-10.2-4-3-4-3-12.3a337 337 0 0 0-1.7-29.3l8-1.8q.6 4.8 1 12.7l.3 14.7v2.5q0 3.2.4 4.9.3 1.7 1.5 2.4t3.7.7h.3l.5 4.8-.5 4.7zm-.3-9.5h3.4q4.5 0 6.6-1 2-1.1 2-3.1 0-1.5-1.3-5.3l-2.1-5.8 6.7-3.7a53 53 0 0 1 3.8 15q0 6.6-4 10T112.1 88h-3.4zm5 14.6 3.9 3.9 2 2-5.9 5.8-6-5.9zm34.7-17a34 34 0 0 0 7.3 2.4q1.2-2.4 2.9-4.8v-4a185 185 0 0 0-2-27.3l8-1.8a177 177 0 0 1 1.5 24.1 20 20 0 0 1 13-5.9q3.7 0 6.7 1.6 3 1.5 4.6 4.4 1.6 2.8 1.6 6.3 0 5.4-3.3 9.5a21 21 0 0 1-9.1 6.2 38 38 0 0 1-13.2 2.2 54 54 0 0 1-20.7-4.2zm14.4 3.5h2q6 .3 10.6-1 4.8-1.2 7.3-3.2 2.6-2 2.6-4 0-1.6-1.4-2.5-1.4-1.2-3.8-1.1-4.3 0-8.9 3-4.5 3-8.4 8.8m49.3 8.4q-7 0-10.2-4-3-4-3-12.3a338 338 0 0 0-1.7-29.3l7.9-1.8q.7 4.8 1 12.7.4 8 .4 14.7v2.5q0 3.2.3 4.9.4 1.7 1.6 2.4t3.7.7h.3l.5 4.8-.5 4.7zm-.3-9.5h.4q4.8 0 7-1a4 4 0 0 0 2.6-3.4 14 14 0 0 0-.2-5.1l-.4-2.6 6.6-1.2q.9 4.6.9 10.5.2 1 1.4 2 1.3.8 3.4.8h.3l.6 4.8-.6 4.7h-.3a10 10 0 0 1-4.8-1.2q-2.2-1.2-3.7-3.2-2 2.3-5.1 3.4-3.1 1-7.7 1h-.4zm4 14.6 3.8 4 2 2-5.9 5.8-6-5.9zm17.3-14.6h3.2q6.3 0 9-1.1 2.6-1.1 2.6-3.4 0-1.4-1.5-5.3l-2-5.4 6.7-3.7a48 48 0 0 1 3.9 14.9q0 6.5-4.5 10-4.3 3.5-12.8 3.5h-4.5zm6-32.1 5.4 5.4-5.3 5.4-1.8-1.8-3.7-3.6zm11.3 0 5.4 5.4-5.4 5.4-1.8-1.8-3.6-3.6zm1.6 52.2a46 46 0 0 0 13.2-8.5q2-2.3 2-3.8 0-2.6-3.3-14.3l-.4-1.3 7.2-2.8a62 62 0 0 1 3.3 18.4q0 6.3-4.9 11.6a37 37 0 0 1-13.2 8.8zm28.7-11q.7-4.2.7-13a311 311 0 0 0-1.8-32.2l8-1.8q.6 3.7 1 13t.5 18.2q0 11.2-.8 16.6z"/></mask><path fill="#3e15b7" d="m45.1 84-1.6 1.2zm-3-12.3h2zm-.6-16-2 .1zm-1.1-13.3-.4-2-1.9.4.3 1.9zm8-1.8 1.9-.2-.3-2.2-2.1.5zm1 12.7-2 .1zm.3 17.2h2zm.3 4.9 2-.5zm1.6 2.4-1 1.7zm4 .7 2-.2-.2-1.8h-1.8zm.5 4.8 2 .2V83zm-.5 4.7v2h1.8l.2-1.8zm-.3-2q-6.3 0-8.6-3.3l-3.2 2.5q4 4.9 11.8 4.8zm-8.6-3.2q-2.6-3.2-2.7-11.1h-4q-.1 8.6 3.5 13.5zM44 71.7q0-8-.5-16l-4 .2q.5 8 .5 15.8zm-.5-16q-.3-8.2-1.1-13.6l-4 .6q.8 5.1 1.1 13.1zm-2.7-11.4 8-1.7-1-4-7.8 1.8zm5.5-3.4q.7 4.5 1 12.5l4-.2q-.4-8-1-12.8zm1 12.5q.4 7.9.4 14.6h4q0-6.8-.4-14.8zm.4 14.6v2.5h4V68zm0 2.4q-.1 3.3.4 5.4L52 75a20 20 0 0 1-.3-4.4zm.4 5.4a6 6 0 0 0 2.4 3.7l2.1-3.4q-.3-.1-.6-1.2zm2.5 3.7q2 1 4.7 1v-4q-2.3-.1-2.7-.5zm4.7 1h.3v-4h-.3zm-1.7-1.8.5 4.8 4-.4-.5-4.8zm.5 4.3-.5 4.8 4 .4.5-4.7zm1.5 3h-.3v4h.3zm-.4-7.5v-2h-2v2zm9.3-6-1.7-1zm6.2-9L72 65zm12.6-.7L82 64.3zm4 5.7-1.9.7zm0 14.2 1.8.8zm-4 4.7-1.1-1.7zm-16.6-4.2 1-1.7-1.4-1-1.1 1.4zM55 88h-2v2h2zm15.8-12.4-1.8-.9-.8 1.7 1.6 1zm5.4 3-.8 1.8zm4.6.8-1.1-1.6zm1-1.3-1.8-.7zm-1-6.7-1.7 1zm-25.6 9h1.1v-4h-1.1zm1.1 0q6.6-.2 10-7l-3.5-1.9c-2 3.6-4.1 5-6.5 5zm10-7q3-5.9 5.8-8.4L69.3 62a41 41 0 0 0-6.5 9.4zM72 65a7 7 0 0 1 5.2-2.5v-4a11 11 0 0 0-8 3.7zm5.2-2.5a7 7 0 0 1 4.7 1.8l2.6-3a11 11 0 0 0-7.3-2.8zm4.8 1.8q2.2 1.8 3.3 4.9l3.8-1.4q-1.5-4-4.6-6.6zm3.4 5q1.2 3 1.2 6.5h4q0-4.2-1.5-8zm1.2 6.5a15 15 0 0 1-1.2 6l3.6 1.7q1.6-3.6 1.6-7.7zm-1.2 6q-1.2 2.6-3.3 4l2 3.3q3.3-2 5-5.6zm-3.4 4q-.8.5-2.3.5v4q2.5 0 4.5-1.2zm-2.3.5q-4 .1-12-4.8L65.6 85a29 29 0 0 0 14.2 5.4zM65.2 82a11 11 0 0 1-9 4.1v4q7.5 0 12-5.5zm-9 4.1H55v4h1.2zm.8 2 .2-9.5h-4L53 88zm12.8-10.6q3 1.8 5.6 3l1.7-3.6q-2.4-1-5.2-2.9zm5.7 3q2.5 1.1 4.5 1.2v-4a9 9 0 0 1-3-.9zm4.5 1.2q.8.2 2-.6l-2.4-3.2.5-.2H80zm2-.5q1.1-1 1.7-2.2l-3.8-1.5q0 .3-.2.4zm1.6-2.2q.6-1.3.6-2.8h-4l-.2 1.3zm.6-2.8q0-3.1-1.7-5.8L79 72.4q1 1.8 1 3.7zm-1.7-5.8q-1.9-3.1-5.4-3.2v4q1-.1 2 1.3zM77 67.1q-2.7.2-4.5 2.3a23 23 0 0 0-3.6 5.3l3.6 1.9q1.5-3.1 3-4.5 1.2-1.2 1.5-1zM98.9 84l-1.6 1.2zm-3-12.3h2zm-.6-16-2 .1zm-1.1-13.3-.4-2-1.9.4.3 1.9zm8-1.8 2-.2-.4-2.2-2.1.5zm1 12.7-2 .1zm.3 17.2h2zm.4 4.9 2-.5zm1.5 2.4-1 1.7zm4 .7 2-.2-.2-1.8h-1.8zm.5 4.8 2 .2V83zm-.5 4.7v2h1.8l.2-1.8zm-.3-2q-6.3 0-8.6-3.3l-3.1 2.5q4 4.9 11.7 4.8zm-8.6-3.2Q98 79.6 98 71.7h-4q-.1 8.6 3.4 13.5zM98 71.7q0-8-.6-16l-4 .2.6 15.8zm-.6-16Q97 47.4 96.2 42l-4 .6q.8 5.1 1.1 13.1zm-2.7-11.4 8-1.7-.9-4-8 1.8zm5.5-3.4q.7 4.5 1 12.5l4-.2q-.3-8-1-12.8zm1 12.5q.4 7.9.4 14.6h4q0-6.8-.3-14.8zm.4 14.6v2.5h4V68zm0 2.4q0 3.3.4 5.4l4-.9a20 20 0 0 1-.4-4.4zm.4 5.4a6 6 0 0 0 2.5 3.7l2-3.4q-.3-.1-.6-1.2zm2.5 3.7q2 1 4.7 1v-4q-2.3-.1-2.7-.5zm4.7 1h.3v-4h-.3zm-1.7-1.8.5 4.8 4-.4-.5-4.8zm.5 4.3-.5 4.8 4 .4.5-4.7zm1.5 3h-.3v4h.3zm-.6-7.5v-2h-2v2zm10.7-9.4-1.9.7zm-2.1-5.8-1-1.8-1.6 1 .7 1.6zm6.7-3.7 1.8-.8-.9-2-1.9 1zm2.5 7.2-2 .6zm-2.8 17.8-1.2-1.5zm-15 3.4h-2v2h2zm5 5 1.4-1.4-1.4-1.3-1.4 1.3zm3.9 4-1.4 1.4zm2 2 1.4 1.4 1.4-1.5-1.4-1.4zm-5.9 5.8-1.4 1.5 1.4 1.4 1.4-1.5zm-6-5.9-1.4-1.4L105 99l1.4 1.5zm1-18.4h3.4v-4h-3.4zm3.4 0q4.7 0 7.5-1.3l-1.8-3.5q-1.3.7-5.7.8zm7.5-1.3q1.4-.6 2.3-2 .8-1.2.8-2.8h-4l-.1.7-.8.6zm3.1-4.8q0-1.1-.4-2.5l-1-3.4-3.8 1.3 1.2 4.6zm-1.4-6q-1.4-4-2.2-5.9l-3.7 1.6 2.1 5.7zm-3-3.4 6.7-3.7-2-3.5-6.7 3.7zm3.9-4.6q1 2.5 2.4 7l3.8-1.1q-1.2-4.6-2.6-7.5zm2.4 7a26 26 0 0 1 1.2 7.3h4q0-3.8-1.4-8.5zm1.2 7.3q0 5.8-3.3 8.4l2.5 3Q130 82 130 74.7zm-3.3 8.4q-3.2 2.8-10.4 2.9v4q8 0 13-3.9zM112.2 86h-3.4v4h3.4zm-1.4 2v-9.5h-4V88zm1.6 6.5 3.9 3.9 2.8-2.8-4-4zm3.9 3.9 2 2 2.8-2.9-2-2zm2-.9-6 6 3 2.7 5.8-5.8zm-3.1 6-6-6-2.8 2.9 6 5.9zm-6-3.1 6-6-2.8-2.8-6 6zm39.3-24.2.8-1.9-2-1-.7 2.3zm7.3 2.3-.4 2 1.4.3.8-1.3zm2.9-4.8 1.6 1 .3-.4v-.5zm-.6-18.8-2 .2zm-1.4-12.5-.4-2-1.8.5.3 1.9zm8-1.8 2-.2-.3-2.2-2 .5zm1 10.7-2 .1zm.5 13.4h-2v4.5l3.3-3zm19.7-4.3-1 1.8zm4.6 4.4-1.7 1zm-1.7 15.8-1.5-1.2zm-9.1 6.2L179 85zM155.5 88l-.4 2zm-9.7-3.1-2-.6-.4 1.7 1.6.7zm17-5.2-1.6-1.2-2 2.8 3.5.3zm2.1 0 .1-2zm10.6-1 .5 2zm7.3-3.2L184 77zm1.2-6.5-1.2 1.5zm-12.7 2 1.1 1.6zm-23.7 7q3.6 1.8 7.8 2.6l.8-4a32 32 0 0 1-6.9-2.2zm10 1.6q1.2-2.4 2.7-4.7l-3.3-2.2q-1.7 2.4-3 5zm3-5.7.2-4h-4l-.1 3.8zm.2-4q0-6.4-.7-15l-4 .3q.7 8.5.7 14.7zm-.7-15q-.8-8.7-1.4-12.7l-4 .7q.8 3.8 1.4 12.3zm-3-10.4 8-1.8-.8-4-8 1.9zm5.7-3.5 1 10.5 3.9-.3q-.4-6.7-1-10.7zm1 10.5q.3 6.6.4 13.3h4q0-6.7-.5-13.6zm3.7 14.8q6.3-5.5 11.8-5.4v-4a22 22 0 0 0-14.5 6.4zm11.8-5.4q3.2 0 5.6 1.4l2-3.5a15 15 0 0 0-7.6-1.9zm5.6 1.4q2.6 1.2 3.8 3.6l3.5-2q-2-3.4-5.4-5.2zm3.8 3.6q1.5 2.3 1.4 5.3h4q0-4-2-7.3zm1.4 5.3q0 4.8-2.8 8.3l3 2.5q3.8-4.6 3.8-10.8zm-2.8 8.3q-3 3.5-8.3 5.6l1.3 3.7q6.3-2.3 10-6.8zM179 85q-5.5 2-12.5 2v4q7.5 0 13.9-2.3zm-12.5 2q-5.5 0-10.6-1l-.8 3.9q5.5 1 11.4 1.1zM156 86a47 47 0 0 1-9.4-3l-1.6 3.6A51 51 0 0 0 155 90zm-8.3-.6 2.7-8.6-3.8-1.2-2.7 8.6zm15-3.9 2.2.2v-4l-1.8-.1zm2.2.2q6 .2 11.1-1.1l-1-3.9q-4.3 1.2-10 1zm11.1-1.1q5-1.3 8-3.6l-2.4-3.2a19 19 0 0 1-6.6 3zm8-3.6q3.2-2.3 3.4-5.6h-4c0 .3-.3 1.2-1.8 2.4zm3.4-5.6a5 5 0 0 0-2.2-4.2l-2.4 3.3q.7.5.6.9zm-2.2-4.1a8 8 0 0 0-5-1.5v4q1.9 0 2.6.6zm-5-1.5q-5 0-10 3.4l2.3 3.3q4-2.8 7.7-2.7zm-10 3.4a35 35 0 0 0-9 9.2l3.3 2.3a31 31 0 0 1 8-8.2zM202 84l-1.6 1.2zm-3-12.3h2zm-.6-16-2 .1zm-1.1-13.3-.5-2-1.8.4.3 1.9zm7.9-1.8 2-.2-.3-2.2-2.1.5zm1 12.7-2 .1zm.4 17.2h2zm.3 4.9 2-.5zm1.6 2.4-1 1.7zm4 .7 2-.2-.2-1.8h-1.8zm.5 4.8 2 .2V83zm-.5 4.7v2h1.8l.2-1.8zm-.3-2c-4.4 0-7-1.2-8.6-3.3l-3.2 2.5q4 4.9 11.8 4.8zm-8.6-3.2q-2.6-3.2-2.7-11.1h-4q-.1 8.6 3.5 13.5zm-2.7-11.1q0-8-.5-16l-4 .2q.5 8 .5 15.8zm-.5-16q-.4-8.2-1.2-13.6l-4 .6q.9 5.1 1.2 13.1zm-2.7-11.4 8-1.7-1-4-7.9 1.8zm5.5-3.4q.7 4.5 1 12.5l4-.2q-.3-8-1-12.8zm1 12.5q.4 7.9.4 14.6h4q0-6.8-.4-14.8zm.4 14.6v2.5h4V68zm0 2.4q-.1 3.3.4 5.4l3.9-.9a20 20 0 0 1-.3-4.4zm.4 5.4a6 6 0 0 0 2.4 3.7l2.1-3.4q-.4-.1-.6-1.2zm2.5 3.7q1.9 1 4.7 1v-4q-2.3-.1-2.7-.5zm4.7 1h.3v-4h-.3zm-1.7-1.8.5 4.8 4-.4-.5-4.8zm.5 4.3-.5 4.8 4 .4.5-4.7zm1.5 3h-.3v4h.3zm-.6-7.5v-2h-2v2zm7.4-1-.8-1.9zm2.6-3.4 2 .3zm-.2-5.1-2 .3zm-.4-2.6-.4-2-1.8.4.2 1.9zm6.6-1.2 2-.4-.3-2-2 .4zm.9 10.5h-2v.5zm1.4 2-1.2 1.6zm3.7.8 2-.2-.2-1.8H234zm.6 4.8 2 .2V83zm-.6 4.7v2h1.8l.2-1.8zm-5.1-1.2-1 1.7zm-3.7-3.2 1.5-1.2-1.5-2-1.6 2zM220 87l.6 1.9zm-8.1 1h-2v2h2zm4 5.1 1.3-1.4-1.4-1.4-1.4 1.4zm3.8 4-1.4 1.3zm2 2 1.4 1.3 1.5-1.4-1.5-1.4zm-5.9 5.8-1.4 1.4 1.4 1.4 1.4-1.4zm-6-5.9-1.3-1.4L207 99l1.5 1.4zm2-18.5h.5v-4h-.4zm.5 0q5 0 7.8-1.3l-1.7-3.6q-1.5.8-6.1.9zm7.8-1.2q3.1-1.5 3.7-5l-4-.5q0 1.2-1.3 1.8zm3.7-5 .2-1.8h-4l-.1 1.4zm.2-1.8q0-1.7-.4-3.8l-4 .6q.4 1.9.4 3.2zm-.4-3.8-.3-2.5-4 .5.4 2.6zm-2-.3 6.7-1.3-.7-4-6.7 1.4zm4.4-2.9q.8 4.5.8 10.2h4q0-6-.9-10.9zm.8 10.7a5 5 0 0 0 2.2 3l2.3-3.2q-.6-.5-.6-.7zm2.2 3a8 8 0 0 0 4.6 1.3v-4q-1.9-.1-2.3-.5zm4.6 1.3h.3v-4h-.3zm-1.6-1.8.5 4.8 4-.4-.6-4.8zm.5 4.3-.5 4.8 4 .4.4-4.7zm1.4 3h-.3v4h.3zm-.3 0a8 8 0 0 1-3.9-1l-1.9 3.5a12 12 0 0 0 5.8 1.5zm-3.9-1q-1.8-1-3-2.6l-3.2 2.4q1.8 2.3 4.3 3.7zm-6.2-2.7a9 9 0 0 1-4.1 2.8l1.2 3.8q3.8-1.3 6-4zm-4.1 2.8q-2.8.9-7.1.9v4q4.8 0 8.3-1.1zm-7.1.9h-.4v4h.4zm1.6 2v-9.5h-4V88zm.5 6.6q2 1.8 3.9 3.8l2.9-2.8-4-4zm4 3.8 2 2 2.7-2.8-2-2zm2-.8-6 5.9 2.8 2.8 6-5.9zm-3.2 5.9-6-6-2.7 3 6 5.8zm-6-3 6-6-2.8-2.8-6 5.9zm22-22v-2h-2v2zm12.1-1.1.8 1.8zM248 74h2zm-1.5-5.3-1.9.6zm-2-5.4-1-1.8-1.7 1 .8 1.7zm6.7-3.7 1.8-.9-.9-1.9-1.8 1zm2.6 7.2-2 .5zm1.3 7.7h2zm-4.5 10 1.3 1.6zM233.3 88h-2v2h2zm6-41.6 1.4-1.4-1.4-1.4-1.4 1.4zm5.3 5.4 1.5 1.4 1.4-1.4-1.5-1.4zm-5.3 5.4-1.5 1.4 1.5 1.5 1.4-1.5zm-1.8-1.8-1.4 1.4zm-3.7-3.6-1.4-1.4-1.4 1.4 1.4 1.4zm16.7-5.4L252 45l-1.4-1.4-1.4 1.4zm5.4 5.4 1.4 1.4 1.4-1.4-1.4-1.4zm-5.4 5.4-1.4 1.4 1.4 1.5 1.4-1.5zm-1.8-1.8-1.4 1.4zm-3.6-3.6-1.4-1.4-1.5 1.4 1.5 1.4zm-11.9 28.7h3.2v-4h-3.2zm3.2 0q6.4 0 9.7-1.3l-1.5-3.7q-2 1-8.2 1zm9.7-1.3q1.5-.6 2.8-2 1-1.4 1-3.2h-4q0 .6-.2.8t-1.1.7zM250 74q-.2-2-1.6-6l-3.8 1.3q1.4 4 1.4 4.8zm-1.6-6-2.2-5.6-3.6 1.8q.6 1 2 5.1zm-3-3 6.8-3.7-2-3.5-6.7 3.7zm4-4.6q1.2 2.6 2.5 6.9l3.8-1.1q-1.3-4.5-2.7-7.5zm2.5 7q1.2 4 1.2 7.1h4q0-3.7-1.4-8.3zm1.2 7q-.1 5.9-3.7 8.6l2.5 3.1q5.2-4.2 5.2-11.6zm-3.7 8.6q-3.5 3-11.6 3v4q9 0 14-3.9zm-11.6 3h-4.5v4h4.5zm-2.5 2v-9.5h-4V88zm2.5-40.2 5.4 5.4 2.8-2.8-5.3-5.4zm5.4 2.6-5.4 5.4 2.9 2.8 5.4-5.4zm-2.5 5.4-1.8-1.8-2.8 2.8 1.7 1.8zm-1.8-1.8-3.7-3.6-2.8 2.8 3.7 3.6zm-3.7-.8 5.5-5.4-2.8-2.8-5.5 5.4zm14-5.4 5.3 5.4 2.8-2.8L252 45zm5.3 2.6-5.4 5.4 2.8 2.8 5.4-5.4zm-2.6 5.4-1.8-1.8-2.8 2.8 1.8 1.8zm-1.8-1.8-3.6-3.6-2.8 2.8 3.6 3.6zm-3.6-.8 5.4-5.4-2.8-2.8-5.4 5.4zm5.6 45.4-.8-1.8-2 .8 1 1.9zm7.7-4-1-1.7zm5.5-4.5-1.5-1.3zM264 72l-2 .5zm-.4-1.3L263 69l-1.6.6.4 1.7zm7.2-2.8 1.9-.7-.7-2-2 .8zm2.4 9.5-2 .3zm-4 20.5-1.5-1.4zm-13.2 8.8-1.8.9.8 1.7 1.7-.8zm-3.2-6.2q4.4-1.8 8.1-4.2l-2.2-3.4a44 44 0 0 1-7.4 3.9zm8-4.2q3.8-2.4 6-4.9l-3-2.6a24 24 0 0 1-5 4.1zm6-4.8c1.4-1.6 2.6-3.4 2.6-5.2h-4q.2.4-1.6 2.5zm2.6-5.2q0-1.8-1-5.4l-2.5-9.5-3.9 1.2a202 202 0 0 1 3.4 13.7zm-3.5-14.8-.3-1.3-3.9 1 .3 1.3zm-1.5 1 7.1-2.7-1.4-3.8-7.2 2.9zm4.5-4q1.5 4.4 2.4 9.2l4-.7q-1-5.1-2.6-9.8zm2.4 9.2q.9 4.9.8 8.6h4a53 53 0 0 0-.9-9.3zm.8 8.6q0 5.4-4.4 10.2l3 2.7q5.4-5.8 5.4-13zm-4.4 10.2q-4.5 5-12.5 8.3l1.5 3.7a39 39 0 0 0 14-9.3zm-10 9.3-3.8-8-3.6 1.7 3.9 8zm23.1-18.2-2-.3-.2 2 2 .3zm.1-31.5h-2zm-1.2-13.7-.5-2-1.8.5.3 1.9zm8-1.8 2-.3-.4-2.2-2 .5zm1 13 2-.1zm-.3 34.8-.2 2 2 .2.2-1.9zm-5.6-.5q.7-4.5.7-13.3h-4q0 8.7-.6 12.7zm.7-13.3q0-9-.6-18.7l-4 .3q.6 9.6.6 18.4zm-.6-18.6q-.4-9.8-1.2-14l-4 .8q.8 3.7 1.2 13.4zm-2.8-11.6 8-1.9-.9-3.9-8 1.9zm5.6-3.5q.6 3.5 1 12.8l4-.2q-.4-9.3-1-13.2zm1 12.8q.5 9.2.5 18.1h4q0-9-.5-18.3zm.5 18.1q0 11-.8 16.4l4 .5q.8-5.7.8-16.9zm1.4 14.7-7.5-.9-.5 4 7.6.8z" mask="url(#i)"/></g><g filter="url(#j)"><mask id="k" width="254" height="72" x="38" y="38" fill="#000" maskUnits="userSpaceOnUse"><path fill="#fff" d="M38 38h254v72H38z"/><path d="M55.3 88q-7 0-10.2-4-3-4-3-12.3a337 337 0 0 0-1.7-29.3l8-1.8q.5 4.8 1 12.7l.3 14.7v2.5q0 3.2.3 4.9.4 1.7 1.6 2.4t3.7.7h.3l.5 4.8-.5 4.7zm-.1-9.5h1.1q5 0 8.2-6 3.3-6 6.2-9a9 9 0 0 1 12.6-.7q2.7 2.1 4 5.7a19 19 0 0 1 0 14.2q-1.5 3.1-4 4.7-1.5 1-3.5 1a27 27 0 0 1-13.1-5.2A13 13 0 0 1 56.2 88H55zm15.6-2.9q3 2 5.4 3t3.8 1q.6 0 .8-.2.7-.4 1-1.3t.4-2q0-2.6-1.4-4.7Q79.3 69 77 69q-3 0-6.3 6.5M109.1 88q-7 0-10.2-4-3-4-3-12.3a337 337 0 0 0-1.7-29.3l8-1.8q.6 4.8 1 12.7l.3 14.7v2.5q0 3.2.4 4.9.3 1.7 1.5 2.4t3.7.7h.3l.5 4.8-.5 4.7zm-.3-9.5h3.4q4.5 0 6.6-1 2-1.1 2-3.1 0-1.5-1.3-5.3l-2.1-5.8 6.7-3.7a53 53 0 0 1 3.8 15q0 6.6-4 10T112.1 88h-3.4zm5 14.6 3.9 3.9 2 2-5.9 5.8-6-5.9zm34.7-17a34 34 0 0 0 7.3 2.4q1.2-2.4 2.9-4.8v-4a185 185 0 0 0-2-27.3l8-1.8a177 177 0 0 1 1.5 24.1 20 20 0 0 1 13-5.9q3.7 0 6.7 1.6 3 1.5 4.6 4.4 1.6 2.8 1.6 6.3 0 5.4-3.3 9.5a21 21 0 0 1-9.1 6.2 38 38 0 0 1-13.2 2.2 54 54 0 0 1-20.7-4.2zm14.4 3.5h2q6 .3 10.6-1 4.8-1.2 7.3-3.2 2.6-2 2.6-4 0-1.6-1.4-2.5-1.4-1.2-3.8-1.1-4.3 0-8.9 3-4.5 3-8.4 8.8m49.3 8.4q-7 0-10.2-4-3-4-3-12.3a338 338 0 0 0-1.7-29.3l7.9-1.8q.7 4.8 1 12.7.4 8 .4 14.7v2.5q0 3.2.3 4.9.4 1.7 1.6 2.4t3.7.7h.3l.5 4.8-.5 4.7zm-.3-9.5h.4q4.8 0 7-1a4 4 0 0 0 2.6-3.4 14 14 0 0 0-.2-5.1l-.4-2.6 6.6-1.2q.9 4.6.9 10.5.2 1 1.4 2 1.3.8 3.4.8h.3l.6 4.8-.6 4.7h-.3a10 10 0 0 1-4.8-1.2q-2.2-1.2-3.7-3.2-2 2.3-5.1 3.4-3.1 1-7.7 1h-.4zm4 14.6 3.8 4 2 2-5.9 5.8-6-5.9zm17.3-14.6h3.2q6.3 0 9-1.1 2.6-1.1 2.6-3.4 0-1.4-1.5-5.3l-2-5.4 6.7-3.7a48 48 0 0 1 3.9 14.9q0 6.5-4.5 10-4.3 3.5-12.8 3.5h-4.5zm6-32.1 5.4 5.4-5.3 5.4-1.8-1.8-3.7-3.6zm11.3 0 5.4 5.4-5.4 5.4-1.8-1.8-3.6-3.6zm1.6 52.2a46 46 0 0 0 13.2-8.5q2-2.3 2-3.8 0-2.6-3.3-14.3l-.4-1.3 7.2-2.8a62 62 0 0 1 3.3 18.4q0 6.3-4.9 11.6a37 37 0 0 1-13.2 8.8zm28.7-11q.7-4.2.7-13a311 311 0 0 0-1.8-32.2l8-1.8q.6 3.7 1 13t.5 18.2q0 11.2-.8 16.6z"/></mask><path fill="#3e15b7" d="m45.1 84-1.6 1.2zm-3-12.3h2zm-.6-16-2 .1zm-1.1-13.3-.4-2-1.9.4.3 1.9zm8-1.8 1.9-.2-.3-2.2-2.1.5zm1 12.7-2 .1zm.3 17.2h2zm.3 4.9 2-.5zm1.6 2.4-1 1.7zm4 .7 2-.2-.2-1.8h-1.8zm.5 4.8 2 .2V83zm-.5 4.7v2h1.8l.2-1.8zm-.3-2q-6.3 0-8.6-3.3l-3.2 2.5q4 4.9 11.8 4.8zm-8.6-3.2q-2.6-3.2-2.7-11.1h-4q-.1 8.6 3.5 13.5zM44 71.7q0-8-.5-16l-4 .2q.5 8 .5 15.8zm-.5-16q-.3-8.2-1.1-13.6l-4 .6q.8 5.1 1.1 13.1zm-2.7-11.4 8-1.7-1-4-7.8 1.8zm5.5-3.4q.7 4.5 1 12.5l4-.2q-.4-8-1-12.8zm1 12.5q.4 7.9.4 14.6h4q0-6.8-.4-14.8zm.4 14.6v2.5h4V68zm0 2.4q-.1 3.3.4 5.4L52 75a20 20 0 0 1-.3-4.4zm.4 5.4a6 6 0 0 0 2.4 3.7l2.1-3.4q-.3-.1-.6-1.2zm2.5 3.7q2 1 4.7 1v-4q-2.3-.1-2.7-.5zm4.7 1h.3v-4h-.3zm-1.7-1.8.5 4.8 4-.4-.5-4.8zm.5 4.3-.5 4.8 4 .4.5-4.7zm1.5 3h-.3v4h.3zm-.4-7.5v-2h-2v2zm9.3-6-1.7-1zm6.2-9L72 65zm12.6-.7L82 64.3zm4 5.7-1.9.7zm0 14.2 1.8.8zm-4 4.7-1.1-1.7zm-16.6-4.2 1-1.7-1.4-1-1.1 1.4zM55 88h-2v2h2zm15.8-12.4-1.8-.9-.8 1.7 1.6 1zm5.4 3-.8 1.8zm4.6.8-1.1-1.6zm1-1.3-1.8-.7zm-1-6.7-1.7 1zm-25.6 9h1.1v-4h-1.1zm1.1 0q6.6-.2 10-7l-3.5-1.9c-2 3.6-4.1 5-6.5 5zm10-7q3-5.9 5.8-8.4L69.3 62a41 41 0 0 0-6.5 9.4zM72 65a7 7 0 0 1 5.2-2.5v-4a11 11 0 0 0-8 3.7zm5.2-2.5a7 7 0 0 1 4.7 1.8l2.6-3a11 11 0 0 0-7.3-2.8zm4.8 1.8q2.2 1.8 3.3 4.9l3.8-1.4q-1.5-4-4.6-6.6zm3.4 5q1.2 3 1.2 6.5h4q0-4.2-1.5-8zm1.2 6.5a15 15 0 0 1-1.2 6l3.6 1.7q1.6-3.6 1.6-7.7zm-1.2 6q-1.2 2.6-3.3 4l2 3.3q3.3-2 5-5.6zm-3.4 4q-.8.5-2.3.5v4q2.5 0 4.5-1.2zm-2.3.5q-4 .1-12-4.8L65.6 85a29 29 0 0 0 14.2 5.4zM65.2 82a11 11 0 0 1-9 4.1v4q7.5 0 12-5.5zm-9 4.1H55v4h1.2zm.8 2 .2-9.5h-4L53 88zm12.8-10.6q3 1.8 5.6 3l1.7-3.6q-2.4-1-5.2-2.9zm5.7 3q2.5 1.1 4.5 1.2v-4a9 9 0 0 1-3-.9zm4.5 1.2q.8.2 2-.6l-2.4-3.2.5-.2H80zm2-.5q1.1-1 1.7-2.2l-3.8-1.5q0 .3-.2.4zm1.6-2.2q.6-1.3.6-2.8h-4l-.2 1.3zm.6-2.8q0-3.1-1.7-5.8L79 72.4q1 1.8 1 3.7zm-1.7-5.8q-1.9-3.1-5.4-3.2v4q1-.1 2 1.3zM77 67.1q-2.7.2-4.5 2.3a23 23 0 0 0-3.6 5.3l3.6 1.9q1.5-3.1 3-4.5 1.2-1.2 1.5-1zM98.9 84l-1.6 1.2zm-3-12.3h2zm-.6-16-2 .1zm-1.1-13.3-.4-2-1.9.4.3 1.9zm8-1.8 2-.2-.4-2.2-2.1.5zm1 12.7-2 .1zm.3 17.2h2zm.4 4.9 2-.5zm1.5 2.4-1 1.7zm4 .7 2-.2-.2-1.8h-1.8zm.5 4.8 2 .2V83zm-.5 4.7v2h1.8l.2-1.8zm-.3-2q-6.3 0-8.6-3.3l-3.1 2.5q4 4.9 11.7 4.8zm-8.6-3.2Q98 79.6 98 71.7h-4q-.1 8.6 3.4 13.5zM98 71.7q0-8-.6-16l-4 .2.6 15.8zm-.6-16Q97 47.4 96.2 42l-4 .6q.8 5.1 1.1 13.1zm-2.7-11.4 8-1.7-.9-4-8 1.8zm5.5-3.4q.7 4.5 1 12.5l4-.2q-.3-8-1-12.8zm1 12.5q.4 7.9.4 14.6h4q0-6.8-.3-14.8zm.4 14.6v2.5h4V68zm0 2.4q0 3.3.4 5.4l4-.9a20 20 0 0 1-.4-4.4zm.4 5.4a6 6 0 0 0 2.5 3.7l2-3.4q-.3-.1-.6-1.2zm2.5 3.7q2 1 4.7 1v-4q-2.3-.1-2.7-.5zm4.7 1h.3v-4h-.3zm-1.7-1.8.5 4.8 4-.4-.5-4.8zm.5 4.3-.5 4.8 4 .4.5-4.7zm1.5 3h-.3v4h.3zm-.6-7.5v-2h-2v2zm10.7-9.4-1.9.7zm-2.1-5.8-1-1.8-1.6 1 .7 1.6zm6.7-3.7 1.8-.8-.9-2-1.9 1zm2.5 7.2-2 .6zm-2.8 17.8-1.2-1.5zm-15 3.4h-2v2h2zm5 5 1.4-1.4-1.4-1.3-1.4 1.3zm3.9 4-1.4 1.4zm2 2 1.4 1.4 1.4-1.5-1.4-1.4zm-5.9 5.8-1.4 1.5 1.4 1.4 1.4-1.5zm-6-5.9-1.4-1.4L105 99l1.4 1.5zm1-18.4h3.4v-4h-3.4zm3.4 0q4.7 0 7.5-1.3l-1.8-3.5q-1.3.7-5.7.8zm7.5-1.3q1.4-.6 2.3-2 .8-1.2.8-2.8h-4l-.1.7-.8.6zm3.1-4.8q0-1.1-.4-2.5l-1-3.4-3.8 1.3 1.2 4.6zm-1.4-6q-1.4-4-2.2-5.9l-3.7 1.6 2.1 5.7zm-3-3.4 6.7-3.7-2-3.5-6.7 3.7zm3.9-4.6q1 2.5 2.4 7l3.8-1.1q-1.2-4.6-2.6-7.5zm2.4 7a26 26 0 0 1 1.2 7.3h4q0-3.8-1.4-8.5zm1.2 7.3q0 5.8-3.3 8.4l2.5 3Q130 82 130 74.7zm-3.3 8.4q-3.2 2.8-10.4 2.9v4q8 0 13-3.9zM112.2 86h-3.4v4h3.4zm-1.4 2v-9.5h-4V88zm1.6 6.5 3.9 3.9 2.8-2.8-4-4zm3.9 3.9 2 2 2.8-2.9-2-2zm2-.9-6 6 3 2.7 5.8-5.8zm-3.1 6-6-6-2.8 2.9 6 5.9zm-6-3.1 6-6-2.8-2.8-6 6zm39.3-24.2.8-1.9-2-1-.7 2.3zm7.3 2.3-.4 2 1.4.3.8-1.3zm2.9-4.8 1.6 1 .3-.4v-.5zm-.6-18.8-2 .2zm-1.4-12.5-.4-2-1.8.5.3 1.9zm8-1.8 2-.2-.3-2.2-2 .5zm1 10.7-2 .1zm.5 13.4h-2v4.5l3.3-3zm19.7-4.3-1 1.8zm4.6 4.4-1.7 1zm-1.7 15.8-1.5-1.2zm-9.1 6.2L179 85zM155.5 88l-.4 2zm-9.7-3.1-2-.6-.4 1.7 1.6.7zm17-5.2-1.6-1.2-2 2.8 3.5.3zm2.1 0 .1-2zm10.6-1 .5 2zm7.3-3.2L184 77zm1.2-6.5-1.2 1.5zm-12.7 2 1.1 1.6zm-23.7 7q3.6 1.8 7.8 2.6l.8-4a32 32 0 0 1-6.9-2.2zm10 1.6q1.2-2.4 2.7-4.7l-3.3-2.2q-1.7 2.4-3 5zm3-5.7.2-4h-4l-.1 3.8zm.2-4q0-6.4-.7-15l-4 .3q.7 8.5.7 14.7zm-.7-15q-.8-8.7-1.4-12.7l-4 .7q.8 3.8 1.4 12.3zm-3-10.4 8-1.8-.8-4-8 1.9zm5.7-3.5 1 10.5 3.9-.3q-.4-6.7-1-10.7zm1 10.5q.3 6.6.4 13.3h4q0-6.7-.5-13.6zm3.7 14.8q6.3-5.5 11.8-5.4v-4a22 22 0 0 0-14.5 6.4zm11.8-5.4q3.2 0 5.6 1.4l2-3.5a15 15 0 0 0-7.6-1.9zm5.6 1.4q2.6 1.2 3.8 3.6l3.5-2q-2-3.4-5.4-5.2zm3.8 3.6q1.5 2.3 1.4 5.3h4q0-4-2-7.3zm1.4 5.3q0 4.8-2.8 8.3l3 2.5q3.8-4.6 3.8-10.8zm-2.8 8.3q-3 3.5-8.3 5.6l1.3 3.7q6.3-2.3 10-6.8zM179 85q-5.5 2-12.5 2v4q7.5 0 13.9-2.3zm-12.5 2q-5.5 0-10.6-1l-.8 3.9q5.5 1 11.4 1.1zM156 86a47 47 0 0 1-9.4-3l-1.6 3.6A51 51 0 0 0 155 90zm-8.3-.6 2.7-8.6-3.8-1.2-2.7 8.6zm15-3.9 2.2.2v-4l-1.8-.1zm2.2.2q6 .2 11.1-1.1l-1-3.9q-4.3 1.2-10 1zm11.1-1.1q5-1.3 8-3.6l-2.4-3.2a19 19 0 0 1-6.6 3zm8-3.6q3.2-2.3 3.4-5.6h-4c0 .3-.3 1.2-1.8 2.4zm3.4-5.6a5 5 0 0 0-2.2-4.2l-2.4 3.3q.7.5.6.9zm-2.2-4.1a8 8 0 0 0-5-1.5v4q1.9 0 2.6.6zm-5-1.5q-5 0-10 3.4l2.3 3.3q4-2.8 7.7-2.7zm-10 3.4a35 35 0 0 0-9 9.2l3.3 2.3a31 31 0 0 1 8-8.2zM202 84l-1.6 1.2zm-3-12.3h2zm-.6-16-2 .1zm-1.1-13.3-.5-2-1.8.4.3 1.9zm7.9-1.8 2-.2-.3-2.2-2.1.5zm1 12.7-2 .1zm.4 17.2h2zm.3 4.9 2-.5zm1.6 2.4-1 1.7zm4 .7 2-.2-.2-1.8h-1.8zm.5 4.8 2 .2V83zm-.5 4.7v2h1.8l.2-1.8zm-.3-2c-4.4 0-7-1.2-8.6-3.3l-3.2 2.5q4 4.9 11.8 4.8zm-8.6-3.2q-2.6-3.2-2.7-11.1h-4q-.1 8.6 3.5 13.5zm-2.7-11.1q0-8-.5-16l-4 .2q.5 8 .5 15.8zm-.5-16q-.4-8.2-1.2-13.6l-4 .6q.9 5.1 1.2 13.1zm-2.7-11.4 8-1.7-1-4-7.9 1.8zm5.5-3.4q.7 4.5 1 12.5l4-.2q-.3-8-1-12.8zm1 12.5q.4 7.9.4 14.6h4q0-6.8-.4-14.8zm.4 14.6v2.5h4V68zm0 2.4q-.1 3.3.4 5.4l3.9-.9a20 20 0 0 1-.3-4.4zm.4 5.4a6 6 0 0 0 2.4 3.7l2.1-3.4q-.4-.1-.6-1.2zm2.5 3.7q1.9 1 4.7 1v-4q-2.3-.1-2.7-.5zm4.7 1h.3v-4h-.3zm-1.7-1.8.5 4.8 4-.4-.5-4.8zm.5 4.3-.5 4.8 4 .4.5-4.7zm1.5 3h-.3v4h.3zm-.6-7.5v-2h-2v2zm7.4-1-.8-1.9zm2.6-3.4 2 .3zm-.2-5.1-2 .3zm-.4-2.6-.4-2-1.8.4.2 1.9zm6.6-1.2 2-.4-.3-2-2 .4zm.9 10.5h-2v.5zm1.4 2-1.2 1.6zm3.7.8 2-.2-.2-1.8H234zm.6 4.8 2 .2V83zm-.6 4.7v2h1.8l.2-1.8zm-5.1-1.2-1 1.7zm-3.7-3.2 1.5-1.2-1.5-2-1.6 2zM220 87l.6 1.9zm-8.1 1h-2v2h2zm4 5.1 1.3-1.4-1.4-1.4-1.4 1.4zm3.8 4-1.4 1.3zm2 2 1.4 1.3 1.5-1.4-1.5-1.4zm-5.9 5.8-1.4 1.4 1.4 1.4 1.4-1.4zm-6-5.9-1.3-1.4L207 99l1.5 1.4zm2-18.5h.5v-4h-.4zm.5 0q5 0 7.8-1.3l-1.7-3.6q-1.5.8-6.1.9zm7.8-1.2q3.1-1.5 3.7-5l-4-.5q0 1.2-1.3 1.8zm3.7-5 .2-1.8h-4l-.1 1.4zm.2-1.8q0-1.7-.4-3.8l-4 .6q.4 1.9.4 3.2zm-.4-3.8-.3-2.5-4 .5.4 2.6zm-2-.3 6.7-1.3-.7-4-6.7 1.4zm4.4-2.9q.8 4.5.8 10.2h4q0-6-.9-10.9zm.8 10.7a5 5 0 0 0 2.2 3l2.3-3.2q-.6-.5-.6-.7zm2.2 3a8 8 0 0 0 4.6 1.3v-4q-1.9-.1-2.3-.5zm4.6 1.3h.3v-4h-.3zm-1.6-1.8.5 4.8 4-.4-.6-4.8zm.5 4.3-.5 4.8 4 .4.4-4.7zm1.4 3h-.3v4h.3zm-.3 0a8 8 0 0 1-3.9-1l-1.9 3.5a12 12 0 0 0 5.8 1.5zm-3.9-1q-1.8-1-3-2.6l-3.2 2.4q1.8 2.3 4.3 3.7zm-6.2-2.7a9 9 0 0 1-4.1 2.8l1.2 3.8q3.8-1.3 6-4zm-4.1 2.8q-2.8.9-7.1.9v4q4.8 0 8.3-1.1zm-7.1.9h-.4v4h.4zm1.6 2v-9.5h-4V88zm.5 6.6q2 1.8 3.9 3.8l2.9-2.8-4-4zm4 3.8 2 2 2.7-2.8-2-2zm2-.8-6 5.9 2.8 2.8 6-5.9zm-3.2 5.9-6-6-2.7 3 6 5.8zm-6-3 6-6-2.8-2.8-6 5.9zm22-22v-2h-2v2zm12.1-1.1.8 1.8zM248 74h2zm-1.5-5.3-1.9.6zm-2-5.4-1-1.8-1.7 1 .8 1.7zm6.7-3.7 1.8-.9-.9-1.9-1.8 1zm2.6 7.2-2 .5zm1.3 7.7h2zm-4.5 10 1.3 1.6zM233.3 88h-2v2h2zm6-41.6 1.4-1.4-1.4-1.4-1.4 1.4zm5.3 5.4 1.5 1.4 1.4-1.4-1.5-1.4zm-5.3 5.4-1.5 1.4 1.5 1.5 1.4-1.5zm-1.8-1.8-1.4 1.4zm-3.7-3.6-1.4-1.4-1.4 1.4 1.4 1.4zm16.7-5.4L252 45l-1.4-1.4-1.4 1.4zm5.4 5.4 1.4 1.4 1.4-1.4-1.4-1.4zm-5.4 5.4-1.4 1.4 1.4 1.5 1.4-1.5zm-1.8-1.8-1.4 1.4zm-3.6-3.6-1.4-1.4-1.5 1.4 1.5 1.4zm-11.9 28.7h3.2v-4h-3.2zm3.2 0q6.4 0 9.7-1.3l-1.5-3.7q-2 1-8.2 1zm9.7-1.3q1.5-.6 2.8-2 1-1.4 1-3.2h-4q0 .6-.2.8t-1.1.7zM250 74q-.2-2-1.6-6l-3.8 1.3q1.4 4 1.4 4.8zm-1.6-6-2.2-5.6-3.6 1.8q.6 1 2 5.1zm-3-3 6.8-3.7-2-3.5-6.7 3.7zm4-4.6q1.2 2.6 2.5 6.9l3.8-1.1q-1.3-4.5-2.7-7.5zm2.5 7q1.2 4 1.2 7.1h4q0-3.7-1.4-8.3zm1.2 7q-.1 5.9-3.7 8.6l2.5 3.1q5.2-4.2 5.2-11.6zm-3.7 8.6q-3.5 3-11.6 3v4q9 0 14-3.9zm-11.6 3h-4.5v4h4.5zm-2.5 2v-9.5h-4V88zm2.5-40.2 5.4 5.4 2.8-2.8-5.3-5.4zm5.4 2.6-5.4 5.4 2.9 2.8 5.4-5.4zm-2.5 5.4-1.8-1.8-2.8 2.8 1.7 1.8zm-1.8-1.8-3.7-3.6-2.8 2.8 3.7 3.6zm-3.7-.8 5.5-5.4-2.8-2.8-5.5 5.4zm14-5.4 5.3 5.4 2.8-2.8L252 45zm5.3 2.6-5.4 5.4 2.8 2.8 5.4-5.4zm-2.6 5.4-1.8-1.8-2.8 2.8 1.8 1.8zm-1.8-1.8-3.6-3.6-2.8 2.8 3.6 3.6zm-3.6-.8 5.4-5.4-2.8-2.8-5.4 5.4zm5.6 45.4-.8-1.8-2 .8 1 1.9zm7.7-4-1-1.7zm5.5-4.5-1.5-1.3zM264 72l-2 .5zm-.4-1.3L263 69l-1.6.6.4 1.7zm7.2-2.8 1.9-.7-.7-2-2 .8zm2.4 9.5-2 .3zm-4 20.5-1.5-1.4zm-13.2 8.8-1.8.9.8 1.7 1.7-.8zm-3.2-6.2q4.4-1.8 8.1-4.2l-2.2-3.4a44 44 0 0 1-7.4 3.9zm8-4.2q3.8-2.4 6-4.9l-3-2.6a24 24 0 0 1-5 4.1zm6-4.8c1.4-1.6 2.6-3.4 2.6-5.2h-4q.2.4-1.6 2.5zm2.6-5.2q0-1.8-1-5.4l-2.5-9.5-3.9 1.2a202 202 0 0 1 3.4 13.7zm-3.5-14.8-.3-1.3-3.9 1 .3 1.3zm-1.5 1 7.1-2.7-1.4-3.8-7.2 2.9zm4.5-4q1.5 4.4 2.4 9.2l4-.7q-1-5.1-2.6-9.8zm2.4 9.2q.9 4.9.8 8.6h4a53 53 0 0 0-.9-9.3zm.8 8.6q0 5.4-4.4 10.2l3 2.7q5.4-5.8 5.4-13zm-4.4 10.2q-4.5 5-12.5 8.3l1.5 3.7a39 39 0 0 0 14-9.3zm-10 9.3-3.8-8-3.6 1.7 3.9 8zm23.1-18.2-2-.3-.2 2 2 .3zm.1-31.5h-2zm-1.2-13.7-.5-2-1.8.5.3 1.9zm8-1.8 2-.3-.4-2.2-2 .5zm1 13 2-.1zm-.3 34.8-.2 2 2 .2.2-1.9zm-5.6-.5q.7-4.5.7-13.3h-4q0 8.7-.6 12.7zm.7-13.3q0-9-.6-18.7l-4 .3q.6 9.6.6 18.4zm-.6-18.6q-.4-9.8-1.2-14l-4 .8q.8 3.7 1.2 13.4zm-2.8-11.6 8-1.9-.9-3.9-8 1.9zm5.6-3.5q.6 3.5 1 12.8l4-.2q-.4-9.3-1-13.2zm1 12.8q.5 9.2.5 18.1h4q0-9-.5-18.3zm.5 18.1q0 11-.8 16.4l4 .5q.8-5.7.8-16.9zm1.4 14.7-7.5-.9-.5 4 7.6.8z" mask="url(#k)"/></g><mask id="l" width="254" height="72" x="38" y="38" fill="#000" maskUnits="userSpaceOnUse"><path fill="#fff" d="M38 38h254v72H38z"/><path d="M55.3 88q-7 0-10.2-4-3-4-3-12.3a337 337 0 0 0-1.7-29.3l8-1.8q.5 4.8 1 12.7l.3 14.7v2.5q0 3.2.3 4.9.4 1.7 1.6 2.4t3.7.7h.3l.5 4.8-.5 4.7zm-.1-9.5h1.1q5 0 8.2-6 3.3-6 6.2-9a9 9 0 0 1 12.6-.7q2.7 2.1 4 5.7a19 19 0 0 1 0 14.2q-1.5 3.1-4 4.7-1.5 1-3.5 1a27 27 0 0 1-13.1-5.2A13 13 0 0 1 56.2 88H55zm15.6-2.9q3 2 5.4 3t3.8 1q.6 0 .8-.2.7-.4 1-1.3t.4-2q0-2.6-1.4-4.7Q79.3 69 77 69q-3 0-6.3 6.5M109.1 88q-7 0-10.2-4-3-4-3-12.3a337 337 0 0 0-1.7-29.3l8-1.8q.6 4.8 1 12.7l.3 14.7v2.5q0 3.2.4 4.9.3 1.7 1.5 2.4t3.7.7h.3l.5 4.8-.5 4.7zm-.3-9.5h3.4q4.5 0 6.6-1 2-1.1 2-3.1 0-1.5-1.3-5.3l-2.1-5.8 6.7-3.7a53 53 0 0 1 3.8 15q0 6.6-4 10T112.1 88h-3.4zm5 14.6 3.9 3.9 2 2-5.9 5.8-6-5.9zm34.7-17a34 34 0 0 0 7.3 2.4q1.2-2.4 2.9-4.8v-4a185 185 0 0 0-2-27.3l8-1.8a177 177 0 0 1 1.5 24.1 20 20 0 0 1 13-5.9q3.7 0 6.7 1.6 3 1.5 4.6 4.4 1.6 2.8 1.6 6.3 0 5.4-3.3 9.5a21 21 0 0 1-9.1 6.2 38 38 0 0 1-13.2 2.2 54 54 0 0 1-20.7-4.2zm14.4 3.5h2q6 .3 10.6-1 4.8-1.2 7.3-3.2 2.6-2 2.6-4 0-1.6-1.4-2.5-1.4-1.2-3.8-1.1-4.3 0-8.9 3-4.5 3-8.4 8.8m49.3 8.4q-7 0-10.2-4-3-4-3-12.3a338 338 0 0 0-1.7-29.3l7.9-1.8q.7 4.8 1 12.7.4 8 .4 14.7v2.5q0 3.2.3 4.9.4 1.7 1.6 2.4t3.7.7h.3l.5 4.8-.5 4.7zm-.3-9.5h.4q4.8 0 7-1a4 4 0 0 0 2.6-3.4 14 14 0 0 0-.2-5.1l-.4-2.6 6.6-1.2q.9 4.6.9 10.5.2 1 1.4 2 1.3.8 3.4.8h.3l.6 4.8-.6 4.7h-.3a10 10 0 0 1-4.8-1.2q-2.2-1.2-3.7-3.2-2 2.3-5.1 3.4-3.1 1-7.7 1h-.4zm4 14.6 3.8 4 2 2-5.9 5.8-6-5.9zm17.3-14.6h3.2q6.3 0 9-1.1 2.6-1.1 2.6-3.4 0-1.4-1.5-5.3l-2-5.4 6.7-3.7a48 48 0 0 1 3.9 14.9q0 6.5-4.5 10-4.3 3.5-12.8 3.5h-4.5zm6-32.1 5.4 5.4-5.3 5.4-1.8-1.8-3.7-3.6zm11.3 0 5.4 5.4-5.4 5.4-1.8-1.8-3.6-3.6zm1.6 52.2a46 46 0 0 0 13.2-8.5q2-2.3 2-3.8 0-2.6-3.3-14.3l-.4-1.3 7.2-2.8a62 62 0 0 1 3.3 18.4q0 6.3-4.9 11.6a37 37 0 0 1-13.2 8.8zm28.7-11q.7-4.2.7-13a311 311 0 0 0-1.8-32.2l8-1.8q.6 3.7 1 13t.5 18.2q0 11.2-.8 16.6z"/></mask><path fill="#8d6dee" d="m45.1 84-1.6 1.2zm-3-12.3h2zm-.6-16-2 .1zm-1.1-13.3-.4-2-1.9.4.3 1.9zm8-1.8 1.9-.2-.3-2.2-2.1.5zm1 12.7-2 .1zm.3 17.2h2zm.3 4.9 2-.5zm1.6 2.4-1 1.7zm4 .7 2-.2-.2-1.8h-1.8zm.5 4.8 2 .2V83zm-.5 4.7v2h1.8l.2-1.8zm-.3-2q-6.3 0-8.6-3.3l-3.2 2.5q4 4.9 11.8 4.8zm-8.6-3.2q-2.6-3.2-2.7-11.1h-4q-.1 8.6 3.5 13.5zM44 71.7q0-8-.5-16l-4 .2q.5 8 .5 15.8zm-.5-16q-.3-8.2-1.1-13.6l-4 .6q.8 5.1 1.1 13.1zm-2.7-11.4 8-1.7-1-4-7.8 1.8zm5.5-3.4q.7 4.5 1 12.5l4-.2q-.4-8-1-12.8zm1 12.5q.4 7.9.4 14.6h4q0-6.8-.4-14.8zm.4 14.6v2.5h4V68zm0 2.4q-.1 3.3.4 5.4L52 75a20 20 0 0 1-.3-4.4zm.4 5.4a6 6 0 0 0 2.4 3.7l2.1-3.4q-.3-.1-.6-1.2zm2.5 3.7q2 1 4.7 1v-4q-2.3-.1-2.7-.5zm4.7 1h.3v-4h-.3zm-1.7-1.8.5 4.8 4-.4-.5-4.8zm.5 4.3-.5 4.8 4 .4.5-4.7zm1.5 3h-.3v4h.3zm-.4-7.5v-2h-2v2zm9.3-6-1.7-1zm6.2-9L72 65zm12.6-.7L82 64.3zm4 5.7-1.9.7zm0 14.2 1.8.8zm-4 4.7-1.1-1.7zm-16.6-4.2 1-1.7-1.4-1-1.1 1.4zM55 88h-2v2h2zm15.8-12.4-1.8-.9-.8 1.7 1.6 1zm5.4 3-.8 1.8zm4.6.8-1.1-1.6zm1-1.3-1.8-.7zm-1-6.7-1.7 1zm-25.6 9h1.1v-4h-1.1zm1.1 0q6.6-.2 10-7l-3.5-1.9c-2 3.6-4.1 5-6.5 5zm10-7q3-5.9 5.8-8.4L69.3 62a41 41 0 0 0-6.5 9.4zM72 65a7 7 0 0 1 5.2-2.5v-4a11 11 0 0 0-8 3.7zm5.2-2.5a7 7 0 0 1 4.7 1.8l2.6-3a11 11 0 0 0-7.3-2.8zm4.8 1.8q2.2 1.8 3.3 4.9l3.8-1.4q-1.5-4-4.6-6.6zm3.4 5q1.2 3 1.2 6.5h4q0-4.2-1.5-8zm1.2 6.5a15 15 0 0 1-1.2 6l3.6 1.7q1.6-3.6 1.6-7.7zm-1.2 6q-1.2 2.6-3.3 4l2 3.3q3.3-2 5-5.6zm-3.4 4q-.8.5-2.3.5v4q2.5 0 4.5-1.2zm-2.3.5q-4 .1-12-4.8L65.6 85a29 29 0 0 0 14.2 5.4zM65.2 82a11 11 0 0 1-9 4.1v4q7.5 0 12-5.5zm-9 4.1H55v4h1.2zm.8 2 .2-9.5h-4L53 88zm12.8-10.6q3 1.8 5.6 3l1.7-3.6q-2.4-1-5.2-2.9zm5.7 3q2.5 1.1 4.5 1.2v-4a9 9 0 0 1-3-.9zm4.5 1.2q.8.2 2-.6l-2.4-3.2.5-.2H80zm2-.5q1.1-1 1.7-2.2l-3.8-1.5q0 .3-.2.4zm1.6-2.2q.6-1.3.6-2.8h-4l-.2 1.3zm.6-2.8q0-3.1-1.7-5.8L79 72.4q1 1.8 1 3.7zm-1.7-5.8q-1.9-3.1-5.4-3.2v4q1-.1 2 1.3zM77 67.1q-2.7.2-4.5 2.3a23 23 0 0 0-3.6 5.3l3.6 1.9q1.5-3.1 3-4.5 1.2-1.2 1.5-1zM98.9 84l-1.6 1.2zm-3-12.3h2zm-.6-16-2 .1zm-1.1-13.3-.4-2-1.9.4.3 1.9zm8-1.8 2-.2-.4-2.2-2.1.5zm1 12.7-2 .1zm.3 17.2h2zm.4 4.9 2-.5zm1.5 2.4-1 1.7zm4 .7 2-.2-.2-1.8h-1.8zm.5 4.8 2 .2V83zm-.5 4.7v2h1.8l.2-1.8zm-.3-2q-6.3 0-8.6-3.3l-3.1 2.5q4 4.9 11.7 4.8zm-8.6-3.2Q98 79.6 98 71.7h-4q-.1 8.6 3.4 13.5zM98 71.7q0-8-.6-16l-4 .2.6 15.8zm-.6-16Q97 47.4 96.2 42l-4 .6q.8 5.1 1.1 13.1zm-2.7-11.4 8-1.7-.9-4-8 1.8zm5.5-3.4q.7 4.5 1 12.5l4-.2q-.3-8-1-12.8zm1 12.5q.4 7.9.4 14.6h4q0-6.8-.3-14.8zm.4 14.6v2.5h4V68zm0 2.4q0 3.3.4 5.4l4-.9a20 20 0 0 1-.4-4.4zm.4 5.4a6 6 0 0 0 2.5 3.7l2-3.4q-.3-.1-.6-1.2zm2.5 3.7q2 1 4.7 1v-4q-2.3-.1-2.7-.5zm4.7 1h.3v-4h-.3zm-1.7-1.8.5 4.8 4-.4-.5-4.8zm.5 4.3-.5 4.8 4 .4.5-4.7zm1.5 3h-.3v4h.3zm-.6-7.5v-2h-2v2zm10.7-9.4-1.9.7zm-2.1-5.8-1-1.8-1.6 1 .7 1.6zm6.7-3.7 1.8-.8-.9-2-1.9 1zm2.5 7.2-2 .6zm-2.8 17.8-1.2-1.5zm-15 3.4h-2v2h2zm5 5 1.4-1.4-1.4-1.3-1.4 1.3zm3.9 4-1.4 1.4zm2 2 1.4 1.4 1.4-1.5-1.4-1.4zm-5.9 5.8-1.4 1.5 1.4 1.4 1.4-1.5zm-6-5.9-1.4-1.4L105 99l1.4 1.5zm1-18.4h3.4v-4h-3.4zm3.4 0q4.7 0 7.5-1.3l-1.8-3.5q-1.3.7-5.7.8zm7.5-1.3q1.4-.6 2.3-2 .8-1.2.8-2.8h-4l-.1.7-.8.6zm3.1-4.8q0-1.1-.4-2.5l-1-3.4-3.8 1.3 1.2 4.6zm-1.4-6q-1.4-4-2.2-5.9l-3.7 1.6 2.1 5.7zm-3-3.4 6.7-3.7-2-3.5-6.7 3.7zm3.9-4.6q1 2.5 2.4 7l3.8-1.1q-1.2-4.6-2.6-7.5zm2.4 7a26 26 0 0 1 1.2 7.3h4q0-3.8-1.4-8.5zm1.2 7.3q0 5.8-3.3 8.4l2.5 3Q130 82 130 74.7zm-3.3 8.4q-3.2 2.8-10.4 2.9v4q8 0 13-3.9zM112.2 86h-3.4v4h3.4zm-1.4 2v-9.5h-4V88zm1.6 6.5 3.9 3.9 2.8-2.8-4-4zm3.9 3.9 2 2 2.8-2.9-2-2zm2-.9-6 6 3 2.7 5.8-5.8zm-3.1 6-6-6-2.8 2.9 6 5.9zm-6-3.1 6-6-2.8-2.8-6 6zm39.3-24.2.8-1.9-2-1-.7 2.3zm7.3 2.3-.4 2 1.4.3.8-1.3zm2.9-4.8 1.6 1 .3-.4v-.5zm-.6-18.8-2 .2zm-1.4-12.5-.4-2-1.8.5.3 1.9zm8-1.8 2-.2-.3-2.2-2 .5zm1 10.7-2 .1zm.5 13.4h-2v4.5l3.3-3zm19.7-4.3-1 1.8zm4.6 4.4-1.7 1zm-1.7 15.8-1.5-1.2zm-9.1 6.2L179 85zM155.5 88l-.4 2zm-9.7-3.1-2-.6-.4 1.7 1.6.7zm17-5.2-1.6-1.2-2 2.8 3.5.3zm2.1 0 .1-2zm10.6-1 .5 2zm7.3-3.2L184 77zm1.2-6.5-1.2 1.5zm-12.7 2 1.1 1.6zm-23.7 7q3.6 1.8 7.8 2.6l.8-4a32 32 0 0 1-6.9-2.2zm10 1.6q1.2-2.4 2.7-4.7l-3.3-2.2q-1.7 2.4-3 5zm3-5.7.2-4h-4l-.1 3.8zm.2-4q0-6.4-.7-15l-4 .3q.7 8.5.7 14.7zm-.7-15q-.8-8.7-1.4-12.7l-4 .7q.8 3.8 1.4 12.3zm-3-10.4 8-1.8-.8-4-8 1.9zm5.7-3.5 1 10.5 3.9-.3q-.4-6.7-1-10.7zm1 10.5q.3 6.6.4 13.3h4q0-6.7-.5-13.6zm3.7 14.8q6.3-5.5 11.8-5.4v-4a22 22 0 0 0-14.5 6.4zm11.8-5.4q3.2 0 5.6 1.4l2-3.5a15 15 0 0 0-7.6-1.9zm5.6 1.4q2.6 1.2 3.8 3.6l3.5-2q-2-3.4-5.4-5.2zm3.8 3.6q1.5 2.3 1.4 5.3h4q0-4-2-7.3zm1.4 5.3q0 4.8-2.8 8.3l3 2.5q3.8-4.6 3.8-10.8zm-2.8 8.3q-3 3.5-8.3 5.6l1.3 3.7q6.3-2.3 10-6.8zM179 85q-5.5 2-12.5 2v4q7.5 0 13.9-2.3zm-12.5 2q-5.5 0-10.6-1l-.8 3.9q5.5 1 11.4 1.1zM156 86a47 47 0 0 1-9.4-3l-1.6 3.6A51 51 0 0 0 155 90zm-8.3-.6 2.7-8.6-3.8-1.2-2.7 8.6zm15-3.9 2.2.2v-4l-1.8-.1zm2.2.2q6 .2 11.1-1.1l-1-3.9q-4.3 1.2-10 1zm11.1-1.1q5-1.3 8-3.6l-2.4-3.2a19 19 0 0 1-6.6 3zm8-3.6q3.2-2.3 3.4-5.6h-4c0 .3-.3 1.2-1.8 2.4zm3.4-5.6a5 5 0 0 0-2.2-4.2l-2.4 3.3q.7.5.6.9zm-2.2-4.1a8 8 0 0 0-5-1.5v4q1.9 0 2.6.6zm-5-1.5q-5 0-10 3.4l2.3 3.3q4-2.8 7.7-2.7zm-10 3.4a35 35 0 0 0-9 9.2l3.3 2.3a31 31 0 0 1 8-8.2zM202 84l-1.6 1.2zm-3-12.3h2zm-.6-16-2 .1zm-1.1-13.3-.5-2-1.8.4.3 1.9zm7.9-1.8 2-.2-.3-2.2-2.1.5zm1 12.7-2 .1zm.4 17.2h2zm.3 4.9 2-.5zm1.6 2.4-1 1.7zm4 .7 2-.2-.2-1.8h-1.8zm.5 4.8 2 .2V83zm-.5 4.7v2h1.8l.2-1.8zm-.3-2c-4.4 0-7-1.2-8.6-3.3l-3.2 2.5q4 4.9 11.8 4.8zm-8.6-3.2q-2.6-3.2-2.7-11.1h-4q-.1 8.6 3.5 13.5zm-2.7-11.1q0-8-.5-16l-4 .2q.5 8 .5 15.8zm-.5-16q-.4-8.2-1.2-13.6l-4 .6q.9 5.1 1.2 13.1zm-2.7-11.4 8-1.7-1-4-7.9 1.8zm5.5-3.4q.7 4.5 1 12.5l4-.2q-.3-8-1-12.8zm1 12.5q.4 7.9.4 14.6h4q0-6.8-.4-14.8zm.4 14.6v2.5h4V68zm0 2.4q-.1 3.3.4 5.4l3.9-.9a20 20 0 0 1-.3-4.4zm.4 5.4a6 6 0 0 0 2.4 3.7l2.1-3.4q-.4-.1-.6-1.2zm2.5 3.7q1.9 1 4.7 1v-4q-2.3-.1-2.7-.5zm4.7 1h.3v-4h-.3zm-1.7-1.8.5 4.8 4-.4-.5-4.8zm.5 4.3-.5 4.8 4 .4.5-4.7zm1.5 3h-.3v4h.3zm-.6-7.5v-2h-2v2zm7.4-1-.8-1.9zm2.6-3.4 2 .3zm-.2-5.1-2 .3zm-.4-2.6-.4-2-1.8.4.2 1.9zm6.6-1.2 2-.4-.3-2-2 .4zm.9 10.5h-2v.5zm1.4 2-1.2 1.6zm3.7.8 2-.2-.2-1.8H234zm.6 4.8 2 .2V83zm-.6 4.7v2h1.8l.2-1.8zm-5.1-1.2-1 1.7zm-3.7-3.2 1.5-1.2-1.5-2-1.6 2zM220 87l.6 1.9zm-8.1 1h-2v2h2zm4 5.1 1.3-1.4-1.4-1.4-1.4 1.4zm3.8 4-1.4 1.3zm2 2 1.4 1.3 1.5-1.4-1.5-1.4zm-5.9 5.8-1.4 1.4 1.4 1.4 1.4-1.4zm-6-5.9-1.3-1.4L207 99l1.5 1.4zm2-18.5h.5v-4h-.4zm.5 0q5 0 7.8-1.3l-1.7-3.6q-1.5.8-6.1.9zm7.8-1.2q3.1-1.5 3.7-5l-4-.5q0 1.2-1.3 1.8zm3.7-5 .2-1.8h-4l-.1 1.4zm.2-1.8q0-1.7-.4-3.8l-4 .6q.4 1.9.4 3.2zm-.4-3.8-.3-2.5-4 .5.4 2.6zm-2-.3 6.7-1.3-.7-4-6.7 1.4zm4.4-2.9q.8 4.5.8 10.2h4q0-6-.9-10.9zm.8 10.7a5 5 0 0 0 2.2 3l2.3-3.2q-.6-.5-.6-.7zm2.2 3a8 8 0 0 0 4.6 1.3v-4q-1.9-.1-2.3-.5zm4.6 1.3h.3v-4h-.3zm-1.6-1.8.5 4.8 4-.4-.6-4.8zm.5 4.3-.5 4.8 4 .4.4-4.7zm1.4 3h-.3v4h.3zm-.3 0a8 8 0 0 1-3.9-1l-1.9 3.5a12 12 0 0 0 5.8 1.5zm-3.9-1q-1.8-1-3-2.6l-3.2 2.4q1.8 2.3 4.3 3.7zm-6.2-2.7a9 9 0 0 1-4.1 2.8l1.2 3.8q3.8-1.3 6-4zm-4.1 2.8q-2.8.9-7.1.9v4q4.8 0 8.3-1.1zm-7.1.9h-.4v4h.4zm1.6 2v-9.5h-4V88zm.5 6.6q2 1.8 3.9 3.8l2.9-2.8-4-4zm4 3.8 2 2 2.7-2.8-2-2zm2-.8-6 5.9 2.8 2.8 6-5.9zm-3.2 5.9-6-6-2.7 3 6 5.8zm-6-3 6-6-2.8-2.8-6 5.9zm22-22v-2h-2v2zm12.1-1.1.8 1.8zM248 74h2zm-1.5-5.3-1.9.6zm-2-5.4-1-1.8-1.7 1 .8 1.7zm6.7-3.7 1.8-.9-.9-1.9-1.8 1zm2.6 7.2-2 .5zm1.3 7.7h2zm-4.5 10 1.3 1.6zM233.3 88h-2v2h2zm6-41.6 1.4-1.4-1.4-1.4-1.4 1.4zm5.3 5.4 1.5 1.4 1.4-1.4-1.5-1.4zm-5.3 5.4-1.5 1.4 1.5 1.5 1.4-1.5zm-1.8-1.8-1.4 1.4zm-3.7-3.6-1.4-1.4-1.4 1.4 1.4 1.4zm16.7-5.4L252 45l-1.4-1.4-1.4 1.4zm5.4 5.4 1.4 1.4 1.4-1.4-1.4-1.4zm-5.4 5.4-1.4 1.4 1.4 1.5 1.4-1.5zm-1.8-1.8-1.4 1.4zm-3.6-3.6-1.4-1.4-1.5 1.4 1.5 1.4zm-11.9 28.7h3.2v-4h-3.2zm3.2 0q6.4 0 9.7-1.3l-1.5-3.7q-2 1-8.2 1zm9.7-1.3q1.5-.6 2.8-2 1-1.4 1-3.2h-4q0 .6-.2.8t-1.1.7zM250 74q-.2-2-1.6-6l-3.8 1.3q1.4 4 1.4 4.8zm-1.6-6-2.2-5.6-3.6 1.8q.6 1 2 5.1zm-3-3 6.8-3.7-2-3.5-6.7 3.7zm4-4.6q1.2 2.6 2.5 6.9l3.8-1.1q-1.3-4.5-2.7-7.5zm2.5 7q1.2 4 1.2 7.1h4q0-3.7-1.4-8.3zm1.2 7q-.1 5.9-3.7 8.6l2.5 3.1q5.2-4.2 5.2-11.6zm-3.7 8.6q-3.5 3-11.6 3v4q9 0 14-3.9zm-11.6 3h-4.5v4h4.5zm-2.5 2v-9.5h-4V88zm2.5-40.2 5.4 5.4 2.8-2.8-5.3-5.4zm5.4 2.6-5.4 5.4 2.9 2.8 5.4-5.4zm-2.5 5.4-1.8-1.8-2.8 2.8 1.7 1.8zm-1.8-1.8-3.7-3.6-2.8 2.8 3.7 3.6zm-3.7-.8 5.5-5.4-2.8-2.8-5.5 5.4zm14-5.4 5.3 5.4 2.8-2.8L252 45zm5.3 2.6-5.4 5.4 2.8 2.8 5.4-5.4zm-2.6 5.4-1.8-1.8-2.8 2.8 1.8 1.8zm-1.8-1.8-3.6-3.6-2.8 2.8 3.6 3.6zm-3.6-.8 5.4-5.4-2.8-2.8-5.4 5.4zm5.6 45.4-.8-1.8-2 .8 1 1.9zm7.7-4-1-1.7zm5.5-4.5-1.5-1.3zM264 72l-2 .5zm-.4-1.3L263 69l-1.6.6.4 1.7zm7.2-2.8 1.9-.7-.7-2-2 .8zm2.4 9.5-2 .3zm-4 20.5-1.5-1.4zm-13.2 8.8-1.8.9.8 1.7 1.7-.8zm-3.2-6.2q4.4-1.8 8.1-4.2l-2.2-3.4a44 44 0 0 1-7.4 3.9zm8-4.2q3.8-2.4 6-4.9l-3-2.6a24 24 0 0 1-5 4.1zm6-4.8c1.4-1.6 2.6-3.4 2.6-5.2h-4q.2.4-1.6 2.5zm2.6-5.2q0-1.8-1-5.4l-2.5-9.5-3.9 1.2a202 202 0 0 1 3.4 13.7zm-3.5-14.8-.3-1.3-3.9 1 .3 1.3zm-1.5 1 7.1-2.7-1.4-3.8-7.2 2.9zm4.5-4q1.5 4.4 2.4 9.2l4-.7q-1-5.1-2.6-9.8zm2.4 9.2q.9 4.9.8 8.6h4a53 53 0 0 0-.9-9.3zm.8 8.6q0 5.4-4.4 10.2l3 2.7q5.4-5.8 5.4-13zm-4.4 10.2q-4.5 5-12.5 8.3l1.5 3.7a39 39 0 0 0 14-9.3zm-10 9.3-3.8-8-3.6 1.7 3.9 8zm23.1-18.2-2-.3-.2 2 2 .3zm.1-31.5h-2zm-1.2-13.7-.5-2-1.8.5.3 1.9zm8-1.8 2-.3-.4-2.2-2 .5zm1 13 2-.1zm-.3 34.8-.2 2 2 .2.2-1.9zm-5.6-.5q.7-4.5.7-13.3h-4q0 8.7-.6 12.7zm.7-13.3q0-9-.6-18.7l-4 .3q.6 9.6.6 18.4zm-.6-18.6q-.4-9.8-1.2-14l-4 .8q.8 3.7 1.2 13.4zm-2.8-11.6 8-1.9-.9-3.9-8 1.9zm5.6-3.5q.6 3.5 1 12.8l4-.2q-.4-9.3-1-13.2zm1 12.8q.5 9.2.5 18.1h4q0-9-.5-18.3zm.5 18.1q0 11-.8 16.4l4 .5q.8-5.7.8-16.9zm1.4 14.7-7.5-.9-.5 4 7.6.8z" mask="url(#l)"/></g><defs><filter id="b" width="348.8" height="166.1" x="-9.6" y="-9.4" color-interpolation-filters="sRGB" filterUnits="userSpaceOnUse"><feFlood flood-opacity="0" result="BackgroundImageFix"/><feBlend in="SourceGraphic" in2="BackgroundImageFix" result="shape"/><feGaussianBlur result="effect1_foregroundBlur_299_144" stdDeviation="25"/></filter><filter id="d" width="328.8" height="146.1" x=".4" y=".6" color-interpolation-filters="sRGB" filterUnits="userSpaceOnUse"><feFlood flood-opacity="0" result="BackgroundImageFix"/><feBlend in="SourceGraphic" in2="BackgroundImageFix" result="shape"/><feGaussianBlur result="effect1_foregroundBlur_299_144" stdDeviation="20"/></filter><filter id="f" width="308.8" height="126.1" x="10.4" y="10.6" color-interpolation-filters="sRGB" filterUnits="userSpaceOnUse"><feFlood flood-opacity="0" result="BackgroundImageFix"/><feBlend in="SourceGraphic" in2="BackgroundImageFix" result="shape"/><feGaussianBlur result="effect1_foregroundBlur_299_144" stdDeviation="15"/></filter><filter id="h" width="288.8" height="106.1" x="20.4" y="20.6" color-interpolation-filters="sRGB" filterUnits="userSpaceOnUse"><feFlood flood-opacity="0" result="BackgroundImageFix"/><feBlend in="SourceGraphic" in2="BackgroundImageFix" result="shape"/><feGaussianBlur result="effect1_foregroundBlur_299_144" stdDeviation="10"/></filter><filter id="j" width="268.8" height="86.1" x="30.4" y="30.6" color-interpolation-filters="sRGB" filterUnits="userSpaceOnUse"><feFlood flood-opacity="0" result="BackgroundImageFix"/><feBlend in="SourceGraphic" in2="BackgroundImageFix" result="shape"/><feGaussianBlur result="effect1_foregroundBlur_299_144" stdDeviation="5"/></filter><clipPath id="a"><path fill="#fff" d="M0 0h330v144H0z"/></clipPath></defs></svg>