<svg xmlns="http://www.w3.org/2000/svg" width="210" height="91" fill="currentColor" viewBox="0 0 210 91"><g clip-path="url(#a)"><g filter="url(#b)"><mask id="c" width="101" height="37" x="54" y="27" fill="#000" maskUnits="userSpaceOnUse"><path fill="#fff" d="M54 27h101v37H54z"/><path d="M84.3 53q-1.5 0-2.9-.9t-2.9-2.9a7 7 0 0 1-3.7 3.1 16 16 0 0 1-6 1h-1.1q-5.6 0-8.8-1.7-3.2-1.8-3.4-4.9V46q0-1.5.3-3l1-2.9 3 1.5q-1 3-.8 4.2t2.6 2q2.3.8 6.4.8h.8a15 15 0 0 0 4.4-.5q1.8-.6 2.4-1.4-.2-1.5-1.8-3.7-1.6-2.1-4.8-4.7l.4-4.1 11.8-5 1.4 3.8-9.3 3.9a21 21 0 0 1 4.1 4.8l2.9 4q1 1.4 2 2a4 4 0 0 0 2 .5h.6l.2 2.4L85 53zm.2-4.8h1.6a13 13 0 0 0 4.5-.5q1.3-.6 1.3-1.7 0-.6-.7-2.7l-1-2.7 3.3-1.8a24 24 0 0 1 2 7.4q0 3.3-2.3 5-2 1.8-6.4 1.8h-2.2zm6 13-2.7-2.8 2.7-2.7 1 1 1.7 1.7zm-5.6 0-2.7-2.8 2.7-2.7.9 1 1.8 1.7zm20.8-8.2q-3.6 0-5-2-1.6-2-1.6-6.2a168 168 0 0 0-.9-14.6l4-.9q.3 2.4.5 6.4l.2 7.3v1.2q0 1.7.2 2.5t.7 1.2q.6.3 1.9.3h.2l.2 2.4-.2 2.4zm-.2-4.8h1.7q2.4 0 3.3-.5 1-.5 1-1.5 0-.7-.6-2.6l-1-3 3.3-1.8a27 27 0 0 1 2 7.5q0 3.3-2.1 5-2 1.7-5.9 1.7h-1.7zm2-13.6 2-2 1-1 2.9 3-3 3zM125.4 53q-3.5 0-5.1-2t-1.5-6.2a168 168 0 0 0-.9-14.6l4-.9q.3 2.4.5 6.4l.2 7.3v1.2q0 1.7.2 2.5 0 .9.7 1.2t1.9.3h.1l.3 2.4-.3 2.4zm-.2-4.8h1.6a13 13 0 0 0 4.4-.5q1.4-.6 1.4-1.7 0-.6-.8-2.7l-1-2.7 3.4-1.8a24 24 0 0 1 2 7.4q-.1 3.3-2.3 5t-6.4 1.8h-2.3zm6 13-2.7-2.8 2.7-2.7.9 1 1.8 1.7zm-5.6 0-2.7-2.8 2.7-2.7.8 1 1.9 1.7zm13.9-8.4q.3-2.1.3-6.5a156 156 0 0 0-1-16l4-1q.4 1.8.6 6.5a190 190 0 0 1-.2 17.4zm3 5.5a23 23 0 0 0 6.6-4.2q1-1.1 1-2 0-1.2-1.6-7.1l-.2-.6L152 43a31 31 0 0 1 1.7 9.1q0 3.1-2.5 5.8a18 18 0 0 1-6.6 4.4z"/></mask><path fill="#311192" d="m81.4 52.1-.5.8zm-2.9-2.9.8-.6-1-1.2-.7 1.3zm-3.7 3.1.4 1zm-7.1 1v1zm-8.8-1.7-.5.9zm-3.4-4.9h1v-.1zm.3-3.7-1-.2zm1-2.9.4-.9-1-.4-.4 1zm3 1.5 1 .3.2-.8-.8-.4zm-.8 4.2h-1v.1zm2.6 2-.4 1zm6.4.8h1v-1h-1zm0 0h-1v1h1zm5.2-.5-.3-1zm2.4-1.4.8.6.3-.3v-.5zM73.8 43l-.8.6zM69 38.3h-1v.4l.3.4zm.4-4.1-.4-1-.6.3v.6zm11.8-5 1-.4-.4-1-1 .4zm1.4 3.8.3.9 1-.4-.4-.9zm-9.3 3.9-.4-1-1.5.7 1.3 1zm2 2 .7-.7zm2.1 2.8.9-.6zm2.9 4-.8.6zm2 2-.5.8zm2.6.5h1l-.1-1h-1zm.2 2.4 1 .1v-.2zM85 53v1h.9v-.9zm-.6-1q-1.2 0-2.3-.7l-1.1 1.6q1.5 1 3.4 1.1zm-2.3-.7q-1.2-.8-2.7-2.7l-1.6 1.2q1.6 2 3.2 3.1zm-4.4-2.6q-.8 1.7-3.1 2.7l.7 1.9a8 8 0 0 0 4.2-3.6zm-3.1 2.7a15 15 0 0 1-5.7 1v2a17 17 0 0 0 6.4-1.1zm-5.7 1H68v2h.8zm-.8 0h-.3v2h.3zm-.3 0v2zm0 0q-5.4 0-8.3-1.7l-1 1.8q3.6 2 9.3 1.9zm-8.3-1.7q-2.8-1.6-3-4l-2 .1q.5 3.8 4 5.7zm-3-4.1V46h-2v.9zm0-.6q0-1.3.4-2.8l-2-.4q-.4 1.6-.4 3.2zm.4-2.8.8-2.7-1.8-.8-1 3zm-.5-2.2 3 1.5 1-1.8-3.1-1.5zm2.6.3q-1 3-1 4.6l2-.2q0-.9.9-3.8zm-1 4.7q.4 1 1.2 1.7.9.6 2.1 1L62 47l-1.6-.8q-.4-.3-.3-.5zm3.3 2.8q2.6.8 6.8.8v-2A20 20 0 0 1 62 47zm5.8-.2h2zm1 1h.8v-2H68zm.8 0q2.7 0 4.7-.6l-.6-1.9q-1.6.5-4.1.5zm4.7-.6q2-.6 3-1.7l-1.7-1.2q-.2.4-1.9 1zm3.1-2.5q-.4-2-2-4.1L73 43.6q1.5 2 1.7 3.3zm-2-4.1a32 32 0 0 0-5-4.9l-1.3 1.6q3.1 2.6 4.7 4.5zm-4.6-4 .4-4.1-2-.2-.4 4.1zm-.2-3.3 11.8-5-.7-1.9-12 5zm10.5-5.6 1.3 3.8 1.9-.7-1.3-3.8zm1.9 2.5-9.3 4 .8 1.8 9.2-4zm-9.5 5.7 1.8 1.8 1.5-1.3-2-2zm1.8 1.8 2.1 2.7 1.7-1q-1-1.6-2.3-3zm2.1 2.7 2.9 4.1 1.5-1.2-2.7-4zm2.9 4.1q1.1 1.5 2.3 2.2l1-1.7-1.8-1.7zm2.3 2.2a5 5 0 0 0 2.5.7v-2a3 3 0 0 1-1.5-.4zm2.5.7h.6v-2h-.6zm-.4-.9.3 2.4 2-.2-.3-2.4zm.3 2.2-.3 2.4 2 .2.2-2.4zm.7 1.5h-.6v2h.6zm-.4-3.8v-1h-1v1zm6-.5.5 1zM92 46h1zm-.7-2.7-1 .4zm-1-2.7-.5-.8-.9.4.4.9zm3.3-1.8 1-.4-.5-1-1 .5zm1.3 3.6-1 .3zm.7 3.8h1zm-2.3 5 .7.9zM84.6 53h-1v1h1zm6 8.1-.8.7.7.7.7-.7zm-2.8-2.7-.7-.7-.7.7.7.7zm2.7-2.7.7-.7-.7-.7-.7.7zm1 1-.8.6zm1.7 1.7.7.8.8-.8-.7-.7zM85 61.1l-.7.7.7.7.7-.7zm-2.7-2.7-.7-.7-.7.7.7.7zm2.7-2.7.7-.7-.7-.7-.7.7zm.9 1-.7.6zm1.8 1.7.7.8.7-.8-.7-.7zm-3-9.2H86v-2h-1.6zm1.5 0q3.2 0 4.9-.6l-.8-1.8q-1 .4-4 .4zm4.9-.6q.8-.3 1.4-1t.5-1.6h-2l-.1.4-.6.4zm1.9-2.6q0-1-.8-3l-1.9.7q.7 1.9.7 2.4zm-.8-3-1-2.8-1.9.9q.3.5 1 2.6zm-1.5-1.5 3.4-1.8-1-1.8-3.3 1.9zm2-2.3 1.3 3.5 1.9-.6q-.7-2.3-1.4-3.7zm1.3 3.5q.6 2.1.6 3.5h2q0-1.8-.7-4.1zm.6 3.5q0 2.9-1.9 4.3L94 52a7 7 0 0 0 2.6-5.7zm-1.9 4.3Q91 52 86.8 52v2q4.6 0 7-2zM86.8 52h-2.2v2h2.2zm-1.2 1v-4.8h-2V53zm5.6 7.4-2.7-2.7-1.4 1.4 2.7 2.7zm-2.7-1.3 2.7-2.7-1.4-1.4-2.7 2.7zm1.3-2.7 1 1 1.3-1.5-.9-.9zm1 1 1.7 1.7 1.5-1.4L92 56zm1.7.3-2.7 2.7 1.4 1.4 2.7-2.6zm-6.9 2.7-2.7-2.7-1.4 1.4 2.7 2.7zm-2.7-1.3 2.7-2.7-1.4-1.4-2.7 2.7zm1.3-2.7.9 1 1.4-1.5-.9-.9zm.9 1 1.8 1.7 1.4-1.4-1.8-1.8zm1.8.3-2.7 2.7 1.4 1.4 2.7-2.6zm13.7-6.7-.8.6zm-1.5-6.2h1zm-.3-8-1 .1zm-.6-6.6-.2-1-.9.2.1 1zm4-.9 1-.1-.2-1-1 .1zm.5 6.4h-1zm.2 8.5h1zm.2 2.5 1-.2zm.7 1.2-.5.8zm2 .3h1v-1h-1zm.3 2.4 1 .1v-.2zM106 53v1h.9v-.9zm-.2-1q-3.2 0-4.3-1.6l-1.6 1.2q2 2.5 5.9 2.4zm-4.3-1.6q-1.2-1.6-1.3-5.6h-2q0 4.4 1.7 6.8zm-1.3-5.6-.3-8-2 .1.3 8zm-.3-8q-.1-4-.6-6.8l-2 .3q.4 2.6.6 6.6zm-1.3-5.6 4-.9-.5-2-4 1zm2.7-1.7q.3 2.2.5 6.2h2q-.2-4.2-.5-6.5zm.5 6.2.2 7.3h2q0-3.4-.2-7.4zm.2 7.3v1.2h2V43zm0 1.2q0 1.7.2 2.7l2-.4-.2-2.2zm.2 2.7q.2 1.2 1.2 1.8l1-1.7-.3-.5zm1.2 1.8q1 .6 2.4.5v-2l-1.4-.2zm2.4.5h.2v-2h-.2zm-.8-.9.2 2.4 2-.2-.3-2.4zm.2 2.2L105 53l2 .2.2-2.4zm.8 1.5h-.2v2h.2zm-.4-3.8v-1h-1v1zm5.4-4.6-1 .3zm-1-3-.6-.8-.7.4.3.8zm3.3-1.8.9-.4-.4-1-1 .5zm1.2 3.6-1 .3zm-1.3 8.9-.7-.8zm-7.6 1.7h-1v1h1zm2-18.4-.7-.8-.7.8.7.7zm2-2-.8-.7zm1-1 .6-.7-.7-.7-.7.7zm2.9 3 .7.7.7-.7-.7-.7zm-3 3-.7.6.7.8.8-.8zm-4.9 11.6h1.7v-2h-1.7zm1.7 0q2.4 0 3.8-.6l-1-1.8a7 7 0 0 1-2.8.4zm3.8-.6 1.1-1q.5-.6.5-1.4h-2l-.1.3-.4.3zm1.6-2.4-.2-1.3-.6-1.7-1.9.7.7 2.3zm-.8-3-1-3-1.9.8 1 2.9zm-1.5-1.7 3.4-1.8-1-1.8-3.4 1.9zm2-2.3q.6 1.2 1.2 3.5l1.9-.6q-.7-2.3-1.3-3.7zm1.2 3.5q.6 2.1.6 3.6h2a15 15 0 0 0-.7-4.2zm.6 3.6q0 3-1.7 4.2l1.3 1.6a7 7 0 0 0 2.4-5.8zm-1.7 4.2Q111 52 107.2 52v2q4.1 0 6.5-2zm-5.2 1.5h-1.7v2h1.7zm-.7 1v-4.8h-2V53zm1.7-17.7 2-2-1.5-1.4-1.9 2zm2-2 1-1-1.5-1.4-1 1zm-.5-1 3 3 1.4-1.4-3-3zm3 1.6-3 3 1.5 1.3 2.9-3zm-1.5 3-3-3-1.4 1.4 3 3zm9 14-.7.7zm-1.4-6h1zm-.3-8h-1zm-.6-6.7-.2-1-.9.2.1 1zm4-.9 1-.1-.2-1-1 .1zm.5 6.4h-1zm.2 8.5h1zm.2 2.5 1-.2zm.7 1.2-.5.8zm2 .3h1v-1h-1zm.3 2.4 1 .1v-.2zm-.3 2.4v1h1v-.9zm-.1-1q-3.2 0-4.3-1.6l-1.6 1.2q2 2.5 5.9 2.4zm-4.3-1.6q-1.2-1.6-1.3-5.6h-2q0 4.4 1.7 6.8zm-1.3-5.6-.3-8-2 .1.3 8zm-.3-8-.6-6.8-2 .3q.4 2.6.6 6.6zm-1.4-5.6 4-.9-.4-2-4 1zm2.8-1.7q.3 2.2.5 6.2h2q-.2-4.2-.5-6.5zm.5 6.2.2 7.3h2q0-3.4-.2-7.4zm.2 7.3v1.2h2V43zm0 1.2q0 1.7.2 2.7l2-.4-.2-2.2zm.2 2.7q.2 1.2 1.2 1.8l1-1.7-.3-.5zm1.2 1.8q1 .6 2.4.5v-2L124 47zm2.4.5h.1v-2h-.1zm-.9-.9.3 2.4 2-.2-.3-2.4zm.3 2.2-.3 2.4 2 .2.3-2.4zm.7 1.5h-.1v2h.1zm-.3-3.8v-1h-1v1zm6-.5.4 1zm1.4-1.7h1zm-.8-2.7-1 .4zm-1-2.7-.5-.8-.8.4.4.9zm3.4-1.8.9-.4-.5-1-.9.5zm1.3 3.6-1 .3zm.6 3.8h1zm-2.2 5 .6.9zm-8.7 1.8h-1v1h1zm6 8.1-.7.7.7.7.7-.7zm-2.7-2.7-.7-.7-.7.7.7.7zm2.7-2.7.7-.7-.7-.7-.7.7zm.9 1-.7.6zm1.8 1.7.7.8.7-.8-.7-.7zm-8.3 2.7-.8.7.7.7.8-.7zm-2.7-2.7-.7-.7-.7.7.7.7zm2.7-2.7.7-.7-.8-.7-.7.7zm.8 1-.7.6zm1.9 1.7.7.8.7-.8-.7-.7zm-3.1-9.2h1.6v-2h-1.6zm1.6 0q3.2 0 4.8-.6l-.7-1.8q-1 .4-4.1.4zm4.8-.6q.8-.3 1.4-1t.6-1.6h-2q0 .3-.2.4l-.5.4zm2-2.6q-.1-1-.8-3l-2 .7q.8 1.9.8 2.4zm-.8-3-1.1-2.8-1.8.9 1 2.6zm-1.5-1.5 3.4-1.8-1-1.8-3.4 1.9zm2-2.3q.6 1.2 1.2 3.5l2-.6-1.4-3.7zm1.2 3.5q.6 2.1.6 3.5h2q0-1.8-.7-4.1zm.6 3.5q0 2.9-1.8 4.3l1.2 1.5a7 7 0 0 0 2.6-5.7zm-1.8 4.3q-1.8 1.5-5.8 1.5v2q4.5 0 7-2zm-5.8 1.5h-2.3v2h2.3zm-1.3 1v-4.8h-2V53zm5.7 7.4-2.7-2.7-1.4 1.4 2.7 2.7zm-2.7-1.3 2.7-2.7-1.4-1.4-2.7 2.7zm1.3-2.7.9 1 1.4-1.5-1-.9zm.9 1 1.8 1.7 1.4-1.4-1.8-1.8zm1.8.3-2.7 2.7 1.4 1.4 2.7-2.6zm-7 2.7-2.6-2.7-1.4 1.4 2.6 2.7zm-2.6-1.3 2.7-2.7-1.5-1.4-2.6 2.7zm1.2-2.7 1 1 1.4-1.5-1-.9zm1 1 1.8 1.7 1.4-1.4-1.8-1.8zm1.8.3-2.8 2.7 1.5 1.4 2.7-2.6zm11.9-4.9-1-.1-.2 1 1 .1zm0-15.8h-1zm-.6-6.8-.2-1-1 .3.2.9zm4-1h1l-.2-1.1-1 .2zm.5 6.6h1zm-.2 17.4v1l.9.1.1-1zm-2.7-.2q.3-2.3.3-6.7h-2q0 4.4-.3 6.4zm.3-6.7-.3-9.3h-2l.3 9.3zm-.3-9.3-.6-7-2 .4.6 6.7zm-1.4-5.8 4-1-.4-1.9-4 1zm2.8-1.8q.3 1.8.5 6.4h2q-.2-4.8-.5-6.7zm.5 6.4q.3 4.6.2 9.1h2q0-4.4-.2-9.2zm.2 9.1q0 5.5-.3 8.2l2 .3q.3-3 .3-8.5zm.8 7.3-3.8-.4-.2 2 3.7.4zm-.9 6.1-.4-1-1 .5.5 1zm3.9-2-.5-.8zm2.7-2.2-.7-.7zm-.6-9.1-1 .2zm-.2-.6-.4-1-.8.4.2.8zM152 43l1-.4-.4-1-1 .4zm1.2 4.7-1 .2zm-2 10.2-.7-.7zm-6.6 4.4-1 .5.5.8.9-.3zm-1.6-3q2.2-1 4-2.2l-1-1.6-3.8 1.9zm4-2.2a14 14 0 0 0 3-2.4l-1.5-1.3a12 12 0 0 1-2.5 2zm3-2.4q1.2-1.1 1.3-2.6h-2q0 .3-.8 1.3zm1.3-2.6-.5-2.6-1.3-4.8-1.9.6 1.7 6.8zm-1.8-7.3-.1-.7-2 .5.2.6zm-.7.5 3.6-1.4-.8-1.9-3.6 1.4zm2.2-2q.8 2.1 1.2 4.6l2-.4q-.4-2.5-1.3-4.9zm1.2 4.6q.5 2.4.5 4.2h2q0-2-.5-4.6zm.5 4.2q0 2.7-2.2 5.1l1.4 1.4q2.8-2.9 2.8-6.5zm-2.2 5.2q-2.3 2.4-6.3 4.1l.8 1.9q4.3-1.8 7-4.7zm-5 4.6-2-4-1.8.8 2 4z" mask="url(#c)"/></g><g filter="url(#d)"><mask id="e" width="101" height="37" x="54" y="27" fill="#000" maskUnits="userSpaceOnUse"><path fill="#fff" d="M54 27h101v37H54z"/><path d="M84.3 53q-1.5 0-2.9-.9t-2.9-2.9a7 7 0 0 1-3.7 3.1 16 16 0 0 1-6 1h-1.1q-5.6 0-8.8-1.7-3.2-1.8-3.4-4.9V46q0-1.5.3-3l1-2.9 3 1.5q-1 3-.8 4.2t2.6 2q2.3.8 6.4.8h.8a15 15 0 0 0 4.4-.5q1.8-.6 2.4-1.4-.2-1.5-1.8-3.7-1.6-2.1-4.8-4.7l.4-4.1 11.8-5 1.4 3.8-9.3 3.9a21 21 0 0 1 4.1 4.8l2.9 4q1 1.4 2 2a4 4 0 0 0 2 .5h.6l.2 2.4L85 53zm.2-4.8h1.6a13 13 0 0 0 4.5-.5q1.3-.6 1.3-1.7 0-.6-.7-2.7l-1-2.7 3.3-1.8a24 24 0 0 1 2 7.4q0 3.3-2.3 5-2 1.8-6.4 1.8h-2.2zm6 13-2.7-2.8 2.7-2.7 1 1 1.7 1.7zm-5.6 0-2.7-2.8 2.7-2.7.9 1 1.8 1.7zm20.8-8.2q-3.6 0-5-2-1.6-2-1.6-6.2a168 168 0 0 0-.9-14.6l4-.9q.3 2.4.5 6.4l.2 7.3v1.2q0 1.7.2 2.5t.7 1.2q.6.3 1.9.3h.2l.2 2.4-.2 2.4zm-.2-4.8h1.7q2.4 0 3.3-.5 1-.5 1-1.5 0-.7-.6-2.6l-1-3 3.3-1.8a27 27 0 0 1 2 7.5q0 3.3-2.1 5-2 1.7-5.9 1.7h-1.7zm2-13.6 2-2 1-1 2.9 3-3 3zM125.4 53q-3.5 0-5.1-2t-1.5-6.2a168 168 0 0 0-.9-14.6l4-.9q.3 2.4.5 6.4l.2 7.3v1.2q0 1.7.2 2.5 0 .9.7 1.2t1.9.3h.1l.3 2.4-.3 2.4zm-.2-4.8h1.6a13 13 0 0 0 4.4-.5q1.4-.6 1.4-1.7 0-.6-.8-2.7l-1-2.7 3.4-1.8a24 24 0 0 1 2 7.4q-.1 3.3-2.3 5t-6.4 1.8h-2.3zm6 13-2.7-2.8 2.7-2.7.9 1 1.8 1.7zm-5.6 0-2.7-2.8 2.7-2.7.8 1 1.9 1.7zm13.9-8.4q.3-2.1.3-6.5a156 156 0 0 0-1-16l4-1q.4 1.8.6 6.5a190 190 0 0 1-.2 17.4zm3 5.5a23 23 0 0 0 6.6-4.2q1-1.1 1-2 0-1.2-1.6-7.1l-.2-.6L152 43a31 31 0 0 1 1.7 9.1q0 3.1-2.5 5.8a18 18 0 0 1-6.6 4.4z"/></mask><path fill="#311192" d="m81.4 52.1-.5.8zm-2.9-2.9.8-.6-1-1.2-.7 1.3zm-3.7 3.1.4 1zm-7.1 1v1zm-8.8-1.7-.5.9zm-3.4-4.9h1v-.1zm.3-3.7-1-.2zm1-2.9.4-.9-1-.4-.4 1zm3 1.5 1 .3.2-.8-.8-.4zm-.8 4.2h-1v.1zm2.6 2-.4 1zm6.4.8h1v-1h-1zm0 0h-1v1h1zm5.2-.5-.3-1zm2.4-1.4.8.6.3-.3v-.5zM73.8 43l-.8.6zM69 38.3h-1v.4l.3.4zm.4-4.1-.4-1-.6.3v.6zm11.8-5 1-.4-.4-1-1 .4zm1.4 3.8.3.9 1-.4-.4-.9zm-9.3 3.9-.4-1-1.5.7 1.3 1zm2 2 .7-.7zm2.1 2.8.9-.6zm2.9 4-.8.6zm2 2-.5.8zm2.6.5h1l-.1-1h-1zm.2 2.4 1 .1v-.2zM85 53v1h.9v-.9zm-.6-1q-1.2 0-2.3-.7l-1.1 1.6q1.5 1 3.4 1.1zm-2.3-.7q-1.2-.8-2.7-2.7l-1.6 1.2q1.6 2 3.2 3.1zm-4.4-2.6q-.8 1.7-3.1 2.7l.7 1.9a8 8 0 0 0 4.2-3.6zm-3.1 2.7a15 15 0 0 1-5.7 1v2a17 17 0 0 0 6.4-1.1zm-5.7 1H68v2h.8zm-.8 0h-.3v2h.3zm-.3 0v2zm0 0q-5.4 0-8.3-1.7l-1 1.8q3.6 2 9.3 1.9zm-8.3-1.7q-2.8-1.6-3-4l-2 .1q.5 3.8 4 5.7zm-3-4.1V46h-2v.9zm0-.6q0-1.3.4-2.8l-2-.4q-.4 1.6-.4 3.2zm.4-2.8.8-2.7-1.8-.8-1 3zm-.5-2.2 3 1.5 1-1.8-3.1-1.5zm2.6.3q-1 3-1 4.6l2-.2q0-.9.9-3.8zm-1 4.7q.4 1 1.2 1.7.9.6 2.1 1L62 47l-1.6-.8q-.4-.3-.3-.5zm3.3 2.8q2.6.8 6.8.8v-2A20 20 0 0 1 62 47zm5.8-.2h2zm1 1h.8v-2H68zm.8 0q2.7 0 4.7-.6l-.6-1.9q-1.6.5-4.1.5zm4.7-.6q2-.6 3-1.7l-1.7-1.2q-.2.4-1.9 1zm3.1-2.5q-.4-2-2-4.1L73 43.6q1.5 2 1.7 3.3zm-2-4.1a32 32 0 0 0-5-4.9l-1.3 1.6q3.1 2.6 4.7 4.5zm-4.6-4 .4-4.1-2-.2-.4 4.1zm-.2-3.3 11.8-5-.7-1.9-12 5zm10.5-5.6 1.3 3.8 1.9-.7-1.3-3.8zm1.9 2.5-9.3 4 .8 1.8 9.2-4zm-9.5 5.7 1.8 1.8 1.5-1.3-2-2zm1.8 1.8 2.1 2.7 1.7-1q-1-1.6-2.3-3zm2.1 2.7 2.9 4.1 1.5-1.2-2.7-4zm2.9 4.1q1.1 1.5 2.3 2.2l1-1.7-1.8-1.7zm2.3 2.2a5 5 0 0 0 2.5.7v-2a3 3 0 0 1-1.5-.4zm2.5.7h.6v-2h-.6zm-.4-.9.3 2.4 2-.2-.3-2.4zm.3 2.2-.3 2.4 2 .2.2-2.4zm.7 1.5h-.6v2h.6zm-.4-3.8v-1h-1v1zm6-.5.5 1zM92 46h1zm-.7-2.7-1 .4zm-1-2.7-.5-.8-.9.4.4.9zm3.3-1.8 1-.4-.5-1-1 .5zm1.3 3.6-1 .3zm.7 3.8h1zm-2.3 5 .7.9zM84.6 53h-1v1h1zm6 8.1-.8.7.7.7.7-.7zm-2.8-2.7-.7-.7-.7.7.7.7zm2.7-2.7.7-.7-.7-.7-.7.7zm1 1-.8.6zm1.7 1.7.7.8.8-.8-.7-.7zM85 61.1l-.7.7.7.7.7-.7zm-2.7-2.7-.7-.7-.7.7.7.7zm2.7-2.7.7-.7-.7-.7-.7.7zm.9 1-.7.6zm1.8 1.7.7.8.7-.8-.7-.7zm-3-9.2H86v-2h-1.6zm1.5 0q3.2 0 4.9-.6l-.8-1.8q-1 .4-4 .4zm4.9-.6q.8-.3 1.4-1t.5-1.6h-2l-.1.4-.6.4zm1.9-2.6q0-1-.8-3l-1.9.7q.7 1.9.7 2.4zm-.8-3-1-2.8-1.9.9q.3.5 1 2.6zm-1.5-1.5 3.4-1.8-1-1.8-3.3 1.9zm2-2.3 1.3 3.5 1.9-.6q-.7-2.3-1.4-3.7zm1.3 3.5q.6 2.1.6 3.5h2q0-1.8-.7-4.1zm.6 3.5q0 2.9-1.9 4.3L94 52a7 7 0 0 0 2.6-5.7zm-1.9 4.3Q91 52 86.8 52v2q4.6 0 7-2zM86.8 52h-2.2v2h2.2zm-1.2 1v-4.8h-2V53zm5.6 7.4-2.7-2.7-1.4 1.4 2.7 2.7zm-2.7-1.3 2.7-2.7-1.4-1.4-2.7 2.7zm1.3-2.7 1 1 1.3-1.5-.9-.9zm1 1 1.7 1.7 1.5-1.4L92 56zm1.7.3-2.7 2.7 1.4 1.4 2.7-2.6zm-6.9 2.7-2.7-2.7-1.4 1.4 2.7 2.7zm-2.7-1.3 2.7-2.7-1.4-1.4-2.7 2.7zm1.3-2.7.9 1 1.4-1.5-.9-.9zm.9 1 1.8 1.7 1.4-1.4-1.8-1.8zm1.8.3-2.7 2.7 1.4 1.4 2.7-2.6zm13.7-6.7-.8.6zm-1.5-6.2h1zm-.3-8-1 .1zm-.6-6.6-.2-1-.9.2.1 1zm4-.9 1-.1-.2-1-1 .1zm.5 6.4h-1zm.2 8.5h1zm.2 2.5 1-.2zm.7 1.2-.5.8zm2 .3h1v-1h-1zm.3 2.4 1 .1v-.2zM106 53v1h.9v-.9zm-.2-1q-3.2 0-4.3-1.6l-1.6 1.2q2 2.5 5.9 2.4zm-4.3-1.6q-1.2-1.6-1.3-5.6h-2q0 4.4 1.7 6.8zm-1.3-5.6-.3-8-2 .1.3 8zm-.3-8q-.1-4-.6-6.8l-2 .3q.4 2.6.6 6.6zm-1.3-5.6 4-.9-.5-2-4 1zm2.7-1.7q.3 2.2.5 6.2h2q-.2-4.2-.5-6.5zm.5 6.2.2 7.3h2q0-3.4-.2-7.4zm.2 7.3v1.2h2V43zm0 1.2q0 1.7.2 2.7l2-.4-.2-2.2zm.2 2.7q.2 1.2 1.2 1.8l1-1.7-.3-.5zm1.2 1.8q1 .6 2.4.5v-2l-1.4-.2zm2.4.5h.2v-2h-.2zm-.8-.9.2 2.4 2-.2-.3-2.4zm.2 2.2L105 53l2 .2.2-2.4zm.8 1.5h-.2v2h.2zm-.4-3.8v-1h-1v1zm5.4-4.6-1 .3zm-1-3-.6-.8-.7.4.3.8zm3.3-1.8.9-.4-.4-1-1 .5zm1.2 3.6-1 .3zm-1.3 8.9-.7-.8zm-7.6 1.7h-1v1h1zm2-18.4-.7-.8-.7.8.7.7zm2-2-.8-.7zm1-1 .6-.7-.7-.7-.7.7zm2.9 3 .7.7.7-.7-.7-.7zm-3 3-.7.6.7.8.8-.8zm-4.9 11.6h1.7v-2h-1.7zm1.7 0q2.4 0 3.8-.6l-1-1.8a7 7 0 0 1-2.8.4zm3.8-.6 1.1-1q.5-.6.5-1.4h-2l-.1.3-.4.3zm1.6-2.4-.2-1.3-.6-1.7-1.9.7.7 2.3zm-.8-3-1-3-1.9.8 1 2.9zm-1.5-1.7 3.4-1.8-1-1.8-3.4 1.9zm2-2.3q.6 1.2 1.2 3.5l1.9-.6q-.7-2.3-1.3-3.7zm1.2 3.5q.6 2.1.6 3.6h2a15 15 0 0 0-.7-4.2zm.6 3.6q0 3-1.7 4.2l1.3 1.6a7 7 0 0 0 2.4-5.8zm-1.7 4.2Q111 52 107.2 52v2q4.1 0 6.5-2zm-5.2 1.5h-1.7v2h1.7zm-.7 1v-4.8h-2V53zm1.7-17.7 2-2-1.5-1.4-1.9 2zm2-2 1-1-1.5-1.4-1 1zm-.5-1 3 3 1.4-1.4-3-3zm3 1.6-3 3 1.5 1.3 2.9-3zm-1.5 3-3-3-1.4 1.4 3 3zm9 14-.7.7zm-1.4-6h1zm-.3-8h-1zm-.6-6.7-.2-1-.9.2.1 1zm4-.9 1-.1-.2-1-1 .1zm.5 6.4h-1zm.2 8.5h1zm.2 2.5 1-.2zm.7 1.2-.5.8zm2 .3h1v-1h-1zm.3 2.4 1 .1v-.2zm-.3 2.4v1h1v-.9zm-.1-1q-3.2 0-4.3-1.6l-1.6 1.2q2 2.5 5.9 2.4zm-4.3-1.6q-1.2-1.6-1.3-5.6h-2q0 4.4 1.7 6.8zm-1.3-5.6-.3-8-2 .1.3 8zm-.3-8-.6-6.8-2 .3q.4 2.6.6 6.6zm-1.4-5.6 4-.9-.4-2-4 1zm2.8-1.7q.3 2.2.5 6.2h2q-.2-4.2-.5-6.5zm.5 6.2.2 7.3h2q0-3.4-.2-7.4zm.2 7.3v1.2h2V43zm0 1.2q0 1.7.2 2.7l2-.4-.2-2.2zm.2 2.7q.2 1.2 1.2 1.8l1-1.7-.3-.5zm1.2 1.8q1 .6 2.4.5v-2L124 47zm2.4.5h.1v-2h-.1zm-.9-.9.3 2.4 2-.2-.3-2.4zm.3 2.2-.3 2.4 2 .2.3-2.4zm.7 1.5h-.1v2h.1zm-.3-3.8v-1h-1v1zm6-.5.4 1zm1.4-1.7h1zm-.8-2.7-1 .4zm-1-2.7-.5-.8-.8.4.4.9zm3.4-1.8.9-.4-.5-1-.9.5zm1.3 3.6-1 .3zm.6 3.8h1zm-2.2 5 .6.9zm-8.7 1.8h-1v1h1zm6 8.1-.7.7.7.7.7-.7zm-2.7-2.7-.7-.7-.7.7.7.7zm2.7-2.7.7-.7-.7-.7-.7.7zm.9 1-.7.6zm1.8 1.7.7.8.7-.8-.7-.7zm-8.3 2.7-.8.7.7.7.8-.7zm-2.7-2.7-.7-.7-.7.7.7.7zm2.7-2.7.7-.7-.8-.7-.7.7zm.8 1-.7.6zm1.9 1.7.7.8.7-.8-.7-.7zm-3.1-9.2h1.6v-2h-1.6zm1.6 0q3.2 0 4.8-.6l-.7-1.8q-1 .4-4.1.4zm4.8-.6q.8-.3 1.4-1t.6-1.6h-2q0 .3-.2.4l-.5.4zm2-2.6q-.1-1-.8-3l-2 .7q.8 1.9.8 2.4zm-.8-3-1.1-2.8-1.8.9 1 2.6zm-1.5-1.5 3.4-1.8-1-1.8-3.4 1.9zm2-2.3q.6 1.2 1.2 3.5l2-.6-1.4-3.7zm1.2 3.5q.6 2.1.6 3.5h2q0-1.8-.7-4.1zm.6 3.5q0 2.9-1.8 4.3l1.2 1.5a7 7 0 0 0 2.6-5.7zm-1.8 4.3q-1.8 1.5-5.8 1.5v2q4.5 0 7-2zm-5.8 1.5h-2.3v2h2.3zm-1.3 1v-4.8h-2V53zm5.7 7.4-2.7-2.7-1.4 1.4 2.7 2.7zm-2.7-1.3 2.7-2.7-1.4-1.4-2.7 2.7zm1.3-2.7.9 1 1.4-1.5-1-.9zm.9 1 1.8 1.7 1.4-1.4-1.8-1.8zm1.8.3-2.7 2.7 1.4 1.4 2.7-2.6zm-7 2.7-2.6-2.7-1.4 1.4 2.6 2.7zm-2.6-1.3 2.7-2.7-1.5-1.4-2.6 2.7zm1.2-2.7 1 1 1.4-1.5-1-.9zm1 1 1.8 1.7 1.4-1.4-1.8-1.8zm1.8.3-2.8 2.7 1.5 1.4 2.7-2.6zm11.9-4.9-1-.1-.2 1 1 .1zm0-15.8h-1zm-.6-6.8-.2-1-1 .3.2.9zm4-1h1l-.2-1.1-1 .2zm.5 6.6h1zm-.2 17.4v1l.9.1.1-1zm-2.7-.2q.3-2.3.3-6.7h-2q0 4.4-.3 6.4zm.3-6.7-.3-9.3h-2l.3 9.3zm-.3-9.3-.6-7-2 .4.6 6.7zm-1.4-5.8 4-1-.4-1.9-4 1zm2.8-1.8q.3 1.8.5 6.4h2q-.2-4.8-.5-6.7zm.5 6.4q.3 4.6.2 9.1h2q0-4.4-.2-9.2zm.2 9.1q0 5.5-.3 8.2l2 .3q.3-3 .3-8.5zm.8 7.3-3.8-.4-.2 2 3.7.4zm-.9 6.1-.4-1-1 .5.5 1zm3.9-2-.5-.8zm2.7-2.2-.7-.7zm-.6-9.1-1 .2zm-.2-.6-.4-1-.8.4.2.8zM152 43l1-.4-.4-1-1 .4zm1.2 4.7-1 .2zm-2 10.2-.7-.7zm-6.6 4.4-1 .5.5.8.9-.3zm-1.6-3q2.2-1 4-2.2l-1-1.6-3.8 1.9zm4-2.2a14 14 0 0 0 3-2.4l-1.5-1.3a12 12 0 0 1-2.5 2zm3-2.4q1.2-1.1 1.3-2.6h-2q0 .3-.8 1.3zm1.3-2.6-.5-2.6-1.3-4.8-1.9.6 1.7 6.8zm-1.8-7.3-.1-.7-2 .5.2.6zm-.7.5 3.6-1.4-.8-1.9-3.6 1.4zm2.2-2q.8 2.1 1.2 4.6l2-.4q-.4-2.5-1.3-4.9zm1.2 4.6q.5 2.4.5 4.2h2q0-2-.5-4.6zm.5 4.2q0 2.7-2.2 5.1l1.4 1.4q2.8-2.9 2.8-6.5zm-2.2 5.2q-2.3 2.4-6.3 4.1l.8 1.9q4.3-1.8 7-4.7zm-5 4.6-2-4-1.8.8 2 4z" mask="url(#e)"/></g><g filter="url(#f)"><mask id="g" width="101" height="37" x="54" y="27" fill="#000" maskUnits="userSpaceOnUse"><path fill="#fff" d="M54 27h101v37H54z"/><path d="M84.3 53q-1.5 0-2.9-.9t-2.9-2.9a7 7 0 0 1-3.7 3.1 16 16 0 0 1-6 1h-1.1q-5.6 0-8.8-1.7-3.2-1.8-3.4-4.9V46q0-1.5.3-3l1-2.9 3 1.5q-1 3-.8 4.2t2.6 2q2.3.8 6.4.8h.8a15 15 0 0 0 4.4-.5q1.8-.6 2.4-1.4-.2-1.5-1.8-3.7-1.6-2.1-4.8-4.7l.4-4.1 11.8-5 1.4 3.8-9.3 3.9a21 21 0 0 1 4.1 4.8l2.9 4q1 1.4 2 2a4 4 0 0 0 2 .5h.6l.2 2.4L85 53zm.2-4.8h1.6a13 13 0 0 0 4.5-.5q1.3-.6 1.3-1.7 0-.6-.7-2.7l-1-2.7 3.3-1.8a24 24 0 0 1 2 7.4q0 3.3-2.3 5-2 1.8-6.4 1.8h-2.2zm6 13-2.7-2.8 2.7-2.7 1 1 1.7 1.7zm-5.6 0-2.7-2.8 2.7-2.7.9 1 1.8 1.7zm20.8-8.2q-3.6 0-5-2-1.6-2-1.6-6.2a168 168 0 0 0-.9-14.6l4-.9q.3 2.4.5 6.4l.2 7.3v1.2q0 1.7.2 2.5t.7 1.2q.6.3 1.9.3h.2l.2 2.4-.2 2.4zm-.2-4.8h1.7q2.4 0 3.3-.5 1-.5 1-1.5 0-.7-.6-2.6l-1-3 3.3-1.8a27 27 0 0 1 2 7.5q0 3.3-2.1 5-2 1.7-5.9 1.7h-1.7zm2-13.6 2-2 1-1 2.9 3-3 3zM125.4 53q-3.5 0-5.1-2t-1.5-6.2a168 168 0 0 0-.9-14.6l4-.9q.3 2.4.5 6.4l.2 7.3v1.2q0 1.7.2 2.5 0 .9.7 1.2t1.9.3h.1l.3 2.4-.3 2.4zm-.2-4.8h1.6a13 13 0 0 0 4.4-.5q1.4-.6 1.4-1.7 0-.6-.8-2.7l-1-2.7 3.4-1.8a24 24 0 0 1 2 7.4q-.1 3.3-2.3 5t-6.4 1.8h-2.3zm6 13-2.7-2.8 2.7-2.7.9 1 1.8 1.7zm-5.6 0-2.7-2.8 2.7-2.7.8 1 1.9 1.7zm13.9-8.4q.3-2.1.3-6.5a156 156 0 0 0-1-16l4-1q.4 1.8.6 6.5a190 190 0 0 1-.2 17.4zm3 5.5a23 23 0 0 0 6.6-4.2q1-1.1 1-2 0-1.2-1.6-7.1l-.2-.6L152 43a31 31 0 0 1 1.7 9.1q0 3.1-2.5 5.8a18 18 0 0 1-6.6 4.4z"/></mask><path fill="#311192" d="m81.4 52.1-.5.8zm-2.9-2.9.8-.6-1-1.2-.7 1.3zm-3.7 3.1.4 1zm-7.1 1v1zm-8.8-1.7-.5.9zm-3.4-4.9h1v-.1zm.3-3.7-1-.2zm1-2.9.4-.9-1-.4-.4 1zm3 1.5 1 .3.2-.8-.8-.4zm-.8 4.2h-1v.1zm2.6 2-.4 1zm6.4.8h1v-1h-1zm0 0h-1v1h1zm5.2-.5-.3-1zm2.4-1.4.8.6.3-.3v-.5zM73.8 43l-.8.6zM69 38.3h-1v.4l.3.4zm.4-4.1-.4-1-.6.3v.6zm11.8-5 1-.4-.4-1-1 .4zm1.4 3.8.3.9 1-.4-.4-.9zm-9.3 3.9-.4-1-1.5.7 1.3 1zm2 2 .7-.7zm2.1 2.8.9-.6zm2.9 4-.8.6zm2 2-.5.8zm2.6.5h1l-.1-1h-1zm.2 2.4 1 .1v-.2zM85 53v1h.9v-.9zm-.6-1q-1.2 0-2.3-.7l-1.1 1.6q1.5 1 3.4 1.1zm-2.3-.7q-1.2-.8-2.7-2.7l-1.6 1.2q1.6 2 3.2 3.1zm-4.4-2.6q-.8 1.7-3.1 2.7l.7 1.9a8 8 0 0 0 4.2-3.6zm-3.1 2.7a15 15 0 0 1-5.7 1v2a17 17 0 0 0 6.4-1.1zm-5.7 1H68v2h.8zm-.8 0h-.3v2h.3zm-.3 0v2zm0 0q-5.4 0-8.3-1.7l-1 1.8q3.6 2 9.3 1.9zm-8.3-1.7q-2.8-1.6-3-4l-2 .1q.5 3.8 4 5.7zm-3-4.1V46h-2v.9zm0-.6q0-1.3.4-2.8l-2-.4q-.4 1.6-.4 3.2zm.4-2.8.8-2.7-1.8-.8-1 3zm-.5-2.2 3 1.5 1-1.8-3.1-1.5zm2.6.3q-1 3-1 4.6l2-.2q0-.9.9-3.8zm-1 4.7q.4 1 1.2 1.7.9.6 2.1 1L62 47l-1.6-.8q-.4-.3-.3-.5zm3.3 2.8q2.6.8 6.8.8v-2A20 20 0 0 1 62 47zm5.8-.2h2zm1 1h.8v-2H68zm.8 0q2.7 0 4.7-.6l-.6-1.9q-1.6.5-4.1.5zm4.7-.6q2-.6 3-1.7l-1.7-1.2q-.2.4-1.9 1zm3.1-2.5q-.4-2-2-4.1L73 43.6q1.5 2 1.7 3.3zm-2-4.1a32 32 0 0 0-5-4.9l-1.3 1.6q3.1 2.6 4.7 4.5zm-4.6-4 .4-4.1-2-.2-.4 4.1zm-.2-3.3 11.8-5-.7-1.9-12 5zm10.5-5.6 1.3 3.8 1.9-.7-1.3-3.8zm1.9 2.5-9.3 4 .8 1.8 9.2-4zm-9.5 5.7 1.8 1.8 1.5-1.3-2-2zm1.8 1.8 2.1 2.7 1.7-1q-1-1.6-2.3-3zm2.1 2.7 2.9 4.1 1.5-1.2-2.7-4zm2.9 4.1q1.1 1.5 2.3 2.2l1-1.7-1.8-1.7zm2.3 2.2a5 5 0 0 0 2.5.7v-2a3 3 0 0 1-1.5-.4zm2.5.7h.6v-2h-.6zm-.4-.9.3 2.4 2-.2-.3-2.4zm.3 2.2-.3 2.4 2 .2.2-2.4zm.7 1.5h-.6v2h.6zm-.4-3.8v-1h-1v1zm6-.5.5 1zM92 46h1zm-.7-2.7-1 .4zm-1-2.7-.5-.8-.9.4.4.9zm3.3-1.8 1-.4-.5-1-1 .5zm1.3 3.6-1 .3zm.7 3.8h1zm-2.3 5 .7.9zM84.6 53h-1v1h1zm6 8.1-.8.7.7.7.7-.7zm-2.8-2.7-.7-.7-.7.7.7.7zm2.7-2.7.7-.7-.7-.7-.7.7zm1 1-.8.6zm1.7 1.7.7.8.8-.8-.7-.7zM85 61.1l-.7.7.7.7.7-.7zm-2.7-2.7-.7-.7-.7.7.7.7zm2.7-2.7.7-.7-.7-.7-.7.7zm.9 1-.7.6zm1.8 1.7.7.8.7-.8-.7-.7zm-3-9.2H86v-2h-1.6zm1.5 0q3.2 0 4.9-.6l-.8-1.8q-1 .4-4 .4zm4.9-.6q.8-.3 1.4-1t.5-1.6h-2l-.1.4-.6.4zm1.9-2.6q0-1-.8-3l-1.9.7q.7 1.9.7 2.4zm-.8-3-1-2.8-1.9.9q.3.5 1 2.6zm-1.5-1.5 3.4-1.8-1-1.8-3.3 1.9zm2-2.3 1.3 3.5 1.9-.6q-.7-2.3-1.4-3.7zm1.3 3.5q.6 2.1.6 3.5h2q0-1.8-.7-4.1zm.6 3.5q0 2.9-1.9 4.3L94 52a7 7 0 0 0 2.6-5.7zm-1.9 4.3Q91 52 86.8 52v2q4.6 0 7-2zM86.8 52h-2.2v2h2.2zm-1.2 1v-4.8h-2V53zm5.6 7.4-2.7-2.7-1.4 1.4 2.7 2.7zm-2.7-1.3 2.7-2.7-1.4-1.4-2.7 2.7zm1.3-2.7 1 1 1.3-1.5-.9-.9zm1 1 1.7 1.7 1.5-1.4L92 56zm1.7.3-2.7 2.7 1.4 1.4 2.7-2.6zm-6.9 2.7-2.7-2.7-1.4 1.4 2.7 2.7zm-2.7-1.3 2.7-2.7-1.4-1.4-2.7 2.7zm1.3-2.7.9 1 1.4-1.5-.9-.9zm.9 1 1.8 1.7 1.4-1.4-1.8-1.8zm1.8.3-2.7 2.7 1.4 1.4 2.7-2.6zm13.7-6.7-.8.6zm-1.5-6.2h1zm-.3-8-1 .1zm-.6-6.6-.2-1-.9.2.1 1zm4-.9 1-.1-.2-1-1 .1zm.5 6.4h-1zm.2 8.5h1zm.2 2.5 1-.2zm.7 1.2-.5.8zm2 .3h1v-1h-1zm.3 2.4 1 .1v-.2zM106 53v1h.9v-.9zm-.2-1q-3.2 0-4.3-1.6l-1.6 1.2q2 2.5 5.9 2.4zm-4.3-1.6q-1.2-1.6-1.3-5.6h-2q0 4.4 1.7 6.8zm-1.3-5.6-.3-8-2 .1.3 8zm-.3-8q-.1-4-.6-6.8l-2 .3q.4 2.6.6 6.6zm-1.3-5.6 4-.9-.5-2-4 1zm2.7-1.7q.3 2.2.5 6.2h2q-.2-4.2-.5-6.5zm.5 6.2.2 7.3h2q0-3.4-.2-7.4zm.2 7.3v1.2h2V43zm0 1.2q0 1.7.2 2.7l2-.4-.2-2.2zm.2 2.7q.2 1.2 1.2 1.8l1-1.7-.3-.5zm1.2 1.8q1 .6 2.4.5v-2l-1.4-.2zm2.4.5h.2v-2h-.2zm-.8-.9.2 2.4 2-.2-.3-2.4zm.2 2.2L105 53l2 .2.2-2.4zm.8 1.5h-.2v2h.2zm-.4-3.8v-1h-1v1zm5.4-4.6-1 .3zm-1-3-.6-.8-.7.4.3.8zm3.3-1.8.9-.4-.4-1-1 .5zm1.2 3.6-1 .3zm-1.3 8.9-.7-.8zm-7.6 1.7h-1v1h1zm2-18.4-.7-.8-.7.8.7.7zm2-2-.8-.7zm1-1 .6-.7-.7-.7-.7.7zm2.9 3 .7.7.7-.7-.7-.7zm-3 3-.7.6.7.8.8-.8zm-4.9 11.6h1.7v-2h-1.7zm1.7 0q2.4 0 3.8-.6l-1-1.8a7 7 0 0 1-2.8.4zm3.8-.6 1.1-1q.5-.6.5-1.4h-2l-.1.3-.4.3zm1.6-2.4-.2-1.3-.6-1.7-1.9.7.7 2.3zm-.8-3-1-3-1.9.8 1 2.9zm-1.5-1.7 3.4-1.8-1-1.8-3.4 1.9zm2-2.3q.6 1.2 1.2 3.5l1.9-.6q-.7-2.3-1.3-3.7zm1.2 3.5q.6 2.1.6 3.6h2a15 15 0 0 0-.7-4.2zm.6 3.6q0 3-1.7 4.2l1.3 1.6a7 7 0 0 0 2.4-5.8zm-1.7 4.2Q111 52 107.2 52v2q4.1 0 6.5-2zm-5.2 1.5h-1.7v2h1.7zm-.7 1v-4.8h-2V53zm1.7-17.7 2-2-1.5-1.4-1.9 2zm2-2 1-1-1.5-1.4-1 1zm-.5-1 3 3 1.4-1.4-3-3zm3 1.6-3 3 1.5 1.3 2.9-3zm-1.5 3-3-3-1.4 1.4 3 3zm9 14-.7.7zm-1.4-6h1zm-.3-8h-1zm-.6-6.7-.2-1-.9.2.1 1zm4-.9 1-.1-.2-1-1 .1zm.5 6.4h-1zm.2 8.5h1zm.2 2.5 1-.2zm.7 1.2-.5.8zm2 .3h1v-1h-1zm.3 2.4 1 .1v-.2zm-.3 2.4v1h1v-.9zm-.1-1q-3.2 0-4.3-1.6l-1.6 1.2q2 2.5 5.9 2.4zm-4.3-1.6q-1.2-1.6-1.3-5.6h-2q0 4.4 1.7 6.8zm-1.3-5.6-.3-8-2 .1.3 8zm-.3-8-.6-6.8-2 .3q.4 2.6.6 6.6zm-1.4-5.6 4-.9-.4-2-4 1zm2.8-1.7q.3 2.2.5 6.2h2q-.2-4.2-.5-6.5zm.5 6.2.2 7.3h2q0-3.4-.2-7.4zm.2 7.3v1.2h2V43zm0 1.2q0 1.7.2 2.7l2-.4-.2-2.2zm.2 2.7q.2 1.2 1.2 1.8l1-1.7-.3-.5zm1.2 1.8q1 .6 2.4.5v-2L124 47zm2.4.5h.1v-2h-.1zm-.9-.9.3 2.4 2-.2-.3-2.4zm.3 2.2-.3 2.4 2 .2.3-2.4zm.7 1.5h-.1v2h.1zm-.3-3.8v-1h-1v1zm6-.5.4 1zm1.4-1.7h1zm-.8-2.7-1 .4zm-1-2.7-.5-.8-.8.4.4.9zm3.4-1.8.9-.4-.5-1-.9.5zm1.3 3.6-1 .3zm.6 3.8h1zm-2.2 5 .6.9zm-8.7 1.8h-1v1h1zm6 8.1-.7.7.7.7.7-.7zm-2.7-2.7-.7-.7-.7.7.7.7zm2.7-2.7.7-.7-.7-.7-.7.7zm.9 1-.7.6zm1.8 1.7.7.8.7-.8-.7-.7zm-8.3 2.7-.8.7.7.7.8-.7zm-2.7-2.7-.7-.7-.7.7.7.7zm2.7-2.7.7-.7-.8-.7-.7.7zm.8 1-.7.6zm1.9 1.7.7.8.7-.8-.7-.7zm-3.1-9.2h1.6v-2h-1.6zm1.6 0q3.2 0 4.8-.6l-.7-1.8q-1 .4-4.1.4zm4.8-.6q.8-.3 1.4-1t.6-1.6h-2q0 .3-.2.4l-.5.4zm2-2.6q-.1-1-.8-3l-2 .7q.8 1.9.8 2.4zm-.8-3-1.1-2.8-1.8.9 1 2.6zm-1.5-1.5 3.4-1.8-1-1.8-3.4 1.9zm2-2.3q.6 1.2 1.2 3.5l2-.6-1.4-3.7zm1.2 3.5q.6 2.1.6 3.5h2q0-1.8-.7-4.1zm.6 3.5q0 2.9-1.8 4.3l1.2 1.5a7 7 0 0 0 2.6-5.7zm-1.8 4.3q-1.8 1.5-5.8 1.5v2q4.5 0 7-2zm-5.8 1.5h-2.3v2h2.3zm-1.3 1v-4.8h-2V53zm5.7 7.4-2.7-2.7-1.4 1.4 2.7 2.7zm-2.7-1.3 2.7-2.7-1.4-1.4-2.7 2.7zm1.3-2.7.9 1 1.4-1.5-1-.9zm.9 1 1.8 1.7 1.4-1.4-1.8-1.8zm1.8.3-2.7 2.7 1.4 1.4 2.7-2.6zm-7 2.7-2.6-2.7-1.4 1.4 2.6 2.7zm-2.6-1.3 2.7-2.7-1.5-1.4-2.6 2.7zm1.2-2.7 1 1 1.4-1.5-1-.9zm1 1 1.8 1.7 1.4-1.4-1.8-1.8zm1.8.3-2.8 2.7 1.5 1.4 2.7-2.6zm11.9-4.9-1-.1-.2 1 1 .1zm0-15.8h-1zm-.6-6.8-.2-1-1 .3.2.9zm4-1h1l-.2-1.1-1 .2zm.5 6.6h1zm-.2 17.4v1l.9.1.1-1zm-2.7-.2q.3-2.3.3-6.7h-2q0 4.4-.3 6.4zm.3-6.7-.3-9.3h-2l.3 9.3zm-.3-9.3-.6-7-2 .4.6 6.7zm-1.4-5.8 4-1-.4-1.9-4 1zm2.8-1.8q.3 1.8.5 6.4h2q-.2-4.8-.5-6.7zm.5 6.4q.3 4.6.2 9.1h2q0-4.4-.2-9.2zm.2 9.1q0 5.5-.3 8.2l2 .3q.3-3 .3-8.5zm.8 7.3-3.8-.4-.2 2 3.7.4zm-.9 6.1-.4-1-1 .5.5 1zm3.9-2-.5-.8zm2.7-2.2-.7-.7zm-.6-9.1-1 .2zm-.2-.6-.4-1-.8.4.2.8zM152 43l1-.4-.4-1-1 .4zm1.2 4.7-1 .2zm-2 10.2-.7-.7zm-6.6 4.4-1 .5.5.8.9-.3zm-1.6-3q2.2-1 4-2.2l-1-1.6-3.8 1.9zm4-2.2a14 14 0 0 0 3-2.4l-1.5-1.3a12 12 0 0 1-2.5 2zm3-2.4q1.2-1.1 1.3-2.6h-2q0 .3-.8 1.3zm1.3-2.6-.5-2.6-1.3-4.8-1.9.6 1.7 6.8zm-1.8-7.3-.1-.7-2 .5.2.6zm-.7.5 3.6-1.4-.8-1.9-3.6 1.4zm2.2-2q.8 2.1 1.2 4.6l2-.4q-.4-2.5-1.3-4.9zm1.2 4.6q.5 2.4.5 4.2h2q0-2-.5-4.6zm.5 4.2q0 2.7-2.2 5.1l1.4 1.4q2.8-2.9 2.8-6.5zm-2.2 5.2q-2.3 2.4-6.3 4.1l.8 1.9q4.3-1.8 7-4.7zm-5 4.6-2-4-1.8.8 2 4z" mask="url(#g)"/></g><g filter="url(#h)"><mask id="i" width="101" height="37" x="54" y="27" fill="#000" maskUnits="userSpaceOnUse"><path fill="#fff" d="M54 27h101v37H54z"/><path d="M84.3 53q-1.5 0-2.9-.9t-2.9-2.9a7 7 0 0 1-3.7 3.1 16 16 0 0 1-6 1h-1.1q-5.6 0-8.8-1.7-3.2-1.8-3.4-4.9V46q0-1.5.3-3l1-2.9 3 1.5q-1 3-.8 4.2t2.6 2q2.3.8 6.4.8h.8a15 15 0 0 0 4.4-.5q1.8-.6 2.4-1.4-.2-1.5-1.8-3.7-1.6-2.1-4.8-4.7l.4-4.1 11.8-5 1.4 3.8-9.3 3.9a21 21 0 0 1 4.1 4.8l2.9 4q1 1.4 2 2a4 4 0 0 0 2 .5h.6l.2 2.4L85 53zm.2-4.8h1.6a13 13 0 0 0 4.5-.5q1.3-.6 1.3-1.7 0-.6-.7-2.7l-1-2.7 3.3-1.8a24 24 0 0 1 2 7.4q0 3.3-2.3 5-2 1.8-6.4 1.8h-2.2zm6 13-2.7-2.8 2.7-2.7 1 1 1.7 1.7zm-5.6 0-2.7-2.8 2.7-2.7.9 1 1.8 1.7zm20.8-8.2q-3.6 0-5-2-1.6-2-1.6-6.2a168 168 0 0 0-.9-14.6l4-.9q.3 2.4.5 6.4l.2 7.3v1.2q0 1.7.2 2.5t.7 1.2q.6.3 1.9.3h.2l.2 2.4-.2 2.4zm-.2-4.8h1.7q2.4 0 3.3-.5 1-.5 1-1.5 0-.7-.6-2.6l-1-3 3.3-1.8a27 27 0 0 1 2 7.5q0 3.3-2.1 5-2 1.7-5.9 1.7h-1.7zm2-13.6 2-2 1-1 2.9 3-3 3zM125.4 53q-3.5 0-5.1-2t-1.5-6.2a168 168 0 0 0-.9-14.6l4-.9q.3 2.4.5 6.4l.2 7.3v1.2q0 1.7.2 2.5 0 .9.7 1.2t1.9.3h.1l.3 2.4-.3 2.4zm-.2-4.8h1.6a13 13 0 0 0 4.4-.5q1.4-.6 1.4-1.7 0-.6-.8-2.7l-1-2.7 3.4-1.8a24 24 0 0 1 2 7.4q-.1 3.3-2.3 5t-6.4 1.8h-2.3zm6 13-2.7-2.8 2.7-2.7.9 1 1.8 1.7zm-5.6 0-2.7-2.8 2.7-2.7.8 1 1.9 1.7zm13.9-8.4q.3-2.1.3-6.5a156 156 0 0 0-1-16l4-1q.4 1.8.6 6.5a190 190 0 0 1-.2 17.4zm3 5.5a23 23 0 0 0 6.6-4.2q1-1.1 1-2 0-1.2-1.6-7.1l-.2-.6L152 43a31 31 0 0 1 1.7 9.1q0 3.1-2.5 5.8a18 18 0 0 1-6.6 4.4z"/></mask><path fill="#311192" d="m81.4 52.1-.5.8zm-2.9-2.9.8-.6-1-1.2-.7 1.3zm-3.7 3.1.4 1zm-7.1 1v1zm-8.8-1.7-.5.9zm-3.4-4.9h1v-.1zm.3-3.7-1-.2zm1-2.9.4-.9-1-.4-.4 1zm3 1.5 1 .3.2-.8-.8-.4zm-.8 4.2h-1v.1zm2.6 2-.4 1zm6.4.8h1v-1h-1zm0 0h-1v1h1zm5.2-.5-.3-1zm2.4-1.4.8.6.3-.3v-.5zM73.8 43l-.8.6zM69 38.3h-1v.4l.3.4zm.4-4.1-.4-1-.6.3v.6zm11.8-5 1-.4-.4-1-1 .4zm1.4 3.8.3.9 1-.4-.4-.9zm-9.3 3.9-.4-1-1.5.7 1.3 1zm2 2 .7-.7zm2.1 2.8.9-.6zm2.9 4-.8.6zm2 2-.5.8zm2.6.5h1l-.1-1h-1zm.2 2.4 1 .1v-.2zM85 53v1h.9v-.9zm-.6-1q-1.2 0-2.3-.7l-1.1 1.6q1.5 1 3.4 1.1zm-2.3-.7q-1.2-.8-2.7-2.7l-1.6 1.2q1.6 2 3.2 3.1zm-4.4-2.6q-.8 1.7-3.1 2.7l.7 1.9a8 8 0 0 0 4.2-3.6zm-3.1 2.7a15 15 0 0 1-5.7 1v2a17 17 0 0 0 6.4-1.1zm-5.7 1H68v2h.8zm-.8 0h-.3v2h.3zm-.3 0v2zm0 0q-5.4 0-8.3-1.7l-1 1.8q3.6 2 9.3 1.9zm-8.3-1.7q-2.8-1.6-3-4l-2 .1q.5 3.8 4 5.7zm-3-4.1V46h-2v.9zm0-.6q0-1.3.4-2.8l-2-.4q-.4 1.6-.4 3.2zm.4-2.8.8-2.7-1.8-.8-1 3zm-.5-2.2 3 1.5 1-1.8-3.1-1.5zm2.6.3q-1 3-1 4.6l2-.2q0-.9.9-3.8zm-1 4.7q.4 1 1.2 1.7.9.6 2.1 1L62 47l-1.6-.8q-.4-.3-.3-.5zm3.3 2.8q2.6.8 6.8.8v-2A20 20 0 0 1 62 47zm5.8-.2h2zm1 1h.8v-2H68zm.8 0q2.7 0 4.7-.6l-.6-1.9q-1.6.5-4.1.5zm4.7-.6q2-.6 3-1.7l-1.7-1.2q-.2.4-1.9 1zm3.1-2.5q-.4-2-2-4.1L73 43.6q1.5 2 1.7 3.3zm-2-4.1a32 32 0 0 0-5-4.9l-1.3 1.6q3.1 2.6 4.7 4.5zm-4.6-4 .4-4.1-2-.2-.4 4.1zm-.2-3.3 11.8-5-.7-1.9-12 5zm10.5-5.6 1.3 3.8 1.9-.7-1.3-3.8zm1.9 2.5-9.3 4 .8 1.8 9.2-4zm-9.5 5.7 1.8 1.8 1.5-1.3-2-2zm1.8 1.8 2.1 2.7 1.7-1q-1-1.6-2.3-3zm2.1 2.7 2.9 4.1 1.5-1.2-2.7-4zm2.9 4.1q1.1 1.5 2.3 2.2l1-1.7-1.8-1.7zm2.3 2.2a5 5 0 0 0 2.5.7v-2a3 3 0 0 1-1.5-.4zm2.5.7h.6v-2h-.6zm-.4-.9.3 2.4 2-.2-.3-2.4zm.3 2.2-.3 2.4 2 .2.2-2.4zm.7 1.5h-.6v2h.6zm-.4-3.8v-1h-1v1zm6-.5.5 1zM92 46h1zm-.7-2.7-1 .4zm-1-2.7-.5-.8-.9.4.4.9zm3.3-1.8 1-.4-.5-1-1 .5zm1.3 3.6-1 .3zm.7 3.8h1zm-2.3 5 .7.9zM84.6 53h-1v1h1zm6 8.1-.8.7.7.7.7-.7zm-2.8-2.7-.7-.7-.7.7.7.7zm2.7-2.7.7-.7-.7-.7-.7.7zm1 1-.8.6zm1.7 1.7.7.8.8-.8-.7-.7zM85 61.1l-.7.7.7.7.7-.7zm-2.7-2.7-.7-.7-.7.7.7.7zm2.7-2.7.7-.7-.7-.7-.7.7zm.9 1-.7.6zm1.8 1.7.7.8.7-.8-.7-.7zm-3-9.2H86v-2h-1.6zm1.5 0q3.2 0 4.9-.6l-.8-1.8q-1 .4-4 .4zm4.9-.6q.8-.3 1.4-1t.5-1.6h-2l-.1.4-.6.4zm1.9-2.6q0-1-.8-3l-1.9.7q.7 1.9.7 2.4zm-.8-3-1-2.8-1.9.9q.3.5 1 2.6zm-1.5-1.5 3.4-1.8-1-1.8-3.3 1.9zm2-2.3 1.3 3.5 1.9-.6q-.7-2.3-1.4-3.7zm1.3 3.5q.6 2.1.6 3.5h2q0-1.8-.7-4.1zm.6 3.5q0 2.9-1.9 4.3L94 52a7 7 0 0 0 2.6-5.7zm-1.9 4.3Q91 52 86.8 52v2q4.6 0 7-2zM86.8 52h-2.2v2h2.2zm-1.2 1v-4.8h-2V53zm5.6 7.4-2.7-2.7-1.4 1.4 2.7 2.7zm-2.7-1.3 2.7-2.7-1.4-1.4-2.7 2.7zm1.3-2.7 1 1 1.3-1.5-.9-.9zm1 1 1.7 1.7 1.5-1.4L92 56zm1.7.3-2.7 2.7 1.4 1.4 2.7-2.6zm-6.9 2.7-2.7-2.7-1.4 1.4 2.7 2.7zm-2.7-1.3 2.7-2.7-1.4-1.4-2.7 2.7zm1.3-2.7.9 1 1.4-1.5-.9-.9zm.9 1 1.8 1.7 1.4-1.4-1.8-1.8zm1.8.3-2.7 2.7 1.4 1.4 2.7-2.6zm13.7-6.7-.8.6zm-1.5-6.2h1zm-.3-8-1 .1zm-.6-6.6-.2-1-.9.2.1 1zm4-.9 1-.1-.2-1-1 .1zm.5 6.4h-1zm.2 8.5h1zm.2 2.5 1-.2zm.7 1.2-.5.8zm2 .3h1v-1h-1zm.3 2.4 1 .1v-.2zM106 53v1h.9v-.9zm-.2-1q-3.2 0-4.3-1.6l-1.6 1.2q2 2.5 5.9 2.4zm-4.3-1.6q-1.2-1.6-1.3-5.6h-2q0 4.4 1.7 6.8zm-1.3-5.6-.3-8-2 .1.3 8zm-.3-8q-.1-4-.6-6.8l-2 .3q.4 2.6.6 6.6zm-1.3-5.6 4-.9-.5-2-4 1zm2.7-1.7q.3 2.2.5 6.2h2q-.2-4.2-.5-6.5zm.5 6.2.2 7.3h2q0-3.4-.2-7.4zm.2 7.3v1.2h2V43zm0 1.2q0 1.7.2 2.7l2-.4-.2-2.2zm.2 2.7q.2 1.2 1.2 1.8l1-1.7-.3-.5zm1.2 1.8q1 .6 2.4.5v-2l-1.4-.2zm2.4.5h.2v-2h-.2zm-.8-.9.2 2.4 2-.2-.3-2.4zm.2 2.2L105 53l2 .2.2-2.4zm.8 1.5h-.2v2h.2zm-.4-3.8v-1h-1v1zm5.4-4.6-1 .3zm-1-3-.6-.8-.7.4.3.8zm3.3-1.8.9-.4-.4-1-1 .5zm1.2 3.6-1 .3zm-1.3 8.9-.7-.8zm-7.6 1.7h-1v1h1zm2-18.4-.7-.8-.7.8.7.7zm2-2-.8-.7zm1-1 .6-.7-.7-.7-.7.7zm2.9 3 .7.7.7-.7-.7-.7zm-3 3-.7.6.7.8.8-.8zm-4.9 11.6h1.7v-2h-1.7zm1.7 0q2.4 0 3.8-.6l-1-1.8a7 7 0 0 1-2.8.4zm3.8-.6 1.1-1q.5-.6.5-1.4h-2l-.1.3-.4.3zm1.6-2.4-.2-1.3-.6-1.7-1.9.7.7 2.3zm-.8-3-1-3-1.9.8 1 2.9zm-1.5-1.7 3.4-1.8-1-1.8-3.4 1.9zm2-2.3q.6 1.2 1.2 3.5l1.9-.6q-.7-2.3-1.3-3.7zm1.2 3.5q.6 2.1.6 3.6h2a15 15 0 0 0-.7-4.2zm.6 3.6q0 3-1.7 4.2l1.3 1.6a7 7 0 0 0 2.4-5.8zm-1.7 4.2Q111 52 107.2 52v2q4.1 0 6.5-2zm-5.2 1.5h-1.7v2h1.7zm-.7 1v-4.8h-2V53zm1.7-17.7 2-2-1.5-1.4-1.9 2zm2-2 1-1-1.5-1.4-1 1zm-.5-1 3 3 1.4-1.4-3-3zm3 1.6-3 3 1.5 1.3 2.9-3zm-1.5 3-3-3-1.4 1.4 3 3zm9 14-.7.7zm-1.4-6h1zm-.3-8h-1zm-.6-6.7-.2-1-.9.2.1 1zm4-.9 1-.1-.2-1-1 .1zm.5 6.4h-1zm.2 8.5h1zm.2 2.5 1-.2zm.7 1.2-.5.8zm2 .3h1v-1h-1zm.3 2.4 1 .1v-.2zm-.3 2.4v1h1v-.9zm-.1-1q-3.2 0-4.3-1.6l-1.6 1.2q2 2.5 5.9 2.4zm-4.3-1.6q-1.2-1.6-1.3-5.6h-2q0 4.4 1.7 6.8zm-1.3-5.6-.3-8-2 .1.3 8zm-.3-8-.6-6.8-2 .3q.4 2.6.6 6.6zm-1.4-5.6 4-.9-.4-2-4 1zm2.8-1.7q.3 2.2.5 6.2h2q-.2-4.2-.5-6.5zm.5 6.2.2 7.3h2q0-3.4-.2-7.4zm.2 7.3v1.2h2V43zm0 1.2q0 1.7.2 2.7l2-.4-.2-2.2zm.2 2.7q.2 1.2 1.2 1.8l1-1.7-.3-.5zm1.2 1.8q1 .6 2.4.5v-2L124 47zm2.4.5h.1v-2h-.1zm-.9-.9.3 2.4 2-.2-.3-2.4zm.3 2.2-.3 2.4 2 .2.3-2.4zm.7 1.5h-.1v2h.1zm-.3-3.8v-1h-1v1zm6-.5.4 1zm1.4-1.7h1zm-.8-2.7-1 .4zm-1-2.7-.5-.8-.8.4.4.9zm3.4-1.8.9-.4-.5-1-.9.5zm1.3 3.6-1 .3zm.6 3.8h1zm-2.2 5 .6.9zm-8.7 1.8h-1v1h1zm6 8.1-.7.7.7.7.7-.7zm-2.7-2.7-.7-.7-.7.7.7.7zm2.7-2.7.7-.7-.7-.7-.7.7zm.9 1-.7.6zm1.8 1.7.7.8.7-.8-.7-.7zm-8.3 2.7-.8.7.7.7.8-.7zm-2.7-2.7-.7-.7-.7.7.7.7zm2.7-2.7.7-.7-.8-.7-.7.7zm.8 1-.7.6zm1.9 1.7.7.8.7-.8-.7-.7zm-3.1-9.2h1.6v-2h-1.6zm1.6 0q3.2 0 4.8-.6l-.7-1.8q-1 .4-4.1.4zm4.8-.6q.8-.3 1.4-1t.6-1.6h-2q0 .3-.2.4l-.5.4zm2-2.6q-.1-1-.8-3l-2 .7q.8 1.9.8 2.4zm-.8-3-1.1-2.8-1.8.9 1 2.6zm-1.5-1.5 3.4-1.8-1-1.8-3.4 1.9zm2-2.3q.6 1.2 1.2 3.5l2-.6-1.4-3.7zm1.2 3.5q.6 2.1.6 3.5h2q0-1.8-.7-4.1zm.6 3.5q0 2.9-1.8 4.3l1.2 1.5a7 7 0 0 0 2.6-5.7zm-1.8 4.3q-1.8 1.5-5.8 1.5v2q4.5 0 7-2zm-5.8 1.5h-2.3v2h2.3zm-1.3 1v-4.8h-2V53zm5.7 7.4-2.7-2.7-1.4 1.4 2.7 2.7zm-2.7-1.3 2.7-2.7-1.4-1.4-2.7 2.7zm1.3-2.7.9 1 1.4-1.5-1-.9zm.9 1 1.8 1.7 1.4-1.4-1.8-1.8zm1.8.3-2.7 2.7 1.4 1.4 2.7-2.6zm-7 2.7-2.6-2.7-1.4 1.4 2.6 2.7zm-2.6-1.3 2.7-2.7-1.5-1.4-2.6 2.7zm1.2-2.7 1 1 1.4-1.5-1-.9zm1 1 1.8 1.7 1.4-1.4-1.8-1.8zm1.8.3-2.8 2.7 1.5 1.4 2.7-2.6zm11.9-4.9-1-.1-.2 1 1 .1zm0-15.8h-1zm-.6-6.8-.2-1-1 .3.2.9zm4-1h1l-.2-1.1-1 .2zm.5 6.6h1zm-.2 17.4v1l.9.1.1-1zm-2.7-.2q.3-2.3.3-6.7h-2q0 4.4-.3 6.4zm.3-6.7-.3-9.3h-2l.3 9.3zm-.3-9.3-.6-7-2 .4.6 6.7zm-1.4-5.8 4-1-.4-1.9-4 1zm2.8-1.8q.3 1.8.5 6.4h2q-.2-4.8-.5-6.7zm.5 6.4q.3 4.6.2 9.1h2q0-4.4-.2-9.2zm.2 9.1q0 5.5-.3 8.2l2 .3q.3-3 .3-8.5zm.8 7.3-3.8-.4-.2 2 3.7.4zm-.9 6.1-.4-1-1 .5.5 1zm3.9-2-.5-.8zm2.7-2.2-.7-.7zm-.6-9.1-1 .2zm-.2-.6-.4-1-.8.4.2.8zM152 43l1-.4-.4-1-1 .4zm1.2 4.7-1 .2zm-2 10.2-.7-.7zm-6.6 4.4-1 .5.5.8.9-.3zm-1.6-3q2.2-1 4-2.2l-1-1.6-3.8 1.9zm4-2.2a14 14 0 0 0 3-2.4l-1.5-1.3a12 12 0 0 1-2.5 2zm3-2.4q1.2-1.1 1.3-2.6h-2q0 .3-.8 1.3zm1.3-2.6-.5-2.6-1.3-4.8-1.9.6 1.7 6.8zm-1.8-7.3-.1-.7-2 .5.2.6zm-.7.5 3.6-1.4-.8-1.9-3.6 1.4zm2.2-2q.8 2.1 1.2 4.6l2-.4q-.4-2.5-1.3-4.9zm1.2 4.6q.5 2.4.5 4.2h2q0-2-.5-4.6zm.5 4.2q0 2.7-2.2 5.1l1.4 1.4q2.8-2.9 2.8-6.5zm-2.2 5.2q-2.3 2.4-6.3 4.1l.8 1.9q4.3-1.8 7-4.7zm-5 4.6-2-4-1.8.8 2 4z" mask="url(#i)"/></g><g filter="url(#j)"><mask id="k" width="101" height="37" x="54" y="27" fill="#000" maskUnits="userSpaceOnUse"><path fill="#fff" d="M54 27h101v37H54z"/><path d="M84.3 53q-1.5 0-2.9-.9t-2.9-2.9a7 7 0 0 1-3.7 3.1 16 16 0 0 1-6 1h-1.1q-5.6 0-8.8-1.7-3.2-1.8-3.4-4.9V46q0-1.5.3-3l1-2.9 3 1.5q-1 3-.8 4.2t2.6 2q2.3.8 6.4.8h.8a15 15 0 0 0 4.4-.5q1.8-.6 2.4-1.4-.2-1.5-1.8-3.7-1.6-2.1-4.8-4.7l.4-4.1 11.8-5 1.4 3.8-9.3 3.9a21 21 0 0 1 4.1 4.8l2.9 4q1 1.4 2 2a4 4 0 0 0 2 .5h.6l.2 2.4L85 53zm.2-4.8h1.6a13 13 0 0 0 4.5-.5q1.3-.6 1.3-1.7 0-.6-.7-2.7l-1-2.7 3.3-1.8a24 24 0 0 1 2 7.4q0 3.3-2.3 5-2 1.8-6.4 1.8h-2.2zm6 13-2.7-2.8 2.7-2.7 1 1 1.7 1.7zm-5.6 0-2.7-2.8 2.7-2.7.9 1 1.8 1.7zm20.8-8.2q-3.6 0-5-2-1.6-2-1.6-6.2a168 168 0 0 0-.9-14.6l4-.9q.3 2.4.5 6.4l.2 7.3v1.2q0 1.7.2 2.5t.7 1.2q.6.3 1.9.3h.2l.2 2.4-.2 2.4zm-.2-4.8h1.7q2.4 0 3.3-.5 1-.5 1-1.5 0-.7-.6-2.6l-1-3 3.3-1.8a27 27 0 0 1 2 7.5q0 3.3-2.1 5-2 1.7-5.9 1.7h-1.7zm2-13.6 2-2 1-1 2.9 3-3 3zM125.4 53q-3.5 0-5.1-2t-1.5-6.2a168 168 0 0 0-.9-14.6l4-.9q.3 2.4.5 6.4l.2 7.3v1.2q0 1.7.2 2.5 0 .9.7 1.2t1.9.3h.1l.3 2.4-.3 2.4zm-.2-4.8h1.6a13 13 0 0 0 4.4-.5q1.4-.6 1.4-1.7 0-.6-.8-2.7l-1-2.7 3.4-1.8a24 24 0 0 1 2 7.4q-.1 3.3-2.3 5t-6.4 1.8h-2.3zm6 13-2.7-2.8 2.7-2.7.9 1 1.8 1.7zm-5.6 0-2.7-2.8 2.7-2.7.8 1 1.9 1.7zm13.9-8.4q.3-2.1.3-6.5a156 156 0 0 0-1-16l4-1q.4 1.8.6 6.5a190 190 0 0 1-.2 17.4zm3 5.5a23 23 0 0 0 6.6-4.2q1-1.1 1-2 0-1.2-1.6-7.1l-.2-.6L152 43a31 31 0 0 1 1.7 9.1q0 3.1-2.5 5.8a18 18 0 0 1-6.6 4.4z"/></mask><path fill="#311192" d="m81.4 52.1-.5.8zm-2.9-2.9.8-.6-1-1.2-.7 1.3zm-3.7 3.1.4 1zm-7.1 1v1zm-8.8-1.7-.5.9zm-3.4-4.9h1v-.1zm.3-3.7-1-.2zm1-2.9.4-.9-1-.4-.4 1zm3 1.5 1 .3.2-.8-.8-.4zm-.8 4.2h-1v.1zm2.6 2-.4 1zm6.4.8h1v-1h-1zm0 0h-1v1h1zm5.2-.5-.3-1zm2.4-1.4.8.6.3-.3v-.5zM73.8 43l-.8.6zM69 38.3h-1v.4l.3.4zm.4-4.1-.4-1-.6.3v.6zm11.8-5 1-.4-.4-1-1 .4zm1.4 3.8.3.9 1-.4-.4-.9zm-9.3 3.9-.4-1-1.5.7 1.3 1zm2 2 .7-.7zm2.1 2.8.9-.6zm2.9 4-.8.6zm2 2-.5.8zm2.6.5h1l-.1-1h-1zm.2 2.4 1 .1v-.2zM85 53v1h.9v-.9zm-.6-1q-1.2 0-2.3-.7l-1.1 1.6q1.5 1 3.4 1.1zm-2.3-.7q-1.2-.8-2.7-2.7l-1.6 1.2q1.6 2 3.2 3.1zm-4.4-2.6q-.8 1.7-3.1 2.7l.7 1.9a8 8 0 0 0 4.2-3.6zm-3.1 2.7a15 15 0 0 1-5.7 1v2a17 17 0 0 0 6.4-1.1zm-5.7 1H68v2h.8zm-.8 0h-.3v2h.3zm-.3 0v2zm0 0q-5.4 0-8.3-1.7l-1 1.8q3.6 2 9.3 1.9zm-8.3-1.7q-2.8-1.6-3-4l-2 .1q.5 3.8 4 5.7zm-3-4.1V46h-2v.9zm0-.6q0-1.3.4-2.8l-2-.4q-.4 1.6-.4 3.2zm.4-2.8.8-2.7-1.8-.8-1 3zm-.5-2.2 3 1.5 1-1.8-3.1-1.5zm2.6.3q-1 3-1 4.6l2-.2q0-.9.9-3.8zm-1 4.7q.4 1 1.2 1.7.9.6 2.1 1L62 47l-1.6-.8q-.4-.3-.3-.5zm3.3 2.8q2.6.8 6.8.8v-2A20 20 0 0 1 62 47zm5.8-.2h2zm1 1h.8v-2H68zm.8 0q2.7 0 4.7-.6l-.6-1.9q-1.6.5-4.1.5zm4.7-.6q2-.6 3-1.7l-1.7-1.2q-.2.4-1.9 1zm3.1-2.5q-.4-2-2-4.1L73 43.6q1.5 2 1.7 3.3zm-2-4.1a32 32 0 0 0-5-4.9l-1.3 1.6q3.1 2.6 4.7 4.5zm-4.6-4 .4-4.1-2-.2-.4 4.1zm-.2-3.3 11.8-5-.7-1.9-12 5zm10.5-5.6 1.3 3.8 1.9-.7-1.3-3.8zm1.9 2.5-9.3 4 .8 1.8 9.2-4zm-9.5 5.7 1.8 1.8 1.5-1.3-2-2zm1.8 1.8 2.1 2.7 1.7-1q-1-1.6-2.3-3zm2.1 2.7 2.9 4.1 1.5-1.2-2.7-4zm2.9 4.1q1.1 1.5 2.3 2.2l1-1.7-1.8-1.7zm2.3 2.2a5 5 0 0 0 2.5.7v-2a3 3 0 0 1-1.5-.4zm2.5.7h.6v-2h-.6zm-.4-.9.3 2.4 2-.2-.3-2.4zm.3 2.2-.3 2.4 2 .2.2-2.4zm.7 1.5h-.6v2h.6zm-.4-3.8v-1h-1v1zm6-.5.5 1zM92 46h1zm-.7-2.7-1 .4zm-1-2.7-.5-.8-.9.4.4.9zm3.3-1.8 1-.4-.5-1-1 .5zm1.3 3.6-1 .3zm.7 3.8h1zm-2.3 5 .7.9zM84.6 53h-1v1h1zm6 8.1-.8.7.7.7.7-.7zm-2.8-2.7-.7-.7-.7.7.7.7zm2.7-2.7.7-.7-.7-.7-.7.7zm1 1-.8.6zm1.7 1.7.7.8.8-.8-.7-.7zM85 61.1l-.7.7.7.7.7-.7zm-2.7-2.7-.7-.7-.7.7.7.7zm2.7-2.7.7-.7-.7-.7-.7.7zm.9 1-.7.6zm1.8 1.7.7.8.7-.8-.7-.7zm-3-9.2H86v-2h-1.6zm1.5 0q3.2 0 4.9-.6l-.8-1.8q-1 .4-4 .4zm4.9-.6q.8-.3 1.4-1t.5-1.6h-2l-.1.4-.6.4zm1.9-2.6q0-1-.8-3l-1.9.7q.7 1.9.7 2.4zm-.8-3-1-2.8-1.9.9q.3.5 1 2.6zm-1.5-1.5 3.4-1.8-1-1.8-3.3 1.9zm2-2.3 1.3 3.5 1.9-.6q-.7-2.3-1.4-3.7zm1.3 3.5q.6 2.1.6 3.5h2q0-1.8-.7-4.1zm.6 3.5q0 2.9-1.9 4.3L94 52a7 7 0 0 0 2.6-5.7zm-1.9 4.3Q91 52 86.8 52v2q4.6 0 7-2zM86.8 52h-2.2v2h2.2zm-1.2 1v-4.8h-2V53zm5.6 7.4-2.7-2.7-1.4 1.4 2.7 2.7zm-2.7-1.3 2.7-2.7-1.4-1.4-2.7 2.7zm1.3-2.7 1 1 1.3-1.5-.9-.9zm1 1 1.7 1.7 1.5-1.4L92 56zm1.7.3-2.7 2.7 1.4 1.4 2.7-2.6zm-6.9 2.7-2.7-2.7-1.4 1.4 2.7 2.7zm-2.7-1.3 2.7-2.7-1.4-1.4-2.7 2.7zm1.3-2.7.9 1 1.4-1.5-.9-.9zm.9 1 1.8 1.7 1.4-1.4-1.8-1.8zm1.8.3-2.7 2.7 1.4 1.4 2.7-2.6zm13.7-6.7-.8.6zm-1.5-6.2h1zm-.3-8-1 .1zm-.6-6.6-.2-1-.9.2.1 1zm4-.9 1-.1-.2-1-1 .1zm.5 6.4h-1zm.2 8.5h1zm.2 2.5 1-.2zm.7 1.2-.5.8zm2 .3h1v-1h-1zm.3 2.4 1 .1v-.2zM106 53v1h.9v-.9zm-.2-1q-3.2 0-4.3-1.6l-1.6 1.2q2 2.5 5.9 2.4zm-4.3-1.6q-1.2-1.6-1.3-5.6h-2q0 4.4 1.7 6.8zm-1.3-5.6-.3-8-2 .1.3 8zm-.3-8q-.1-4-.6-6.8l-2 .3q.4 2.6.6 6.6zm-1.3-5.6 4-.9-.5-2-4 1zm2.7-1.7q.3 2.2.5 6.2h2q-.2-4.2-.5-6.5zm.5 6.2.2 7.3h2q0-3.4-.2-7.4zm.2 7.3v1.2h2V43zm0 1.2q0 1.7.2 2.7l2-.4-.2-2.2zm.2 2.7q.2 1.2 1.2 1.8l1-1.7-.3-.5zm1.2 1.8q1 .6 2.4.5v-2l-1.4-.2zm2.4.5h.2v-2h-.2zm-.8-.9.2 2.4 2-.2-.3-2.4zm.2 2.2L105 53l2 .2.2-2.4zm.8 1.5h-.2v2h.2zm-.4-3.8v-1h-1v1zm5.4-4.6-1 .3zm-1-3-.6-.8-.7.4.3.8zm3.3-1.8.9-.4-.4-1-1 .5zm1.2 3.6-1 .3zm-1.3 8.9-.7-.8zm-7.6 1.7h-1v1h1zm2-18.4-.7-.8-.7.8.7.7zm2-2-.8-.7zm1-1 .6-.7-.7-.7-.7.7zm2.9 3 .7.7.7-.7-.7-.7zm-3 3-.7.6.7.8.8-.8zm-4.9 11.6h1.7v-2h-1.7zm1.7 0q2.4 0 3.8-.6l-1-1.8a7 7 0 0 1-2.8.4zm3.8-.6 1.1-1q.5-.6.5-1.4h-2l-.1.3-.4.3zm1.6-2.4-.2-1.3-.6-1.7-1.9.7.7 2.3zm-.8-3-1-3-1.9.8 1 2.9zm-1.5-1.7 3.4-1.8-1-1.8-3.4 1.9zm2-2.3q.6 1.2 1.2 3.5l1.9-.6q-.7-2.3-1.3-3.7zm1.2 3.5q.6 2.1.6 3.6h2a15 15 0 0 0-.7-4.2zm.6 3.6q0 3-1.7 4.2l1.3 1.6a7 7 0 0 0 2.4-5.8zm-1.7 4.2Q111 52 107.2 52v2q4.1 0 6.5-2zm-5.2 1.5h-1.7v2h1.7zm-.7 1v-4.8h-2V53zm1.7-17.7 2-2-1.5-1.4-1.9 2zm2-2 1-1-1.5-1.4-1 1zm-.5-1 3 3 1.4-1.4-3-3zm3 1.6-3 3 1.5 1.3 2.9-3zm-1.5 3-3-3-1.4 1.4 3 3zm9 14-.7.7zm-1.4-6h1zm-.3-8h-1zm-.6-6.7-.2-1-.9.2.1 1zm4-.9 1-.1-.2-1-1 .1zm.5 6.4h-1zm.2 8.5h1zm.2 2.5 1-.2zm.7 1.2-.5.8zm2 .3h1v-1h-1zm.3 2.4 1 .1v-.2zm-.3 2.4v1h1v-.9zm-.1-1q-3.2 0-4.3-1.6l-1.6 1.2q2 2.5 5.9 2.4zm-4.3-1.6q-1.2-1.6-1.3-5.6h-2q0 4.4 1.7 6.8zm-1.3-5.6-.3-8-2 .1.3 8zm-.3-8-.6-6.8-2 .3q.4 2.6.6 6.6zm-1.4-5.6 4-.9-.4-2-4 1zm2.8-1.7q.3 2.2.5 6.2h2q-.2-4.2-.5-6.5zm.5 6.2.2 7.3h2q0-3.4-.2-7.4zm.2 7.3v1.2h2V43zm0 1.2q0 1.7.2 2.7l2-.4-.2-2.2zm.2 2.7q.2 1.2 1.2 1.8l1-1.7-.3-.5zm1.2 1.8q1 .6 2.4.5v-2L124 47zm2.4.5h.1v-2h-.1zm-.9-.9.3 2.4 2-.2-.3-2.4zm.3 2.2-.3 2.4 2 .2.3-2.4zm.7 1.5h-.1v2h.1zm-.3-3.8v-1h-1v1zm6-.5.4 1zm1.4-1.7h1zm-.8-2.7-1 .4zm-1-2.7-.5-.8-.8.4.4.9zm3.4-1.8.9-.4-.5-1-.9.5zm1.3 3.6-1 .3zm.6 3.8h1zm-2.2 5 .6.9zm-8.7 1.8h-1v1h1zm6 8.1-.7.7.7.7.7-.7zm-2.7-2.7-.7-.7-.7.7.7.7zm2.7-2.7.7-.7-.7-.7-.7.7zm.9 1-.7.6zm1.8 1.7.7.8.7-.8-.7-.7zm-8.3 2.7-.8.7.7.7.8-.7zm-2.7-2.7-.7-.7-.7.7.7.7zm2.7-2.7.7-.7-.8-.7-.7.7zm.8 1-.7.6zm1.9 1.7.7.8.7-.8-.7-.7zm-3.1-9.2h1.6v-2h-1.6zm1.6 0q3.2 0 4.8-.6l-.7-1.8q-1 .4-4.1.4zm4.8-.6q.8-.3 1.4-1t.6-1.6h-2q0 .3-.2.4l-.5.4zm2-2.6q-.1-1-.8-3l-2 .7q.8 1.9.8 2.4zm-.8-3-1.1-2.8-1.8.9 1 2.6zm-1.5-1.5 3.4-1.8-1-1.8-3.4 1.9zm2-2.3q.6 1.2 1.2 3.5l2-.6-1.4-3.7zm1.2 3.5q.6 2.1.6 3.5h2q0-1.8-.7-4.1zm.6 3.5q0 2.9-1.8 4.3l1.2 1.5a7 7 0 0 0 2.6-5.7zm-1.8 4.3q-1.8 1.5-5.8 1.5v2q4.5 0 7-2zm-5.8 1.5h-2.3v2h2.3zm-1.3 1v-4.8h-2V53zm5.7 7.4-2.7-2.7-1.4 1.4 2.7 2.7zm-2.7-1.3 2.7-2.7-1.4-1.4-2.7 2.7zm1.3-2.7.9 1 1.4-1.5-1-.9zm.9 1 1.8 1.7 1.4-1.4-1.8-1.8zm1.8.3-2.7 2.7 1.4 1.4 2.7-2.6zm-7 2.7-2.6-2.7-1.4 1.4 2.6 2.7zm-2.6-1.3 2.7-2.7-1.5-1.4-2.6 2.7zm1.2-2.7 1 1 1.4-1.5-1-.9zm1 1 1.8 1.7 1.4-1.4-1.8-1.8zm1.8.3-2.8 2.7 1.5 1.4 2.7-2.6zm11.9-4.9-1-.1-.2 1 1 .1zm0-15.8h-1zm-.6-6.8-.2-1-1 .3.2.9zm4-1h1l-.2-1.1-1 .2zm.5 6.6h1zm-.2 17.4v1l.9.1.1-1zm-2.7-.2q.3-2.3.3-6.7h-2q0 4.4-.3 6.4zm.3-6.7-.3-9.3h-2l.3 9.3zm-.3-9.3-.6-7-2 .4.6 6.7zm-1.4-5.8 4-1-.4-1.9-4 1zm2.8-1.8q.3 1.8.5 6.4h2q-.2-4.8-.5-6.7zm.5 6.4q.3 4.6.2 9.1h2q0-4.4-.2-9.2zm.2 9.1q0 5.5-.3 8.2l2 .3q.3-3 .3-8.5zm.8 7.3-3.8-.4-.2 2 3.7.4zm-.9 6.1-.4-1-1 .5.5 1zm3.9-2-.5-.8zm2.7-2.2-.7-.7zm-.6-9.1-1 .2zm-.2-.6-.4-1-.8.4.2.8zM152 43l1-.4-.4-1-1 .4zm1.2 4.7-1 .2zm-2 10.2-.7-.7zm-6.6 4.4-1 .5.5.8.9-.3zm-1.6-3q2.2-1 4-2.2l-1-1.6-3.8 1.9zm4-2.2a14 14 0 0 0 3-2.4l-1.5-1.3a12 12 0 0 1-2.5 2zm3-2.4q1.2-1.1 1.3-2.6h-2q0 .3-.8 1.3zm1.3-2.6-.5-2.6-1.3-4.8-1.9.6 1.7 6.8zm-1.8-7.3-.1-.7-2 .5.2.6zm-.7.5 3.6-1.4-.8-1.9-3.6 1.4zm2.2-2q.8 2.1 1.2 4.6l2-.4q-.4-2.5-1.3-4.9zm1.2 4.6q.5 2.4.5 4.2h2q0-2-.5-4.6zm.5 4.2q0 2.7-2.2 5.1l1.4 1.4q2.8-2.9 2.8-6.5zm-2.2 5.2q-2.3 2.4-6.3 4.1l.8 1.9q4.3-1.8 7-4.7zm-5 4.6-2-4-1.8.8 2 4z" mask="url(#k)"/></g><mask id="l" width="93" height="37" x="58" y="27" fill="#000" maskUnits="userSpaceOnUse"><path fill="#fff" d="M58 27h93v37H58z"/><path d="M88.6 53q-1.5 0-3-.9-1.2-1-2.8-2.9a7 7 0 0 1-3.7 3.1 16 16 0 0 1-6 1H72q-5.7 0-8.8-1.7-3.2-1.8-3.5-4.9V46q0-1.5.4-3 .3-1.5.9-2.9l3 1.5q-.8 3-.8 4.2.3 1.2 2.6 2t6.5.8h.7a15 15 0 0 0 4.5-.5q1.8-.6 2.4-1.4-.3-1.5-1.9-3.7-1.6-2.1-4.8-4.7l.4-4.1 11.9-5 1.3 3.8-9.2 3.9a21 21 0 0 1 4 4.8l2.9 4q1 1.4 2 2a4 4 0 0 0 2.1.5h.5l.3 2.4-.3 2.4zm.3-4.8h.1q3 0 4.3-.3 1.5-.3 1.9-.9t.4-1.7q0-1-.3-3l3.3-.7q.5 2.3.5 5.3 0 .4.7 1 .6.3 1.7.3h.1l.3 2.4-.3 2.4h-.2q-1.2 0-2.3-.6a6 6 0 0 1-1.9-1.6q-.9 1.2-2.8 1.7T89 53h-.2zm5.5 12.9-2.7-2.7 2.7-2.7 1 .9 1.7 1.8zm-5.6 0L86 58.4l2.7-2.7.9.9 1.8 1.8zm12.5-12.9h1.7q2.3 0 3.3-.5t1-1.5q0-.7-.7-2.6l-1-3 3.3-1.8a27 27 0 0 1 2 7.5q0 3.3-2 5-2.1 1.7-6 1.7h-1.6zm2-13.6 1.9-2 1-1 3 3-3 3zM121 53q-3.5 0-5-2t-1.6-6.2a168 168 0 0 0-.8-14.6l4-.9.5 6.4.1 7.3v1.2q0 1.7.2 2.5t.8 1.2q.6.3 1.8.3h.2l.2 2.4-.2 2.4zm-.2-4.8h1.6a13 13 0 0 0 4.5-.5q1.3-.6 1.3-1.7 0-.6-.7-2.7l-1-2.7 3.3-1.8a24 24 0 0 1 2 7.4q0 3.3-2.2 5t-6.5 1.8H121zm6 13-2.7-2.8 2.7-2.7 1 1 1.8 1.7zm-5.6 0-2.7-2.8 2.7-2.7.9 1 1.8 1.7zm14-8.4.2-6.5a156 156 0 0 0-.9-16l4-1 .6 6.5a190 190 0 0 1-.2 17.4zm3 5.5a23 23 0 0 0 6.6-4.2q1-1.1 1-2 0-1.2-1.7-7.1l-.1-.6 3.5-1.4a31 31 0 0 1 1.7 9.1q0 3.1-2.5 5.8a18 18 0 0 1-6.6 4.4z"/></mask><path fill="#8d6dee" d="m85.7 52.1-.6.8zm-3-2.9.9-.6-1-1.2-.7 1.3zm-3.6 3.1.4 1zm-7.2 1v1zm-8.7-1.7-.5.9zm-3.5-4.9h1v-.1zm.4-3.7-1-.2zM61 40l.4-.9-1-.4-.3 1zm3 1.5 1 .3.3-.8-.8-.4zm-.8 4.2h-1v.1zm2.6 2-.3 1zm6.5.8h1v-1h-1zm0 0h-1v1h1zm5.2-.5-.3-1zm2.4-1.4.8.6.2-.3v-.5zM78 43l-.8.6zm-4.8-4.7h-1v.4l.4.4zm.4-4.1-.4-1-.5.3v.6zm11.9-5 1-.4-.4-1-1 .4zm1.3 3.8.4.9.9-.4-.3-.9zm-9.2 3.9-.4-1-1.5.7 1.2 1zm2 2 .7-.7zm2 2.8 1-.6zm2.9 4-.8.6zm2 2-.5.8zm2.6.5h1v-1h-1zm.3 2.4 1 .1v-.2zm-.3 2.4v1h1v-.9zm-.5-1q-1.2 0-2.4-.7l-1 1.6q1.5 1 3.4 1.1zm-2.4-.7q-1.2-.8-2.6-2.7L82 49.8q1.5 2 3.1 3.1zM82 48.7q-.8 1.7-3.2 2.7l.8 1.9a8 8 0 0 0 4.2-3.6zm-3.2 2.7a15 15 0 0 1-5.7 1v2a17 17 0 0 0 6.5-1.1zm-5.7 1h-.7v2h.7zm-.7 0H72v2h.3zm-.3 0v2zm0 0q-5.5 0-8.4-1.7l-1 1.8q3.6 2 9.3 1.9zm-8.4-1.7q-2.7-1.6-2.9-4l-2 .1q.4 3.8 4 5.7zm-3-4.1V46h-2l.1.9zm0-.6q0-1.3.4-2.8l-2-.4q-.3 1.6-.3 3.2zm.4-2.8.9-2.7-1.8-.8q-.6 1.5-1 3zm-.4-2.2 3 1.5.9-1.8-3-1.5zm2.5.3q-1 3-.9 4.6l2-.2q0-.9.8-3.8zm-.9 4.7q.3 1 1.2 1.7t2 1l.7-1.8q-1-.4-1.5-.8-.4-.3-.4-.5zm3.3 2.8q2.6.8 6.8.8v-2A20 20 0 0 1 66 47zm5.8-.2h2zm1 1h.7v-2h-.7zm.7 0q2.7 0 4.8-.6l-.6-1.9q-1.6.5-4.2.5zm4.8-.6q1.9-.6 2.9-1.7L79 46.1q-.2.4-2 1zm3-2.5q-.2-2-2-4.1l-1.6 1.2q1.5 2 1.7 3.3zm-2-4.1a32 32 0 0 0-5-4.9l-1.2 1.6q3 2.6 4.6 4.5zm-4.6-4 .4-4.1-2-.2-.4 4.1zm-.2-3.3L86 30l-.8-1.9-11.9 5zm10.5-5.6 1.4 3.8 1.9-.7-1.4-3.8zm2 2.5-9.3 4 .8 1.8 9.2-4zm-9.6 5.7 1.9 1.8 1.5-1.3q-1.2-1.4-2.1-2zm1.9 1.8 2 2.7 1.7-1q-1-1.6-2.2-3zm2 2.7 3 4.1 1.5-1.2-2.8-4zm3 4.1q1.1 1.5 2.2 2.2l1-1.7-1.7-1.7zm2.2 2.2a5 5 0 0 0 2.6.7v-2a3 3 0 0 1-1.5-.4zm2.6.7h.5v-2h-.5zm-.5-.9.3 2.4 2-.2-.3-2.4zm.3 2.2-.3 2.4 2 .2.3-2.4zm.7 1.5h-.5v2h.5zm-.2-3.8v-1h-1v1zm4.4-.3.2 1zm1.9-.9.8.6zm.1-4.8-.2-1-1 .2.2 1zm3.3-.6 1-.2-.2-1-1 .2zm.5 5.3h-1v.2zm.7 1-.6.7zm1.8.3h1v-1h-1zm.3 2.4 1 .1v-.2zm-.3 2.4v1h1v-.9zm-2.5-.6.5-.9zm-1.9-1.6.8-.6-.8-1-.8 1zm-2.8 1.7.3 1zm-5.6.5h-1v1h1zm5.6 8.1-.7.7.7.7.7-.7zm-2.7-2.7-.7-.7-.7.7.7.7zm2.7-2.7.7-.7-.7-.7-.7.7zm1 .9.6-.7zm1.7 1.8.7.7.8-.7-.7-.7zm-8.3 2.7-.7.7.7.7.7-.7zM86 58.4l-.7-.7-.7.7.7.7zm2.7-2.7.7-.7-.7-.7-.7.7zm.9.9.7-.7zm1.8 1.8.7.7.7-.7-.7-.7zM89 49.2h.1v-2H89zm.1 0q3 0 4.5-.3l-.4-2q-1.2.3-4 .3zm4.6-.3q1.6-.3 2.4-1.3l-1.6-1.2q0 .2-1.3.6zm2.4-1.3a4 4 0 0 0 .6-2.3h-2q0 1-.2 1.1zm.6-2.3q0-1-.3-3.2l-2 .3.3 2.9zm-1-2.1 3.2-.6-.4-2-3.3.6zm2-1.4q.5 2.1.5 5h2q0-3-.5-5.4zm.5 5.3q.3.9 1 1.5l1.3-1.6-.4-.4zm1 1.5q1 .7 2.4.6v-2q-1 0-1.1-.2zm2.4.6h.1v-2h-.1zm-.9-.9.3 2.4 2-.2-.3-2.4zm.3 2.2-.3 2.4 2 .2.3-2.4zm.7 1.5h-.2v2h.2zm-.2 0q-1 0-1.8-.5l-1 1.8q1.3.7 2.8.7zm-1.8-.5a5 5 0 0 1-1.6-1.3l-1.6 1.2a7 7 0 0 0 2.2 1.9zm-3.2-1.3q-.6.8-2.3 1.3l.6 2q2.1-.6 3.3-2zm-2.3 1.3q-1.7.5-5 .5v2q3.5 0 5.6-.5zm-5 .5h-.3v2h.2zm.7 1v-4.8h-2V53zm5.3 7.4-2.7-2.7-1.4 1.4 2.7 2.7zM92.4 59l2.7-2.7-1.4-1.4-2.7 2.7zm1.3-2.7 1 .9 1.3-1.4-.9-1zm1 .9 1.7 1.8 1.5-1.4-1.9-1.8zm1.7.4-2.7 2.7 1.4 1.4 2.7-2.7zm-6.9 2.7-2.7-2.7-1.4 1.4 2.7 2.7zM86.8 59l2.7-2.7-1.4-1.4-2.7 2.7zm1.3-2.7.9.9 1.4-1.4-.9-1zm.9.9 1.8 1.8 1.4-1.4-1.8-1.8zm1.8.4-2.7 2.7 1.4 1.4 2.7-2.7zm10.5-9.5v-1h-1v1zm5.3-4.6-1 .3zm-1-3-.5-.8-.8.4.4.8zm3.3-1.8 1-.4-.5-1-1 .5zm1.3 3.6-1 .3zm-1.4 8.9-.6-.8zm-7.5 1.7h-1v1h1zm2-18.4-.7-.8-.8.8.7.7zm1.9-2-.7-.7zm1-1 .7-.7-.7-.7-.7.7zm3 3 .6.7.7-.7-.7-.7zm-3 3-.7.6.7.8.7-.8zm-5 11.6h1.8v-2h-1.7zm1.8 0q2.3 0 3.7-.6l-.9-1.8a7 7 0 0 1-2.8.4zm3.7-.6a3 3 0 0 0 1.2-1q.4-.6.4-1.4h-2v.3l-.5.3zm1.6-2.4q0-.6-.2-1.3l-.5-1.7-2 .7.7 2.3zm-.7-3-1-3-2 .8 1 2.9zm-1.5-1.7 3.3-1.8-1-1.8-3.3 1.9zm2-2.3 1.1 3.5 2-.6-1.3-3.7zm1.1 3.5q.7 2.1.7 3.6h2a15 15 0 0 0-.8-4.2zm.7 3.6q0 3-1.7 4.2l1.3 1.6a7 7 0 0 0 2.4-5.8zm-1.7 4.2Q106.6 52 103 52v2q4 0 6.5-2zM103 52h-1.7v2h1.7zm-.7 1v-4.8h-2V53zm1.6-17.7 2-2-1.4-1.4-2 2zm2-2 1-1-1.4-1.4-1 1zm-.4-1 3 3 1.3-1.4-2.9-3zm3 1.6-3 3 1.4 1.3 3-3zm-1.6 3-3-3-1.4 1.4 3 3zm9.1 14-.8.7zm-1.5-6h1zm-.2-8h-1zm-.6-6.7-.2-1-1 .2.2 1zm4-.9 1-.1-.2-1-1 .1zm.5 6.4h-1zm.1 8.5h1zm.2 2.5 1-.2zm.8 1.2-.5.8zm2 .3h1l-.1-1h-1zm.2 2.4 1 .1v-.2zm-.2 2.4v1h.9v-.9zm-.2-1q-3.1 0-4.3-1.6l-1.5 1.2q2 2.5 5.8 2.4zm-4.3-1.6q-1.2-1.6-1.3-5.6h-2q0 4.4 1.7 6.8zm-1.3-5.6-.2-8-2 .1.2 8zm-.2-8-.6-6.8-2 .3.6 6.6zm-1.4-5.6 4-.9-.5-2-4 1zm2.8-1.7.5 6.2h2q-.2-4.2-.6-6.5zm.5 6.2.1 7.3h2l-.1-7.4zm.1 7.3v1.2h2V43zm0 1.2q0 1.7.2 2.7l2-.4-.2-2.2zm.2 2.7q.3 1.2 1.3 1.8l1-1.7-.3-.5zm1.3 1.8q1 .6 2.3.5v-2l-1.3-.2zm2.3.5h.2v-2h-.2zm-.8-.9.3 2.4 2-.2-.3-2.4zm.3 2.2-.3 2.4 2 .2.2-2.4zm.7 1.5h-.2v2h.2zm-.4-3.8v-1h-1v1zm6.1-.5.4 1zm1.3-1.7h1zm-.7-2.7-1 .4zm-1-2.7-.5-.8-.9.4.4.9zm3.3-1.8 1-.4-.5-1-1 .5zm1.3 3.6-1 .3zm.7 3.8h1zm-2.2 5 .6.9zM121 53h-1v1h1zm6 8.1-.8.7.7.7.7-.7zm-2.8-2.7-.7-.7-.7.7.7.7zm2.7-2.7.7-.7-.7-.7-.7.7zm1 1-.8.6zm1.8 1.7.7.8.7-.8-.7-.7zm-8.4 2.7-.7.7.7.7.7-.7zm-2.7-2.7-.7-.7-.7.7.7.7zm2.7-2.7.7-.7-.7-.7-.7.7zm.9 1-.7.6zm1.8 1.7.7.8.7-.8-.7-.7zm-3-9.2h1.5v-2H121zm1.5 0q3.2 0 4.9-.6l-.8-1.8q-1 .4-4 .4zm4.9-.6q.8-.3 1.4-1t.5-1.6h-2l-.1.4-.6.4zm2-2.6q-.2-1-.9-3l-1.9.7q.7 1.9.7 2.4zm-.9-3-1-2.8-1.9.9q.3.5 1 2.6zm-1.5-1.5 3.4-1.8-1-1.8-3.3 1.9zm2-2.3 1.3 3.5 1.9-.6q-.7-2.3-1.4-3.7zm1.3 3.5q.6 2.1.6 3.5h2q0-1.8-.7-4.1zm.6 3.5q0 2.9-1.9 4.3l1.3 1.5a7 7 0 0 0 2.6-5.7zm-1.9 4.3q-1.7 1.5-5.8 1.5v2q4.6 0 7-2zm-5.8 1.5H121v2h2.2zm-1.2 1v-4.8h-2V53zm5.6 7.4-2.6-2.7-1.5 1.4 2.7 2.7zm-2.6-1.3 2.6-2.7-1.4-1.4-2.7 2.7zm1.2-2.7 1 1 1.3-1.5-.9-.9zm1 1 1.7 1.7 1.5-1.4-1.9-1.8zm1.7.3-2.7 2.7 1.4 1.4 2.8-2.6zm-6.9 2.7-2.7-2.7-1.4 1.4 2.7 2.7zm-2.7-1.3 2.7-2.7-1.4-1.4-2.7 2.7zm1.3-2.7.9 1 1.4-1.5-.9-.9zm.9 1 1.8 1.7 1.4-1.4L123 56zm1.8.3-2.7 2.7 1.4 1.4 2.7-2.6zm12-4.9-1-.1-.2 1 1 .1zm0-15.8h-1zm-.7-6.8-.2-1-1 .3.3.9zm4-1h1l-.1-1.1-1 .2zm.6 6.6h1zm-.2 17.4-.1 1 1 .1v-1zm-2.8-.2q.3-2.3.3-6.7h-2q0 4.4-.3 6.4zm.3-6.7q0-4.4-.2-9.3h-2l.2 9.3zm-.2-9.3q-.3-5-.7-7l-2 .4q.4 1.8.7 6.7zm-1.4-5.8 4-1-.5-1.9-4 1zm2.8-1.8.5 6.4h2l-.6-6.7zm.5 6.4.2 9.1h2q0-4.4-.2-9.2zm.2 9.1q0 5.5-.4 8.2l2 .3q.4-3 .4-8.5zm.7 7.3-3.8-.4-.2 2 3.8.4zm-.8 6.1-.4-1-1 .5.5 1zm3.8-2-.5-.8zm2.8-2.2-.7-.7zm-.7-9.1-1 .2zm-.1-.6-.4-1-.8.4.2.8zm3.5-1.4 1-.4-.4-1-1 .4zm1.3 4.7-1 .2zm-2 10.2-.8-.7zm-6.7 4.4-.9.5.4.8.9-.3zm-1.6-3q2.3-1 4-2.2l-1-1.6q-1.7 1-3.7 1.9zm4-2.2a14 14 0 0 0 3-2.4l-1.5-1.3a12 12 0 0 1-2.5 2zm3-2.4q1.2-1.1 1.3-2.6h-2q.1.3-.7 1.3zm1.3-2.6-.4-2.6-1.3-4.8-2 .6L145 52zm-1.7-7.3-.2-.7-2 .5.2.6zm-.8.5 3.6-1.4-.7-1.9-3.6 1.4zm2.3-2q.8 2.1 1.2 4.6l2-.4-1.3-4.9zm1.2 4.6q.4 2.4.4 4.2h2q0-2-.5-4.6zm.4 4.2q0 2.7-2.2 5.1l1.5 1.4q2.7-2.9 2.7-6.5zm-2.2 5.2q-2.2 2.4-6.3 4.1l.8 1.9q4.3-1.8 7-4.7zm-5 4.6-2-4-1.7.8 2 4z" mask="url(#l)"/></g><defs><filter id="b" width="198.1" height="133.2" x="5.4" y="-20.8" color-interpolation-filters="sRGB" filterUnits="userSpaceOnUse"><feFlood flood-opacity="0" result="BackgroundImageFix"/><feBlend in="SourceGraphic" in2="BackgroundImageFix" result="shape"/><feGaussianBlur result="effect1_foregroundBlur_299_145" stdDeviation="25"/></filter><filter id="d" width="178.1" height="113.2" x="15.4" y="-10.8" color-interpolation-filters="sRGB" filterUnits="userSpaceOnUse"><feFlood flood-opacity="0" result="BackgroundImageFix"/><feBlend in="SourceGraphic" in2="BackgroundImageFix" result="shape"/><feGaussianBlur result="effect1_foregroundBlur_299_145" stdDeviation="20"/></filter><filter id="f" width="158.1" height="93.2" x="25.4" y="-.8" color-interpolation-filters="sRGB" filterUnits="userSpaceOnUse"><feFlood flood-opacity="0" result="BackgroundImageFix"/><feBlend in="SourceGraphic" in2="BackgroundImageFix" result="shape"/><feGaussianBlur result="effect1_foregroundBlur_299_145" stdDeviation="15"/></filter><filter id="h" width="138.1" height="73.2" x="35.4" y="9.2" color-interpolation-filters="sRGB" filterUnits="userSpaceOnUse"><feFlood flood-opacity="0" result="BackgroundImageFix"/><feBlend in="SourceGraphic" in2="BackgroundImageFix" result="shape"/><feGaussianBlur result="effect1_foregroundBlur_299_145" stdDeviation="10"/></filter><filter id="j" width="118.1" height="53.2" x="45.4" y="19.2" color-interpolation-filters="sRGB" filterUnits="userSpaceOnUse"><feFlood flood-opacity="0" result="BackgroundImageFix"/><feBlend in="SourceGraphic" in2="BackgroundImageFix" result="shape"/><feGaussianBlur result="effect1_foregroundBlur_299_145" stdDeviation="5"/></filter><clipPath id="a"><path fill="#fff" d="M0 0h210v91H0z"/></clipPath></defs></svg>