<svg xmlns="http://www.w3.org/2000/svg" width="631" height="122" fill="none" viewBox="0 0 631 122"><mask id="a" width="603" height="80" x="14" y="25" fill="#000" maskUnits="userSpaceOnUse"><path fill="#fff" d="M14 25h603v80H14z"/><path d="M42.1 77.8q-11.2 0-17.7-3.6-6.6-3.5-7-9.7l-.2-1.6q0-2.7.8-6 .7-3.1 1.9-5.6l6.1 3a26 26 0 0 0-1.6 8.3q.5 2.5 5 4 4.8 1.5 12.9 1.6 8.2 0 12.8-1 4.5-1.2 7-3.5 2.4-2.4 4-6.9l6.7.8q-1.2 3.7-1.2 5.8t1 3.1 3.2 1l.5 4.8-.5 4.7q-3.6 0-6.3-2a9 9 0 0 1-3.3-5.6 21 21 0 0 1-9.7 6.6A49 49 0 0 1 42 77.8m-3.3-33L44 50l-5.3 5.5-5.5-5.5zm11.2 0 5.4 5.3-5.4 5.5-5.4-5.5zm25.1 22.7h3.2q6.3 0 9-1.1 2.5-1.1 2.5-3.4 0-1.4-1.4-5.3l-2-5.4 6.7-3.7a48 48 0 0 1 3.8 14.9q0 6.5-4.4 10T79.7 77h-4.5zm12 25.8-5.4-5.4 5.4-5.5 1.8 1.8 3.6 3.7zm-11.3 0-5.4-5.4 5.4-5.5 1.8 1.8 3.7 3.7zM117.4 77q-7 0-10.2-4-3-4-3-12.3a338 338 0 0 0-1.7-29.3l8-1.8q.6 4.8 1 12.7.3 8 .4 14.7v2.5q0 3.2.3 4.9t1.5 2.4 3.7.7h.3l.6 4.8-.6 4.7zm35.4 0q-3 0-5.2-1.5a9 9 0 0 1-3.2-4q-3.6 5.4-8.5 5.5h-.3a7.8 7.8 0 0 1-7.7-5.4q-2.1 2.7-4.8 4-2.6 1.5-5.6 1.4h-.2l-.5-4.7.5-4.8h.3q2 0 4-.9a7 7 0 0 0 2.8-2.1 11 11 0 0 0 2-3.5q.8-1.9 1.3-4.1l6.7.7-.7 2.6q-.6 2-.6 4 0 3.3 2.6 3.3h.2q3.3 0 5-3.6 1.6-3 2.2-7.4l6.7.3a29 29 0 0 0-.7 6q0 4.7 3.8 4.7 2 0 3-1.1t1-2.8q0-1.8-1.3-5.5l-2.1-5.8 6.6-3.6A54 54 0 0 1 164 64q0 3.6-1.4 6.6t-3.9 4.7a9 9 0 0 1-5.6 1.8zM202 95.5q-5.7 0-10.3-2.2-4.5-2.2-7.1-6.4a19 19 0 0 1-2.7-10.2q0-3.9 1.4-8.4 1.5-4.5 3.1-8.2l6.2 2.8q-1.7 3.8-2.6 6.7t-.9 5.9q0 5.3 3.3 7.8Q196 86 202 86a27 27 0 0 0 11.9-2.7 9 9 0 0 0 3-2.3q-1-1.1-4.8-3.2-3.7-2-7.7-3.4l2-9q5.6 1.1 9.6 1.6 4.2.5 8.1.5h1l.5 4.8-.5 4.7h-1l-2.9-.1q2.4 2.3 2.4 4.6 0 3.2-2.9 6.4-2.8 3.3-7.9 5.4a27 27 0 0 1-10.8 2.2m22.2-28h4.8q7.2 0 13.5-1.5 6.4-1.5 13.4-5.1l-4.5-2.1q-5.7-3-9.8-3-2.3 0-4.4 1.4a10 10 0 0 0-2.8 3l-5.4-4q4.8-9.5 12.8-9.5 2.8 0 5.2 1 2.5.8 7.3 3.3l6.3 2.9q2.6 1 5.8 1.7l.3 8.5a46 46 0 0 0-8 4 118 118 0 0 1-11.1 5.2 54 54 0 0 1-20.5 3.7h-3zm48.5 9.1q.6-4.2.7-13a311 311 0 0 0-1.8-32.2l8-1.8q.6 3.7 1 13t.4 18.2q0 11.1-.7 16.6zm32 .4q-2.2 0-3.9-.8-.3 6-5.2 11.1a36 36 0 0 1-12.9 8.4l-3.9-8a46 46 0 0 0 13.3-8.6q2-2.3 2-3.8 0-2.6-3.4-14.3l-.3-1.3 7.2-2.8 1.6 5.7q1 2.6 2 3.8 1.4 1 3.4 1h.6l.6 4.9-.6 4.7zm5.6-9.5 3.4-5.9.1-4.1a163 163 0 0 0-2-26l8-1.9q.6 3.9 1 10.2.6 6.3.5 12.9 6.6-6 13-6 3.7 0 6.7 1.7t4.6 4.3q1.6 2.9 1.6 6.4 0 5.4-3.3 9.5a21 21 0 0 1-9 6.2 38 38 0 0 1-13.3 2.2h-17v-9.5zm9.7.2q6 0 10.5-1 4.6-1.4 7.2-3.2 2.7-2 2.8-4 .2-1.5-1.3-2.6-1.3-1.1-4-1.1-4 0-8.6 3-4.6 3.1-8.6 8.8zm65.7 24.6q-6.1 0-10.8-2.4t-7.2-7a20 20 0 0 1-2-11q.3-6.3 4.3-15l6.2 2.8q-1.7 4-2.6 6.8t-.9 5.8q0 5.3 3.3 7.9t9.7 2.6q5.1 0 9.2-1.8a13 13 0 0 0 6-4.6l-4.1-1.2-3.4-1q-5.1-1.4-7.2-3.5a8 8 0 0 1-2-5.7q0-5.2 2.5-10 2.7-4.7 7-7.6 4.2-3 9-3 2 0 4 .6t2.7 1.3l-2.7 8.2-1.8-.4-2.2-.2q-2.7 0-5 1.1-2.5 1.2-4.1 3a9 9 0 0 0-2.2 3.9l-.1.6q0 1.1 1.5 2 1.5.7 5.7 1.7 5.8 1.3 7.8 3.4a6 6 0 0 1 2.1 4.6q0 4.7-3 8.9t-8.2 6.6a26 26 0 0 1-11.5 2.6M430 77q-7 0-10.2-4-3-4-3-12.3a337 337 0 0 0-1.7-29.3l7.9-1.8q.6 4.8 1 12.7.4 8 .4 14.7v2.5q0 3.2.3 4.9.4 1.7 1.6 2.4t3.7.7h.3l.5 4.8-.5 4.7zm-.3-9.5h1l4.7-.1q-1.8-2.8-1.9-5.8l.3-2.1q.8-4.2 3-7.6l-2-.5 3.6-8.8q12.6 3.8 19.7 7.3a31 31 0 0 1 10 6.9q2.9 3.4 2.9 7.3 0 2.5-1.1 6a8 8 0 0 1-4.5 5Q462 77 457 76.8q-5.3 0-10.3-1.7-5.8 2-16 1.9h-1zm10.7-7.2q0 3.1 5.7 5.6 5.3-1.7 5.3-5.3 0-1.5-1-3-.8-1.5-2.3-2.2l-1.5-.5h-.7q-2 0-3.7 1.6a5 5 0 0 0-1.8 3.8m14.9 8 2.9.3q2.3 0 3.7-.6t2-1.6l.1-1q0-2.9-6.7-6.2l-.1 3q-.6 3.7-2 6.2m55.6 33.5a28 28 0 0 1-11.2-2.1q-5-2.2-8-6.4-3-4.1-3-9.6 0-9.7 7.5-16a43 43 0 0 1 20.8-8.8q-4.2-3-7-4.2t-5.3-1.3-4.3 1.3-2.9 3l-5.4-3.9q5-9.6 12.8-9.6 3.7 0 7.1 1.8 3.6 1.5 9.4 5.8 3 2.3 4.9 3.4l3.7 1.7-1.1 9.2h-1.6q1.8 1.4 5.5 1.4h1.1l.5 4.8-.5 4.7h-1q-5.2 0-8.8-2.8a14 14 0 0 1-4.6-7.5 43 43 0 0 0-12.2 3.4 26 26 0 0 0-8.1 5.6q-3 3.3-3.5 6.7-.2 2.8 1.9 5 2.2 2.4 6 3.6 4 1.5 8.8 1.4 4.5 0 8.5-1t6.2-1.9l3.5 7.3q-8.7 5-19.7 5m.6-27.2 4 4 2 2-6 5.8-6-5.9zm21.9-7.1h.4q5.8 0 8.5-.6 2.9-.6 3.7-1.9 1-1.2 1-3.5 0-1.9-.7-6l6.6-1.3q.9 4.6.9 10.5.3 1 1.4 2 1.2.8 3.4.8h.3l.5 4.8-.5 4.7h-.4q-2.6 0-4.7-1.2-2.2-1.2-3.7-3.2a10 10 0 0 1-5.7 3.4q-3.7 1-10.6 1h-.5zM550 93.3l-5.3-5.4 5.3-5.5 1.8 1.8 3.7 3.7zm-11.2 0-5.4-5.4 5.4-5.5 1.8 1.8 3.6 3.7zM591.5 77q-3 0-5.9-1.8a27 27 0 0 1-5.7-5.6 13 13 0 0 1-7.3 5.6 37 37 0 0 1-12.2 1.8h-2.2v-9.5h2.2q5.5 0 9-.9 3.6-1 4.8-2.3-.6-3-3.8-7.3-3.3-4.2-9.6-9.4l.9-8.3 23.7-10L588 37l-18.5 8a44 44 0 0 1 9 10.5q3.3 5 5.3 7.5 2.1 2.6 3.8 3.5 1.8 1 3.9 1h1l.6 4.9-.6 4.7zm.4-9.5h3.1q6.3 0 9-1.1 2.6-1.1 2.6-3.4 0-1.4-1.5-5.3l-2-5.4 6.8-3.7a48 48 0 0 1 3.8 14.9q0 6.5-4.4 10T596.4 77H592zm13.3 24-5.1-5 5-5.1 5.2 5.1zm-12.1 0-5-5 2-2 3-3.1 3.4 3.4 1.8 1.7zm6 7-4.4-4.4 4.5-4.6 3 3 1.5 1.6z"/></mask><path fill="#321848" d="m24.4 74.2 1.4-2.6zm-7-9.7 2.9-.3V64zM18 57l-2.9-.7zm1.9-5.7 1.3-2.7-2.8-1.4-1.3 2.9zm6.1 3 2.9.8.8-2.5-2.4-1zm-1.6 8.3-3 .2v.3zm5 4-.9 2.9zm12.9 1.6v3zm12.8-1 .6 2.9zm7-3.5L60 61.5zm4-6.9.4-3-2.3-.2-.9 2.2zm6.7.8 2.9 1 1-3.6-3.6-.4zm-.2 8.9-2 2.2zm3.2 1 3-.4-.3-2.6h-2.7zm.5 4.8 3 .3v-.7zm-.5 4.7v3h2.7l.3-2.7zm-6.3-2-1.9 2.3zm-3.3-5.6 3-.5-1.1-6.3-4.2 5zM56.5 76l.9 2.8zM38.8 44.7l2-2-2-2.2-2.2 2.1zm5.3 5.4 2.2 2.1 2-2-2-2.2zm-5.3 5.5-2.2 2 2.2 2.2 2-2.1zM33.3 50 31.2 48 29.1 50l2 2.1zM50 44.7l2.1-2-2-2.2-2.2 2.1zm5.4 5.4 2.1 2.1 2.1-2-2-2.2zM50 55.6l-2.1 2 2.1 2.2 2.1-2.1zM44.6 50 42.5 48 40.3 50l2.2 2.1zM42 74.8q-10.8-.1-16.3-3.2L22.9 77q7.5 4 19.2 3.9zm-16.3-3.2q-5.2-3-5.5-7.4l-6 .5q1 8.1 8.6 12.2zm-5.5-7.5v-1.2h-6v2zm0-1.2q0-2.3.6-5.2l-5.8-1.4q-.9 3.4-.9 6.6zm.6-5.2q.7-3 1.7-5.2L17.1 50q-1.2 2.7-2 6.2zM18.6 54l6.1 3 2.6-5.5-6.1-3zm4.6-.7a28 28 0 0 0-1.8 9.5l6-.4q-.3-1.5 1.5-7.3zm-1.8 9.8q.6 2.7 2.6 4 1.9 1.5 4.5 2.4l2-5.7q-2-.8-2.8-1.3-.6-.7-.4-.4zm7.1 6.4q5.4 1.7 13.7 1.7l.1-6q-7.9 0-11.9-1.4zm13.8 1.7q8.4 0 13.4-1.1l-1.3-5.9a61 61 0 0 1-12.2 1zm13.5-1.1q5-1.2 8.3-4.3L60 61.5q-1.8 1.7-5.6 2.7zm8.3-4.3q3-3 4.9-8l-5.7-2q-1.5 4-3.3 5.7zm1.7-6 6.7.8.6-6-6.6-.7zm4.1-3.1q-1.2 4-1.3 6.7h6q0-1.3 1-4.9zm-1.3 6.7a7 7 0 0 0 2 5.3l4-4.4q.1.1 0 0v-1zm2 5.4a8 8 0 0 0 5.2 1.7v-6l-1.2-.2zm2.2-1 .5 4.8 6-.7-.5-4.8zm.5 4.1-.5 4.8 6 .6.5-4.7zm2.5 2.1q-2.6 0-4.5-1.5l-3.6 4.9q3.6 2.6 8.1 2.6zm-4.5-1.4a6 6 0 0 1-2.1-3.7l-6 1q.8 4.5 4.4 7.4zm-7.4-5a18 18 0 0 1-8.3 5.5l1.8 5.7q6.5-2.1 11-7.4zM55.6 73q-5.1 1.6-13.5 1.7v6q9 0 15.3-2zM36.6 47l5.4 5.3 4.2-4.2-5.3-5.4zM42 48l-5.4 5.5 4.3 4.2 5.4-5.5zm-1.1 5.4L35.4 48l-4.2 4.2 5.4 5.5zm-5.5-1.1 5.5-5.4-4.3-4.3-5.4 5.4zM48 46.9l5.4 5.3 4.2-4.2-5.4-5.4zm5.4 1.1-5.4 5.5 4.2 4.2 5.4-5.5zM52 53.4 46.7 48l-4.2 4.2 5.4 5.5zm-5.4-1.1 5.4-5.4-4.2-4.3-5.4 5.4zM75 67.5v-3h-3v3zm12.1-1.1 1.2 2.7zm2.6-3.4h3zm-1.4-5.3-2.9 1zm-2-5.4-1.5-2.6-2.5 1.3 1.2 2.6zm6.7-3.7 2.7-1.3-1.4-2.9-2.7 1.6zm2.6 7.2-3 .8zm1.2 7.7h3zm-4.4 10 1.9 2.4zM75.2 77h-3v3h3zM87 93.3l-2.1 2 2 2.2 2.2-2.1zm-5.4-5.4-2.1-2.1-2.1 2 2 2.2zm5.4-5.5 2.1-2-2.1-2.2-2.1 2.1zm1.8 1.8-2.1 2.2zm3.6 3.7 2.1 2.1 2.2-2.1-2.2-2.1zm-16.7 5.4-2.1 2 2.1 2.2 2.1-2.1zm-5.4-5.4-2-2.1-2.2 2 2.1 2.2zm5.4-5.5 2.1-2-2-2.2-2.2 2.1zm1.8 1.8-2.1 2.2zm3.7 3.7 2 2.1 2.2-2.1-2.1-2.1zM75 70.5h3.2v-6H75zm3.2 0q6.4 0 10-1.4l-2.2-5.5q-1.7.8-7.8.9zm10-1.4a8 8 0 0 0 3.2-2.2 6 6 0 0 0 1.3-3.9h-6v.1q0 .1-.7.5zm4.5-6.2q-.1-2.3-1.6-6.2l-5.7 2q1.4 3.9 1.3 4.5zm-1.6-6.2L89 51l-5.4 2.6q.6 1 2 5zm-3.4-1.8 6.7-3.7-2.8-5.2-6.8 3.7zm2.6-5q1 2.4 2.4 6.7l5.7-1.7q-1.2-4.5-2.7-7.6zm2.4 6.7q1.1 4.1 1.1 6.9h6q0-4-1.4-8.6zm1.1 6.9q0 5.3-3.3 7.7l3.8 4.7q5.5-4.6 5.5-12.4zm-3.2 7.7q-3.2 2.7-11 2.8v6q9 .1 14.7-4.1zm-11 2.8h-4.5v6h4.5zm-1.5 3v-9.6h-6V77zm11 14.1-5.4-5.3-4.2 4.2 5.4 5.4zM83.8 90l5.4-5.5-4.2-4.2-5.4 5.5zm1.2-5.4 1.8 1.8L91 82l-1.8-1.8zm1.8 1.8 3.6 3.6 4.2-4.2L91 82zm3.6-.7L85 91.1l4.2 4.3 5.4-5.4zM78 91.1l-5.3-5.3-4.3 4.2 5.4 5.4zM72.6 90l5.4-5.5-4.3-4.2-5.4 5.5zm1.1-5.4 1.8 1.8 4.2-4.3-1.8-1.8zm1.8 1.8L79 90l4.3-4.2-3.7-3.7zm3.7-.7-5.5 5.4 4.2 4.3 5.5-5.4zm28-12.7-2.3 1.8zm-3-12.3h3zm-.5-16-3 .2zm-1.2-13.3-.6-3-2.8.6.4 2.8zm8-1.8 3-.4-.5-3.2-3.2.7zm1 12.7-3 .2zm.4 17.2h3zm.3 4.9 2.9-.7zm1.5 2.4-1.6 2.5h.1zm4 .7 3-.4-.3-2.6h-2.7zm.6 4.8 3 .3v-.7zm-.6 4.7v3h2.7l.3-2.7zm-.3-3q-6-.2-7.8-2.9l-4.7 3.7c2.8 3.7 7.3 5.2 12.5 5.2zm-7.8-2.9q-2.2-2.7-2.4-10.4h-6a23 23 0 0 0 3.7 14zm-2.4-10.4q0-8-.5-16.1l-6 .3q.4 8 .5 15.8zm-.5-16.1q-.4-8.2-1.2-13.7l-6 .9q.8 5 1.2 13zM103 34.3l8-1.7-1.3-5.9-8 1.7zm4.4-4.3q.6 4.5 1 12.5l6-.3q-.4-8-1-13zm1 12.5q.3 7.8.4 14.5h6q0-6.8-.4-14.8zm.4 14.5v2.5h6V57zm0 2.4q0 3.4.3 5.7l5.9-1.4q-.3-1-.2-4.2zm.3 5.7a7 7 0 0 0 3 4.2l3-5.1-.1-.5zm3 4.3q2.4 1.1 5.2 1v-6q-2-.1-2.2-.2zm5.2 1h.3v-6h-.3zm-2.6-2.6.5 4.8 6-.7-.6-4.8zm.5 4.1-.5 4.8 6 .6.4-4.7zm2.4 2.1h-.3v6h.3zm35 3v3zm-5-1.5L146 78zm-3.3-4 2.7-1.2-2.2-5-3 4.6zm-8.5 5.5v3zm-5.2-1.5L129 78zm-2.8-3.9 2.8-1-1.8-5.2-3.4 4.4zm-4.8 4 1.4 2.7zm-5.8 1.4-3 .3.3 2.7h2.7zm-.5-4.7-3-.4v.7zm.5-4.8v-3h-2.7l-.3 2.6zm4.2-.9 1.2 2.8h.1zm3-2.1-2.3-2h-.1v.2zm2-3.5-2.9-1zm1.2-4.1.4-3-2.6-.2-.7 2.4zm6.7.7 3 .6.6-3.2-3.3-.4zm-.7 2.6 2.9.8zm7.3 3.7 2.7 1.4zm2.1-7.4.1-3-2.7-.2-.4 2.7zm6.7.3 2.9.7.9-3.5-3.7-.2zm-.6 3-3-.5v.1zm6.7 6.6-2.1-2.1zm-.3-8.3-2.8 1zm-2.1-5.8-1.5-2.6-2.4 1.3 1.1 2.5zm6.6-3.6 2.7-1.2-1.4-3-2.8 1.6zm2.5 7.2-2.9.9zm0 14.6-2.8-1.3zm-3.9 4.7 1.8 2.4zm-5.9-1.2q-2.2 0-3.5-1l-3.3 5q3 2 6.7 2zm-3.5-1a6 6 0 0 1-2.2-2.7l-5.5 2.5q1.5 3.3 4.4 5.2zM142 70c-2 3-4 4-6 4.1v6c4.6 0 8.2-2.7 11-6.8zm-6 4.1h-.4v6h.4zm-.4 0a5 5 0 0 1-3-1l-3.5 5q3 2 6.5 2zm-3-1a5 5 0 0 1-1.8-2.3l-5.7 1.9q1.2 3.3 4 5.4zm-7-3.2a12 12 0 0 1-3.8 3.2l2.8 5.3q3.3-1.7 5.7-4.8zm-3.7 3.2q-2 1-4.3 1v6q3.7 0 7-1.7zm-4.3 1h-.2v6h.2zm2.8 2.7-.5-4.8-6 .7.5 4.7zm-.5-4.1.5-4.8-6-.7-.5 4.8zm-2.5-2.1h.3v-6h-.3zm.3 0q2.7 0 5.1-1.1l-2.4-5.5q-1.4.6-2.7.6zm5.2-1.1q2.4-1.2 4-3.1l-4.8-3.6q-.3.5-1.7 1.2zm3.9-3a14 14 0 0 0 2.6-4.4l-5.7-2a8 8 0 0 1-1.4 2.5zm2.6-4.4q.8-2 1.3-4.3l-5.8-1.6q-.5 2.1-1.2 3.9zm-1.9-2.1 6.7.7.6-6-6.6-.7zm4-2.9-.1.6-.5 1.7 5.8 1.7.7-2.8zm-.6 2.3q-.7 2.5-.7 4.8h6q0-1.2.5-3zm-.7 4.8q-.2 2.3 1.3 4.4 2 2.1 4.3 2v-6l.4.2v.1-.7zm5.6 6.4h.2v-6h-.2zm.2 0a8 8 0 0 0 4.6-1.4q2-1.5 3.2-3.8l-5.4-2.7a4 4 0 0 1-1.2 1.5 2 2 0 0 1-1.2.4zm7.8-5.2q1.7-3.6 2.4-8.4l-6-.9q-.6 4.3-1.8 6.6zm-.7-5.8 6.6.3.3-6-6.7-.3zm3.8-3.5-.5 3.3 6 .8q0-1.7.4-2.6zm-.5 3.4-.2 3.4h6l.1-2.8zm-.2 3.4q-.2 3 1.6 5.4a7 7 0 0 0 5.2 2.3v-6l-.6-.1q-.1.1-.2-1.6zm6.8 7.7v-6zm0 0q3 0 5.2-2l-4.4-4.2-.7.2zm5.1-2q2-2.1 2-5h-6q0 .7-.2.8zm2-5q0-2.7-1.5-6.5l-5.7 2q1.3 3.8 1.2 4.6zm-1.5-6.4q-1.3-3.9-2.3-6l-5.5 2.4q.9 1.8 2.1 5.5zm-3.6-2.2 6.6-3.6-2.9-5.2-6.6 3.6zm2.4-5q1.2 2.4 2.4 6.9l5.8-1.7q-1.4-4.7-2.7-7.6zm2.4 6.9q1.3 4.2 1.3 7.1h6q0-4-1.5-8.8zm1.3 7.1q0 3-1.2 5.3l5.5 2.5q1.7-3.6 1.7-7.8zm-1.2 5.3a9 9 0 0 1-2.8 3.6l3.5 4.8q3-2.3 4.8-5.9zm-2.8 3.6a6 6 0 0 1-4 1.2v6q4.2 0 7.5-2.4zm-4 1.2h-.2v6h.3zm38.7 19.3-1.3 2.7zm-7.1-6.4 2.5-1.6zm-1.3-18.6-2.9-.9zm3.1-8.2 1.3-2.7-2.7-1.2-1.3 2.6zm6.2 2.8 2.7 1.2 1.2-2.7-2.7-1.2zm-2.6 6.7 2.9.9zm2.4 13.7 1.9-2.3zm16.2 1.9-.8-3zm5.3-2-1.4-2.6zm3-2.2 2.5 1.7 1.5-2.1-1.9-1.8zm-4.8-3.2 1.4-2.6zm-7.7-3.4-3-.7-.5 2.6 2.5.9zm2-9 .6-3-3-.5-.5 2.9zM216 67l-.3 3zm9.1.5 3-.4-.3-2.6h-2.7zm.5 4.8 3 .3v-.7zm-.5 4.7v3h2.7l.3-2.7zm-3.9-.1.2-3-8-.6 5.7 5.7zm-.5 11-2.2-2zm-7.9 5.4-1.1-2.7zm-10.8-.8q-5.1 0-9-1.9l-2.6 5.4q5.3 2.5 11.6 2.5zm-9-1.9q-3.7-1.8-5.9-5.3l-5 3.2q3 5 8.3 7.5zm-5.9-5.3a16 16 0 0 1-2.2-8.6h-6q0 6.7 3.1 11.8zm-2.2-8.6q0-3.3 1.3-7.6l-5.8-1.7q-1.5 5-1.5 9.3zm1.3-7.5q1.3-4.5 3-7.8l-5.5-2.6a61 61 0 0 0-3.3 8.6zm-1-6.4 6.1 2.8 2.5-5.4-6.1-2.8zm4.6-1q-1.7 3.8-2.7 6.9l5.8 1.8 2.4-6.4zm-2.7 6.9q-1 3.3-1 6.8h6q0-2.6.8-5zm-1 6.8q0 6.5 4.5 10.2l3.7-4.7q-2-1.4-2.2-5.5zm4.5 10.2Q195.2 89 202 89v-6q-5.6-.1-7.7-2zM202 89q3.9 0 7.3-.9l-1.5-5.8q-2.7.7-5.8.7zm7.3-.9q3.4-.8 6-2.2l-2.8-5.3q-1.7 1-4.7 1.7zm6-2.2q2.5-1.2 4-3.2l-4.8-3.5q0 .3-2 1.4zm3.7-7.1q-1.6-1.5-5.5-3.6l-2.9 5.3A26 26 0 0 1 215 83zm-5.5-3.6a65 65 0 0 0-8-3.6l-2.1 5.6q3.8 1.4 7.3 3.3zm-6.2-.2 2-9-5.8-1.2-2 9zm-1.5-6.6 9.9 1.6.7-6q-4-.4-9.4-1.5zm10 1.6q4.2.5 8.3.5v-6q-3.8 0-7.7-.5zm8.3.5h1v-6h-1zm-2-2.7.6 4.8 6-.7-.6-4.8zm.6 4.1-.5 4.8 6 .6.4-4.7zM225 74h-1v6h1zm-1 0-2.7-.1-.4 6 3.1.1zm-5 5c1.3 1.3 1.5 2.1 1.5 2.5h6c0-2.6-1.4-4.9-3.2-6.7zm1.5 2.5q.1 1.7-2.1 4.5l4.5 4q3.5-3.9 3.6-8.5zm-2.1 4.5a18 18 0 0 1-6.8 4.6L214 96q5.5-2.3 9-6.2zm-6.9 4.6q-4.2 1.9-9.6 1.9v6q6.5 0 12-2.4zm12.6-23.1v-3h-3v3zm18.3-1.5.7 3zm13.4-5.1 1.4 2.6 5.8-3-6-2.4zm-4.5-2.1-1.4 2.6zm-14.2-1.6 1.7 2.5zm-2.8 3-1.8 2.4 2.6 1.9 1.7-2.8zm-5.4-4-2.7-1.3-1.2 2.3 2.1 1.5zm25.3-5.2 1.4-2.7zm6.3 2.9-1.1 2.8zm5.8 1.7 3-.2-.1-2.3-2.3-.5zm.3 8.5.8 3 2.3-.7-.1-2.4zm-6.8 3.3-1.4-2.6h-.2v.1zm-.7.4 1.1 2.8h.2l.2-.2zm-.6.3-1.3-2.7zm-11 5.2 1.1 2.8zm-9.5 2.8.5 3zm-14 .9h-3v3h3zm0-6.5h4.9v-6h-4.8zm4.9 0q7.6 0 14.2-1.6l-1.3-5.8q-6 1.4-13 1.4zm14.3-1.6q6.6-1.6 14-5.4l-2.7-5.3q-6.8 3.5-12.8 4.9zM257 58.1l-4.4-2-2.7 5.3 4.8 2.3zm-4.4-2q-6-3.1-11.1-3.2v6q3.2-.1 8.4 2.5zm-11.1-3.2q-3.4 0-6 1.9l3.4 4.9q1-.8 2.6-.8zm-6 1.9q-2.4 1.5-3.8 3.8l5.1 3.1a7 7 0 0 1 2-2zm.5 3-5.4-4-3.5 4.9 5.4 3.9zm-4.4-.2c2.9-5.7 6.3-7.9 10.1-7.9v-6c-6.8 0-12 4.2-15.5 11.2zm10.1-7.9q2.3 0 4.2.7l2-5.6q-3-1-6.2-1zm4.2.7q2.2.9 7 3.2l2.7-5.3a73 73 0 0 0-7.7-3.5zm7 3.2 6.5 3 2.2-5.5q-2.4-1-6-2.8zm6.5 3q3 1.2 6.3 1.9l1.2-5.9q-3-.6-5.3-1.5zm3.9-1 .3 8.6 6-.2-.3-8.6zm2.4 5.7q-2.3.7-7.3 3.5l2.8 5.2q5.1-2.7 6.2-3zm-7.6 3.6-.6.4 3.1 5.1.9-.5zm-.1.2q-.5 0-.8.3l2.7 5.4.3-.2zm-.9.3q-6.2 3.4-10.7 5.1l2.2 5.6q4.9-1.9 11.3-5.3zm-10.7 5.1q-4.5 1.7-9 2.7l1.1 5.8q5.2-.9 10.1-3zm-9 2.7q-4.5.8-10.4.8v6q6.3 0 11.5-1zm-10.4.8h-3v6h3zm0 3v-9.5h-6V77zm45.6-.4-3-.4-.4 3 3 .4zm0-31.5-3 .1zm-1.1-13.7-.7-2.9-2.8.7.5 2.8zm8-1.8 3-.5-.6-3.2-3.1.8zm1 13 3-.2zm-.3 34.8-.4 3 3 .3.3-2.8zm-4.6-.3q.6-4.6.7-13.5h-6q0 8.7-.6 12.6zm.7-13.5q0-9-.6-18.7l-6 .3q.6 9.6.6 18.4zm-.6-18.7q-.6-9.8-1.3-14l-5.9 1q.6 3.7 1.2 13.3zm-3.6-10.5 8-1.9-1.3-5.8-8 1.8zm4.4-4.4q.6 3.4 1 12.7l6-.3a146 146 0 0 0-1-13.3zm1 12.7q.4 9.3.4 18.1h6q0-9-.4-18.4zm.4 18.1q0 11-.7 16.2l6 .9q.7-6 .7-17zm2.6 13.7-7.6-.9-.6 6 7.5.8zm20.2 1.7 1.2-2.7-3.9-1.8-.3 4.3zm-5.2 11.1-2.2-2zm-12.9 8.4L280 97l1.2 2.5 2.7-1zm-3.9-8-1.1-2.9-3 1.3 1.4 2.8zm7.8-4.1-1.7-2.5zM292 79l-2.3-2zM290.7 61l-2.9.7v.1zm-.3-1.3-1.1-2.8-2.5 1 .7 2.5zm7.2-2.8 2.8-1-1-3-3 1.2zm1.6 5.7-2.9.8v.1zm2 3.8-2 2.2h.1zm4 1 3-.3-.3-2.6h-2.7zm.6 4.9 3 .3v-.7zm-.6 4.7v3h2.7l.3-2.7zm-.6-3q-1.5 0-2.6-.5l-2.4 5.5q2.4 1 5 1zm-6.8 2q-.2 4.8-4.4 9.2l4.3 4.2q5.6-5.7 6.1-13zm-4.4 9.2q-4.3 4.6-11.8 7.7l2.3 5.6a39 39 0 0 0 13.9-9.1zm-8 9.2-3.9-8-5.4 2.5 4 8.1zm-5.5-4q4.5-1.8 8.3-4.3l-3.3-5a43 43 0 0 1-7.2 3.7zm8.3-4.3q3.7-2.3 6.1-5l-4.5-4a23 23 0 0 1-4.9 4zm6-5c1.5-1.6 3-3.6 3-5.8h-6l-.3.3q-.2.6-1 1.5zm3-5.8q-.1-2-1-5.6l-2.6-9.5-5.8 1.6a201 201 0 0 1 3.3 13.5zm-3.6-15-.3-1.3-5.8 1.4.3 1.3zm-2.1 2.2 7.2-2.8-2.2-5.6-7.2 2.8zm3.2-4.6q.7 1.8 1.6 5.5l5.8-1.6-1.7-5.9zm1.7 5.6q.9 3.1 2.8 5l4.1-4.3q-.4-.4-1.2-2.5zm3 5.2a8 8 0 0 0 5.2 1.8v-6q-1.1 0-1.4-.4zm5.2 1.8h.6v-6h-.6zm-2.3-2.7.5 4.8 6-.7-.6-4.8zm.5 4.1-.5 4.8 6 .6.4-4.7zm2.4 2.1h-.6v6h.6zm5.1-6.5v3h1.8l.9-1.6zm3.4-5.9 2.5 1.7.5-.7v-.8zm-.6-18.2-3 .3zm-1.3-12-.7-2.9-2.7.6.4 2.8zm8-1.8 3-.4-.5-3.2-3.2.7zm1 10.2-3 .2zm.5 12.9h-3l-.1 6.7 5-4.5zm19.7-4.3-1.5 2.6zm4.6 4.3 2.6-1.5zm-1.7 16-2.3-2zm-9 6.1-1.1-2.8zM304.5 77h-3v3h3zm0-9.5v-3h-3v3zm15.4.2v3zm10.5-1 .7 2.8zm7.2-3.2-1.8-2.4zm2.8-4 3 .4zm-1.3-2.6-1.9 2.3h.1zm-12.6 2 1.6 2.5zm-8.6 8.7-2.4-1.8-3.3 4.6 5.6.2zm-5 1.3q1.5-3.1 3.2-5.6l-5-3.3-3.5 6zm3.7-7.1.1-4.3h-6v4zm.1-4.3q0-6.3-.7-14.4l-6 .6q.7 7.8.7 13.8zm-.7-14.4q-.8-8-1.4-12.1l-5.9 1q.6 3.6 1.3 11.7zm-3.7-8.7 8-1.8-1.3-5.9-8 1.8zm4.4-4.3q.6 3.6 1 9.9l6-.5q-.4-6.4-1-10.3zm1 9.9q.6 6.1.5 12.7h6q0-6.8-.5-13.2zm5.5 15q6-5.4 11-5.2v-6q-7.9.1-15 6.6zm11-5.2q3 0 5.2 1.2l2.9-5.2q-3.6-2-8-2zm5.3 1.3q2.2 1 3.4 3.2l5.2-3a14 14 0 0 0-5.8-5.6zm3.4 3.2q1.2 2.1 1.2 4.8h6q0-4.3-2-7.9zm1.2 4.8q0 4.4-2.6 7.6l4.6 3.8q4-5 4-11.4zm-2.6 7.6Q339 70 333.8 72l2 5.6q6.6-2.4 10.4-7.1zm-7.8 5.3q-5.2 2-12.2 2v6q7.8 0 14.3-2.4zm-12.2 2h-17v6h17zm-14 3v-9.5h-6V77zm-3-6.5h5.7v-6h-5.7zm15.4.2q6 0 11.2-1.2l-1.5-5.8q-4.1 1-9.6 1zm11.2-1.2q5-1.2 8.3-3.6l-3.6-4.8q-1.9 1.5-6.2 2.6zm8.3-3.6c2-1.5 3.8-3.4 4-6l-6-.6s0 .7-1.6 1.8zm4-6a6 6 0 0 0-2.4-5.4l-3.7 4.8.2.1zm-2.4-5.3a9 9 0 0 0-5.8-1.8v6q1.8 0 2 .4zm-5.8-1.8q-5.4 0-10.4 3.6l3.4 5q4-2.7 7-2.6zm-10.4 3.6a38 38 0 0 0-9.3 9.4l4.8 3.5q3.9-5.2 7.9-8zm-7 14.2h2l.2-6h-2zm57 19.3-1.4 2.7zm-7.2-7-2.7 1.4zm-2-11 3 .1zm4.3-15 1.2-2.7-2.7-1.3-1.3 2.8zm6.2 2.8 2.7 1.2 1.2-2.7-2.7-1.2zm-2.6 6.8-2.9-.9zm2.4 13.7-1.9 2.3zm19 .8-1.3-2.8zm5.8-4.6 2.5 1.7.3-.4v-.3zm-4-1.2-.8 2.9zm-3.4-1-.8 3zM386.7 55l-2.6-1.4zm7-7.6-1.7-2.5zm13-2.4-.9 2.9h.1zm2.7 1.3 2.9 1 .5-1.8-1.3-1.3zm-2.7 8.2-1.1 2.8 3 1.2 1-3zm-1.8-.4-.5 3zm-7.3 1 1.3 2.7zm-4 2.9 2.2 2zm-2.2 3.9-3-.8zm1.4 2.6-1.5 2.6h.1zm5.7 1.7.6-3zm7.8 3.4-2 2.1zm-9.1 20.1-1.3-2.7zm-11.5-.4q-5.5 0-9.4-2l-2.8 5.3q5.4 2.7 12.2 2.7zm-9.4-2a14 14 0 0 1-6-5.9l-5.3 3q3 5.4 8.5 8.2zm-6-5.8a17 17 0 0 1-1.7-9.5l-6-.4q-.5 7.2 2.4 12.7zm-1.7-9.5q.3-5.4 4.1-13.9l-5.5-2.4q-4.1 9-4.6 16zm.1-12.4 6.2 2.9 2.5-5.5-6.2-2.8zm4.7-1-2.7 7 5.7 1.8q.9-2.7 2.5-6.5zm-2.7 7q-1 3.3-1 6.7h6q0-2.5.7-5zm-1 6.7c0 4.1 1.3 7.8 4.4 10.2L378 78q-2-1.4-2.2-5.6zm4.4 10.3q4.6 3.3 11.6 3.2v-6q-5.8-.1-7.8-2zm11.6 3.2q5.7 0 10.5-2.1l-2.5-5.5q-3.5 1.5-8 1.6zm10.4-2q4.7-2.1 7.2-5.7l-5-3.3a10 10 0 0 1-4.6 3.4zm7.6-6.4a3 3 0 0 0-1.3-3.6l-.7-.3-1-.3-3.2-.9-1.4 5.8 3.3 1-.3-.2-.6-.6a3 3 0 0 1-.5-2.8zm-6-5-3.5-1-1.6 5.7 3.4 1zm-3.5-1q-4.7-1.5-5.9-2.8l-4.2 4.3q3.1 2.8 8.5 4.2zm-5.9-2.8q-1.1-.9-1.2-3.6h-6q0 4.6 3 7.9zm-1.2-3.6q0-4.5 2.3-8.5l-5.3-3q-3 5.5-3 11.5zm2.3-8.5q2.3-4.2 6-6.7l-3.4-5a25 25 0 0 0-7.9 8.8zm6-6.7q3.6-2.4 7.3-2.4v-6q-5.7 0-10.7 3.5zm7.3-2.4q1.5 0 3.1.5l1.7-5.8a17 17 0 0 0-4.8-.7zm3.2.5 1.2.4.2.1 4.2-4.2a9 9 0 0 0-4.1-2.1zm.6-2.5-2.6 8.2 5.7 1.9 2.7-8.3zm1.3 6.4-2.5-.7-1 6q1.2.1 1.3.2zm-2.5-.7-2.6-.2v6q.6 0 1.7.2zm-2.6-.2q-3.3 0-6.4 1.4l2.6 5.5q1.8-.9 3.8-.9zm-6.3 1.4q-3 1.4-5 3.7l4.4 4q1.3-1.5 3-2.2zm-5 3.7a12 12 0 0 0-3 5.1l5.8 1.6q.4-1.3 1.6-2.7zm-3 5.2-.1 1.3h6v.1zm-.1 1.3c0 2.4 1.6 3.8 3 4.6l3-5.3q-.4-.2-.3 0l.2.2v.5zm3.1 4.6q2.2 1 6.4 2l1.3-5.8q-4-1-5-1.5zm6.4 2q5.5 1.5 6.4 2.6l4.3-4.2q-3.2-3-9.4-4.2zm6.5 2.7q1.1 1.2 1.1 2.4h6q0-4-3-6.8zm1.1 2.4q0 3.7-2.4 7.1l4.9 3.5q3.5-4.8 3.5-10.6zm-2.4 7.1q-2.5 3.5-7.1 5.7l2.6 5.4q5.8-2.7 9.4-7.6zm-7.2 5.7q-4.4 2.3-10.1 2.3v6q7 0 12.8-2.9zm24-14-2.4 1.8zm-3-12.3h3zm-.6-16-3 .2zm-1.1-13.3-.7-3-2.7.6.4 2.8zm7.9-1.8 3-.4-.5-3.2-3.1.7zm1 12.7-3 .2zm.4 17.2h3zm.3 4.9 3-.7zm1.6 2.4-1.6 2.5zm4 .7 3-.4-.3-2.6h-2.7zm.5 4.8 3 .3v-.7zm-.5 4.7v3h2.7l.3-2.7zm-.3-3c-4.2 0-6.5-1.2-7.8-2.9l-4.8 3.7Q422 80.2 430 80zm-7.8-2.9q-2.4-2.7-2.5-10.4h-6a23 23 0 0 0 3.7 14zm-2.5-10.4q0-8-.5-16.1l-6 .3q.5 8 .5 15.8zm-.5-16.1q-.3-8.2-1.2-13.7l-5.9.9q.8 5 1.1 13zm-3.5-10.3 8-1.7-1.3-5.9-8 1.7zM420 30q.6 4.5 1 12.5l6-.3q-.4-8-1-13zm1 12.5q.4 7.8.4 14.5h6q0-6.8-.4-14.8zm.4 14.5v2.5h6V57zm0 2.4q-.1 3.4.4 5.7l5.9-1.4q-.3-1-.3-4.2zm.4 5.7a7 7 0 0 0 2.9 4.2l3.1-5.1-.1-.5zm3 4.3q2.3 1.1 5.2 1v-6q-2.1-.1-2.2-.2zm5.2 1h.3v-6h-.3zm-2.7-2.6.5 4.8 6-.7-.5-4.8zm.5 4.1-.5 4.8 6 .6.5-4.7zm2.5 2.1h-.3v6h.3zm-.6-6.5v-3h-3v3zm5.7-.1.2 3 5.4-.2-3-4.5zm-1.6-8-3-.5zm3-7.5 2.6 1.6 2.3-3.5-4.2-1zm-2-.5-2.7-1.1-1.3 3.1 3.3.9zm3.6-8.8.9-2.9-2.7-.8-1 2.6zm19.7 7.3-1.3 2.7zm11.8 20.3 2.8.8zm-4.5 5 1.3 2.6zm-18.6-.1 1-2.9-1-.3-1 .3zm-17 1.9h-3v3h3zM446 66l-1.3 2.7 1 .4 1.2-.3zm4.4-8.4-2.6 1.6zm-2.4-2.2 1.3-2.7h-.2l-.1-.1zm-1.5-.5 1-2.8zm-4.4 1.6-2.1-2.1zm13 11.9-2.6-1.5-2 3.9 4.3.5zm6.7-.4 1 2.9zm2-1.6-2.9-1zm-6.6-7.2 1.4-2.7-4.6-2.2.2 5zm-.1 3 3 .6v-.1zm-27.5 8.3h1v-6h-1zm1 0 4.9-.1-.3-6h-4.5zm7.2-4.8a7 7 0 0 1-1.4-4.1h-6q0 4 2.5 7.5zm-1.4-4.1.2-1.6-5.9-1-.3 2.6zm.2-1.5q.8-3.6 2.7-6.6l-5-3.2a25 25 0 0 0-3.6 8.6zm.8-11.1-1.8-.5-1.6 5.8 2 .5zm.2 3.5 3.5-8.8-5.6-2.2-3.5 8.8zm-.2-7q12.4 3.8 19.3 7.1l2.6-5.4q-7.5-3.7-20.1-7.5zm19.3 7.1q6.8 3.4 9 6.1l4.6-3.9q-3.6-4-11-7.6zm9 6.1a8 8 0 0 1 2.2 5.4h6q0-5.1-3.6-9.3zm2.2 5.4q0 1.8-1 5.2l5.7 1.7q1.2-3.7 1.3-6.9zm-1 5.2a5 5 0 0 1-3 3.1l2.7 5.4q4.5-2.1 6-6.8zm-3 3.1a16 16 0 0 1-6.9 1.4v6q5.4 0 9.6-2zm-6.9 1.4q-4.8 0-9.3-1.6l-2 5.7q5.6 2 11.3 2zM446 72.2a51 51 0 0 1-15.1 1.8v6q10.4 0 17-2zM430.8 74h-1v6h1zm2 3v-9.5h-6V77zm4.6-16.7q.2 3 2.3 5t5.1 3.4l2.5-5.5q-2.6-1.2-3.3-2t-.6-.9zm9.6 8.5q3-1 5.2-3a7 7 0 0 0 2.2-5.2h-6q0 .6-.5 1a7 7 0 0 1-2.8 1.5zm7.4-8.2q0-2.5-1.4-4.6l-5 3.2q.4.8.4 1.4zM453 56a9 9 0 0 0-3.6-3.3l-2.6 5.4q.6.4 1.1 1zm-4-3.4-1.5-.5-1.9 5.7 1.6.5zm-1.5-.5-1.6-.2v6h.1l-.4-.1zm-1.6-.2q-3.3.1-5.8 2.5l4.1 4.3q1-1 1.7-.8zm-5.8 2.5a8 8 0 0 0-2.7 5.9h6q0-.7.8-1.6zm14.8 17 3.3.2v-6l-2.5-.2zm3.3.2q2.6 0 4.7-.7l-2-5.7q-.7.4-2.7.4zm4.8-.8a6 6 0 0 0 3.7-3.4l-5.7-2 .1-.2.1-.1-.3.1zm3.7-3.4q.3-.8.3-2h-6v-.1zm.3-2c0-2.1-1.2-3.9-2.6-5.2a24 24 0 0 0-5.7-3.7L456 62q3.1 1.6 4.3 2.7c.9.8.7 1.1.7.9zm-12.7-6v2.5l5.9.7q.2-1.9.1-3.5zm0 2.4q-.6 3.2-1.7 5.1l5.3 2.9q1.6-3 2.3-7zm45.4 37.9 1.2-2.8zm-8-6.4 2.4-1.7zm4.5-25.6-2-2.3zm20.8-8.8.5 3 7.1-1.3-6-4.2zm-7-4.2-1.3 2.7zm-9.6 0-1.7-2.4zm-2.9 3-1.7 2.5 2.6 1.9 1.7-2.8zm-5.4-3.9-2.6-1.3-1.2 2.2 2 1.6zm20-7.8-1.4 2.6zm9.3 5.8-1.8 2.5zm4.9 3.4-1.6 2.5zm3.7 1.7 3 .4.2-2.4-2.2-.8zm-1.1 9.2v3h2.6l.4-2.7zm-1.6 0v-3h-8.7l6.8 5.3zm6.6 1.4 3-.4-.3-2.6H534zm.5 4.8 3 .3v-.7zM534 77v3h2.7l.3-2.7zm-9.8-2.8-1.9 2.4zm-4.6-7.5 3-.7-.7-2.6-2.7.3zm-12.2 3.4-1.3-2.7zm-8.1 5.6 2.2 2zm-3.5 6.7-3-.5v.2zm1.9 5-2.2 2zm6 3.6 1-2.8zm17.3.4.7 3zm6.2-1.9 2.8-1.2-1.2-2.6-2.6 1zm3.5 7.3 1.5 2.6 2.4-1.3-1.2-2.5zm-19-22.2 2-2.1-2-2-2.2 2zm3.8 4-2.1 2zm2 2 2.1 2 2.2-2-2.2-2.2zm-5.9 5.8-2 2.1 2 2.1 2.2-2zm-6-5.9-2-2.1-2.2 2.1 2.2 2.2zm5.4 18.3q-5.5 0-10-1.9l-2.4 5.5a31 31 0 0 0 12.4 2.4zm-10-1.9q-4.4-1.9-6.8-5.3l-4.9 3.5q3.6 4.9 9.3 7.3zm-6.8-5.3a13 13 0 0 1-2.4-8h-6q0 6.5 3.6 11.5zm-2.4-8q0-8.2 6.4-13.7l-3.9-4.5q-8.4 7.3-8.5 18.3zm6.4-13.7a40 40 0 0 1 19.4-8l-1-6a46 46 0 0 0-22.3 9.5zm20.6-13.5q-4.4-3-7.4-4.5l-2.6 5.5q2.4 1 6.6 4zm-7.4-4.4q-3.2-1.6-6.6-1.6v6q1.8 0 4 1zm-6.6-1.6q-3.3 0-6 1.9l3.4 4.9q1.2-.8 2.6-.8zm-6 1.9q-2.4 1.6-3.7 3.9l5 3.1q.7-1 2.2-2.1zm.6 3-5.4-3.9-3.5 4.9 5.4 3.9zm-4.5-.1c3-5.8 6.4-8 10.1-8v-6c-6.7 0-11.8 4.3-15.4 11.3zm10.1-8q3 0 5.8 1.4l2.7-5.3q-4-2-8.5-2zm5.9 1.5q3 1.4 8.8 5.6l3.5-4.9q-5.9-4.3-9.8-6.2zm8.8 5.6 5 3.4 3.3-5-4.8-3.3zm5.1 3.5a24 24 0 0 0 4.3 2l2-5.7q-1.8-.7-3.2-1.5zm2.3-1.3-1.1 9.2 6 .7 1-9.1zm1.9 6.6h-1.6v6h1.6zm-3.5 5.3c2 1.6 4.7 2 7.4 2v-6q-3.2-.1-3.7-.7zm7.4 2h1.1v-6h-1zm-1.8-2.6.5 4.8 6-.7-.6-4.8zm.5 4.1-.5 4.8 6 .6.4-4.7zm2.4 2.1h-1v6h1zm-1 0q-4.4 0-7-2.1l-3.6 4.7q4.5 3.4 10.5 3.4zm-6.9-2q-2.6-2.2-3.6-6l-5.8 1.4q1.4 5.6 5.6 9.2zm-6.9-8.3q-7.3 1-13 3.7l2.5 5.4a40 40 0 0 1 11.3-3.1zm-13 3.7a29 29 0 0 0-9.1 6.3l4.4 4q2.4-2.6 7.2-4.9zm-9.1 6.3a16 16 0 0 0-4.2 8.2l5.9 1q.2-2.5 2.7-5.1zm-4.3 8.4q-.2 4.2 2.7 7.4l4.4-4.1q-1.4-1.4-1-2.8zm2.7 7.4q2.9 3 7.3 4.4l1.9-5.7q-3.4-1.2-4.8-2.8zm7.3 4.4q4.5 1.5 9.7 1.5v-6q-4.4 0-7.8-1.2zm9.7 1.5q4.8 0 9.2-1l-1.4-6q-3.6 1-7.8 1zm9.2-1q4.1-1 6.6-2l-2.1-5.7q-2 .9-6 1.8zm2.8-3.6 3.5 7.3 5.4-2.5-3.4-7.3zm4.7 3.4a36 36 0 0 1-18.2 4.6v6q11.7 0 21.2-5.4zm-19.7-17.4 3.9 3.8 4.3-4.2-4-4zm4 3.9 1.9 2 4.2-4.3-2-2zm1.9-2.3-5.9 5.9 4.3 4.2 5.8-5.9zm-1.7 5.9-6-6-4.1 4.4 6 5.8zm-6-1.6 6-6-4.2-4.2-6 5.9zm25.8-15.2v-3h-3v3zm9-.6.5 3zM546 65l2.5 1.8zm.3-9.6-.6-3-2.8.6.4 2.9zm6.6-1.2 3-.6-.6-3-3 .6zm.9 10.5h-3v.7zm1.4 2-1.8 2.4zm3.7.8 3-.4-.3-2.6h-2.7zm.5 4.8 3 .3v-.7zM559 77v3h2.7l.3-2.7zm-5.1-1.2 1.4-2.6zm-3.7-3.2 2.3-1.9-2.3-3-2.4 3zm-5.7 3.4.8 2.9zm-11.1 1h-3v3h3zm16.8 16.3-2 2 2 2.2 2.1-2.1zm-5.3-5.4-2.2-2.1-2 2 2 2.2zm5.3-5.5 2.2-2-2.2-2.2-2.1 2.1zm1.8 1.8-2 2.2zm3.7 3.7 2 2.1 2.2-2.1-2.1-2.1zm-16.7 5.4-2.1 2 2 2.2 2.2-2.1zm-5.4-5.4-2.1-2.1-2.1 2 2 2.2zm5.4-5.5 2-2-2-2.2-2.2 2.1zm1.8 1.8-2.2 2.2zm3.6 3.7 2.1 2.1 2.2-2.1-2.2-2.1zm-11-17.4h.5v-6h-.4zm.5 0q5.8 0 9.1-.7l-1.2-5.9a44 44 0 0 1-8 .6zm9.2-.7c2-.4 4.2-1.3 5.5-3l-4.9-3.5-.3.1-1.6.6zm5.5-3a9 9 0 0 0 1.4-5.3h-6q0 1.7-.3 1.8zm1.4-5.3q0-2.3-.6-6.5l-6 .9q.7 4.1.6 5.6zm-3-3.1 6.6-1.3-1.2-5.9-6.6 1.3zm3-3.7q.9 4.4.9 10h6q0-6-1-11.1zm1 10.7a6 6 0 0 0 2.5 3.7l3.5-4.9-.2-.2zm2.5 3.7q2.4 1.5 5.2 1.4v-6q-1.7-.1-1.7-.3zm5.2 1.4h.3v-6h-.3zm-2.7-2.7.5 4.8 6-.7-.5-4.8zm.5 4.1-.5 4.8 6 .6.5-4.7zM559 74h-.4v6h.4zm-.4 0q-1.8 0-3.3-.8l-2.9 5.2q3 1.5 6.2 1.6zm-3.3-.8q-1.5-.9-2.8-2.5l-4.7 3.7q2 2.5 4.6 4zm-7.5-2.5q-1 1.5-4 2.4l1.5 5.8q4.6-1.1 7.2-4.5zm-4 2.4q-3.2.9-10 .9v6q7.2 0 11.5-1.1zm-10 .9h-.4v6h.5zm2.6 3v-9.5h-6V77zm16 14.1-5.4-5.3-4.3 4.2 5.4 5.4zm-5.4-1.1 5.4-5.5-4.3-4.2-5.4 5.5zm1.1-5.4 1.8 1.8 4.3-4.3-1.8-1.8zm1.8 1.8 3.7 3.6 4.2-4.2L554 82zm3.7-.7-5.5 5.4 4.2 4.3 5.5-5.4zM541 91.1l-5.4-5.3-4.2 4.2 5.4 5.4zm-5.4-1.1 5.4-5.5-4.3-4.2-5.3 5.5zm1.2-5.4 1.7 1.8 4.3-4.3-1.8-1.8zm1.7 1.8 3.7 3.6 4.2-4.2-3.6-3.7zm3.7-.7-5.4 5.4 4.2 4.3 5.4-5.4zm43.4-10.5-1.6 2.5zm-5.7-5.6 2.3-1.9-2.7-3.4-2.2 3.8zm-7.3 5.6 1 2.8zM558.2 77h-3v3h3zm0-9.5v-3h-3v3zm11.2-.9.7 3zm4.8-2.3 2.3 1.8.9-1-.3-1.3zm-3.8-7.3 2.4-1.9zm-9.6-9.4-3-.3-.2 1.6 1.3 1zm.9-8.3-1.2-2.8-1.6.7-.2 1.8zm23.7-10 2.9-1-1-3-3 1.3zM588 37l1.2 2.8 2.5-1-.9-2.7zm-18.5 8-1.2-2.9-4.5 2 3.8 3.1zm4.5 4.4-2.3 2zm4.5 6.1L576 57h.1zm5.3 7.5-2.4 1.9zm8.7 4.6 3-.4-.3-2.6h-2.7zm.6 4.8 3 .3v-.7zm-.6 4.7v3h2.7l.3-2.7zm-1-3q-2.2 0-4.2-1.3l-3.3 5q3.4 2.3 7.5 2.3zm-4.2-1.3q-2.1-1.4-5-5l-4.8 3.8q3.3 4 6.5 6.2zm-10-4.6q-1.4 2.6-5.7 4.3l2 5.6q6-2 8.9-7zm-5.7 4.3q-4.5 1.5-11.2 1.6v6q7.5 0 13.2-2zM560.4 74h-2.2v6h2.2zm.8 3v-9.5h-6V77zm-3-6.5h2.2v-6h-2.2zm2.2 0q5.7 0 9.7-1l-1.3-5.8q-3.1.8-8.4.8zm9.8-1c2.5-.6 5-1.6 6.3-3.4l-4.7-3.7c-.1.2-.8.8-3 1.3zm7-5.7q-.9-4.2-4.4-8.7l-4.8 3.7q3 4 3.2 6zm-4.4-8.7q-3.6-4.5-10.1-9.8l-3.8 4.7q6.1 5 9.1 8.8zm-9-7.2.9-8.3-6-.6-.9 8.3zm-1-5.8 23.8-10-2.3-5.5-23.8 10zm19.8-11.8 2.6 7.6 5.6-2-2.5-7.5zm4.2 3.9L568.3 42l2.4 5.6 18.5-7.9zm-19.2 13a41 41 0 0 1 4.1 4l4.5-4q-2.5-2.9-4.8-4.7zm4.2 4.1q2.4 2.7 4.1 5.7l5.2-3q-2-3.6-4.9-6.7zm4.2 5.8q3.3 5 5.4 7.7l4.7-3.8q-2-2.3-5-7.2zm5.5 7.8q2.2 2.7 4.6 4.1l3-5.1q-1-.7-3-3zM586 69q2.4 1.5 5.4 1.5v-6q-1.4 0-2.4-.6zm5.4 1.5h1v-6h-1zm-2-2.7.6 4.8 6-.7-.6-4.8zm.6 4.1-.5 4.8 6 .6.4-4.7zm2.4 2.1h-1v6h1zm-.6-6.5v-3h-3v3zm12-1.1 1.2 2.7zm2.7-3.4h3zm-1.5-5.3-2.8 1zm-2-5.4-1.5-2.6-2.5 1.3 1.3 2.6zm6.8-3.7 2.7-1.3-1.4-2.9-2.8 1.6zm2.5 7.2-2.9.8zm1.3 7.7h3zm-4.4 10L611 76zM591.9 77h-3v3h3zm13.3 14.6-2.1 2.1 2 2.1 2.2-2zm-5.1-5-2.2-2.2-2 2.2 2 2zm5-5.2 2.3-2-2.1-2.4-2.3 2.2zm4 3.9 2-2.2zm1.2 1.2 2.1 2.2 2.2-2.2-2.2-2zm-17.2 5-2.1 2.2 2 2.1 2.2-2zm-5-5-2.2-2-2.1 2 2.1 2.2zm2-2 2.1 2.1zm3-3.1 2.1-2.2-2.2-2.1-2 2.2zm3.4 3.4-2 2.1zm1.8 1.7 2 2.2 2.2-2.1-2.1-2.2zm.9 12-2.2 2.2 2.1 2.1 2.2-2.1zm-4.5-4.4-2.2-2.1-2 2.1 2 2.1zm4.5-4.6 2-2-2-2.2-2.2 2.1zm3 3-2.2 2.2zm1.5 1.6 2.1 2.1 2.2-2.1-2.2-2.1zM592 70.5h3.1v-6h-3.1zm3.1 0q6.5 0 10.1-1.4l-2.3-5.5q-1.6.8-7.8.9zm10.1-1.4a8 8 0 0 0 3.2-2.2 6 6 0 0 0 1.3-3.9h-6v.1q0 .1-.8.5zm4.5-6.2q-.1-2.3-1.7-6.2l-5.6 2q1.4 3.9 1.3 4.5zm-1.7-6.2-2.1-5.7-5.4 2.6 1.9 5zm-3.4-1.8 6.8-3.7-2.9-5.2-6.8 3.7zm2.6-5q1.2 2.4 2.4 6.7l5.8-1.7q-1.3-4.5-2.7-7.6zm2.4 6.7q1.2 4.1 1.2 6.9h6q0-4-1.4-8.6zm1.2 6.9q0 5.3-3.3 7.7l3.8 4.7q5.5-4.6 5.5-12.4zm-3.3 7.7q-3.1 2.7-11 2.8v6q9 .1 14.7-4.1zm-11 2.8H592v6h4.5zm-1.5 3v-9.6h-6V77zm12.4 12.5-5.1-5.1-4.2 4.3 5 5zm-5.1-.9 5.1-5.1-4.3-4.3-5 5.2zm.8-5.2 3.9 4 4.2-4.3-3.7-3.8zm6 1.9-2.1 2v.1h.1v.1h.1v.1l.2.2h.1v.1q0 0 .1 0l.1.2q0 0 .1 0v.1l.2.2h.1v.1h.1v.1l4.3-4.2-.3-.3-.2-.2-.1-.1-.1-.1c-.2-.2.1.1 0 0l-.5-.5zm-.8-.9-5.1 5 4.2 4.3 5.1-5zm-13 5-5-5-4.3 4.3 5 5zm-7.2-2.9 2.1 2.2.2-.2.1-.1.1-.1.2-.2.1-.1.1-.1.2-.2.1-.1q.1-.1.1 0l.2-.3.2-.2.2-.2.1-.1.1-.1h.1l-4.2-4.3h-.1l-.1.1v.1h-.1v.1h-.1l-.1.1-.1.2h-.1q0 .1 0 .1-.1 0-.1 0v.1h-.1v.1h-.1v.1h-.1v.1h-.1q-.2.1 0 .1l-.4.3-.4.4v.1h-.1zm4.2 0 3-3-4.3-4.2-3 3.1zm.9-5.1-2.1 2v.1l.2.2.6.6.5.5.3.3.1.1v.1h.1l.1.1 1.5 1.5 4.3-4.2-.3-.2q0-.1-.2-.2l-.4-.4v-.1q-.1 0 0 0h-.1v-.1h-.1v-.1q-.2-.2 0 0h-.1v-.1h-.1v-.1h-.1q0-.1 0-.1h-.1q0-.1 0-.1l-.2-.2-.2-.1-.1-.2h-.1v-.1l-.3-.3h-.1v-.1h-.1V80h-.1V80h-.1v-.1l-.1-.1h-.1v-.1l-.1-.1-.1-.1h-.1v-.1l-.1-.1h-.1zm1.3 5.5 1.7 1.8 4.3-4.3-1.7-1.7zm1.8-2.5-5.2 5 4.2 4.3 5.2-5zm5 12-4.4-4.4-4.2 4.2 4.4 4.5zm-4.4-.2 4.5-4.5-4.3-4.3-4.5 4.6zm2.4-6.7-2.2 2.2.2.2.3.2.1.1.1.1q0 0 0 .1l2.3 2.3 4.3-4.3h-.1v-.1h-.1v-.1h-.1V90h-.1V90h-.1v-.1h-.1v-.1h-.1v-.1h-.1v-.1l-.2-.2h-.1v-.1h-.1v-.1h-.1c-.1-.2 0 0 0-.2h-.1q-.1 0-.1 0v-.1l-.2-.2h-.1v-.1h-.1q0-.1 0-.1-.1 0-.1 0-.2-.1 0-.1-.1-.1-.1 0v-.1q-.1-.2-.1 0 0-.1 0-.1t-.1 0 0-.1q0 0-.1 0 0-.1 0-.1h-.1v-.1q-.2 0 0 0l-.2-.1q0-.1 0 0 0-.1 0-.1-.1-.1-.1 0v-.1q-.1 0-.1 0 0-.1 0-.1h-.1zm.8 5.2 1.6 1.5 4.2-4.2-1.5-1.6zm1.6-2.7-4.5 4.4 4.2 4.3 4.5-4.5z" mask="url(#a)"/></svg>