<svg xmlns="http://www.w3.org/2000/svg" width="315" height="73" fill="none" viewBox="0 0 315 73"><mask id="a" width="269" height="39" x="23" y="18" fill="#000" maskUnits="userSpaceOnUse"><path fill="#fff" d="M23 18h269v39H23z"/><path d="M54.6 45q-1.5 0-2.8-.9-1.4-.7-2.9-2.7-1.2 2-3.7 3-2.6 1-6 1h-.8q-5.7 0-9.1-1.8t-3.6-5v-.8q0-1.5.3-3l1-3 3.4 1.6-.8 4q0 .8 1.2 1.3 1 .6 3 1 2 .3 4.6.3h.9q2.4 0 4.1-.5 1.8-.6 2.5-1.2-.5-1.7-2.1-3.5-1.6-2-4.5-4.4l.4-4.6 12-5 1.4 4.3-9 3.8 1.8 1.9q1.3 1.3 2.3 3l2.6 3.6q1.1 1.2 2 1.7t1.8.5h.6l.3 2.7-.3 2.7zm.3-5.4h.2q2.6 0 3.8-.2 1.5-.2 2-.7t.6-1.3q0-1.3-.3-3.5l3.7-.7q.4 2.4.4 5.3 0 .4.6.7.7.4 1.6.4h.2l.3 2.7-.3 2.7h-.2q-1.2 0-2.3-.5a7 7 0 0 1-2-1.6 6 6 0 0 1-2.9 1.6q-1.9.5-5.2.5h-.2zm5.3 13.7-2.8-2.8-2.8 2.8-2.8-2.8 2.8-3 2.8 3 2-2 .8-1 2.9 3zm7.1-13.7H69q4.2 0 4.2-1.8 0-.6-.7-2.7l-1-2.7 3.7-2A23 23 0 0 1 77 38q0 3.4-2 5.2a9 9 0 0 1-6 1.8h-1.8zM69 26.2l.8-.8 2.4-2.4 3.2 3.2-1 1-2.2 2.1zM87.5 45q-3.6 0-5.3-2-1.5-2.2-1.6-6.4-.1-9.3-1-14.8l4.5-1q.3 2.8.5 7.3l.5 10.3q.2.6.8 1l1.6.2h.1l.3 2.7-.3 2.7zm-.2-5.4h1.6q3 0 4.4-.5 1.3-.4 1.3-1.5 0-.6-.7-2.5l-1-2.7 3.6-2a24 24 0 0 1 2 7.5q0 3.4-2.2 5.3T89.8 45h-2.5zm6 13.7-2.9-2.8-2.7 2.8-2.9-2.8 2.9-3 2.7 3 2-2 .9-1 2.8 3zm8.4-8.5q.3-2 .3-6.7a140 140 0 0 0-1-16.3l4.5-1 .6 6.6a161 161 0 0 1-.2 17.9zm3 5a26 26 0 0 0 6.8-4.2q1-1 1-1.7 0-1-1.6-6.9l-.3-.8 4-1.6a31 31 0 0 1 1.7 9.3q0 3.2-2.5 5.9-2.6 2.7-6.8 4.6zm30 3q-3 0-5.3-1.1a8 8 0 0 1-3.7-3.3 10 10 0 0 1-1.3-5.2v-1q.3-3.2 2.3-7.5l3.4 1.6-1.3 3.3q-.5 1.3-.5 2.8 0 5 6.3 5 2.4 0 4.5-.8a6 6 0 0 0 3-2l-.7-.1-3-.8a9 9 0 0 1-3.6-1.8q-1-1.1-1-3.2 0-2.6 1.3-5 1.3-2.5 3.5-4t4.7-1.5q1 0 2 .3t1.4.7l-1.5 4.6-1-.2h-1q-1.8 0-3.5 1a5 5 0 0 0-2 2.8q0 .6.8 1l2.8.8q3 .6 4 1.7t1 2.6q0 2.4-1.5 4.5-1.6 2.2-4.3 3.5t-5.9 1.2M157 45q-3.6 0-5.2-2-1.5-2.2-1.7-6.4 0-9.3-.9-14.8l4.4-1q.4 2.8.6 7.3l.4 10.3.8 1 1.6.2h.2l.3 2.7-.3 2.7zm-.1-5.4h2.4a5 5 0 0 1-.5-3.9q.4-2 1.3-3.3l-1-.3 2-5q6.4 2 10.1 3.7t5.2 3.5q1.5 1.7 1.5 3.9 0 1.4-.6 3.2t-2.3 2.6q-1.8.9-4.2.8-2.7 0-5.2-.8-2.9 1-8.2 1h-.5zm5.5-3.2q0 .8.7 1.3.8.8 2 1.2 2.6-.8 2.6-2.3 0-.7-.5-1.5a3 3 0 0 0-1.3-1l-.5-.2h-.4q-.9 0-1.8.7t-.8 1.8m7.6 3.7 1.3.1 1.8-.2q.8-.3.9-.7v-.4q0-1.4-3-2.9a10 10 0 0 1-1 4.1M176 50a26 26 0 0 0 6.7-4.3q1-1 1-1.7 0-1-1.6-6.9l-.2-.8 4-1.6a31 31 0 0 1 1.6 9.3q0 3.2-2.5 5.9-2.6 2.7-6.8 4.6zm21.8-4.9q-3.5 0-5.2-2-1.5-2.2-1.6-6.4-.1-9.3-1-14.8l4.4-1q.5 2.8.6 7.3l.5 10.3q.2.6.7 1l1.6.2h.2l.3 2.7-.3 2.7zm-.2-5.4h1.2q2.5 0 4.3-.4 1.7-.3 2.4-1-1.5-3.4-6.7-7.8l.4-4.6 12-5 1.4 4.3-9 3.8q1.8 1.6 3.8 4.3 2 2.5 2 5.2l-.2 1.2a6 6 0 0 1-3.4 4q-2.8 1.4-7 1.4h-1.2zM233 45q-3.1 0-4.7-2.1-1.9.6-3.8.6-3 0-4.8-1.4a5 5 0 0 1-2-4l.1-1q.4-2.5 2.4-4.3t5.2-3.1l-.3-2 4.1-.8a121 121 0 0 0 1.5 11.5q.3.7.8 1l1.5.2h.6l.3 2.7-.3 2.7zm-11.4-7.8q0 .5.8 1 .7.3 1.9.3 1 0 2.2-.3 0-.4-.2-1.5l-.3-2.4q-1.8.6-3 1.4-1.4.8-1.4 1.5m11.6 2.4h1.7q4.2 0 4.2-1.8 0-.6-.7-2.7l-1-2.7 3.7-2A23 23 0 0 1 243 38q0 3.4-2 5.2a9 9 0 0 1-6 1.8h-1.8zm1.7-13.4.8-.8 2.4-2.4 3.2 3.2-1 1-2.2 2.1zm10.5 23.5q4.4-1 6.7-2a7 7 0 0 0 3.3-2.7q-3.4 0-5.7-.7a5 5 0 0 1-3-2.7 7 7 0 0 1-.6-2.8 10 10 0 0 1 3.1-7.1q1.4-1.3 3.3-1.3 1.6 0 3 1.3 1.5 1.2 2.5 3.3a16 16 0 0 1 1.3 4.6h1.4l.3 2.7-.3 2.7h-1.5q-1 3.6-4 6-3.2 2.5-8.1 3.4zm4.5-11.1q.5.5 1.9.7 1.5.3 3.7.3a9 9 0 0 0-1.4-3.2q-1-1.2-2-1.3-.7 0-1.2.5t-.9 1l-.3 1.2zm10.4 1h.7q2.3 0 4-3t3.2-4.4q1.6-1.5 3.3-1.5 2 0 3.3 1.2 1.3 1.3 2.2 3.8l1.3 3.1q.4.8 1 .8h.5l.2 2.7-.2 2.7h-.5q-.9 0-1.7-.4a5 5 0 0 1-1.6-1.4q-.5.9-1.4 1.5-.7.5-1.8.5-2.5 0-6.6-2.6A7 7 0 0 1 261 45h-.6zm14 1a11 11 0 0 0-1-3.5q-.6-1.5-2-1.6-1.3 0-2.8 2.9 1.5 1.1 3 1.6a8 8 0 0 0 2.5.6zm5.1-1h1.7q4.2 0 4.2-1.8 0-.6-.8-2.7l-1-2.7 3.8-2a23 23 0 0 1 1.9 7.6q0 3.4-2 5.2a9 9 0 0 1-6 1.8h-1.8zm1.7-13.4.8-.8 2.4-2.4 3.2 3.2-1.1 1-2.1 2.1z"/></mask><path fill="#321848" d="m51.8 44.1-1.1 1.7zm-2.9-2.7 1.6-1.2-1.8-2.2-1.5 2.4zm-3.7 3-.8-1.9zm-6.8 1v-2h-2v2zm0 0v2h2v-2zm-9.1-1.8 1-1.7zm-3.6-5 2-.2v-.1zm.3-3.9-2-.4zm1-2.9.9-1.8-1.9-.9-.8 1.9zm3.4 1.6 1.9.6.5-1.6-1.6-.8zm-.6 2.2 2 .4zm-.2 1.8-2 .1v.3zm1.2 1.3-1 1.8zm3 1-.3 2zm4.6.3h2v-2h-2zm0 0h-2v2h2zm7.5-1.7 1.4 1.5 1-1-.5-1.2zm-2.1-3.5L42.2 36zm-4.5-4.4-2-.2-.1 1 .8.8zm.4-4.6-.8-1.8-1 .4-.2 1.2zm12-5 1.8-.6-.6-2-2 .8zm1.4 4.3.8 1.8 1.7-.7-.6-1.7zm-9 3.8-.8-1.8-3.1 1.3 2.7 2zm1.8 1.9L44.4 32zm2.3 3-1.7 1zm2.6 3.6-1.5 1.3zm2 1.7-1 1.8zm2.4.5 2-.2-.2-1.8h-1.8zm.3 2.7 2 .2v-.4zm-.3 2.7v2H57l.2-1.8zm-.6-2q-.7 0-1.8-.6l-2.1 3.4q1.8 1.2 4 1.2zm-1.8-.5q-1-.7-2.3-2.3l-3.1 2.5q1.5 2 3.3 3.1zm-5.6-2.1q-.7 1.2-2.8 2.1l1.5 3.7q3.1-1.2 4.7-3.7zm-2.8 2.1q-2.1.9-5.1.9v4q3.6 0 6.6-1.2zm-5.1.9h-.9v4h.9zm-2.9 2h4zm2-2a17 17 0 0 1-8.1-1.5l-2 3.5q4 2 10.1 2zM30.3 42q-2.6-1.5-2.6-3.5l-4 .3q.6 4.5 4.6 6.7zm-2.6-3.6v-.5h-4v1zm0-.5q0-1.2.3-2.6l-4-1-.3 3.6zm.3-2.6q.3-1.4.8-2.6L25.2 31q-.7 1.4-1.1 3.3zM26 33.6l3.4 1.6 1.7-3.6L28 30zm2.4-.8q-.4 1.1-.6 2.4l3.9.8.5-2zm-.6 2.3-.3 2.4 4-.1.2-1.4zm-.3 2.7q.7 2 2.2 2.7l2-3.5-.4-.3.2.4zm2.2 2.7q1.6.8 3.7 1.1l.7-4q-1.8-.2-2.5-.6zm3.7 1.1q2 .4 5 .4v-4q-2.6 0-4.3-.3zm3-1.6h4zm2 2h.8v-4h-.9zm.8 0q2.6 0 4.7-.6L43 37.6q-1.5.4-3.6.4zm4.7-.6q2-.6 3.3-1.6l-2.7-3-1.7.8zm3.8-3.8q-.8-2.1-2.5-4.1l-3 2.5q1.4 1.8 1.8 3zm-2.5-4q-1.7-2.2-4.8-4.7l-2.5 3q3 2.4 4.2 4.1zm-4-3 .4-4.6-4-.4-.4 4.6zm-.8-3 12-5-1.6-3.6-12 5zm9.2-6.2 1.5 4.3 3.8-1.2-1.5-4.3zm2.6 1.9-9 3.8 1.6 3.6 9-3.8zm-9.4 7.2q.3.2 1.5 1.6l3-2.7-2-2zm1.5 1.6q1.2 1.2 2 2.7l3.5-2.1q-1.1-1.8-2.5-3.3zm2.1 2.7q1.6 2.5 2.8 3.9l3-2.6-2.5-3.5zm2.8 3.9q1.2 1.4 2.5 2.2l2-3.5-1.5-1.3zm2.5 2.2q1.3.7 2.8.7v-4q-.5 0-.8-.2zm2.8.7h.6v-4h-.6zm-1.4-1.8.3 2.7 4-.4-.3-2.7zm.3 2.3-.3 2.7 4 .4.3-2.7zm1.7.9h-.6v4h.6zm-.3-3.4v-2h-2v2zm4-.2-.3-2zm2-.7 1.3 1.5zm.6-1.3 2 .1zm-.3-3.5-.4-2-2 .4.4 2zm3.7-.7 2-.4-.4-2-2 .4zm.4 5.3h-2v.4zm.6.7L64.8 41zm1.8.4 2-.2-.2-1.8h-1.8zm.3 2.7 2 .2v-.4zm-.3 2.7v2h1.8l.2-1.8zm-2.5-.5-1 1.7zm-2-1.6 1.5-1.3-1.4-1.6-1.5 1.5zm-2.9 1.6.5 2zM55 45h-2v2h2zm5.3 8.3-1.4 1.4 1.4 1.4 1.5-1.4zm-2.8-2.8 1.4-1.4-1.4-1.4L56 49zm-2.8 2.8-1.4 1.4 1.5 1.4 1.4-1.4zm-2.8-2.8L50.4 49 49 50.5l1.4 1.4zm2.8-3 1.5-1.3-1.5-1.5-1.4 1.5zm2.8 3L56 51.7l1.4 1.4 1.4-1.4zm2-2-1.5-1.4zm.8-1 1.5-1.3-1.4-1.4-1.5 1.4zm2.9 3 1.4 1.4 1.4-1.4-1.4-1.4zm-8.2-8.9h.2v-4h-.2zm.2 0q2.6 0 4.2-.2l-.7-4-3.5.2zm4.2-.2a6 6 0 0 0 2.9-1.2l-2.6-3h-.2l-.8.2zm2.9-1.2q1.2-1 1.3-2.7l-4-.3h.1zm1.3-2.7q.1-1.7-.3-4l-4 .8q.5 2 .3 3zm-2-1.6 3.7-.7-.7-4-3.7.7zm1.4-2.3q.4 2 .4 4.9h4q0-3-.5-5.7zm.4 5.3c.2 1 1 1.6 1.5 2l2.3-3.3q-.1 0 0 0l.2.5zm1.5 2q1.3.8 2.7.7v-4H67zm2.7.7h.2v-4h-.2zm-1.8-1.8.3 2.7 4-.4-.3-2.7zm.3 2.3-.3 2.7 4 .4.2-2.7zm1.7.9h-.2v4h.2zm-.2 0q-.8 0-1.4-.3l-1.8 3.5q1.5.9 3.2.8zm-1.4-.3-1.4-1.1-3 2.7a9 9 0 0 0 2.5 2zm-4.3-1.2q-.5.6-2 1l1 4a8 8 0 0 0 3.9-2.2zm-2 1q-1.4.5-4.7.5v4a24 24 0 0 0 5.7-.5zm-4.7.5h-.2v4h.2zm1.8 2v-5.4h-4V45zm4.8 6.9L58.8 49 56 51.9l2.8 2.8zM56 49l-2.8 2.8 2.9 2.8 2.7-2.8zm0 2.8L53.3 49 50.4 52l2.8 2.8zm-2.8 0 2.9-2.9-2.9-2.8-2.8 2.9zm0-2.9 2.8 2.8L59 49 56 46.2zm5.6 2.8 2-1.9-3-2.8q-.7 1-1.8 1.9zm2-1.9.9-.9-2.9-2.8-.9 1zm-2-.9 2.9 2.9 2.8-2.8-2.8-3zm2.9 0L58.8 52l2.9 2.8 2.8-2.8zm5.6-9.4v-2h-2v2zm5.2-4.5-2 .7zm-1-2.7-1-1.8-1.7 1 .8 1.7zm3.7-2 1.8-1-1-1.8-1.8 1zm1.2 3.6-1.9.5zM75 43.2l1.3 1.6zM67.3 45h-2v2h2zM69 26.2l-1.4-1.5-1.4 1.5 1.4 1.4zm.8-.8 1.4 1.4zm2.4-2.4 1.4-1.4-1.3-1.4-1.5 1.3zm3.2 3.2 1.4 1.4 1.4-1.4-1.4-1.5zm-1 1-1.5-1.4zm-2.2 2.1-1.4 1.4 1.4 1.4 1.4-1.4zm-4.9 12.3H69v-4h-1.7zm1.7 0a10 10 0 0 0 4-.6 4 4 0 0 0 1.5-1.2q.7-1 .7-2h-4l.1-.4q.2-.1 0 0-.4.1-2.3.2zm6.2-3.8-.3-1.5-.6-1.8-3.7 1.3.6 2zm-.8-3.3-1.2-3-3.6 1.8 1 2.5zm-2-.4 3.7-2-1.9-3.5-3.7 2zm1-2.9 1.1 3.3 3.9-1-1.4-4zm1.1 3.3q.6 2.1.6 3.5h4q0-2.1-.8-4.6zm.6 3.5q0 2.8-1.4 3.7l2.6 3q2.9-2.5 2.8-6.7zm-1.4 3.7Q72.5 43 69 43v4a11 11 0 0 0 7.3-2.2zM69 43h-1.7v4H69zm.3 2v-5.4h-4V45zm1.1-17.4q0 0 0-.1h.1q0-.2 0 0v-.1h.1q0 0 0-.1h.1v-.1h.1l.1-.1q0 0 0-.1h.1q.1-.1 0-.1h.1q0-.2 0 0 0-.1 0 0v-.1h.1l-1.4-1.4-1.4-1.5q0 0 0 .1h-.1l-.1.1v.1H68v.1q-.2 0 0 0H68q0 0 0 .1h-.1v.1h-.1q0 0 0 .1h-.1q0 0 0 .1h-.1zm.8-.8 2.4-2.3-2.8-3-2.4 2.4zm-.4-2.4 3.2 3.2 2.8-2.9-3.2-3.1zm3.2.3-1.1 1 2.8 3 1-1.1zm-1.1 1-.5.6-.1.1-.1.1-.1.1-.1.1-.1.1-.1.1-.1.1-.2.2h-.1v.1q-.1.1 0 0-.1 0-.1 0v.1l-.1.1-.1.1-.1.1-.1.1-.1.1 1.4 1.4 1.4 1.4q.1 0 .1 0v-.1q.2 0 0 0h.1v-.1q.1 0 .1 0 0-.2 0 0v-.1h.1v-.1q.1 0 .1 0 0-.1 0-.1.1 0 .1 0V30h.1q0 0 0-.1h.1q0 0 0-.1h.1q0-.1 0-.1h.1v-.1h.1q0-.2 0 0v-.1h.1v-.1h.1q0-.1 0-.1.1 0 0 0h.1l.1-.2h.1l.2-.2q0-.1 0-.1h.1q0-.1 0-.1.2 0 0 0h.1q0-.1 0-.1.2 0 0 0h.1zm.7 2.2-3.2-3.2-2.8 2.9 3.2 3.1zm8.6 15-1.5 1.2zm-1.6-6.3h2zm-1-14.8-.4-2-1.8.5.3 1.8zm4.5-1 2-.2-.3-2.2-2.2.5zm.5 7.3-2 .1zm.5 10.3-2 .6h.1zm.8 1-1 1.7zm1.7.2 2-.2-.2-1.8h-1.8zm.3 2.7 2 .2v-.4zm-.3 2.7v2h1.8l.2-1.8zm-.1-2q-2.9-.1-3.7-1.3l-3.1 2.5q2.5 2.9 6.8 2.8zm-3.7-1.3q-1.1-1.4-1.2-5.1h-4q0 4.6 2 7.5zm-1.2-5.1q-.1-9.4-1-15l-4 .5q.9 5.3 1 14.5zM80 23.8l4.4-1-.9-4-4.4 1zm2-2.7q.3 2.7.5 7.1l4-.1q-.1-4.6-.5-7.5zm.5 7.1.3 8.2h4l-.3-8.4zm.3 8.2q0 1.4.3 2.6l3.8-1.2-.1-1.4zm.3 2.6q.4 1.4 1.7 2.1l1.9-3.5.2.1zm1.7 2.1q1.2.5 2.6.5v-4h-.7zm2.6.5h.1v-4h-.1zm-1.9-1.8.3 2.7 4-.4-.3-2.7zm.3 2.3-.3 2.7 4 .4.3-2.7zm1.7.9h-.1v4h.1zm-.3-3.4v-2h-2v2zm6-.5-.8-1.9zm.6-4-2 .7zm-1-2.7-1-1.8-1.7 1 .8 1.7zm3.6-2 1.8-1-.9-1.8-1.8 1zm1.3 3.5-2 .6zm-1.5 9.3 1.2 1.5zm-9 1.8h-2v2h2zm6 8.3-1.4 1.4 1.4 1.4 1.4-1.4zm-2.9-2.8 1.5-1.4-1.5-1.4L89 49zm-2.7 2.8-1.4 1.4 1.4 1.4 1.4-1.4zm-2.9-2.8L83.4 49 82 50.5l1.4 1.4zm2.9-3 1.4-1.3-1.4-1.5-1.5 1.5zm2.7 3L89 51.7l1.4 1.4 1.4-1.4zm2-2-1.5-1.4zm.9-1 1.4-1.3-1.4-1.4-1.5 1.4zm2.8 3 1.4 1.4 1.4-1.4-1.4-1.4zm-8.8-8.9h1.6v-4h-1.6zm1.6 0q3.2 0 5.1-.6l-1.5-3.7q-.6.2-3.6.3zm5-.6q1.1-.4 1.9-1.2.8-1 .8-2.2h-4l.1-.4h-.2zm2.7-3.4-.3-1.5-.6-1.7-3.7 1.4.5 1.4v.4zm-.8-3.2-1.2-2.9-3.6 1.8 1 2.5zm-2-.3 3.7-2-2-3.5-3.7 2zm1-2.9q.5 1.1 1 3.3l4-1.1-1.5-4zm1 3.3q.7 2 .7 3.4h4q0-2.2-.8-4.5zm.7 3.4q0 2.7-1.5 3.7l2.6 3.1q3-2.6 2.9-6.8zM95 41.6Q93.6 43 89.8 43v4a12 12 0 0 0 7.7-2.3zM89.8 43h-2.5v4h2.5zm-.5 2v-5.4h-4V45zm5.4 6.9L91.9 49 89 51.9l2.9 2.8zM89 49l-2.8 2.8 2.9 2.8 2.8-2.8zm0 2.8L86.3 49 83.4 52l2.9 2.8zm-2.8 0 2.9-2.9-2.9-2.8-2.8 2.9zm0-2.9 2.8 2.8L92 49 89 46.2zm5.6 2.8 2-1.9-3-2.8-1.7 1.9zm2-1.9.9-.9-2.9-2.8-.9 1zm-2-.9 2.9 2.9 2.8-2.8-2.8-3zm2.9 0L91.9 52l2.8 2.8 2.8-2.8zm7-4.2-2-.3-.4 2 2.2.3zm0-16-2 .2zm-.7-7-.4-2-1.9.5.4 1.9zm4.5-1 2-.3-.3-2-2.1.4zm.6 6.6-2 .1zm-.2 17.9-.3 2 2 .1.2-1.9zm-2.3-.2q.4-2.4.4-7h-4q0 4.5-.3 6.4zm.4-7q0-4.5-.3-9.4l-4 .3.3 9zm-.3-9.4q-.3-4.9-.7-7.2l-4 .7q.4 1.9.7 6.8zm-2.2-5 4.4-1-.8-3.8-4.5 1zm2-2.5.6 6.3 4-.2-.6-6.8zm.6 6.3.2 9h4q0-4.5-.3-9.2zm.2 9q0 5.5-.4 8.5l4 .5q.4-3.3.4-9zm1.8 6.8-4.2-.5-.4 4 4.1.4zm-1.3 6.6L104 48l-2 .9 1 1.9zm3.9-2-1-1.8h-.1zm2.8-2.3-1.4-1.4zm-.6-8.6-2 .5zm-.3-.8-.7-1.9-1.7.7.5 1.7zm4-1.6 1.9-.6-.7-2-2 .8zm1.2 4.7-2 .4zm-2 10.5-1.5-1.4zm-6.8 4.6-1.8.9.9 1.7 1.7-.8zm-1.4-2.7a28 28 0 0 0 4.2-2.2l-2.2-3.4-3.6 2zm4.1-2.2q2-1.2 3.3-2.5l-3-2.8q-.7.9-2.4 2zM113 47l1.1-1.3q.5-.7.6-1.8h-4v-.3l-.5.6zm1.7-3.1q-.1-1.1-.5-2.7l-1.3-4.8-3.9 1.2 1.6 5.8v.5zm-1.8-7.4-.2-.8-3.9 1 .2.8zm-1.4 1.6 4-1.6-1.5-3.7-4 1.5zm1.3-2.8 1.2 4.4 3.9-.7a33 33 0 0 0-1.3-5zm1.2 4.4q.4 2.4.4 4.2h4q0-2.3-.5-5zm.4 4.2q0 2.3-2 4.5l3 2.8q3-3.2 3-7.3zm-2 4.5q-2.1 2.4-6 4.1l1.5 3.7q4.6-2 7.4-5zm-3.5 5-2.2-4.4-3.6 1.8 2.2 4.5zm20.6-1.7-.9 1.8zm-3.7-3.3 1.8-1zm-1.3-6.2 2 .1zm2.3-7.5.8-1.8-1.8-.8-.8 1.8zm3.4 1.6 1.8.8.8-1.8-1.8-.9zm-1.3 3.3-2-.6zm10.3 7-.7-1.9zm3-2 1.6 1.2 1.8-2.4-3-.7zm-.7-.1.5-2zm-3-.8-.6 1.9zm-3.6-1.8-1.5 1.4zm.3-8.3 1.7 1zm3.5-4-1.1-1.6zm6.7-1.1-.5 1.9zm1.4.7 1.9.6.3-1-.7-1zm-1.5 4.6-.8 1.9 2 .9.7-2.2zm-1-.2-.2 2zm-4.5 1 1.1 1.7zm-2 2.6 2 .6zm.8 1.1-1 1.8zm2.8.9-.4 2zm4 1.7-1.5 1.4zm-.5 7.1L143 47zm-10.2 2.7q-2.4 0-4.4-.9l-1.6 3.7q2.8 1.2 6 1.2zm-4.3-.9a6 6 0 0 1-2.8-2.5l-3.5 2.1q1.7 2.8 4.5 4zm-2.9-2.5q-1-1.5-1-4.1h-4q0 3.5 1.7 6.3zm-1-4.1v-.9l-4-.3v1.2zm0-.9q.3-2.7 2-6.7l-3.5-1.7q-2.2 4.5-2.5 8zm-.5-5.8 3.3 1.6 1.7-3.7-3.4-1.5zm2.3-1L127 39l3.8 1.2q.3-1.2 1.2-3.1zm-1.4 3.5q-.5 1.6-.5 3.4h4q0-1.2.4-2.2zm-.5 3.4q0 3.3 2.4 5.3a10 10 0 0 0 6 1.7v-4q-2.9-.1-3.5-.8-.8-.5-.9-2.2zm8.3 7q2.8 0 5.2-1l-1.5-3.7q-1.6.6-3.7.7zm5.1-1q2.4-.7 4-2.6l-3.2-2.4q-.5.7-2.1 1.3zm2.9-5.7-.7-.2-1 3.9.7.2zm-.7-.2-3-.7-1 3.8 3 .8zm-2.9-.7q-2.4-.8-2.8-1.4l-2.8 2.9q1.6 1.5 4.4 2.3zm-2.8-1.3q-.4-.3-.5-1.8h-4q0 2.6 1.6 4.6zm-.5-1.8q0-2.1 1.1-4l-3.5-2q-1.6 2.9-1.6 6zm1.1-4.1a9 9 0 0 1 3-3.3l-2.3-3.3a13 13 0 0 0-4.2 4.7zm3-3.3a6 6 0 0 1 3.5-1.1v-4q-3 0-5.8 1.8zm3.5-1.1q.8 0 1.5.2l1-3.9q-1.2-.3-2.5-.3zm1.5.2.4.2v-.1l3-2.6a5 5 0 0 0-2.4-1.4zm0-1.9-1.5 4.7 3.8 1.2 1.5-4.6zM146 32l-1.5-.3-.4 4h.3zm-1.4-.3-1.4-.2v4l.8.1zm-1.4-.2q-2.5 0-4.6 1.4l2.2 3.4q1.2-.8 2.4-.8zm-4.6 1.4a7 7 0 0 0-2.8 3.7l3.8 1.1q.2-.8 1.2-1.4zm-2.8 3.6-.1 1h4v.3zm-.1 1c0 1.5 1.2 2.3 1.9 2.6l1.7-3.6q0 0 0 .1l.3.3v.5zm1.9 2.6q1.3.6 3.3 1l.8-3.9-2.4-.7zm3.3 1q2.7.8 3 1.2l2.9-2.7q-1.9-1.8-5-2.4zm3 1.2q.4.5.4 1.2h4q0-2.3-1.5-4zm.4 1.2q0 1.6-1.2 3.4l3.3 2.3q1.9-2.6 2-5.7zm-1.2 3.4q-1.2 1.6-3.4 2.8l1.7 3.6q3-1.5 5-4.1zm-3.4 2.8q-2.3 1-5 1v4q3.6 0 6.7-1.4zm12.2-6.8-1.6 1.2zm-1.7-6.3h2zm-.9-14.8-.4-2-1.8.5.2 1.8zm4.4-1 2-.2-.3-2.2-2.1.5zm.6 7.3-2 .1zm.4 10.3-1.9.6zm.8 1-1 1.7zm1.8.2 2-.2-.2-1.8h-1.8zm.3 2.7 2 .2v-.4zm-.3 2.7v2h1.8l.2-1.8zm-.2-2q-2.8-.1-3.6-1.3l-3.2 2.5q2.5 2.9 6.8 2.8zm-3.6-1.3q-1.1-1.4-1.3-5.1h-4q0 4.6 2.1 7.5zm-1.3-5.1q0-9.4-1-15l-3.9.5q.8 5.3 1 14.5zm-2.5-12.8 4.5-1-1-4-4.3 1zm2-2.7q.4 2.7.6 7.1l4-.1q-.2-4.6-.6-7.5zm.6 7.1q.2 4.5.2 8.2h4q0-3.8-.2-8.4zm.2 8.2q0 1.4.3 2.6l3.9-1.2-.2-1.4zm.4 2.6q.3 1.4 1.7 2.1l1.9-3.5.1.1zm1.7 2.1q1.3.5 2.5.5v-4h-.6zm2.5.5h.2v-4h-.2zm-1.8-1.8.3 2.7 4-.4-.3-2.7zm.3 2.3-.3 2.7 4 .4.3-2.7zm1.7.9h-.2v4h.2zm-.3-3.4v-2h-2v2zm2.4 0 .1 2 3.2-.2-1.6-2.8zm-.5-3.9-2-.5v.1zm1.3-3.3 1.7 1 1.4-2.3-2.6-.7zm-1-.3-2-.8-.7 2.1 2.1.6zm2-5 .5-2-1.8-.5-.6 1.7zm10.1 3.7-.9 1.8zm5.2 3.5-1.5 1.3zm1 7.1-2-.6zM175 44l.8 1.8zm-9.4 0 .6-1.9-.6-.2-.6.2zm-8.7 1h-2v2h2zm6.2-7.3-1.3 1.5zm2 1.2-.8 1.9.7.2.7-.2zm2-3.8-1.6 1.2zm-1.2-1 .9-1.8-.3-.2h-.3zm-.5-.2.8-1.8-.4-.2h-.4zm0 0-.5 2h.5zm-2.2.7 1.4 1.5zm6.8 5.5-1.8-.8-1.2 2.6 3 .2zm4-.8 1.8.8zm-3-3.3.8-1.8L169 33V36zm-.2 1.4 2 .3zM157 41.6h.5v-4h-.5zm.5 0h2l-.2-4h-1.8zm3.6-3q-.4-.8-.4-1.6h-4q0 2 1 3.6zm-.4-1.6.1-.9-3.9-.8-.2 1.7zm0-.8 1.2-2.8-3.4-2q-1 1.6-1.6 3.8zm0-5.8-1-.3-1 3.9 1 .3zm.3 2.4 2-5-3.7-1.5-2 5zm-.4-3.8q6.3 2 9.8 3.6l1.8-3.6a73 73 0 0 0-10.5-3.8zm9.9 3.6q3.4 1.6 4.5 3l3-2.6a17 17 0 0 0-5.9-4zm4.5 3q1 1.2 1 2.6h4q0-3-2-5.2zm1 2.6-.5 2.6 3.8 1.3q.7-2 .7-4zm-.5 2.6q-.2.9-1.3 1.4l1.7 3.6q2.6-1.2 3.4-3.7zm-1.3 1.4q-1.3.6-3.3.6v4q2.7 0 5-1zm-3.3.6q-2.3 0-4.6-.7l-1.2 3.8q2.8 1 5.8 1zm-5.8-.7q-2.4.9-7.6.9v4q5.4 0 8.9-1.1zm-7.6.9h-.5v4h.5zm1.5 2v-5.4h-4V45zm1.5-8.6q.2 1.8 1.4 2.8l2.7-3h-.1v.2zm1.4 2.8q1.1.9 2.5 1.6L166 37q-1-.4-1.5-.9zm3.9 1.6q1.6-.4 2.7-1.4 1.3-1.1 1.3-2.8h-4v-.1q0 .1-1.2.5zm4-4.2q0-1.6-1-2.7l-3.1 2.5v.2zm-.9-2.6a5 5 0 0 0-2-1.7l-1.7 3.6q.3 0 .4.4zm-2.6-1.9-1.6 3.7 1 .3zm-.8-.2v4zm.5 0h-.9v4h-.1zm-.9 0q-1.9 0-3.1 1.3l2.7 2.9.4-.2zm-3 1.2q-1.6 1.4-1.6 3.3h4v-.1l.2-.2zm8 9 1.3.1v-4h-1.1zm1.3.1 2.4-.3-1.2-3.8-1.2.1zm2.4-.3c.7-.3 1.7-.7 2.1-1.8l-3.7-1.6.4-.4zM176 40l.2-1.1h-4v-.3zm.2-1.1c0-1.3-.8-2.3-1.5-3q-1.1-.8-2.8-1.7l-1.7 3.7 1.9 1c.3.4 0 .3 0 0zM169 36v1.1l4 .6V36zm0 1q-.3 1.5-.7 2.3L172 41l1-3.3zm7 12.9-.8-1.9-2 .9 1 1.9zm3.9-2-1-1.8zm2.8-2.3-1.4-1.4zm-.6-8.6-2 .5zm-.2-.8-.8-1.9-1.7.7.5 1.7zm4-1.6 1.8-.6-.7-2-2 .8zm1.1 4.7-2 .4zm-2 10.5-1.5-1.4zm-6.8 4.6-1.8.9.9 1.7 1.7-.8zm-1.4-2.7a28 28 0 0 0 4.2-2.2l-2.2-3.4-3.6 2zm4.2-2.2q1.8-1.2 3.2-2.5l-3-2.8q-.7.9-2.4 2zM184 47q.7-.6 1.1-1.3t.6-1.8h-4v-.3l-.5.6zm1.7-3.1q0-1.1-.5-2.7l-1.3-4.8-3.8 1.2 1.5 5.8v.5zm-1.8-7.4-.2-.8-3.9 1 .3.8zm-1.4 1.6 4-1.6-1.5-3.7-4 1.5zm1.3-2.8q.8 2 1.2 4.4l4-.7a33 33 0 0 0-1.4-5zm1.2 4.4q.4 2.4.4 4.2h4a28 28 0 0 0-.5-5zm.4 4.2q0 2.3-2 4.5l3 2.8q3-3.2 3-7.3zm-2 4.5q-2.1 2.4-6 4.1l1.5 3.7q4.6-2 7.5-5zm-3.5 5-2.2-4.4-3.6 1.8 2.2 4.5zM192.6 43l-1.6 1.2zm-1.6-6.3h2zm-1-14.8-.4-2-1.8.5.3 1.8zm4.4-1 2-.2-.3-2.2-2 .5zm.6 7.3-2 .1zm.5 10.3-2 .6zm.7 1-.9 1.7zm1.8.2 2-.2-.2-1.8H198zm.3 2.7 2 .2v-.4zM198 45v2h1.8l.2-1.8zm-.2-2q-2.8-.1-3.6-1.3l-3.2 2.5q2.5 2.9 6.8 2.8zm-3.6-1.3q-1.1-1.4-1.2-5.1h-4q0 4.6 2 7.5zm-1.2-5.1q-.1-9.4-1-15l-4 .5q.9 5.3 1 14.5zm-2.5-12.8 4.4-1-.9-4-4.4 1zm2-2.7q.3 2.7.5 7.1l4-.1-.6-7.5zm.5 7.1q.3 4.5.2 8.2h4q0-3.8-.2-8.4zm.2 8.2q0 1.4.4 2.6l3.8-1.2q-.1-.2-.2-1.4zm.4 2.6q.4 1.4 1.7 2.1l1.9-3.5.1.1zm1.7 2.1q1.3.5 2.5.5v-4h-.6zm2.5.5h.2v-4h-.2zm-1.8-1.8.3 2.7 4-.4-.3-2.7zm.3 2.3-.3 2.7 4 .4.3-2.7zm1.7.9h-.2v4h.2zm-.4-3.4v-2h-2v2zm5.5-.4-.5-2zm2.4-1 1.3 1.5 1-1-.5-1.2zm-6.7-7.8-2-.2-.1 1 .8.8zm.4-4.6-.7-1.8-1.2.4v1.2zm12-5 1.9-.6-.7-2-2 .8zm1.4 4.3.8 1.8 1.7-.7-.6-1.8zm-9 3.8-.7-1.8-3 1.2 2.4 2zm3.8 4.3-1.6 1.2zm1.8 6.4-2-.5zM197.6 45h-2v2h2zm0-3.4h1.2v-4h-1.2zm1.2 0q2.7 0 4.7-.4l-.9-4q-1.4.4-3.8.4zm4.7-.4a7 7 0 0 0 3.3-1.5l-2.7-2.9-.3.2-1.2.3zm3.8-3.7q-1.6-4.2-7.3-8.6l-2.5 3q5.2 4.5 6.1 7zm-6.5-6.9.4-4.6-4-.4-.4 4.6zm-.8-3 12-5-1.6-3.6-12 5zm9.3-6.1 1.4 4.2 3.8-1.3-1.4-4.2zm2.5 1.8-9 3.8 1.6 3.6 9-3.8zm-9.5 7 3.5 4L209 32a32 32 0 0 0-4-4.6zm3.5 4a7 7 0 0 1 1.5 4.1h4q0-3.4-2.3-6.4zm1.5 4.1v.7l3.8 1q.2-.9.2-1.7zm0 .8q-.4 1.6-2.3 2.7l1.7 3.6q3.6-1.8 4.5-5.5zm-2.3 2.7q-2.4 1-6.2 1.1v4q4.6 0 7.9-1.5zm-6.2 1.1h-1.2v4h1.2zm.8 2v-5.4h-4V45zm28.8-2.1 1.6-1.2-.8-1.1-1.4.4zm-8.6-.8-1.3 1.5zm-1.9-5-2-.3v.1zm2.4-4.3-1.3-1.5zm5.2-3.1.7 1.8 1.4-.5-.2-1.6zm-.3-2-.4-1.9-1.8.4.2 1.8zm4.1-.8 2-.2-.2-2.2-2.2.4zm.5 4 2-.2zm.6 5.1 2-.3zm.4 2.4-1.9.6v.1zm.8 1-1 1.7zm2 .2 2-.2-.1-1.8h-1.8zm.4 2.7 2 .2v-.4zm-.3 2.7v2h1.8l.2-1.8zm-11.2-6.8-1 1.7zm4.1 0 .6 2 1.8-.6-.4-1.8zm-.2-1.5 2-.2zm-.3-2.4 2-.2-.4-2.4-2.3.7zm-3 1.4 1 1.7zm10 7.3q-2.3 0-3-1.3l-3.3 2.4q2.3 3 6.3 2.9zm-5.3-2q-1.7.5-3.2.5v4q2.3 0 4.4-.7zm-3.2.5q-2.4 0-3.6-1l-2.4 3.1a10 10 0 0 0 6 1.9zm-3.6-1a3 3 0 0 1-1.1-2.4h-4q0 3.4 2.6 5.5zm-1.1-2.4v-.8l-4-.4v1.2zm0-.7q.3-1.8 1.7-3.1l-2.6-3a9 9 0 0 0-3 5.5zm1.7-3.1q1.8-1.5 4.6-2.8l-1.5-3.6q-3.4 1.3-5.7 3.4zm5.8-4.9-.2-2-4 .6.3 2zm-1.8.3 4.1-.9-.8-3.9-4.1.9zm1.7-2.6.5 4.1 4-.5-.5-4zm.5 4 .6 5.2 4-.6q-.3-1.1-.6-5zm.6 5.2.5 2.7 3.8-1.3-.4-2zm.6 2.8q.4 1.2 1.7 2l1.8-3.5q.2 0 .3.2l-.1-.2zm1.7 2q1.1.5 2.4.5v-4h-.5q-.2 0 0 0zm2.4.5h.6v-4h-.6zm-1.4-1.8.3 2.7 4-.4-.3-2.7zm.3 2.3-.3 2.7 4 .4.3-2.7zm1.7.9h-.6v4h.6zm-14-5.8c0 1.4 1 2.2 1.8 2.7l2-3.5q0 0 0 .1l.2.3v.4zm1.9 2.7q1.3.7 2.8.6v-4l-1-.1zm2.8.6q1.3 0 2.8-.4l-1-3.8-1.8.2zm4.2-2.7-.2-1.3-4 .5.3 1.6zm-.2-1.3L228 34l-4 .5.4 2.4zm-3-4q-1.8.6-3.4 1.5l2 3.4 2.7-1.2zM222 34l-1.4 1.1a3 3 0 0 0-.9 2h4l-.1.7v-.1q.3 0 .5-.3zm11.3 5.6v-2h-2v2zm5.2-4.5-2 .7zm-1-2.7-1-1.8-1.7 1 .8 1.7zm3.7-2 1.8-1-1-1.8-1.8 1zm1.2 3.6-1.9.5zm-1.4 9.2 1.3 1.6zm-7.7 1.8h-2v2h2zm1.7-18.8-1.4-1.5-1.4 1.5 1.4 1.4zm.8-.8 1.4 1.4zm2.4-2.4 1.4-1.4-1.3-1.4-1.5 1.3zm3.2 3.2 1.4 1.4 1.4-1.4-1.4-1.5zm-1 1-1.5-1.4zm-2.2 2.1-1.4 1.4 1.4 1.4 1.4-1.4zm-4.9 12.3h1.7v-4h-1.7zm1.7 0a10 10 0 0 0 4-.6 4 4 0 0 0 1.5-1.2q.7-1 .7-2h-4l.1-.4q.2-.1 0 0-.4.1-2.3.2zm6.2-3.8-.3-1.5-.6-1.8-3.7 1.3.6 2zm-.8-3.3-1.2-3-3.6 1.8 1 2.5zm-2-.4 3.7-2-1.9-3.5-3.7 2zm1-2.9 1.1 3.3 3.9-1-1.4-4zm1.1 3.3q.6 2.1.6 3.5h4q0-2.1-.8-4.6zm.6 3.5q0 2.8-1.4 3.7l2.6 3q2.9-2.5 2.8-6.7zm-1.4 3.7Q238.5 43 235 43v4a11 11 0 0 0 7.3-2.2zM235 43h-1.7v4h1.7zm.3 2v-5.4h-4V45zm1.1-17.4q0 0 0-.1h.1q0-.2 0 0v-.1h.1q0 0 0-.1h.1v-.1h.1l.1-.1q0 0 0-.1h.1q.1-.1 0-.1h.1q0-.2 0 0 0-.1 0 0v-.1h.1l-1.4-1.4-1.4-1.5q0 0 0 .1h-.1l-.1.1v.1h-.1v.1q-.1 0 0 0h-.1q0 0 0 .1h-.1v.1h-.1q0 0 0 .1h-.1q0 0 0 .1h-.1zm.8-.8 2.4-2.3-2.8-3-2.4 2.4zm-.4-2.4 3.2 3.2 2.8-2.9-3.2-3.1zm3.2.3-1.1 1 2.8 3 1-1.1zm-1.1 1-.5.6-.1.1-.1.1-.1.1-.1.1-.1.1-.1.1-.1.1-.2.2h-.1v.1q-.2.1 0 0-.1 0-.1 0v.1l-.1.1-.1.1-.1.1-.1.1-.1.1 1.4 1.4 1.4 1.4q.1 0 .1 0v-.1q.1 0 0 0h.1v-.1q.1 0 .1 0 0-.2 0 0v-.1h.1v-.1q.1 0 .1 0 0-.1 0-.1.1 0 .1 0V30h.1V30h.1q0 0 0-.1h.1q0-.1 0-.1h.1v-.1h.1q0-.2 0 0v-.1h.1v-.1h.1q0-.1 0-.1.1 0 0 0h.1l.1-.2h.1l.2-.2q0-.1 0-.1h.1q0-.1 0-.1.2 0 0 0h.1q0-.1 0-.1.2 0 0 0h.1zm.7 2.2-3.2-3.2-2.8 2.9 3.2 3.1zm6 21.8-.5-2-2.2.6.7 2.1zm6.6-2-.8-1.8zm3.3-2.7 1.8 1 1.5-2.9h-3.2zm-5.7-.7-.6 1.9zm-3-2.7-1.8.8zm.3-6.7 1.8.8zm2.2-3.2L248 30zm6.4 0-1.3 1.5zM258 35l-1.9.8zm1.3 4.6-2 .3.3 1.7h1.7zm1.4 0 2-.2-.2-1.8h-1.8zm.3 2.7 2 .2v-.4zm-.3 2.7v2h1.8l.2-1.8zm-1.5 0v-2h-1.6l-.4 1.5zm-4 6-1.3-1.5zm-8.1 3.4-1.9.7.6 1.5 1.7-.3zm2.8-15.8-1.6 1v.2zm1.9.7-.3 2zm3.7.3v2l2.6.1-.7-2.6zm-1.4-3.2-1.6 1.2zm-3.2-.8 1.2 1.5zm-.9 1-1.8-.8zm-4.2 15q4.5-.8 7.2-2.1l-1.7-3.6q-2.1 1-6.3 1.9zm7.2-2q2.8-1.4 4.2-3.6l-3.5-2q-.4.9-2.4 1.9zm2.5-6.6q-3.4 0-5.2-.6l-1.2 3.8q2.6.8 6.3.8zm-5.1-.6q-1.4-.5-1.9-1.6l-3.6 1.7q1.3 2.7 4.2 3.7zm-1.9-1.6a5 5 0 0 1-.4-2h-4a9 9 0 0 0 .8 3.6zm-.4-2q0-1.5.7-3.1l-3.7-1.6q-1 2.2-1 4.7zm.7-3.2q.7-1.5 1.7-2.4l-2.6-3q-1.8 1.5-2.8 3.9zm1.7-2.4q1-.9 2-.8v-4q-2.6 0-4.6 1.7zm2-.8q.8 0 1.8.8l2.6-3a7 7 0 0 0-4.4-1.8zm1.8.8q1 .9 1.8 2.6l3.7-1.6q-1-2.5-3-4zm1.9 2.6a14 14 0 0 1 1.1 4.1l4-.6a18 18 0 0 0-1.5-5.2zm3.1 5.8h1.4v-4h-1.4zm-.6-1.8.3 2.7 4-.4-.3-2.7zm.3 2.3-.3 2.7 4 .4.3-2.7zm1.7.9h-1.5v4h1.5zm-3.5 1.5q-.6 3-3.3 5l2.4 3.1q3.8-2.7 4.8-7.1zm-3.3 5a16 16 0 0 1-7.2 3l.8 3.8q5.2-.9 8.8-3.7zm-5 4.2-1.6-4.6-3.8 1.3 1.7 4.7zm-.5-13.9q1.3 1.4 3 1.5l.7-4-.7-.1q0 0 0 .1zm3 1.5q1.7.3 4 .3l.2-4-3.5-.2zm6-2.2q-.5-2.2-1.7-3.9l-3.2 2.4q.7.9 1 2.5zm-1.7-3.9c-.9-1-2-2-3.7-2v4l.5.4zm-3.7-2q-1.4 0-2.4.8l2.5 3.1zm-2.4.8q-.8.7-1.4 1.8l3.6 1.7.3-.4zm-1.4 1.8q-.5 1-.5 2h4l.2-.3zm-.5 2q0 1 .6 1.9l3.3-2.2.1.3zm12.6 1.8v-2h-2v2zm4.7-3 1.8 1zm3.2-4.4 1.4 1.4zm6.6-.3-1.4 1.5zm2.2 3.8 1.9-.7zm1.3 3.1-1.8 1zm1.5.8 2-.2-.2-1.8h-1.8zm.2 2.7 2 .2v-.4zM280 45v2h1.8l.1-1.8zm-2.2-.4-1 1.7zm-1.6-1.4 1.6-1.2-1.8-2.4-1.5 2.6zm-1.4 1.5-1-1.8zm-8.4-2 1-1.8-1.4-.9-1.1 1.3zm-2.3 1.7.7 1.9zm-3.6.6h-2v2h2zm14-4.5.7 2 1.6-.6-.2-1.6zm-1-3.4-1.7.9zm-4.8 1.3-1.8-1-.8 1.5 1.4 1zm3 1.6-.6 2zm-11.2 1.6h.7v-4h-.7zm.7 0c2.6 0 4.5-1.7 5.8-4l-3.5-2c-1 1.7-1.8 2-2.3 2zm5.8-4q1.5-2.8 2.8-4l-2.8-2.8a21 21 0 0 0-3.5 4.8zm2.8-4q1.2-1 1.9-.9v-4q-2.7.1-4.7 2zm1.9-.9q1.3 0 1.9.7l2.8-2.9a6 6 0 0 0-4.7-1.8zm1.9.7q.8.7 1.7 3L279 35q-1-2.8-2.8-4.5zm1.7 3q.8 2.3 1.4 3.4l3.5-2L279 35zm1.4 3.5c.5.7 1.4 1.7 2.8 1.7v-4l.7.2zm2.8 1.7h.5v-4h-.5zm-1.5-1.8.3 2.7 4-.4-.4-2.7zm.3 2.3-.3 2.7 4 .4.2-2.7zm1.7.9h-.5v4h.5zm-.5 0q-.3 0-.8-.2l-1.8 3.5q1.2.7 2.6.7zm-.7-.2-1-.8-3.1 2.4a7 7 0 0 0 2.1 1.9zm-4.3-.6q-.3.6-.7.7l2 3.5q1.5-.8 2.2-2.2zm-.7.8-.8.2v4q1.6 0 2.8-.8zm-.8.2q-1.5.1-5.5-2.3l-2.1 3.4q4.2 2.8 7.6 2.9zm-8.1-1.9q-.7.9-1.7 1.3l1.7 3.7a9 9 0 0 0 3-2.4zm-1.6 1.3q-1 .4-2.2.4v4q2 0 3.7-.7zm-2.2.4h-.6v4h.6zm1.4 2v-5.4h-4V45zm14-4.7a13 13 0 0 0-1.1-4l-3.6 1.7q.6 1.3.8 2.8zm-1.1-4c-.7-1.5-2-2.8-3.9-2.8v4l.3.5zm-3.9-2.8a4 4 0 0 0-2.7 1.3q-1 1-1.9 2.6l3.6 2q.6-1.4 1.1-1.8.4-.3 0-.1zm-4 6.5a13 13 0 0 0 3.6 2l1.3-3.9a9 9 0 0 1-2.5-1.3zm3.6 2q1.6.5 3.1.6v-4q-.5 0-1.8-.5zm3.1.6q.3 0 1-.2l-1.2-3.8h.3-.1zm5.4-3v-2h-2v2zm5.1-4.5-1.8.7zm-1-2.7-1-1.8-1.6 1 .8 1.7zm3.8-2 1.8-1-1-1.8-1.8 1zm1.2 3.6-2 .5zm-1.4 9.2 1.3 1.6zm-7.7 1.8h-2v2h2zm1.7-18.8-1.4-1.5-1.4 1.5 1.4 1.4zm.8-.8 1.4 1.4zm2.4-2.4 1.4-1.4-1.4-1.4-1.4 1.3zm3.2 3.2 1.4 1.4 1.4-1.4-1.4-1.5zm-1.1 1-1.4-1.4zm-2.1 2.1-1.4 1.4 1.4 1.4 1.4-1.4zm-4.9 12.3h1.7v-4h-1.7zm1.7 0a10 10 0 0 0 4-.6 4 4 0 0 0 1.5-1.2q.7-1 .7-2h-4l.1-.4q.2-.1 0 0-.4.1-2.3.2zm6.2-3.8-.3-1.5-.6-1.8-3.7 1.3.6 2zm-.9-3.3-1-3-3.7 1.8 1 2.5zm-2-.4 3.8-2-1.9-3.5-3.7 2zm1-2.9q.6 1 1.2 3.3l3.8-1q-.6-2.5-1.3-4zm1.2 3.3q.6 2.1.6 3.5h4q0-2.1-.8-4.6zm.6 3.5q-.1 2.8-1.4 3.7l2.6 3q2.9-2.5 2.8-6.7zm-1.4 3.7q-1.2 1.3-4.7 1.3v4a11 11 0 0 0 7.3-2.2zm-4.7 1.3h-1.7v4h1.7zm.3 2v-5.4h-4V45zm1.1-17.4h.1q0-.2 0 0v-.1h.1v-.1h.1v-.1h.1V27h.1V27h.1q0-.1 0-.1h.1q0-.2 0 0 0-.1 0 0v-.1h.1l-1.4-1.4-1.4-1.5-.1.1-.1.1q0 0 0 .1h-.1v.1h-.1q0 0 0 .1h-.1v.1h-.1l-.1.1q0 0 0 .1h-.1zm.8-.8 2.3-2.3-2.7-3-2.4 2.4zm-.4-2.4 3.1 3.2 2.9-2.9-3.2-3.1zm3.1.3-1 1 2.8 3 1-1.1zm-1 1-.5.6h-.1v.1l-.1.1-.1.1-.1.1-.1.1-.1.1-.1.1h-.1q0 .1 0 .2h-.2v.1q-.1.1 0 0h-.1v.1l-.1.1-.1.1-.1.1h-.1v.1l-.1.1 1.4 1.4 1.4 1.4q.1 0 .1 0v-.1h.1v-.1q0 0 .1 0 0-.2 0 0v-.1h.1v-.1q.1 0 .1 0 0-.1 0-.1.1 0 .1 0V30h.1V30q0 0 .1 0v-.1h.1q0-.1 0-.1h.1v-.1h.1q0-.2 0 0v-.1l.1-.1h.1v-.1q.2 0 0 0h.1l.1-.2h.1l.1-.2q.2 0 0 0h.1q0-.1 0-.1h.1q0-.1 0-.1h.1q0-.1 0-.1h.1zm.7 2.2-3.2-3.2-2.8 2.9 3.2 3.1z" mask="url(#a)"/></svg>